<?xml version="1.0" encoding="UTF-8" standalone="no"?>
<!DOCTYPE svg PUBLIC "-//W3C//DTD SVG 1.1//EN"
 "http://www.w3.org/Graphics/SVG/1.1/DTD/svg11.dtd">
<!-- Generated by graphviz version 2.43.0 (0)
 -->
<!-- Title: vout_pwm Pages: 1 -->
<svg width="3345pt" height="492pt"
 viewBox="0.00 0.00 3345.07 492.00" xmlns="http://www.w3.org/2000/svg" xmlns:xlink="http://www.w3.org/1999/xlink">
<g id="graph0" class="graph" transform="scale(1 1) rotate(0) translate(4 488)">
<title>vout_pwm</title>
<polygon fill="white" stroke="transparent" points="-4,4 -4,-488 3341.07,-488 3341.07,4 -4,4"/>
<!-- n15 -->
<g id="node1" class="node">
<title>n15</title>
<polygon fill="none" stroke="black" points="541.78,-341.54 541.78,-356.46 525.96,-367 503.6,-367 487.78,-356.46 487.78,-341.54 503.6,-331 525.96,-331 541.78,-341.54"/>
<text text-anchor="middle" x="514.78" y="-345.3" font-family="Times,serif" font-size="14.00">clk</text>
</g>
<!-- c33 -->
<g id="node12" class="node">
<title>c33</title>
<polygon fill="none" stroke="black" points="2854.2,-176 2854.2,-268 2999.2,-268 2999.2,-176 2854.2,-176"/>
<text text-anchor="middle" x="2882.2" y="-252.8" font-family="Times,serif" font-size="14.00">CLK</text>
<polyline fill="none" stroke="black" points="2854.2,-245 2910.2,-245 "/>
<text text-anchor="middle" x="2882.2" y="-229.8" font-family="Times,serif" font-size="14.00">D</text>
<polyline fill="none" stroke="black" points="2854.2,-222 2910.2,-222 "/>
<text text-anchor="middle" x="2882.2" y="-206.8" font-family="Times,serif" font-size="14.00">EN</text>
<polyline fill="none" stroke="black" points="2854.2,-199 2910.2,-199 "/>
<text text-anchor="middle" x="2882.2" y="-183.8" font-family="Times,serif" font-size="14.00">SRST</text>
<polyline fill="none" stroke="black" points="2910.2,-176 2910.2,-268 "/>
<text text-anchor="middle" x="2940.7" y="-225.8" font-family="Times,serif" font-size="14.00">$40</text>
<text text-anchor="middle" x="2940.7" y="-210.8" font-family="Times,serif" font-size="14.00">$sdffe</text>
<polyline fill="none" stroke="black" points="2971.2,-176 2971.2,-268 "/>
<text text-anchor="middle" x="2985.2" y="-218.3" font-family="Times,serif" font-size="14.00">Q</text>
</g>
<!-- n15&#45;&gt;c33 -->
<g id="edge12" class="edge">
<title>n15:e&#45;&gt;c33:w</title>
<path fill="none" stroke="#d95f02" d="M542.78,-349C637.36,-349 612.7,-484 707.28,-484 707.28,-484 707.28,-484 2738.7,-484 2848.25,-484 2747.92,-271.4 2843.94,-257.69"/>
<polygon fill="#d95f02" stroke="#d95f02" points="2844.46,-261.17 2854.2,-257 2843.99,-254.18 2844.46,-261.17"/>
</g>
<!-- c34 -->
<g id="node13" class="node">
<title>c34</title>
<polygon fill="none" stroke="black" points="1406.34,-251 1406.34,-343 1558.34,-343 1558.34,-251 1406.34,-251"/>
<text text-anchor="middle" x="1434.34" y="-327.8" font-family="Times,serif" font-size="14.00">CLK</text>
<polyline fill="none" stroke="black" points="1406.34,-320 1462.34,-320 "/>
<text text-anchor="middle" x="1434.34" y="-304.8" font-family="Times,serif" font-size="14.00">D</text>
<polyline fill="none" stroke="black" points="1406.34,-297 1462.34,-297 "/>
<text text-anchor="middle" x="1434.34" y="-281.8" font-family="Times,serif" font-size="14.00">EN</text>
<polyline fill="none" stroke="black" points="1406.34,-274 1462.34,-274 "/>
<text text-anchor="middle" x="1434.34" y="-258.8" font-family="Times,serif" font-size="14.00">SRST</text>
<polyline fill="none" stroke="black" points="1462.34,-251 1462.34,-343 "/>
<text text-anchor="middle" x="1496.34" y="-300.8" font-family="Times,serif" font-size="14.00">$48</text>
<text text-anchor="middle" x="1496.34" y="-285.8" font-family="Times,serif" font-size="14.00">$sdffce</text>
<polyline fill="none" stroke="black" points="1530.34,-251 1530.34,-343 "/>
<text text-anchor="middle" x="1544.34" y="-293.3" font-family="Times,serif" font-size="14.00">Q</text>
</g>
<!-- n15&#45;&gt;c34 -->
<g id="edge13" class="edge">
<title>n15:e&#45;&gt;c34:w</title>
<path fill="none" stroke="#d95f02" d="M542.78,-349C615.9,-349 634.16,-347 707.28,-347 707.28,-347 707.28,-347 1301.34,-347 1344.8,-347 1357.31,-334.25 1395.93,-332.26"/>
<polygon fill="#d95f02" stroke="#d95f02" points="1396.44,-335.75 1406.34,-332 1396.26,-328.75 1396.44,-335.75"/>
</g>
<!-- c43 -->
<g id="node28" class="node">
<title>c43</title>
<polygon fill="none" stroke="black" points="648.28,-269 648.28,-315 768.28,-315 768.28,-269 648.28,-269"/>
<text text-anchor="middle" x="671.78" y="-299.8" font-family="Times,serif" font-size="14.00">CLK</text>
<polyline fill="none" stroke="black" points="648.28,-292 695.28,-292 "/>
<text text-anchor="middle" x="671.78" y="-276.8" font-family="Times,serif" font-size="14.00">D</text>
<polyline fill="none" stroke="black" points="695.28,-269 695.28,-315 "/>
<text text-anchor="middle" x="717.78" y="-295.8" font-family="Times,serif" font-size="14.00">$35</text>
<text text-anchor="middle" x="717.78" y="-280.8" font-family="Times,serif" font-size="14.00">$dff</text>
<polyline fill="none" stroke="black" points="740.28,-269 740.28,-315 "/>
<text text-anchor="middle" x="754.28" y="-288.3" font-family="Times,serif" font-size="14.00">Q</text>
</g>
<!-- n15&#45;&gt;c43 -->
<g id="edge14" class="edge">
<title>n15:e&#45;&gt;c43:w</title>
<path fill="none" stroke="#d95f02" d="M542.78,-349C565.28,-349 610.41,-313.93 638.22,-305.71"/>
<polygon fill="#d95f02" stroke="#d95f02" points="639.01,-309.13 648.28,-304 637.83,-302.22 639.01,-309.13"/>
</g>
<!-- c44 -->
<g id="node29" class="node">
<title>c44</title>
<polygon fill="none" stroke="black" points="648.28,-197 648.28,-243 768.28,-243 768.28,-197 648.28,-197"/>
<text text-anchor="middle" x="671.78" y="-227.8" font-family="Times,serif" font-size="14.00">CLK</text>
<polyline fill="none" stroke="black" points="648.28,-220 695.28,-220 "/>
<text text-anchor="middle" x="671.78" y="-204.8" font-family="Times,serif" font-size="14.00">D</text>
<polyline fill="none" stroke="black" points="695.28,-197 695.28,-243 "/>
<text text-anchor="middle" x="717.78" y="-223.8" font-family="Times,serif" font-size="14.00">$37</text>
<text text-anchor="middle" x="717.78" y="-208.8" font-family="Times,serif" font-size="14.00">$dff</text>
<polyline fill="none" stroke="black" points="740.28,-197 740.28,-243 "/>
<text text-anchor="middle" x="754.28" y="-216.3" font-family="Times,serif" font-size="14.00">Q</text>
</g>
<!-- n15&#45;&gt;c44 -->
<g id="edge15" class="edge">
<title>n15:e&#45;&gt;c44:w</title>
<path fill="none" stroke="#d95f02" d="M542.78,-349C581.16,-349 563.71,-305.29 587.28,-275 605.42,-251.68 613.32,-235.79 638.27,-232.59"/>
<polygon fill="#d95f02" stroke="#d95f02" points="638.5,-236.09 648.28,-232 638.09,-229.1 638.5,-236.09"/>
</g>
<!-- n16 -->
<g id="node2" class="node">
<title>n16</title>
<polygon fill="none" stroke="black" points="1702.6,-312 1637.58,-294 1702.6,-276 1767.63,-294 1702.6,-312"/>
<text text-anchor="middle" x="1702.6" y="-290.3" font-family="Times,serif" font-size="14.00">counter</text>
</g>
<!-- c27 -->
<g id="node11" class="node">
<title>c27</title>
<polygon fill="none" stroke="black" points="1846.86,-238 1846.86,-284 1951.86,-284 1951.86,-238 1846.86,-238"/>
<text text-anchor="middle" x="1860.36" y="-268.8" font-family="Times,serif" font-size="14.00">A</text>
<polyline fill="none" stroke="black" points="1846.86,-261 1873.86,-261 "/>
<text text-anchor="middle" x="1860.36" y="-245.8" font-family="Times,serif" font-size="14.00">B</text>
<polyline fill="none" stroke="black" points="1873.86,-238 1873.86,-284 "/>
<text text-anchor="middle" x="1899.86" y="-264.8" font-family="Times,serif" font-size="14.00">$5</text>
<text text-anchor="middle" x="1899.86" y="-249.8" font-family="Times,serif" font-size="14.00">$add</text>
<polyline fill="none" stroke="black" points="1925.86,-238 1925.86,-284 "/>
<text text-anchor="middle" x="1938.86" y="-257.3" font-family="Times,serif" font-size="14.00">Y</text>
</g>
<!-- n16&#45;&gt;c27 -->
<g id="edge17" class="edge">
<title>n16:e&#45;&gt;c27:w</title>
<path fill="none" stroke="#e6ab02" stroke-width="3" d="M1767.86,-294C1778.28,-294 1776.26,-283.02 1785.86,-279 1807.56,-269.92 1816.96,-272.05 1836.65,-272.8"/>
<polygon fill="#e6ab02" stroke="#e6ab02" stroke-width="3" points="1836.8,-276.3 1846.86,-273 1836.94,-269.3 1836.8,-276.3"/>
<text text-anchor="middle" x="1807.36" y="-282.8" font-family="Times,serif" font-size="14.00" fill="#e6ab02">&lt;32&gt;</text>
</g>
<!-- c38 -->
<g id="node22" class="node">
<title>c38</title>
<polygon fill="none" stroke="black" points="1851.36,-96 1851.36,-142 1947.36,-142 1947.36,-96 1851.36,-96"/>
<text text-anchor="middle" x="1864.86" y="-126.8" font-family="Times,serif" font-size="14.00">A</text>
<polyline fill="none" stroke="black" points="1851.36,-119 1878.36,-119 "/>
<text text-anchor="middle" x="1864.86" y="-103.8" font-family="Times,serif" font-size="14.00">B</text>
<polyline fill="none" stroke="black" points="1878.36,-96 1878.36,-142 "/>
<text text-anchor="middle" x="1899.86" y="-122.8" font-family="Times,serif" font-size="14.00">$6</text>
<text text-anchor="middle" x="1899.86" y="-107.8" font-family="Times,serif" font-size="14.00">$eq</text>
<polyline fill="none" stroke="black" points="1921.36,-96 1921.36,-142 "/>
<text text-anchor="middle" x="1934.36" y="-115.3" font-family="Times,serif" font-size="14.00">Y</text>
</g>
<!-- n16&#45;&gt;c38 -->
<g id="edge18" class="edge">
<title>n16:e&#45;&gt;c38:w</title>
<path fill="none" stroke="#e6ab02" stroke-width="3" d="M1767.86,-294C1801.71,-294 1771.67,-250.73 1785.86,-220 1804.84,-178.95 1802.09,-137.63 1840.34,-131.72"/>
<polygon fill="#e6ab02" stroke="#e6ab02" stroke-width="3" points="1840.64,-135.21 1850.36,-131 1840.14,-128.23 1840.64,-135.21"/>
<text text-anchor="middle" x="1807.36" y="-223.8" font-family="Times,serif" font-size="14.00" fill="#e6ab02">&lt;32&gt;</text>
</g>
<!-- c39 -->
<g id="node23" class="node">
<title>c39</title>
<polygon fill="none" stroke="black" points="1851.36,-303 1851.36,-349 1947.36,-349 1947.36,-303 1851.36,-303"/>
<text text-anchor="middle" x="1864.86" y="-333.8" font-family="Times,serif" font-size="14.00">A</text>
<polyline fill="none" stroke="black" points="1851.36,-326 1878.36,-326 "/>
<text text-anchor="middle" x="1864.86" y="-310.8" font-family="Times,serif" font-size="14.00">B</text>
<polyline fill="none" stroke="black" points="1878.36,-303 1878.36,-349 "/>
<text text-anchor="middle" x="1899.86" y="-329.8" font-family="Times,serif" font-size="14.00">$8</text>
<text text-anchor="middle" x="1899.86" y="-314.8" font-family="Times,serif" font-size="14.00">$eq</text>
<polyline fill="none" stroke="black" points="1921.36,-303 1921.36,-349 "/>
<text text-anchor="middle" x="1934.36" y="-322.3" font-family="Times,serif" font-size="14.00">Y</text>
</g>
<!-- n16&#45;&gt;c39 -->
<g id="edge19" class="edge">
<title>n16:e&#45;&gt;c39:w</title>
<path fill="none" stroke="#e6ab02" stroke-width="3" d="M1767.86,-294C1805.69,-294 1808.58,-330.45 1840.12,-337"/>
<polygon fill="#e6ab02" stroke="#e6ab02" stroke-width="3" points="1840.07,-340.51 1850.36,-338 1840.75,-333.54 1840.07,-340.51"/>
<text text-anchor="middle" x="1807.36" y="-335.8" font-family="Times,serif" font-size="14.00" fill="#e6ab02">&lt;32&gt;</text>
</g>
<!-- n17 -->
<g id="node3" class="node">
<title>n17</title>
<polygon fill="none" stroke="black" points="1327.34,-212.54 1327.34,-227.46 1311.53,-238 1289.16,-238 1273.34,-227.46 1273.34,-212.54 1289.16,-202 1311.53,-202 1327.34,-212.54"/>
<text text-anchor="middle" x="1300.34" y="-216.3" font-family="Times,serif" font-size="14.00">dir</text>
</g>
<!-- n18 -->
<g id="node4" class="node">
<title>n18</title>
<polygon fill="none" stroke="black" points="920.81,-238 847.25,-220 920.81,-202 994.38,-220 920.81,-238"/>
<text text-anchor="middle" x="920.81" y="-216.3" font-family="Times,serif" font-size="14.00">direction</text>
</g>
<!-- x13 -->
<g id="node41" class="node">
<title>x13</title>
<path fill="none" stroke="black" d="M1169.84,-238C1169.84,-238 1139.84,-238 1139.84,-238 1133.84,-238 1127.84,-232 1127.84,-226 1127.84,-226 1127.84,-214 1127.84,-214 1127.84,-208 1133.84,-202 1139.84,-202 1139.84,-202 1169.84,-202 1169.84,-202 1175.84,-202 1181.84,-208 1181.84,-214 1181.84,-214 1181.84,-226 1181.84,-226 1181.84,-232 1175.84,-238 1169.84,-238"/>
<text text-anchor="middle" x="1154.84" y="-216.3" font-family="Times,serif" font-size="14.00">BUF</text>
</g>
<!-- n18&#45;&gt;x13 -->
<g id="edge22" class="edge">
<title>n18:e&#45;&gt;x13:w</title>
<path fill="none" stroke="#e6ab02" d="M994.34,-220C1049.67,-220 1066.01,-220 1116.61,-220"/>
<polygon fill="#e6ab02" stroke="#e6ab02" points="1116.84,-223.5 1126.84,-220 1116.84,-216.5 1116.84,-223.5"/>
</g>
<!-- n19 -->
<g id="node5" class="node">
<title>n19</title>
<polygon fill="none" stroke="black" points="2097.37,-192.54 2097.37,-207.46 2065.54,-218 2020.53,-218 1988.7,-207.46 1988.7,-192.54 2020.53,-182 2065.54,-182 2097.37,-192.54"/>
<text text-anchor="middle" x="2043.03" y="-196.3" font-family="Times,serif" font-size="14.00">disabled</text>
</g>
<!-- x1 -->
<g id="node16" class="node">
<title>x1</title>
<path fill="none" stroke="#666666" d="M2163.2,-93C2163.2,-93 2214.2,-93 2214.2,-93 2220.2,-93 2226.2,-99 2226.2,-105 2226.2,-105 2226.2,-127 2226.2,-127 2226.2,-133 2220.2,-139 2214.2,-139 2214.2,-139 2163.2,-139 2163.2,-139 2157.2,-139 2151.2,-133 2151.2,-127 2151.2,-127 2151.2,-105 2151.2,-105 2151.2,-99 2157.2,-93 2163.2,-93"/>
<text text-anchor="middle" x="2188.7" y="-123.8" font-family="Times,serif" font-size="14.00" fill="#666666">0:0 &#45; 1:1</text>
<polyline fill="none" stroke="#666666" points="2151.2,-116 2226.2,-116 "/>
<text text-anchor="middle" x="2188.7" y="-100.8" font-family="Times,serif" font-size="14.00" fill="#666666">0:0 &#45; 0:0</text>
</g>
<!-- n19&#45;&gt;x1 -->
<g id="edge24" class="edge">
<title>n19:e&#45;&gt;x1:w</title>
<path fill="none" stroke="#666666" d="M2097.2,-200C2141.84,-200 2107.79,-119.1 2139.52,-105.83"/>
<polygon fill="#666666" stroke="#666666" points="2140.48,-109.22 2149.7,-104 2139.24,-102.33 2140.48,-109.22"/>
</g>
<!-- c49 -->
<g id="node39" class="node">
<title>c49</title>
<polygon fill="none" stroke="black" points="2134.2,-261.5 2134.2,-330.5 2243.2,-330.5 2243.2,-261.5 2134.2,-261.5"/>
<text text-anchor="middle" x="2147.7" y="-315.3" font-family="Times,serif" font-size="14.00">A</text>
<polyline fill="none" stroke="black" points="2134.2,-307.5 2161.2,-307.5 "/>
<text text-anchor="middle" x="2147.7" y="-292.3" font-family="Times,serif" font-size="14.00">B</text>
<polyline fill="none" stroke="black" points="2134.2,-284.5 2161.2,-284.5 "/>
<text text-anchor="middle" x="2147.7" y="-269.3" font-family="Times,serif" font-size="14.00">S</text>
<polyline fill="none" stroke="black" points="2161.2,-261.5 2161.2,-330.5 "/>
<text text-anchor="middle" x="2189.2" y="-299.8" font-family="Times,serif" font-size="14.00">$29</text>
<text text-anchor="middle" x="2189.2" y="-284.8" font-family="Times,serif" font-size="14.00">$mux</text>
<polyline fill="none" stroke="black" points="2217.2,-261.5 2217.2,-330.5 "/>
<text text-anchor="middle" x="2230.2" y="-292.3" font-family="Times,serif" font-size="14.00">Y</text>
</g>
<!-- n19&#45;&gt;c49 -->
<g id="edge23" class="edge">
<title>n19:e&#45;&gt;c49:w</title>
<path fill="none" stroke="#666666" d="M2097.2,-200C2118.33,-200 2105.37,-225.3 2115.2,-244 2120.25,-253.59 2119.97,-264.03 2124.72,-269.39"/>
<polygon fill="#666666" stroke="#666666" points="2123.61,-272.71 2134.2,-273 2126.11,-266.17 2123.61,-272.71"/>
</g>
<!-- n20 -->
<g id="node6" class="node">
<title>n20</title>
<polygon fill="none" stroke="black" points="56.42,-271.54 56.42,-286.46 39.85,-297 16.43,-297 -0.14,-286.46 -0.14,-271.54 16.43,-261 39.85,-261 56.42,-271.54"/>
<text text-anchor="middle" x="28.14" y="-275.3" font-family="Times,serif" font-size="14.00">dty</text>
</g>
<!-- c40 -->
<g id="node25" class="node">
<title>c40</title>
<polygon fill="none" stroke="black" points="135.28,-204 135.28,-250 229.28,-250 229.28,-204 135.28,-204"/>
<text text-anchor="middle" x="148.78" y="-234.8" font-family="Times,serif" font-size="14.00">A</text>
<polyline fill="none" stroke="black" points="135.28,-227 162.28,-227 "/>
<text text-anchor="middle" x="148.78" y="-211.8" font-family="Times,serif" font-size="14.00">B</text>
<polyline fill="none" stroke="black" points="162.28,-204 162.28,-250 "/>
<text text-anchor="middle" x="182.78" y="-230.8" font-family="Times,serif" font-size="14.00">$2</text>
<text text-anchor="middle" x="182.78" y="-215.8" font-family="Times,serif" font-size="14.00">$gt</text>
<polyline fill="none" stroke="black" points="203.28,-204 203.28,-250 "/>
<text text-anchor="middle" x="216.28" y="-223.3" font-family="Times,serif" font-size="14.00">Y</text>
</g>
<!-- n20&#45;&gt;c40 -->
<g id="edge26" class="edge">
<title>n20:e&#45;&gt;c40:w</title>
<path fill="none" stroke="#7570b3" stroke-width="3" d="M56.28,-279C71.45,-279 61.73,-258.53 74.28,-250 94.04,-236.57 104.68,-238.16 125.13,-238.82"/>
<polygon fill="#7570b3" stroke="#7570b3" stroke-width="3" points="125.22,-242.32 135.28,-239 125.34,-235.32 125.22,-242.32"/>
<text text-anchor="middle" x="95.78" y="-253.8" font-family="Times,serif" font-size="14.00" fill="#7570b3">&lt;32&gt;</text>
</g>
<!-- c42 -->
<g id="node27" class="node">
<title>c42</title>
<polygon fill="none" stroke="black" points="247.28,-303 247.28,-341 351.28,-341 351.28,-303 247.28,-303"/>
<text text-anchor="middle" x="260.28" y="-318.3" font-family="Times,serif" font-size="14.00">A</text>
<polyline fill="none" stroke="black" points="273.28,-303 273.28,-341 "/>
<text text-anchor="middle" x="299.28" y="-325.8" font-family="Times,serif" font-size="14.00">$3</text>
<text text-anchor="middle" x="299.28" y="-310.8" font-family="Times,serif" font-size="14.00">$neg</text>
<polyline fill="none" stroke="black" points="325.28,-303 325.28,-341 "/>
<text text-anchor="middle" x="338.28" y="-318.3" font-family="Times,serif" font-size="14.00">Y</text>
</g>
<!-- n20&#45;&gt;c42 -->
<g id="edge27" class="edge">
<title>n20:e&#45;&gt;c42:w</title>
<path fill="none" stroke="#7570b3" stroke-width="3" d="M56.28,-279C66.41,-279 65,-288.93 74.28,-293 142.46,-322.92 167.1,-322.14 237.09,-322.01"/>
<polygon fill="#7570b3" stroke="#7570b3" stroke-width="3" points="237.28,-325.51 247.28,-322 237.28,-318.51 237.28,-325.51"/>
<text text-anchor="middle" x="95.78" y="-312.8" font-family="Times,serif" font-size="14.00" fill="#7570b3">&lt;32&gt;</text>
</g>
<!-- c47 -->
<g id="node33" class="node">
<title>c47</title>
<polygon fill="none" stroke="black" points="460.28,-243.5 460.28,-312.5 569.28,-312.5 569.28,-243.5 460.28,-243.5"/>
<text text-anchor="middle" x="473.78" y="-297.3" font-family="Times,serif" font-size="14.00">A</text>
<polyline fill="none" stroke="black" points="460.28,-289.5 487.28,-289.5 "/>
<text text-anchor="middle" x="473.78" y="-274.3" font-family="Times,serif" font-size="14.00">B</text>
<polyline fill="none" stroke="black" points="460.28,-266.5 487.28,-266.5 "/>
<text text-anchor="middle" x="473.78" y="-251.3" font-family="Times,serif" font-size="14.00">S</text>
<polyline fill="none" stroke="black" points="487.28,-243.5 487.28,-312.5 "/>
<text text-anchor="middle" x="515.28" y="-281.8" font-family="Times,serif" font-size="14.00">$17</text>
<text text-anchor="middle" x="515.28" y="-266.8" font-family="Times,serif" font-size="14.00">$mux</text>
<polyline fill="none" stroke="black" points="543.28,-243.5 543.28,-312.5 "/>
<text text-anchor="middle" x="556.28" y="-274.3" font-family="Times,serif" font-size="14.00">Y</text>
</g>
<!-- n20&#45;&gt;c47 -->
<g id="edge28" class="edge">
<title>n20:e&#45;&gt;c47:w</title>
<path fill="none" stroke="#7570b3" stroke-width="3" d="M56.28,-279C141.17,-279 162.39,-278.22 247.28,-278 338.43,-277.76 363.76,-277.98 450.03,-278"/>
<polygon fill="#7570b3" stroke="#7570b3" stroke-width="3" points="450.28,-281.5 460.28,-278 450.28,-274.5 450.28,-281.5"/>
<text text-anchor="middle" x="299.28" y="-281.8" font-family="Times,serif" font-size="14.00" fill="#7570b3">&lt;32&gt;</text>
</g>
<!-- n21 -->
<g id="node7" class="node">
<title>n21</title>
<polygon fill="none" stroke="black" points="920.81,-310 859.98,-292 920.81,-274 981.64,-292 920.81,-310"/>
<text text-anchor="middle" x="920.81" y="-288.3" font-family="Times,serif" font-size="14.00">dtyAbs</text>
</g>
<!-- n21&#45;&gt;c39 -->
<g id="edge30" class="edge">
<title>n21:e&#45;&gt;c39:w</title>
<path fill="none" stroke="#d95f02" stroke-width="3" d="M982.81,-292C998.18,-292 999.11,-302.18 1012.34,-310 1074.73,-346.86 1081.38,-391 1153.84,-391 1153.84,-391 1153.84,-391 1703.6,-391 1761.65,-391 1783.82,-390.61 1828.86,-354 1840.86,-344.25 1835.26,-325.98 1841.03,-317.96"/>
<polygon fill="#d95f02" stroke="#d95f02" stroke-width="3" points="1842.52,-321.13 1850.36,-314 1839.79,-314.68 1842.52,-321.13"/>
<text text-anchor="middle" x="1366.84" y="-394.8" font-family="Times,serif" font-size="14.00" fill="#d95f02">&lt;32&gt;</text>
</g>
<!-- c41 -->
<g id="node26" class="node">
<title>c41</title>
<polygon fill="none" stroke="black" points="1073.34,-267 1073.34,-305 1236.34,-305 1236.34,-267 1073.34,-267"/>
<text text-anchor="middle" x="1086.34" y="-282.3" font-family="Times,serif" font-size="14.00">A</text>
<polyline fill="none" stroke="black" points="1099.34,-267 1099.34,-305 "/>
<text text-anchor="middle" x="1154.84" y="-289.8" font-family="Times,serif" font-size="14.00">$4</text>
<text text-anchor="middle" x="1154.84" y="-274.8" font-family="Times,serif" font-size="14.00">$reduce_bool</text>
<polyline fill="none" stroke="black" points="1210.34,-267 1210.34,-305 "/>
<text text-anchor="middle" x="1223.34" y="-282.3" font-family="Times,serif" font-size="14.00">Y</text>
</g>
<!-- n21&#45;&gt;c41 -->
<g id="edge31" class="edge">
<title>n21:e&#45;&gt;c41:w</title>
<path fill="none" stroke="#d95f02" stroke-width="3" d="M982.81,-292C1019.51,-292 1031,-287.03 1063.17,-286.14"/>
<polygon fill="#d95f02" stroke="#d95f02" stroke-width="3" points="1063.39,-289.63 1073.34,-286 1063.3,-282.63 1063.39,-289.63"/>
<text text-anchor="middle" x="1033.84" y="-294.8" font-family="Times,serif" font-size="14.00" fill="#d95f02">&lt;32&gt;</text>
</g>
<!-- n22 -->
<g id="node8" class="node">
<title>n22</title>
<polygon fill="none" stroke="black" points="3086.76,-240 3036.15,-222 3086.76,-204 3137.36,-222 3086.76,-240"/>
<text text-anchor="middle" x="3086.76" y="-218.3" font-family="Times,serif" font-size="14.00">pulse</text>
</g>
<!-- x14 -->
<g id="node42" class="node">
<title>x14</title>
<path fill="none" stroke="black" d="M3216.31,-240C3216.31,-240 3186.31,-240 3186.31,-240 3180.31,-240 3174.31,-234 3174.31,-228 3174.31,-228 3174.31,-216 3174.31,-216 3174.31,-210 3180.31,-204 3186.31,-204 3186.31,-204 3216.31,-204 3216.31,-204 3222.31,-204 3228.31,-210 3228.31,-216 3228.31,-216 3228.31,-228 3228.31,-228 3228.31,-234 3222.31,-240 3216.31,-240"/>
<text text-anchor="middle" x="3201.31" y="-218.3" font-family="Times,serif" font-size="14.00">BUF</text>
</g>
<!-- n22&#45;&gt;x14 -->
<g id="edge33" class="edge">
<title>n22:e&#45;&gt;x14:w</title>
<path fill="none" stroke="#d95f02" d="M3137.31,-222C3149.77,-222 3155.15,-222 3164.18,-222"/>
<polygon fill="#d95f02" stroke="#d95f02" points="3164.31,-225.5 3174.31,-222 3164.31,-218.5 3164.31,-225.5"/>
</g>
<!-- n23 -->
<g id="node9" class="node">
<title>n23</title>
<polygon fill="none" stroke="black" points="3336.94,-214.54 3336.94,-229.46 3316,-240 3286.38,-240 3265.43,-229.46 3265.43,-214.54 3286.38,-204 3316,-204 3336.94,-214.54"/>
<text text-anchor="middle" x="3301.19" y="-218.3" font-family="Times,serif" font-size="14.00">pwm</text>
</g>
<!-- v0 -->
<g id="node10" class="node">
<title>v0</title>
<ellipse fill="none" stroke="black" cx="1702.6" cy="-240" rx="27" ry="18"/>
<text text-anchor="middle" x="1702.6" y="-236.3" font-family="Times,serif" font-size="14.00">1</text>
</g>
<!-- v0&#45;&gt;c27 -->
<g id="edge50" class="edge">
<title>v0:e&#45;&gt;c27:w</title>
<path fill="none" stroke="#d95f02" stroke-width="3" d="M1730.6,-240C1774.3,-240 1785.85,-235.34 1828.86,-243 1832.5,-243.65 1834.78,-244.88 1836.91,-246.05"/>
<polygon fill="#d95f02" stroke="#d95f02" stroke-width="3" points="1836.28,-249.52 1846.86,-249 1838.27,-242.81 1836.28,-249.52"/>
<text text-anchor="middle" x="1807.36" y="-246.8" font-family="Times,serif" font-size="14.00" fill="#d95f02">&lt;32&gt;</text>
</g>
<!-- c27&#45;&gt;c34 -->
<g id="edge35" class="edge">
<title>c27:e&#45;&gt;c34:w</title>
<path fill="none" stroke="#e7298a" stroke-width="3" d="M1953.36,-261C1963.82,-261 1959.54,-276.9 1952.36,-284.5 1936.18,-301.62 1866.06,-281.33 1846.86,-295 1831.31,-306.07 1844.76,-323.43 1828.86,-334 1778.77,-367.3 1618.49,-342.44 1558.34,-343.5 1490.8,-344.69 1454.8,-390.57 1406.34,-343.5 1402.86,-340.12 1400.32,-327.2 1400.86,-318.17"/>
<polygon fill="#e7298a" stroke="#e7298a" stroke-width="3" points="1404.09,-319.52 1405.34,-309 1397.81,-316.44 1404.09,-319.52"/>
<text text-anchor="middle" x="1702.6" y="-354.8" font-family="Times,serif" font-size="14.00" fill="#e7298a">&lt;32&gt;</text>
</g>
<!-- c33&#45;&gt;n22 -->
<g id="edge32" class="edge">
<title>c33:e&#45;&gt;n22:w</title>
<path fill="none" stroke="#d95f02" d="M2999.2,-222C3011.66,-222 3017.04,-222 3026.07,-222"/>
<polygon fill="#d95f02" stroke="#d95f02" points="3026.2,-225.5 3036.2,-222 3026.2,-218.5 3026.2,-225.5"/>
</g>
<!-- c34&#45;&gt;n16 -->
<g id="edge16" class="edge">
<title>c34:e&#45;&gt;n16:w</title>
<path fill="none" stroke="#e6ab02" stroke-width="3" d="M1558.34,-297C1589.78,-297 1600.07,-294.6 1627.05,-294.09"/>
<polygon fill="#e6ab02" stroke="#e6ab02" stroke-width="3" points="1627.38,-297.59 1637.34,-294 1627.31,-290.59 1627.38,-297.59"/>
<text text-anchor="middle" x="1597.84" y="-300.8" font-family="Times,serif" font-size="14.00" fill="#e6ab02">&lt;32&gt;</text>
</g>
<!-- v2 -->
<g id="node14" class="node">
<title>v2</title>
<ellipse fill="none" stroke="black" cx="2188.7" cy="-18" rx="30.59" ry="18"/>
<text text-anchor="middle" x="2188.7" y="-14.3" font-family="Times,serif" font-size="14.00">2&#39;11</text>
</g>
<!-- c35 -->
<g id="node15" class="node">
<title>c35</title>
<polygon fill="none" stroke="black" points="2346.2,-93 2346.2,-139 2443.2,-139 2443.2,-93 2346.2,-93"/>
<text text-anchor="middle" x="2359.7" y="-123.8" font-family="Times,serif" font-size="14.00">A</text>
<polyline fill="none" stroke="black" points="2346.2,-116 2373.2,-116 "/>
<text text-anchor="middle" x="2359.7" y="-100.8" font-family="Times,serif" font-size="14.00">B</text>
<polyline fill="none" stroke="black" points="2373.2,-93 2373.2,-139 "/>
<text text-anchor="middle" x="2395.2" y="-119.8" font-family="Times,serif" font-size="14.00">$42</text>
<text text-anchor="middle" x="2395.2" y="-104.8" font-family="Times,serif" font-size="14.00">$ne</text>
<polyline fill="none" stroke="black" points="2417.2,-93 2417.2,-139 "/>
<text text-anchor="middle" x="2430.2" y="-112.3" font-family="Times,serif" font-size="14.00">Y</text>
</g>
<!-- v2&#45;&gt;c35 -->
<g id="edge54" class="edge">
<title>v2:e&#45;&gt;c35:w</title>
<path fill="none" stroke="#e6ab02" stroke-width="3" d="M2220.7,-18C2284.23,-18 2278.49,-95.17 2334.71,-103.31"/>
<polygon fill="#e6ab02" stroke="#e6ab02" stroke-width="3" points="2334.48,-106.8 2344.7,-104 2334.97,-99.82 2334.48,-106.8"/>
<text text-anchor="middle" x="2278.2" y="-82.8" font-family="Times,serif" font-size="14.00" fill="#e6ab02">&lt;2&gt;</text>
</g>
<!-- x4 -->
<g id="node20" class="node">
<title>x4</title>
<path fill="none" stroke="#e7298a" d="M2525.2,-146C2525.2,-146 2576.2,-146 2576.2,-146 2582.2,-146 2588.2,-152 2588.2,-158 2588.2,-158 2588.2,-180 2588.2,-180 2588.2,-186 2582.2,-192 2576.2,-192 2576.2,-192 2525.2,-192 2525.2,-192 2519.2,-192 2513.2,-186 2513.2,-180 2513.2,-180 2513.2,-158 2513.2,-158 2513.2,-152 2519.2,-146 2525.2,-146"/>
<text text-anchor="middle" x="2550.7" y="-176.8" font-family="Times,serif" font-size="14.00" fill="#e7298a">0:0 &#45; 1:1</text>
<polyline fill="none" stroke="#e7298a" points="2513.2,-169 2588.2,-169 "/>
<text text-anchor="middle" x="2550.7" y="-153.8" font-family="Times,serif" font-size="14.00" fill="#e7298a">0:0 &#45; 0:0</text>
</g>
<!-- c35&#45;&gt;x4 -->
<g id="edge36" class="edge">
<title>c35:e&#45;&gt;x4:w</title>
<path fill="none" stroke="#e6ab02" d="M2444.7,-116C2476.44,-116 2477.82,-148.81 2503.15,-155.73"/>
<polygon fill="#e6ab02" stroke="#e6ab02" points="2502.84,-159.22 2513.2,-157 2503.72,-152.27 2502.84,-159.22"/>
</g>
<!-- x1&#45;&gt;c35 -->
<g id="edge1" class="edge">
<title>x1:e&#45;&gt;c35:w</title>
<path fill="none" stroke="#666666" stroke-width="3" d="M2239.81,-116.23C2278.47,-117.74 2293.9,-126.25 2332.54,-127.77"/>
<polygon fill="none" stroke="#666666" stroke-width="3" points="2239.7,-116.23 2233.63,-120.11 2227.7,-116 2233.78,-112.11 2239.7,-116.23"/>
<polygon fill="none" stroke="#666666" stroke-width="3" points="2332.7,-127.77 2338.78,-123.89 2344.7,-128 2338.63,-131.89 2332.7,-127.77"/>
<text text-anchor="middle" x="2278.2" y="-127.8" font-family="Times,serif" font-size="14.00" fill="#666666">&lt;2&gt;</text>
</g>
<!-- c36 -->
<g id="node17" class="node">
<title>c36</title>
<polygon fill="none" stroke="black" points="2313.2,-162 2313.2,-200 2476.2,-200 2476.2,-162 2313.2,-162"/>
<text text-anchor="middle" x="2326.2" y="-177.3" font-family="Times,serif" font-size="14.00">A</text>
<polyline fill="none" stroke="black" points="2339.2,-162 2339.2,-200 "/>
<text text-anchor="middle" x="2394.7" y="-184.8" font-family="Times,serif" font-size="14.00">$44</text>
<text text-anchor="middle" x="2394.7" y="-169.8" font-family="Times,serif" font-size="14.00">$reduce_bool</text>
<polyline fill="none" stroke="black" points="2450.2,-162 2450.2,-200 "/>
<text text-anchor="middle" x="2463.2" y="-177.3" font-family="Times,serif" font-size="14.00">Y</text>
</g>
<!-- c36&#45;&gt;x4 -->
<g id="edge37" class="edge">
<title>c36:e&#45;&gt;x4:w</title>
<path fill="none" stroke="#e6ab02" d="M2476.2,-181C2488.66,-181 2494.04,-181 2503.07,-181"/>
<polygon fill="#e6ab02" stroke="#e6ab02" points="2503.2,-184.5 2513.2,-181 2503.2,-177.5 2503.2,-184.5"/>
</g>
<!-- x3 -->
<g id="node18" class="node">
<title>x3</title>
<path fill="none" stroke="#666666" d="M2163.2,-158C2163.2,-158 2214.2,-158 2214.2,-158 2220.2,-158 2226.2,-164 2226.2,-170 2226.2,-170 2226.2,-192 2226.2,-192 2226.2,-198 2220.2,-204 2214.2,-204 2214.2,-204 2163.2,-204 2163.2,-204 2157.2,-204 2151.2,-198 2151.2,-192 2151.2,-192 2151.2,-170 2151.2,-170 2151.2,-164 2157.2,-158 2163.2,-158"/>
<text text-anchor="middle" x="2188.7" y="-188.8" font-family="Times,serif" font-size="14.00" fill="#666666">0:0 &#45; 1:1</text>
<polyline fill="none" stroke="#666666" points="2151.2,-181 2226.2,-181 "/>
<text text-anchor="middle" x="2188.7" y="-165.8" font-family="Times,serif" font-size="14.00" fill="#666666">0:0 &#45; 0:0</text>
</g>
<!-- x3&#45;&gt;c36 -->
<g id="edge2" class="edge">
<title>x3:e&#45;&gt;c36:w</title>
<path fill="none" stroke="#e7298a" stroke-width="3" d="M2239.98,-181C2264.56,-181 2276.34,-181 2300.92,-181"/>
<polygon fill="none" stroke="#e7298a" stroke-width="3" points="2239.7,-181 2233.7,-185 2227.7,-181 2233.7,-177 2239.7,-181"/>
<polygon fill="none" stroke="#e7298a" stroke-width="3" points="2301.2,-181 2307.2,-177 2313.2,-181 2307.2,-185 2301.2,-181"/>
<text text-anchor="middle" x="2278.2" y="-184.8" font-family="Times,serif" font-size="14.00" fill="#e7298a">&lt;2&gt;</text>
</g>
<!-- c37 -->
<g id="node19" class="node">
<title>c37</title>
<polygon fill="none" stroke="black" points="2658.2,-165 2658.2,-203 2817.2,-203 2817.2,-165 2658.2,-165"/>
<text text-anchor="middle" x="2671.2" y="-180.3" font-family="Times,serif" font-size="14.00">A</text>
<polyline fill="none" stroke="black" points="2684.2,-165 2684.2,-203 "/>
<text text-anchor="middle" x="2737.7" y="-187.8" font-family="Times,serif" font-size="14.00">$46</text>
<text text-anchor="middle" x="2737.7" y="-172.8" font-family="Times,serif" font-size="14.00">$reduce_and</text>
<polyline fill="none" stroke="black" points="2791.2,-165 2791.2,-203 "/>
<text text-anchor="middle" x="2804.2" y="-180.3" font-family="Times,serif" font-size="14.00">Y</text>
</g>
<!-- c37&#45;&gt;c33 -->
<g id="edge38" class="edge">
<title>c37:e&#45;&gt;c33:w</title>
<path fill="none" stroke="#666666" d="M2817.2,-184C2833.22,-184 2834.44,-200.51 2844.45,-207.22"/>
<polygon fill="#666666" stroke="#666666" points="2843.63,-210.62 2854.2,-210 2845.55,-203.89 2843.63,-210.62"/>
</g>
<!-- x4&#45;&gt;c37 -->
<g id="edge3" class="edge">
<title>x4:e&#45;&gt;c37:w</title>
<path fill="none" stroke="#e6ab02" stroke-width="3" d="M2600.26,-169.81C2618.7,-172.41 2627.69,-180.58 2646.12,-183.19"/>
<polygon fill="none" stroke="#e6ab02" stroke-width="3" points="2600.18,-169.8 2593.92,-173.39 2588.2,-169 2594.46,-165.41 2600.18,-169.8"/>
<polygon fill="none" stroke="#e6ab02" stroke-width="3" points="2646.23,-183.2 2652.48,-179.61 2658.2,-184 2651.95,-187.59 2646.23,-183.2"/>
<text text-anchor="middle" x="2623.2" y="-185.8" font-family="Times,serif" font-size="14.00" fill="#e6ab02">&lt;2&gt;</text>
</g>
<!-- v5 -->
<g id="node21" class="node">
<title>v5</title>
<ellipse fill="none" stroke="black" cx="1702.6" cy="-110" rx="28.7" ry="18"/>
<text text-anchor="middle" x="1702.6" y="-106.3" font-family="Times,serif" font-size="14.00">255</text>
</g>
<!-- v5&#45;&gt;c38 -->
<g id="edge55" class="edge">
<title>v5:e&#45;&gt;c38:w</title>
<path fill="none" stroke="#1b9e77" stroke-width="3" d="M1732.6,-110C1781.38,-110 1796.04,-107.4 1840.15,-107.04"/>
<polygon fill="#1b9e77" stroke="#1b9e77" stroke-width="3" points="1840.38,-110.54 1850.36,-107 1840.35,-103.54 1840.38,-110.54"/>
<text text-anchor="middle" x="1807.36" y="-112.8" font-family="Times,serif" font-size="14.00" fill="#1b9e77">&lt;32&gt;</text>
</g>
<!-- n7 -->
<g id="node44" class="node">
<title>n7</title>
<ellipse fill="black" stroke="black" cx="2043.03" cy="-162" rx="1.8" ry="1.8"/>
</g>
<!-- c38&#45;&gt;n7 -->
<g id="edge39" class="edge">
<title>c38:e&#45;&gt;n7:w</title>
<path fill="none" stroke="#e7298a" d="M1948.36,-119C1989.67,-119 1994.47,-155.23 2029.79,-161.18"/>
<polygon fill="#e7298a" stroke="#e7298a" points="2029.79,-164.69 2040.03,-162 2030.35,-157.71 2029.79,-164.69"/>
</g>
<!-- n8 -->
<g id="node45" class="node">
<title>n8</title>
<ellipse fill="black" stroke="black" cx="2043.03" cy="-238" rx="1.8" ry="1.8"/>
</g>
<!-- c39&#45;&gt;n8 -->
<g id="edge44" class="edge">
<title>c39:e&#45;&gt;n8:w</title>
<path fill="none" stroke="#e6ab02" d="M1948.36,-326C1987.03,-326 1958.06,-272.38 1988.86,-249 2004.35,-237.25 2013.45,-237.46 2029.6,-237.84"/>
<polygon fill="#e6ab02" stroke="#e6ab02" points="2029.98,-241.35 2040.03,-238 2030.09,-234.35 2029.98,-241.35"/>
</g>
<!-- v6 -->
<g id="node24" class="node">
<title>v6</title>
<ellipse fill="none" stroke="black" cx="28.14" cy="-211" rx="27" ry="18"/>
<text text-anchor="middle" x="28.14" y="-207.3" font-family="Times,serif" font-size="14.00">0</text>
</g>
<!-- v6&#45;&gt;c40 -->
<g id="edge56" class="edge">
<title>v6:e&#45;&gt;c40:w</title>
<path fill="none" stroke="#7570b3" stroke-width="3" d="M56.14,-211C83.32,-211 90.21,-209.54 117.28,-212 120.81,-212.32 123.15,-212.94 125.34,-213.53"/>
<polygon fill="#7570b3" stroke="#7570b3" stroke-width="3" points="124.87,-217 135.28,-215 125.9,-210.07 124.87,-217"/>
<text text-anchor="middle" x="95.78" y="-215.8" font-family="Times,serif" font-size="14.00" fill="#7570b3">&lt;32&gt;</text>
</g>
<!-- n9 -->
<g id="node46" class="node">
<title>n9</title>
<ellipse fill="black" stroke="black" cx="396.28" cy="-242" rx="1.8" ry="1.8"/>
</g>
<!-- c40&#45;&gt;n9 -->
<g id="edge47" class="edge">
<title>c40:e&#45;&gt;n9:w</title>
<path fill="none" stroke="#66a61e" d="M229.28,-227C298.9,-227 318.23,-240.57 382.94,-241.9"/>
<polygon fill="#66a61e" stroke="#66a61e" points="383.24,-245.4 393.28,-242 383.32,-238.4 383.24,-245.4"/>
</g>
<!-- n10 -->
<g id="node43" class="node">
<title>n10</title>
<ellipse fill="black" stroke="black" cx="1300.34" cy="-285" rx="1.8" ry="1.8"/>
</g>
<!-- c41&#45;&gt;n10 -->
<g id="edge5" class="edge">
<title>c41:e&#45;&gt;n10:w</title>
<path fill="none" stroke="#d95f02" d="M1236.34,-286C1259.75,-286 1268,-285.25 1287.26,-285.05"/>
<polygon fill="#d95f02" stroke="#d95f02" points="1287.36,-288.55 1297.34,-285 1287.33,-281.55 1287.36,-288.55"/>
</g>
<!-- c42&#45;&gt;c47 -->
<g id="edge8" class="edge">
<title>c42:e&#45;&gt;c47:w</title>
<path fill="none" stroke="#666666" stroke-width="3" d="M351.28,-322C397.05,-322 409.25,-303.93 450.17,-301.31"/>
<polygon fill="#666666" stroke="#666666" stroke-width="3" points="450.39,-304.81 460.28,-301 450.18,-297.81 450.39,-304.81"/>
<text text-anchor="middle" x="396.28" y="-323.8" font-family="Times,serif" font-size="14.00" fill="#666666">&lt;32&gt;</text>
</g>
<!-- c43&#45;&gt;n21 -->
<g id="edge29" class="edge">
<title>c43:e&#45;&gt;n21:w</title>
<path fill="none" stroke="#d95f02" stroke-width="3" d="M768.28,-292C804.9,-292 816.52,-292 848.65,-292"/>
<polygon fill="#d95f02" stroke="#d95f02" stroke-width="3" points="848.81,-295.5 858.81,-292 848.81,-288.5 848.81,-295.5"/>
<text text-anchor="middle" x="807.78" y="-295.8" font-family="Times,serif" font-size="14.00" fill="#d95f02">&lt;32&gt;</text>
</g>
<!-- c44&#45;&gt;n18 -->
<g id="edge21" class="edge">
<title>c44:e&#45;&gt;n18:w</title>
<path fill="none" stroke="#e6ab02" d="M768.28,-220C799.69,-220 810.02,-220 836.99,-220"/>
<polygon fill="#e6ab02" stroke="#e6ab02" points="837.28,-223.5 847.28,-220 837.28,-216.5 837.28,-223.5"/>
</g>
<!-- v7 -->
<g id="node30" class="node">
<title>v7</title>
<ellipse fill="none" stroke="black" cx="396.28" cy="-204" rx="27" ry="18"/>
<text text-anchor="middle" x="396.28" y="-200.3" font-family="Times,serif" font-size="14.00">1&#39;0</text>
</g>
<!-- c46 -->
<g id="node32" class="node">
<title>c46</title>
<polygon fill="none" stroke="black" points="460.28,-150.5 460.28,-219.5 569.28,-219.5 569.28,-150.5 460.28,-150.5"/>
<text text-anchor="middle" x="473.78" y="-204.3" font-family="Times,serif" font-size="14.00">A</text>
<polyline fill="none" stroke="black" points="460.28,-196.5 487.28,-196.5 "/>
<text text-anchor="middle" x="473.78" y="-181.3" font-family="Times,serif" font-size="14.00">B</text>
<polyline fill="none" stroke="black" points="460.28,-173.5 487.28,-173.5 "/>
<text text-anchor="middle" x="473.78" y="-158.3" font-family="Times,serif" font-size="14.00">S</text>
<polyline fill="none" stroke="black" points="487.28,-150.5 487.28,-219.5 "/>
<text text-anchor="middle" x="515.28" y="-188.8" font-family="Times,serif" font-size="14.00">$14</text>
<text text-anchor="middle" x="515.28" y="-173.8" font-family="Times,serif" font-size="14.00">$mux</text>
<polyline fill="none" stroke="black" points="543.28,-150.5 543.28,-219.5 "/>
<text text-anchor="middle" x="556.28" y="-181.3" font-family="Times,serif" font-size="14.00">Y</text>
</g>
<!-- v7&#45;&gt;c46 -->
<g id="edge57" class="edge">
<title>v7:e&#45;&gt;c46:w</title>
<path fill="none" stroke="#e7298a" d="M423.28,-204C435.81,-204 441.1,-206.3 450.12,-207.41"/>
<polygon fill="#e7298a" stroke="#e7298a" points="450.09,-210.91 460.28,-208 450.5,-203.93 450.09,-210.91"/>
</g>
<!-- v8 -->
<g id="node31" class="node">
<title>v8</title>
<ellipse fill="none" stroke="black" cx="396.28" cy="-150" rx="27" ry="18"/>
<text text-anchor="middle" x="396.28" y="-146.3" font-family="Times,serif" font-size="14.00">1&#39;1</text>
</g>
<!-- v8&#45;&gt;c46 -->
<g id="edge58" class="edge">
<title>v8:e&#45;&gt;c46:w</title>
<path fill="none" stroke="#e6ab02" d="M423.28,-150C441.85,-150 439.62,-173.55 450.71,-182.02"/>
<polygon fill="#e6ab02" stroke="#e6ab02" points="449.69,-185.36 460.28,-185 451.78,-178.68 449.69,-185.36"/>
</g>
<!-- c46&#45;&gt;c44 -->
<g id="edge4" class="edge">
<title>c46:e&#45;&gt;c44:w</title>
<path fill="none" stroke="#66a61e" d="M569.28,-185C602.13,-185 610.2,-203.57 638.02,-207.34"/>
<polygon fill="#66a61e" stroke="#66a61e" points="638.07,-210.85 648.28,-208 638.53,-203.86 638.07,-210.85"/>
</g>
<!-- c47&#45;&gt;c43 -->
<g id="edge25" class="edge">
<title>c47:e&#45;&gt;c43:w</title>
<path fill="none" stroke="#66a61e" stroke-width="3" d="M569.28,-278C600.7,-278 611.02,-279.6 637.98,-279.94"/>
<polygon fill="#66a61e" stroke="#66a61e" stroke-width="3" points="638.26,-283.44 648.28,-280 638.3,-276.44 638.26,-283.44"/>
<text text-anchor="middle" x="608.78" y="-283.8" font-family="Times,serif" font-size="14.00" fill="#66a61e">&lt;32&gt;</text>
</g>
<!-- v9 -->
<g id="node34" class="node">
<title>v9</title>
<ellipse fill="none" stroke="black" cx="2043.03" cy="-438" rx="27" ry="18"/>
<text text-anchor="middle" x="2043.03" y="-434.3" font-family="Times,serif" font-size="14.00">1&#39;x</text>
</g>
<!-- c48 -->
<g id="node36" class="node">
<title>c48</title>
<polygon fill="none" stroke="black" points="2134.2,-349.5 2134.2,-418.5 2243.2,-418.5 2243.2,-349.5 2134.2,-349.5"/>
<text text-anchor="middle" x="2147.7" y="-403.3" font-family="Times,serif" font-size="14.00">A</text>
<polyline fill="none" stroke="black" points="2134.2,-395.5 2161.2,-395.5 "/>
<text text-anchor="middle" x="2147.7" y="-380.3" font-family="Times,serif" font-size="14.00">B</text>
<polyline fill="none" stroke="black" points="2134.2,-372.5 2161.2,-372.5 "/>
<text text-anchor="middle" x="2147.7" y="-357.3" font-family="Times,serif" font-size="14.00">S</text>
<polyline fill="none" stroke="black" points="2161.2,-349.5 2161.2,-418.5 "/>
<text text-anchor="middle" x="2189.2" y="-387.8" font-family="Times,serif" font-size="14.00">$26</text>
<text text-anchor="middle" x="2189.2" y="-372.8" font-family="Times,serif" font-size="14.00">$mux</text>
<polyline fill="none" stroke="black" points="2217.2,-349.5 2217.2,-418.5 "/>
<text text-anchor="middle" x="2230.2" y="-380.3" font-family="Times,serif" font-size="14.00">Y</text>
</g>
<!-- v9&#45;&gt;c48 -->
<g id="edge59" class="edge">
<title>v9:e&#45;&gt;c48:w</title>
<path fill="none" stroke="#7570b3" d="M2071.03,-438C2098.52,-438 2102.33,-414.05 2124.08,-408.25"/>
<polygon fill="#7570b3" stroke="#7570b3" points="2124.71,-411.7 2134.2,-407 2123.85,-404.76 2124.71,-411.7"/>
</g>
<!-- v10 -->
<g id="node35" class="node">
<title>v10</title>
<ellipse fill="none" stroke="black" cx="2043.03" cy="-384" rx="27" ry="18"/>
<text text-anchor="middle" x="2043.03" y="-380.3" font-family="Times,serif" font-size="14.00">1&#39;0</text>
</g>
<!-- v10&#45;&gt;c48 -->
<g id="edge51" class="edge">
<title>v10:e&#45;&gt;c48:w</title>
<path fill="none" stroke="#d95f02" d="M2071.03,-384C2095.38,-384 2103.89,-384 2124.03,-384"/>
<polygon fill="#d95f02" stroke="#d95f02" points="2124.2,-387.5 2134.2,-384 2124.2,-380.5 2124.2,-387.5"/>
</g>
<!-- c50 -->
<g id="node40" class="node">
<title>c50</title>
<polygon fill="none" stroke="black" points="2340.2,-231.5 2340.2,-300.5 2449.2,-300.5 2449.2,-231.5 2340.2,-231.5"/>
<text text-anchor="middle" x="2353.7" y="-285.3" font-family="Times,serif" font-size="14.00">A</text>
<polyline fill="none" stroke="black" points="2340.2,-277.5 2367.2,-277.5 "/>
<text text-anchor="middle" x="2353.7" y="-262.3" font-family="Times,serif" font-size="14.00">B</text>
<polyline fill="none" stroke="black" points="2340.2,-254.5 2367.2,-254.5 "/>
<text text-anchor="middle" x="2353.7" y="-239.3" font-family="Times,serif" font-size="14.00">S</text>
<polyline fill="none" stroke="black" points="2367.2,-231.5 2367.2,-300.5 "/>
<text text-anchor="middle" x="2395.2" y="-269.8" font-family="Times,serif" font-size="14.00">$31</text>
<text text-anchor="middle" x="2395.2" y="-254.8" font-family="Times,serif" font-size="14.00">$mux</text>
<polyline fill="none" stroke="black" points="2423.2,-231.5 2423.2,-300.5 "/>
<text text-anchor="middle" x="2436.2" y="-262.3" font-family="Times,serif" font-size="14.00">Y</text>
</g>
<!-- c48&#45;&gt;c50 -->
<g id="edge9" class="edge">
<title>c48:e&#45;&gt;c50:w</title>
<path fill="none" stroke="#7570b3" d="M2243.2,-384C2299.45,-384 2281.46,-300.16 2328.72,-290"/>
<polygon fill="#7570b3" stroke="#7570b3" points="2329.1,-293.48 2338.7,-289 2328.4,-286.52 2329.1,-293.48"/>
</g>
<!-- v11 -->
<g id="node37" class="node">
<title>v11</title>
<ellipse fill="none" stroke="black" cx="2043.03" cy="-330" rx="27" ry="18"/>
<text text-anchor="middle" x="2043.03" y="-326.3" font-family="Times,serif" font-size="14.00">1&#39;1</text>
</g>
<!-- v11&#45;&gt;c49 -->
<g id="edge52" class="edge">
<title>v11:e&#45;&gt;c49:w</title>
<path fill="none" stroke="#e7298a" d="M2071.03,-330C2095.86,-330 2103.74,-321.65 2124.2,-319.5"/>
<polygon fill="#e7298a" stroke="#e7298a" points="2124.39,-323 2134.2,-319 2124.04,-316 2124.39,-323"/>
</g>
<!-- v12 -->
<g id="node38" class="node">
<title>v12</title>
<ellipse fill="none" stroke="black" cx="2043.03" cy="-276" rx="27" ry="18"/>
<text text-anchor="middle" x="2043.03" y="-272.3" font-family="Times,serif" font-size="14.00">1&#39;x</text>
</g>
<!-- v12&#45;&gt;c49 -->
<g id="edge53" class="edge">
<title>v12:e&#45;&gt;c49:w</title>
<path fill="none" stroke="#666666" d="M2071.03,-276C2096.69,-276 2103.23,-291.18 2123.96,-295.09"/>
<polygon fill="#666666" stroke="#666666" points="2123.93,-298.6 2134.2,-296 2124.55,-291.63 2123.93,-298.6"/>
</g>
<!-- c49&#45;&gt;c50 -->
<g id="edge10" class="edge">
<title>c49:e&#45;&gt;c50:w</title>
<path fill="none" stroke="#1b9e77" d="M2243.2,-296C2284.04,-296 2292.89,-270.72 2328.48,-266.57"/>
<polygon fill="#1b9e77" stroke="#1b9e77" points="2328.91,-270.05 2338.7,-266 2328.52,-263.06 2328.91,-270.05"/>
</g>
<!-- c50&#45;&gt;c33 -->
<g id="edge11" class="edge">
<title>c50:e&#45;&gt;c33:w</title>
<path fill="none" stroke="#666666" d="M2450.7,-266C2627.17,-266 2672.59,-235.21 2844.07,-234.03"/>
<polygon fill="#666666" stroke="#666666" points="2844.21,-237.53 2854.2,-234 2844.19,-230.53 2844.21,-237.53"/>
</g>
<!-- x13&#45;&gt;n17 -->
<g id="edge20" class="edge">
<title>x13:e&#45;&gt;n17:w</title>
<path fill="none" stroke="#1b9e77" d="M1182.84,-220C1219.45,-220 1231.07,-220 1263.19,-220"/>
<polygon fill="#1b9e77" stroke="#1b9e77" points="1263.34,-223.5 1273.34,-220 1263.34,-216.5 1263.34,-223.5"/>
</g>
<!-- x14&#45;&gt;n23 -->
<g id="edge34" class="edge">
<title>x14:e&#45;&gt;n23:w</title>
<path fill="none" stroke="#7570b3" d="M3228.31,-222C3240.77,-222 3246.15,-222 3255.18,-222"/>
<polygon fill="#7570b3" stroke="#7570b3" points="3255.31,-225.5 3265.31,-222 3255.31,-218.5 3255.31,-225.5"/>
</g>
<!-- n10&#45;&gt;c33 -->
<g id="edge6" class="edge">
<title>n10:e&#45;&gt;c33:w</title>
<path fill="none" stroke="#d95f02" d="M1303.34,-285C1429.46,-285 1355.22,-64 1481.34,-64 1481.34,-64 1481.34,-64 2738.7,-64 2755.18,-64 2817.43,-159.01 2845,-182.03"/>
<polygon fill="#d95f02" stroke="#d95f02" points="2843.74,-185.33 2854.2,-187 2847.07,-179.17 2843.74,-185.33"/>
</g>
<!-- n10&#45;&gt;c34 -->
<g id="edge7" class="edge">
<title>n10:e&#45;&gt;c34:w</title>
<path fill="none" stroke="#d95f02" d="M1303.34,-285C1345.55,-285 1358.57,-285 1396.21,-285"/>
<polygon fill="#d95f02" stroke="#d95f02" points="1396.34,-288.5 1406.34,-285 1396.34,-281.5 1396.34,-288.5"/>
</g>
<!-- n7&#45;&gt;c34 -->
<g id="edge40" class="edge">
<title>n7:e&#45;&gt;c34:w</title>
<path fill="none" stroke="#e7298a" d="M2046.03,-162C2046.95,-162 2045.8,-163.3 2045.03,-163.8 2032.89,-171.63 1800.2,-183.18 1785.86,-185 1616.06,-206.55 1522.18,-124.48 1406.34,-250.5 1406.02,-250.85 1405.7,-251.24 1405.4,-251.66"/>
<polygon fill="#e7298a" stroke="#e7298a" points="1401.89,-251.98 1405.34,-262 1408.89,-252.02 1401.89,-251.98"/>
</g>
<!-- n7&#45;&gt;x1 -->
<g id="edge42" class="edge">
<title>n7:e&#45;&gt;x1:w</title>
<path fill="none" stroke="#e7298a" d="M2046.03,-162C2090.92,-162 2099.99,-132.86 2139.56,-128.53"/>
<polygon fill="#e7298a" stroke="#e7298a" points="2139.9,-132.02 2149.7,-128 2139.53,-125.03 2139.9,-132.02"/>
</g>
<!-- n7&#45;&gt;x3 -->
<g id="edge43" class="edge">
<title>n7:e&#45;&gt;x3:w</title>
<path fill="none" stroke="#e7298a" d="M2046.03,-162C2088.61,-162 2101.54,-167.95 2139.48,-168.88"/>
<polygon fill="#e7298a" stroke="#e7298a" points="2139.66,-172.38 2149.7,-169 2139.75,-165.38 2139.66,-172.38"/>
</g>
<!-- n7&#45;&gt;c50 -->
<g id="edge41" class="edge">
<title>n7:e&#45;&gt;c50:w</title>
<path fill="none" stroke="#e7298a" d="M2046.03,-162C2069.3,-162 2076.99,-161.48 2097.2,-173 2118.24,-184.99 2112.78,-201.71 2134.2,-213 2212.38,-254.2 2244.38,-243.9 2328.46,-243.05"/>
<polygon fill="#e7298a" stroke="#e7298a" points="2328.72,-246.55 2338.7,-243 2328.69,-239.55 2328.72,-246.55"/>
</g>
<!-- n8&#45;&gt;x3 -->
<g id="edge46" class="edge">
<title>n8:e&#45;&gt;x3:w</title>
<path fill="none" stroke="#e6ab02" d="M2046.03,-238C2069.3,-238 2075.72,-235.91 2097.2,-227 2119.27,-217.85 2121.65,-199.32 2139.53,-194.28"/>
<polygon fill="#e6ab02" stroke="#e6ab02" points="2140.22,-197.73 2149.7,-193 2139.34,-190.78 2140.22,-197.73"/>
</g>
<!-- n8&#45;&gt;c48 -->
<g id="edge45" class="edge">
<title>n8:e&#45;&gt;c48:w</title>
<path fill="none" stroke="#e6ab02" d="M2046.03,-238C2069.3,-238 2079.9,-233.46 2097.2,-249 2133.31,-281.43 2089.34,-349.81 2124.21,-359.78"/>
<polygon fill="#e6ab02" stroke="#e6ab02" points="2123.85,-363.26 2134.2,-361 2124.7,-356.31 2123.85,-363.26"/>
</g>
<!-- n9&#45;&gt;c46 -->
<g id="edge48" class="edge">
<title>n9:e&#45;&gt;c46:w</title>
<path fill="none" stroke="#66a61e" d="M399.28,-242C421.85,-242 429.55,-233.64 442.28,-215 453.68,-198.31 442.01,-173.75 450.58,-165.13"/>
<polygon fill="#66a61e" stroke="#66a61e" points="451.84,-168.4 460.28,-162 449.69,-161.74 451.84,-168.4"/>
</g>
<!-- n9&#45;&gt;c47 -->
<g id="edge49" class="edge">
<title>n9:e&#45;&gt;c47:w</title>
<path fill="none" stroke="#66a61e" d="M399.28,-242C423.21,-242 430.62,-251.69 450.04,-254.34"/>
<polygon fill="#66a61e" stroke="#66a61e" points="450.07,-257.85 460.28,-255 450.53,-250.86 450.07,-257.85"/>
</g>
</g>
</svg>
