<?xml version="1.0" encoding="UTF-8" standalone="no"?>
<!DOCTYPE svg PUBLIC "-//W3C//DTD SVG 1.1//EN"
 "http://www.w3.org/Graphics/SVG/1.1/DTD/svg11.dtd">
<!-- Generated by graphviz version 2.43.0 (0)
 -->
<!-- Title: vin_sonar Pages: 1 -->
<svg width="3056pt" height="771pt"
 viewBox="0.00 0.00 3056.25 771.00" xmlns="http://www.w3.org/2000/svg" xmlns:xlink="http://www.w3.org/1999/xlink">
<g id="graph0" class="graph" transform="scale(1 1) rotate(0) translate(4 767)">
<title>vin_sonar</title>
<polygon fill="white" stroke="transparent" points="-4,4 -4,-767 3052.25,-767 3052.25,4 -4,4"/>
<!-- n12 -->
<g id="node1" class="node">
<title>n12</title>
<polygon fill="none" stroke="black" points="54,-466.54 54,-481.46 38.18,-492 15.82,-492 0,-481.46 0,-466.54 15.82,-456 38.18,-456 54,-466.54"/>
<text text-anchor="middle" x="27" y="-470.3" font-family="Times,serif" font-size="14.00">clk</text>
</g>
<!-- c29 -->
<g id="node13" class="node">
<title>c29</title>
<polygon fill="none" stroke="black" points="2327.89,-686.5 2327.89,-755.5 2455.89,-755.5 2455.89,-686.5 2327.89,-686.5"/>
<text text-anchor="middle" x="2351.39" y="-740.3" font-family="Times,serif" font-size="14.00">CLK</text>
<polyline fill="none" stroke="black" points="2327.89,-732.5 2374.89,-732.5 "/>
<text text-anchor="middle" x="2351.39" y="-717.3" font-family="Times,serif" font-size="14.00">D</text>
<polyline fill="none" stroke="black" points="2327.89,-709.5 2374.89,-709.5 "/>
<text text-anchor="middle" x="2351.39" y="-694.3" font-family="Times,serif" font-size="14.00">EN</text>
<polyline fill="none" stroke="black" points="2374.89,-686.5 2374.89,-755.5 "/>
<text text-anchor="middle" x="2401.39" y="-724.8" font-family="Times,serif" font-size="14.00">$32</text>
<text text-anchor="middle" x="2401.39" y="-709.8" font-family="Times,serif" font-size="14.00">$dffe</text>
<polyline fill="none" stroke="black" points="2427.89,-686.5 2427.89,-755.5 "/>
<text text-anchor="middle" x="2441.89" y="-717.3" font-family="Times,serif" font-size="14.00">Q</text>
</g>
<!-- n12&#45;&gt;c29 -->
<g id="edge6" class="edge">
<title>n12:e&#45;&gt;c29:w</title>
<path fill="none" stroke="#666666" d="M54,-474C58.27,-474 154.23,-763 158.5,-763 158.5,-763 158.5,-763 2212.39,-763 2260.86,-763 2274.11,-746.51 2317.77,-744.25"/>
<polygon fill="#666666" stroke="#666666" points="2317.98,-747.75 2327.89,-744 2317.81,-740.75 2317.98,-747.75"/>
</g>
<!-- c30 -->
<g id="node14" class="node">
<title>c30</title>
<polygon fill="none" stroke="black" points="1289.87,-544.5 1289.87,-613.5 1417.87,-613.5 1417.87,-544.5 1289.87,-544.5"/>
<text text-anchor="middle" x="1313.37" y="-598.3" font-family="Times,serif" font-size="14.00">CLK</text>
<polyline fill="none" stroke="black" points="1289.87,-590.5 1336.87,-590.5 "/>
<text text-anchor="middle" x="1313.37" y="-575.3" font-family="Times,serif" font-size="14.00">D</text>
<polyline fill="none" stroke="black" points="1289.87,-567.5 1336.87,-567.5 "/>
<text text-anchor="middle" x="1313.37" y="-552.3" font-family="Times,serif" font-size="14.00">EN</text>
<polyline fill="none" stroke="black" points="1336.87,-544.5 1336.87,-613.5 "/>
<text text-anchor="middle" x="1363.37" y="-582.8" font-family="Times,serif" font-size="14.00">$37</text>
<text text-anchor="middle" x="1363.37" y="-567.8" font-family="Times,serif" font-size="14.00">$dffe</text>
<polyline fill="none" stroke="black" points="1389.87,-544.5 1389.87,-613.5 "/>
<text text-anchor="middle" x="1403.87" y="-575.3" font-family="Times,serif" font-size="14.00">Q</text>
</g>
<!-- n12&#45;&gt;c30 -->
<g id="edge7" class="edge">
<title>n12:e&#45;&gt;c30:w</title>
<path fill="none" stroke="#666666" d="M54,-474C72.36,-474 140.14,-602 158.5,-602 158.5,-602 158.5,-602 1172.37,-602 1221.02,-602 1235.68,-602 1279.68,-602"/>
<polygon fill="#666666" stroke="#666666" points="1279.87,-605.5 1289.87,-602 1279.87,-598.5 1279.87,-605.5"/>
</g>
<!-- c32 -->
<g id="node15" class="node">
<title>c32</title>
<polygon fill="none" stroke="black" points="91,-222.5 91,-291.5 228,-291.5 228,-222.5 91,-222.5"/>
<text text-anchor="middle" x="119" y="-276.3" font-family="Times,serif" font-size="14.00">CLK</text>
<polyline fill="none" stroke="black" points="91,-268.5 147,-268.5 "/>
<text text-anchor="middle" x="119" y="-253.3" font-family="Times,serif" font-size="14.00">D</text>
<polyline fill="none" stroke="black" points="91,-245.5 147,-245.5 "/>
<text text-anchor="middle" x="119" y="-230.3" font-family="Times,serif" font-size="14.00">SRST</text>
<polyline fill="none" stroke="black" points="147,-222.5 147,-291.5 "/>
<text text-anchor="middle" x="173.5" y="-260.8" font-family="Times,serif" font-size="14.00">$40</text>
<text text-anchor="middle" x="173.5" y="-245.8" font-family="Times,serif" font-size="14.00">$sdff</text>
<polyline fill="none" stroke="black" points="200,-222.5 200,-291.5 "/>
<text text-anchor="middle" x="214" y="-253.3" font-family="Times,serif" font-size="14.00">Q</text>
</g>
<!-- n12&#45;&gt;c32 -->
<g id="edge8" class="edge">
<title>n12:e&#45;&gt;c32:w</title>
<path fill="none" stroke="#666666" d="M54,-474C69.9,-474 68.25,-347.45 72,-332 76.81,-312.2 69.81,-289.53 81.23,-282.33"/>
<polygon fill="#666666" stroke="#666666" points="82.08,-285.72 91,-280 80.46,-278.91 82.08,-285.72"/>
</g>
<!-- c33 -->
<g id="node17" class="node">
<title>c33</title>
<polygon fill="none" stroke="black" points="807.87,-254 807.87,-346 952.87,-346 952.87,-254 807.87,-254"/>
<text text-anchor="middle" x="835.87" y="-330.8" font-family="Times,serif" font-size="14.00">CLK</text>
<polyline fill="none" stroke="black" points="807.87,-323 863.87,-323 "/>
<text text-anchor="middle" x="835.87" y="-307.8" font-family="Times,serif" font-size="14.00">D</text>
<polyline fill="none" stroke="black" points="807.87,-300 863.87,-300 "/>
<text text-anchor="middle" x="835.87" y="-284.8" font-family="Times,serif" font-size="14.00">EN</text>
<polyline fill="none" stroke="black" points="807.87,-277 863.87,-277 "/>
<text text-anchor="middle" x="835.87" y="-261.8" font-family="Times,serif" font-size="14.00">SRST</text>
<polyline fill="none" stroke="black" points="863.87,-254 863.87,-346 "/>
<text text-anchor="middle" x="894.37" y="-303.8" font-family="Times,serif" font-size="14.00">$42</text>
<text text-anchor="middle" x="894.37" y="-288.8" font-family="Times,serif" font-size="14.00">$sdffe</text>
<polyline fill="none" stroke="black" points="924.87,-254 924.87,-346 "/>
<text text-anchor="middle" x="938.87" y="-296.3" font-family="Times,serif" font-size="14.00">Q</text>
</g>
<!-- n12&#45;&gt;c33 -->
<g id="edge9" class="edge">
<title>n12:e&#45;&gt;c33:w</title>
<path fill="none" stroke="#666666" d="M54,-474C127.44,-474 85.06,-346 158.5,-346 158.5,-346 158.5,-346 694.69,-346 741.68,-346 755.44,-336.49 797.75,-335.16"/>
<polygon fill="#666666" stroke="#666666" points="797.92,-338.65 807.87,-335 797.82,-331.65 797.92,-338.65"/>
</g>
<!-- n13 -->
<g id="node2" class="node">
<title>n13</title>
<polygon fill="none" stroke="black" points="372.26,-296 307.24,-278 372.26,-260 437.28,-278 372.26,-296"/>
<text text-anchor="middle" x="372.26" y="-274.3" font-family="Times,serif" font-size="14.00">counter</text>
</g>
<!-- c23 -->
<g id="node10" class="node">
<title>c23</title>
<polygon fill="none" stroke="black" points="516.52,-49 516.52,-95 621.52,-95 621.52,-49 516.52,-49"/>
<text text-anchor="middle" x="530.02" y="-79.8" font-family="Times,serif" font-size="14.00">A</text>
<polyline fill="none" stroke="black" points="516.52,-72 543.52,-72 "/>
<text text-anchor="middle" x="530.02" y="-56.8" font-family="Times,serif" font-size="14.00">B</text>
<polyline fill="none" stroke="black" points="543.52,-49 543.52,-95 "/>
<text text-anchor="middle" x="569.52" y="-75.8" font-family="Times,serif" font-size="14.00">$2</text>
<text text-anchor="middle" x="569.52" y="-60.8" font-family="Times,serif" font-size="14.00">$add</text>
<polyline fill="none" stroke="black" points="595.52,-49 595.52,-95 "/>
<text text-anchor="middle" x="608.52" y="-68.3" font-family="Times,serif" font-size="14.00">Y</text>
</g>
<!-- n13&#45;&gt;c23 -->
<g id="edge11" class="edge">
<title>n13:e&#45;&gt;c23:w</title>
<path fill="none" stroke="#7570b3" stroke-width="3" d="M437.52,-278C457.42,-278 444,-253.22 455.52,-237 470.64,-215.72 486.24,-220.03 498.52,-197 508.71,-177.89 496.16,-109.38 507.91,-89.47"/>
<polygon fill="#7570b3" stroke="#7570b3" stroke-width="3" points="509.95,-92.32 516.52,-84 506.2,-86.41 509.95,-92.32"/>
<text text-anchor="middle" x="477.02" y="-240.8" font-family="Times,serif" font-size="14.00" fill="#7570b3">&lt;32&gt;</text>
</g>
<!-- c37 -->
<g id="node24" class="node">
<title>c37</title>
<polygon fill="none" stroke="black" points="521.02,-378 521.02,-424 617.02,-424 617.02,-378 521.02,-378"/>
<text text-anchor="middle" x="534.52" y="-408.8" font-family="Times,serif" font-size="14.00">A</text>
<polyline fill="none" stroke="black" points="521.02,-401 548.02,-401 "/>
<text text-anchor="middle" x="534.52" y="-385.8" font-family="Times,serif" font-size="14.00">B</text>
<polyline fill="none" stroke="black" points="548.02,-378 548.02,-424 "/>
<text text-anchor="middle" x="569.52" y="-404.8" font-family="Times,serif" font-size="14.00">$3</text>
<text text-anchor="middle" x="569.52" y="-389.8" font-family="Times,serif" font-size="14.00">$eq</text>
<polyline fill="none" stroke="black" points="591.02,-378 591.02,-424 "/>
<text text-anchor="middle" x="604.02" y="-397.3" font-family="Times,serif" font-size="14.00">Y</text>
</g>
<!-- n13&#45;&gt;c37 -->
<g id="edge12" class="edge">
<title>n13:e&#45;&gt;c37:w</title>
<path fill="none" stroke="#7570b3" stroke-width="3" d="M437.52,-278C466.02,-278 435.19,-385.02 455.52,-405 473.55,-422.72 487.29,-415.55 509.8,-413.49"/>
<polygon fill="#7570b3" stroke="#7570b3" stroke-width="3" points="510.2,-416.97 520.02,-413 509.87,-409.98 510.2,-416.97"/>
<text text-anchor="middle" x="477.02" y="-420.8" font-family="Times,serif" font-size="14.00" fill="#7570b3">&lt;32&gt;</text>
</g>
<!-- c38 -->
<g id="node26" class="node">
<title>c38</title>
<polygon fill="none" stroke="black" points="521.02,-147 521.02,-193 617.02,-193 617.02,-147 521.02,-147"/>
<text text-anchor="middle" x="534.52" y="-177.8" font-family="Times,serif" font-size="14.00">A</text>
<polyline fill="none" stroke="black" points="521.02,-170 548.02,-170 "/>
<text text-anchor="middle" x="534.52" y="-154.8" font-family="Times,serif" font-size="14.00">B</text>
<polyline fill="none" stroke="black" points="548.02,-147 548.02,-193 "/>
<text text-anchor="middle" x="569.52" y="-173.8" font-family="Times,serif" font-size="14.00">$4</text>
<text text-anchor="middle" x="569.52" y="-158.8" font-family="Times,serif" font-size="14.00">$eq</text>
<polyline fill="none" stroke="black" points="591.02,-147 591.02,-193 "/>
<text text-anchor="middle" x="604.02" y="-166.3" font-family="Times,serif" font-size="14.00">Y</text>
</g>
<!-- n13&#45;&gt;c38 -->
<g id="edge13" class="edge">
<title>n13:e&#45;&gt;c38:w</title>
<path fill="none" stroke="#7570b3" stroke-width="3" d="M437.52,-278C444.73,-278 493.59,-261.25 498.52,-256 519.03,-234.15 493.89,-193.88 510.22,-184.16"/>
<polygon fill="#7570b3" stroke="#7570b3" stroke-width="3" points="511.01,-187.57 520.02,-182 509.5,-180.73 511.01,-187.57"/>
<text text-anchor="middle" x="477.02" y="-277.8" font-family="Times,serif" font-size="14.00" fill="#7570b3">&lt;32&gt;</text>
</g>
<!-- c39 -->
<g id="node28" class="node">
<title>c39</title>
<polygon fill="none" stroke="black" points="521.02,-212 521.02,-258 617.02,-258 617.02,-212 521.02,-212"/>
<text text-anchor="middle" x="534.52" y="-242.8" font-family="Times,serif" font-size="14.00">A</text>
<polyline fill="none" stroke="black" points="521.02,-235 548.02,-235 "/>
<text text-anchor="middle" x="534.52" y="-219.8" font-family="Times,serif" font-size="14.00">B</text>
<polyline fill="none" stroke="black" points="548.02,-212 548.02,-258 "/>
<text text-anchor="middle" x="569.52" y="-238.8" font-family="Times,serif" font-size="14.00">$5</text>
<text text-anchor="middle" x="569.52" y="-223.8" font-family="Times,serif" font-size="14.00">$eq</text>
<polyline fill="none" stroke="black" points="591.02,-212 591.02,-258 "/>
<text text-anchor="middle" x="604.02" y="-231.3" font-family="Times,serif" font-size="14.00">Y</text>
</g>
<!-- n13&#45;&gt;c39 -->
<g id="edge14" class="edge">
<title>n13:e&#45;&gt;c39:w</title>
<path fill="none" stroke="#7570b3" stroke-width="3" d="M437.52,-278C448.22,-278 445.52,-290.2 455.52,-294 473.38,-300.79 482.44,-304.33 498.52,-294 513.92,-284.11 503.84,-260.14 510.74,-250.81"/>
<polygon fill="#7570b3" stroke="#7570b3" stroke-width="3" points="512.1,-254.03 520.02,-247 509.44,-247.55 512.1,-254.03"/>
<text text-anchor="middle" x="477.02" y="-304.8" font-family="Times,serif" font-size="14.00" fill="#7570b3">&lt;32&gt;</text>
</g>
<!-- n14 -->
<g id="node3" class="node">
<title>n14</title>
<polygon fill="none" stroke="black" points="1593.38,-643 1496.86,-625 1593.38,-607 1689.9,-625 1593.38,-643"/>
<text text-anchor="middle" x="1593.38" y="-621.3" font-family="Times,serif" font-size="14.00">dist_counter</text>
</g>
<!-- c24 -->
<g id="node12" class="node">
<title>c24</title>
<polygon fill="none" stroke="black" points="1768.89,-504 1768.89,-550 1873.89,-550 1873.89,-504 1768.89,-504"/>
<text text-anchor="middle" x="1782.39" y="-534.8" font-family="Times,serif" font-size="14.00">A</text>
<polyline fill="none" stroke="black" points="1768.89,-527 1795.89,-527 "/>
<text text-anchor="middle" x="1782.39" y="-511.8" font-family="Times,serif" font-size="14.00">B</text>
<polyline fill="none" stroke="black" points="1795.89,-504 1795.89,-550 "/>
<text text-anchor="middle" x="1821.89" y="-530.8" font-family="Times,serif" font-size="14.00">$6</text>
<text text-anchor="middle" x="1821.89" y="-515.8" font-family="Times,serif" font-size="14.00">$add</text>
<polyline fill="none" stroke="black" points="1847.89,-504 1847.89,-550 "/>
<text text-anchor="middle" x="1860.89" y="-523.3" font-family="Times,serif" font-size="14.00">Y</text>
</g>
<!-- n14&#45;&gt;c24 -->
<g id="edge16" class="edge">
<title>n14:e&#45;&gt;c24:w</title>
<path fill="none" stroke="#1b9e77" stroke-width="3" d="M1689.89,-625C1727.64,-625 1679.1,-566.41 1707.89,-542 1725.85,-526.78 1738.12,-535.7 1758.77,-538.34"/>
<polygon fill="#1b9e77" stroke="#1b9e77" stroke-width="3" points="1758.69,-541.84 1768.89,-539 1759.14,-534.86 1758.69,-541.84"/>
<text text-anchor="middle" x="1729.39" y="-545.8" font-family="Times,serif" font-size="14.00" fill="#1b9e77">&lt;32&gt;</text>
</g>
<!-- n14&#45;&gt;c29 -->
<g id="edge17" class="edge">
<title>n14:e&#45;&gt;c29:w</title>
<path fill="none" stroke="#1b9e77" stroke-width="3" d="M1689.89,-625C1748,-625 1762.28,-617 1820.39,-617 1820.39,-617 1820.39,-617 2212.39,-617 2254.49,-617 2260.02,-641.38 2290.89,-670 2300.87,-679.25 2301.89,-683 2309.89,-694 2315.59,-701.84 2315.25,-711.33 2318.78,-716.72"/>
<polygon fill="#1b9e77" stroke="#1b9e77" stroke-width="3" points="2317.35,-719.91 2327.89,-721 2320.33,-713.58 2317.35,-719.91"/>
<text text-anchor="middle" x="2007.39" y="-620.8" font-family="Times,serif" font-size="14.00" fill="#1b9e77">&lt;32&gt;</text>
</g>
<!-- c40 -->
<g id="node30" class="node">
<title>c40</title>
<polygon fill="none" stroke="black" points="1774.39,-650 1774.39,-696 1868.39,-696 1868.39,-650 1774.39,-650"/>
<text text-anchor="middle" x="1787.89" y="-680.8" font-family="Times,serif" font-size="14.00">A</text>
<polyline fill="none" stroke="black" points="1774.39,-673 1801.39,-673 "/>
<text text-anchor="middle" x="1787.89" y="-657.8" font-family="Times,serif" font-size="14.00">B</text>
<polyline fill="none" stroke="black" points="1801.39,-650 1801.39,-696 "/>
<text text-anchor="middle" x="1821.89" y="-676.8" font-family="Times,serif" font-size="14.00">$7</text>
<text text-anchor="middle" x="1821.89" y="-661.8" font-family="Times,serif" font-size="14.00">$gt</text>
<polyline fill="none" stroke="black" points="1842.39,-650 1842.39,-696 "/>
<text text-anchor="middle" x="1855.39" y="-669.3" font-family="Times,serif" font-size="14.00">Y</text>
</g>
<!-- n14&#45;&gt;c40 -->
<g id="edge18" class="edge">
<title>n14:e&#45;&gt;c40:w</title>
<path fill="none" stroke="#1b9e77" stroke-width="3" d="M1689.89,-625C1704.3,-625 1739.79,-637.81 1750.89,-647 1762.47,-656.58 1758,-673.77 1764.08,-681.29"/>
<polygon fill="#1b9e77" stroke="#1b9e77" stroke-width="3" points="1762.81,-684.55 1773.39,-685 1765.4,-678.05 1762.81,-684.55"/>
<text text-anchor="middle" x="1729.39" y="-650.8" font-family="Times,serif" font-size="14.00" fill="#1b9e77">&lt;32&gt;</text>
</g>
<!-- n15 -->
<g id="node4" class="node">
<title>n15</title>
<polygon fill="none" stroke="black" points="3048.42,-713.54 3048.42,-728.46 3016.59,-739 2971.58,-739 2939.75,-728.46 2939.75,-713.54 2971.58,-703 3016.59,-703 3048.42,-713.54"/>
<text text-anchor="middle" x="2994.08" y="-717.3" font-family="Times,serif" font-size="14.00">distance</text>
</g>
<!-- n16 -->
<g id="node5" class="node">
<title>n16</title>
<polygon fill="none" stroke="black" points="2631.4,-739 2534.88,-721 2631.4,-703 2727.93,-721 2631.4,-739"/>
<text text-anchor="middle" x="2631.4" y="-717.3" font-family="Times,serif" font-size="14.00">distance_set</text>
</g>
<!-- x11 -->
<g id="node35" class="node">
<title>x11</title>
<path fill="none" stroke="black" d="M2848.92,-739C2848.92,-739 2818.92,-739 2818.92,-739 2812.92,-739 2806.92,-733 2806.92,-727 2806.92,-727 2806.92,-715 2806.92,-715 2806.92,-709 2812.92,-703 2818.92,-703 2818.92,-703 2848.92,-703 2848.92,-703 2854.92,-703 2860.92,-709 2860.92,-715 2860.92,-715 2860.92,-727 2860.92,-727 2860.92,-733 2854.92,-739 2848.92,-739"/>
<text text-anchor="middle" x="2833.92" y="-717.3" font-family="Times,serif" font-size="14.00">BUF</text>
</g>
<!-- n16&#45;&gt;x11 -->
<g id="edge21" class="edge">
<title>n16:e&#45;&gt;x11:w</title>
<path fill="none" stroke="#d95f02" stroke-width="3" d="M2727.92,-721C2759.32,-721 2769.66,-721 2796.62,-721"/>
<polygon fill="#d95f02" stroke="#d95f02" stroke-width="3" points="2796.92,-724.5 2806.92,-721 2796.92,-717.5 2796.92,-724.5"/>
<text text-anchor="middle" x="2767.42" y="-724.8" font-family="Times,serif" font-size="14.00" fill="#d95f02">&lt;32&gt;</text>
</g>
<!-- n17 -->
<g id="node6" class="node">
<title>n17</title>
<polygon fill="none" stroke="black" points="729.05,-544.54 729.05,-559.46 708.34,-570 679.05,-570 658.34,-559.46 658.34,-544.54 679.05,-534 708.34,-534 729.05,-544.54"/>
<text text-anchor="middle" x="693.69" y="-548.3" font-family="Times,serif" font-size="14.00">echo</text>
</g>
<!-- x3 -->
<g id="node19" class="node">
<title>x3</title>
<path fill="none" stroke="#666666" d="M854.87,-477C854.87,-477 905.87,-477 905.87,-477 911.87,-477 917.87,-483 917.87,-489 917.87,-489 917.87,-511 917.87,-511 917.87,-517 911.87,-523 905.87,-523 905.87,-523 854.87,-523 854.87,-523 848.87,-523 842.87,-517 842.87,-511 842.87,-511 842.87,-489 842.87,-489 842.87,-483 848.87,-477 854.87,-477"/>
<text text-anchor="middle" x="880.37" y="-507.8" font-family="Times,serif" font-size="14.00" fill="#666666">0:0 &#45; 1:1</text>
<polyline fill="none" stroke="#666666" points="842.87,-500 917.87,-500 "/>
<text text-anchor="middle" x="880.37" y="-484.8" font-family="Times,serif" font-size="14.00" fill="#666666">0:0 &#45; 0:0</text>
</g>
<!-- n17&#45;&gt;x3 -->
<g id="edge24" class="edge">
<title>n17:e&#45;&gt;x3:w</title>
<path fill="none" stroke="#e6ab02" d="M728.87,-552C739,-552 738.36,-543.5 746.87,-538 783.66,-514.22 792.55,-491.79 830.94,-488.43"/>
<polygon fill="#e6ab02" stroke="#e6ab02" points="831.52,-491.91 841.37,-488 831.23,-484.92 831.52,-491.91"/>
</g>
<!-- c35 -->
<g id="node20" class="node">
<title>c35</title>
<polygon fill="none" stroke="black" points="970.87,-663 970.87,-701 1071.87,-701 1071.87,-663 970.87,-663"/>
<text text-anchor="middle" x="983.87" y="-678.3" font-family="Times,serif" font-size="14.00">A</text>
<polyline fill="none" stroke="black" points="996.87,-663 996.87,-701 "/>
<text text-anchor="middle" x="1021.37" y="-685.8" font-family="Times,serif" font-size="14.00">$33</text>
<text text-anchor="middle" x="1021.37" y="-670.8" font-family="Times,serif" font-size="14.00">$not</text>
<polyline fill="none" stroke="black" points="1045.87,-663 1045.87,-701 "/>
<text text-anchor="middle" x="1058.87" y="-678.3" font-family="Times,serif" font-size="14.00">Y</text>
</g>
<!-- n17&#45;&gt;c35 -->
<g id="edge22" class="edge">
<title>n17:e&#45;&gt;c35:w</title>
<path fill="none" stroke="#e6ab02" d="M728.87,-552C738.25,-552 738.73,-558.35 746.87,-563 841.73,-617.12 857.22,-678.06 960.59,-681.82"/>
<polygon fill="#e6ab02" stroke="#e6ab02" points="960.81,-685.32 970.87,-682 960.93,-678.32 960.81,-685.32"/>
</g>
<!-- c43 -->
<g id="node34" class="node">
<title>c43</title>
<polygon fill="none" stroke="black" points="1952.89,-478.5 1952.89,-547.5 2061.89,-547.5 2061.89,-478.5 1952.89,-478.5"/>
<text text-anchor="middle" x="1966.39" y="-532.3" font-family="Times,serif" font-size="14.00">A</text>
<polyline fill="none" stroke="black" points="1952.89,-524.5 1979.89,-524.5 "/>
<text text-anchor="middle" x="1966.39" y="-509.3" font-family="Times,serif" font-size="14.00">B</text>
<polyline fill="none" stroke="black" points="1952.89,-501.5 1979.89,-501.5 "/>
<text text-anchor="middle" x="1966.39" y="-486.3" font-family="Times,serif" font-size="14.00">S</text>
<polyline fill="none" stroke="black" points="1979.89,-478.5 1979.89,-547.5 "/>
<text text-anchor="middle" x="2007.89" y="-516.8" font-family="Times,serif" font-size="14.00">$21</text>
<text text-anchor="middle" x="2007.89" y="-501.8" font-family="Times,serif" font-size="14.00">$mux</text>
<polyline fill="none" stroke="black" points="2035.89,-478.5 2035.89,-547.5 "/>
<text text-anchor="middle" x="2048.89" y="-509.3" font-family="Times,serif" font-size="14.00">Y</text>
</g>
<!-- n17&#45;&gt;c43 -->
<g id="edge23" class="edge">
<title>n17:e&#45;&gt;c43:w</title>
<path fill="none" stroke="#e6ab02" d="M728.87,-552C961.93,-552 1020.56,-550.68 1252.87,-532 1361.78,-523.24 1387.93,-510.33 1496.87,-502 1695.57,-486.8 1748.35,-489.89 1942.63,-490"/>
<polygon fill="#e6ab02" stroke="#e6ab02" points="1942.89,-493.5 1952.89,-490 1942.89,-486.5 1942.89,-493.5"/>
</g>
<!-- n18 -->
<g id="node7" class="node">
<title>n18</title>
<polygon fill="none" stroke="black" points="1171.37,-318 1136.51,-300 1171.37,-282 1206.23,-300 1171.37,-318"/>
<text text-anchor="middle" x="1171.37" y="-296.3" font-family="Times,serif" font-size="14.00">trg</text>
</g>
<!-- x12 -->
<g id="node36" class="node">
<title>x12</title>
<path fill="none" stroke="black" d="M1368.87,-318C1368.87,-318 1338.87,-318 1338.87,-318 1332.87,-318 1326.87,-312 1326.87,-306 1326.87,-306 1326.87,-294 1326.87,-294 1326.87,-288 1332.87,-282 1338.87,-282 1338.87,-282 1368.87,-282 1368.87,-282 1374.87,-282 1380.87,-288 1380.87,-294 1380.87,-294 1380.87,-306 1380.87,-306 1380.87,-312 1374.87,-318 1368.87,-318"/>
<text text-anchor="middle" x="1353.87" y="-296.3" font-family="Times,serif" font-size="14.00">BUF</text>
</g>
<!-- n18&#45;&gt;x12 -->
<g id="edge26" class="edge">
<title>n18:e&#45;&gt;x12:w</title>
<path fill="none" stroke="#1b9e77" d="M1207.37,-300C1256.44,-300 1271.22,-300 1315.6,-300"/>
<polygon fill="#1b9e77" stroke="#1b9e77" points="1315.87,-303.5 1325.87,-300 1315.87,-296.5 1315.87,-303.5"/>
</g>
<!-- n19 -->
<g id="node8" class="node">
<title>n19</title>
<polygon fill="none" stroke="black" points="1640.65,-292.54 1640.65,-307.46 1612.96,-318 1573.8,-318 1546.11,-307.46 1546.11,-292.54 1573.8,-282 1612.96,-282 1640.65,-292.54"/>
<text text-anchor="middle" x="1593.38" y="-296.3" font-family="Times,serif" font-size="14.00">trigger</text>
</g>
<!-- v0 -->
<g id="node9" class="node">
<title>v0</title>
<ellipse fill="none" stroke="black" cx="372.26" cy="-18" rx="27" ry="18"/>
<text text-anchor="middle" x="372.26" y="-14.3" font-family="Times,serif" font-size="14.00">1</text>
</g>
<!-- v0&#45;&gt;c23 -->
<g id="edge39" class="edge">
<title>v0:e&#45;&gt;c23:w</title>
<path fill="none" stroke="#e6ab02" stroke-width="3" d="M400.26,-18C445.32,-18 459.04,-21.28 498.52,-43 503.94,-45.98 505.48,-50.99 507.74,-54.8"/>
<polygon fill="#e6ab02" stroke="#e6ab02" stroke-width="3" points="506.13,-57.91 516.52,-60 509.7,-51.89 506.13,-57.91"/>
<text text-anchor="middle" x="477.02" y="-46.8" font-family="Times,serif" font-size="14.00" fill="#e6ab02">&lt;32&gt;</text>
</g>
<!-- c23&#45;&gt;c32 -->
<g id="edge28" class="edge">
<title>c23:e&#45;&gt;c32:w</title>
<path fill="none" stroke="#666666" stroke-width="3" d="M623.02,-72C633.47,-72 629.57,-88.27 622.02,-95.5 588.17,-127.94 563.22,-99.75 516.52,-95.5 423.56,-87.04 386.99,-32.89 307,-81 257.42,-110.82 265.1,-141.39 246,-196 231.67,-236.98 261.4,-264.28 228,-292 180.97,-331.03 134.32,-334.59 90.5,-292 86.93,-288.53 84.33,-275.14 84.97,-265.97"/>
<polygon fill="#666666" stroke="#666666" stroke-width="3" points="88.11,-267.5 89.5,-257 81.86,-264.34 88.11,-267.5"/>
<text text-anchor="middle" x="372.26" y="-84.8" font-family="Times,serif" font-size="14.00" fill="#666666">&lt;32&gt;</text>
</g>
<!-- v1 -->
<g id="node11" class="node">
<title>v1</title>
<ellipse fill="none" stroke="black" cx="1593.38" cy="-529" rx="27" ry="18"/>
<text text-anchor="middle" x="1593.38" y="-525.3" font-family="Times,serif" font-size="14.00">1</text>
</g>
<!-- v1&#45;&gt;c24 -->
<g id="edge40" class="edge">
<title>v1:e&#45;&gt;c24:w</title>
<path fill="none" stroke="#666666" stroke-width="3" d="M1621.38,-529C1661.4,-529 1668.27,-509.61 1707.89,-504 1726.81,-501.32 1732.5,-498.82 1750.89,-504 1755.41,-505.27 1757.56,-508.02 1759.76,-510.45"/>
<polygon fill="#666666" stroke="#666666" stroke-width="3" points="1758.38,-513.67 1768.89,-515 1761.5,-507.41 1758.38,-513.67"/>
<text text-anchor="middle" x="1729.39" y="-507.8" font-family="Times,serif" font-size="14.00" fill="#666666">&lt;32&gt;</text>
</g>
<!-- c24&#45;&gt;c43 -->
<g id="edge29" class="edge">
<title>c24:e&#45;&gt;c43:w</title>
<path fill="none" stroke="#66a61e" stroke-width="3" d="M1873.89,-527C1888.69,-527 1878.91,-506.09 1891.89,-499 1908.67,-489.84 1916.82,-492.8 1934.89,-499 1939.99,-500.75 1941.89,-504.59 1944.07,-507.81"/>
<polygon fill="#66a61e" stroke="#66a61e" stroke-width="3" points="1942.5,-510.94 1952.89,-513 1946.05,-504.91 1942.5,-510.94"/>
<text text-anchor="middle" x="1913.39" y="-502.8" font-family="Times,serif" font-size="14.00" fill="#66a61e">&lt;32&gt;</text>
</g>
<!-- c29&#45;&gt;n16 -->
<g id="edge20" class="edge">
<title>c29:e&#45;&gt;n16:w</title>
<path fill="none" stroke="#d95f02" stroke-width="3" d="M2455.89,-721C2487.3,-721 2497.64,-721 2524.6,-721"/>
<polygon fill="#d95f02" stroke="#d95f02" stroke-width="3" points="2524.89,-724.5 2534.89,-721 2524.89,-717.5 2524.89,-724.5"/>
<text text-anchor="middle" x="2495.39" y="-724.8" font-family="Times,serif" font-size="14.00" fill="#d95f02">&lt;32&gt;</text>
</g>
<!-- c30&#45;&gt;n14 -->
<g id="edge15" class="edge">
<title>c30:e&#45;&gt;n14:w</title>
<path fill="none" stroke="#1b9e77" stroke-width="3" d="M1417.87,-579C1428,-579 1427.35,-587.51 1435.87,-593 1458.49,-607.57 1464.82,-621.25 1486.81,-624.35"/>
<polygon fill="#1b9e77" stroke="#1b9e77" stroke-width="3" points="1486.66,-627.84 1496.87,-625 1487.12,-620.86 1486.66,-627.84"/>
<text text-anchor="middle" x="1457.37" y="-625.8" font-family="Times,serif" font-size="14.00" fill="#1b9e77">&lt;32&gt;</text>
</g>
<!-- c32&#45;&gt;n13 -->
<g id="edge10" class="edge">
<title>c32:e&#45;&gt;n13:w</title>
<path fill="none" stroke="#7570b3" stroke-width="3" d="M228,-257C260.64,-257 269.07,-273.95 296.8,-277.39"/>
<polygon fill="#7570b3" stroke="#7570b3" stroke-width="3" points="296.81,-280.9 307,-278 297.23,-273.91 296.81,-280.9"/>
<text text-anchor="middle" x="267.5" y="-279.8" font-family="Times,serif" font-size="14.00" fill="#7570b3">&lt;32&gt;</text>
</g>
<!-- v2 -->
<g id="node16" class="node">
<title>v2</title>
<ellipse fill="none" stroke="black" cx="693.69" cy="-300" rx="27" ry="18"/>
<text text-anchor="middle" x="693.69" y="-296.3" font-family="Times,serif" font-size="14.00">1&#39;1</text>
</g>
<!-- v2&#45;&gt;c33 -->
<g id="edge42" class="edge">
<title>v2:e&#45;&gt;c33:w</title>
<path fill="none" stroke="#e6ab02" d="M721.69,-300C756.74,-300 767.28,-309.86 797.73,-311.7"/>
<polygon fill="#e6ab02" stroke="#e6ab02" points="797.77,-315.21 807.87,-312 797.98,-308.21 797.77,-315.21"/>
</g>
<!-- c33&#45;&gt;n18 -->
<g id="edge25" class="edge">
<title>c33:e&#45;&gt;n18:w</title>
<path fill="none" stroke="#1b9e77" d="M952.87,-300C1030.5,-300 1052.4,-300 1125.24,-300"/>
<polygon fill="#1b9e77" stroke="#1b9e77" points="1125.37,-303.5 1135.37,-300 1125.37,-296.5 1125.37,-303.5"/>
</g>
<!-- c34 -->
<g id="node18" class="node">
<title>c34</title>
<polygon fill="none" stroke="black" points="1089.87,-484 1089.87,-522 1252.87,-522 1252.87,-484 1089.87,-484"/>
<text text-anchor="middle" x="1102.87" y="-499.3" font-family="Times,serif" font-size="14.00">A</text>
<polyline fill="none" stroke="black" points="1115.87,-484 1115.87,-522 "/>
<text text-anchor="middle" x="1171.37" y="-506.8" font-family="Times,serif" font-size="14.00">$39</text>
<text text-anchor="middle" x="1171.37" y="-491.8" font-family="Times,serif" font-size="14.00">$reduce_bool</text>
<polyline fill="none" stroke="black" points="1226.87,-484 1226.87,-522 "/>
<text text-anchor="middle" x="1239.87" y="-499.3" font-family="Times,serif" font-size="14.00">Y</text>
</g>
<!-- c34&#45;&gt;c30 -->
<g id="edge30" class="edge">
<title>c34:e&#45;&gt;c30:w</title>
<path fill="none" stroke="#7570b3" d="M1252.87,-503C1277.33,-503 1266.13,-541.43 1280.01,-552.84"/>
<polygon fill="#7570b3" stroke="#7570b3" points="1279.28,-556.29 1289.87,-556 1281.41,-549.62 1279.28,-556.29"/>
</g>
<!-- x3&#45;&gt;c34 -->
<g id="edge1" class="edge">
<title>x3:e&#45;&gt;c34:w</title>
<path fill="none" stroke="#666666" stroke-width="3" d="M931.72,-500.03C993.63,-500.31 1015.77,-502.7 1077.8,-502.97"/>
<polygon fill="none" stroke="#666666" stroke-width="3" points="931.37,-500.03 925.36,-504.01 919.37,-500 925.38,-496.01 931.37,-500.03"/>
<polygon fill="none" stroke="#666666" stroke-width="3" points="1077.87,-502.97 1083.88,-498.99 1089.87,-503 1083.86,-506.99 1077.87,-502.97"/>
<text text-anchor="middle" x="1021.37" y="-505.8" font-family="Times,serif" font-size="14.00" fill="#666666">&lt;2&gt;</text>
</g>
<!-- x4 -->
<g id="node22" class="node">
<title>x4</title>
<path fill="none" stroke="#666666" d="M1981.89,-675C1981.89,-675 2032.89,-675 2032.89,-675 2038.89,-675 2044.89,-681 2044.89,-687 2044.89,-687 2044.89,-709 2044.89,-709 2044.89,-715 2038.89,-721 2032.89,-721 2032.89,-721 1981.89,-721 1981.89,-721 1975.89,-721 1969.89,-715 1969.89,-709 1969.89,-709 1969.89,-687 1969.89,-687 1969.89,-681 1975.89,-675 1981.89,-675"/>
<text text-anchor="middle" x="2007.39" y="-705.8" font-family="Times,serif" font-size="14.00" fill="#666666">0:0 &#45; 1:1</text>
<polyline fill="none" stroke="#666666" points="1969.89,-698 2044.89,-698 "/>
<text text-anchor="middle" x="2007.39" y="-682.8" font-family="Times,serif" font-size="14.00" fill="#666666">0:0 &#45; 0:0</text>
</g>
<!-- c35&#45;&gt;x4 -->
<g id="edge32" class="edge">
<title>c35:e&#45;&gt;x4:w</title>
<path fill="none" stroke="#d95f02" d="M1071.87,-682C1162.36,-682 1180.38,-725 1270.87,-725 1270.87,-725 1270.87,-725 1822.39,-725 1884.06,-725 1901.31,-711.6 1958.12,-710.13"/>
<polygon fill="#d95f02" stroke="#d95f02" points="1958.44,-713.63 1968.39,-710 1958.35,-706.63 1958.44,-713.63"/>
</g>
<!-- c36 -->
<g id="node21" class="node">
<title>c36</title>
<polygon fill="none" stroke="black" points="2131.89,-679 2131.89,-717 2290.89,-717 2290.89,-679 2131.89,-679"/>
<text text-anchor="middle" x="2144.89" y="-694.3" font-family="Times,serif" font-size="14.00">A</text>
<polyline fill="none" stroke="black" points="2157.89,-679 2157.89,-717 "/>
<text text-anchor="middle" x="2211.39" y="-701.8" font-family="Times,serif" font-size="14.00">$36</text>
<text text-anchor="middle" x="2211.39" y="-686.8" font-family="Times,serif" font-size="14.00">$reduce_and</text>
<polyline fill="none" stroke="black" points="2264.89,-679 2264.89,-717 "/>
<text text-anchor="middle" x="2277.89" y="-694.3" font-family="Times,serif" font-size="14.00">Y</text>
</g>
<!-- c36&#45;&gt;c29 -->
<g id="edge31" class="edge">
<title>c36:e&#45;&gt;c29:w</title>
<path fill="none" stroke="#d95f02" d="M2290.89,-698C2303.35,-698 2308.73,-698 2317.76,-698"/>
<polygon fill="#d95f02" stroke="#d95f02" points="2317.89,-701.5 2327.89,-698 2317.89,-694.5 2317.89,-701.5"/>
</g>
<!-- x4&#45;&gt;c36 -->
<g id="edge2" class="edge">
<title>x4:e&#45;&gt;c36:w</title>
<path fill="none" stroke="#e7298a" stroke-width="3" d="M2058.67,-698C2083.25,-698 2095.03,-698 2119.61,-698"/>
<polygon fill="none" stroke="#e7298a" stroke-width="3" points="2058.39,-698 2052.39,-702 2046.39,-698 2052.39,-694 2058.39,-698"/>
<polygon fill="none" stroke="#e7298a" stroke-width="3" points="2119.89,-698 2125.89,-694 2131.89,-698 2125.89,-702 2119.89,-698"/>
<text text-anchor="middle" x="2096.89" y="-701.8" font-family="Times,serif" font-size="14.00" fill="#e7298a">&lt;2&gt;</text>
</g>
<!-- v5 -->
<g id="node23" class="node">
<title>v5</title>
<ellipse fill="none" stroke="black" cx="372.26" cy="-392" rx="28.7" ry="18"/>
<text text-anchor="middle" x="372.26" y="-388.3" font-family="Times,serif" font-size="14.00">500</text>
</g>
<!-- v5&#45;&gt;c37 -->
<g id="edge43" class="edge">
<title>v5:e&#45;&gt;c37:w</title>
<path fill="none" stroke="#66a61e" stroke-width="3" d="M402.26,-392C425.95,-392 431.84,-390.63 455.52,-390 480.49,-389.34 489.14,-389.07 509.91,-389.01"/>
<polygon fill="#66a61e" stroke="#66a61e" stroke-width="3" points="510.02,-392.51 520.02,-389 510.02,-385.51 510.02,-392.51"/>
<text text-anchor="middle" x="477.02" y="-393.8" font-family="Times,serif" font-size="14.00" fill="#66a61e">&lt;32&gt;</text>
</g>
<!-- n7 -->
<g id="node37" class="node">
<title>n7</title>
<ellipse fill="black" stroke="black" cx="693.69" cy="-391" rx="1.8" ry="1.8"/>
</g>
<!-- c37&#45;&gt;n7 -->
<g id="edge33" class="edge">
<title>c37:e&#45;&gt;n7:w</title>
<path fill="none" stroke="#7570b3" d="M618.02,-401C646.93,-401 656.08,-393.14 680.51,-391.36"/>
<polygon fill="#7570b3" stroke="#7570b3" points="680.82,-394.85 690.69,-391 680.58,-387.85 680.82,-394.85"/>
</g>
<!-- v6 -->
<g id="node25" class="node">
<title>v6</title>
<ellipse fill="none" stroke="black" cx="372.26" cy="-123" rx="51.99" ry="18"/>
<text text-anchor="middle" x="372.26" y="-119.3" font-family="Times,serif" font-size="14.00">2000000</text>
</g>
<!-- v6&#45;&gt;c38 -->
<g id="edge44" class="edge">
<title>v6:e&#45;&gt;c38:w</title>
<path fill="none" stroke="#d95f02" stroke-width="3" d="M425.26,-123C458.69,-123 468.61,-125.09 498.52,-140 505.49,-143.48 507.28,-149.64 510.68,-153.77"/>
<polygon fill="#d95f02" stroke="#d95f02" stroke-width="3" points="509.47,-157.06 520.02,-158 512.35,-150.69 509.47,-157.06"/>
<text text-anchor="middle" x="477.02" y="-143.8" font-family="Times,serif" font-size="14.00" fill="#d95f02">&lt;32&gt;</text>
</g>
<!-- c38&#45;&gt;c33 -->
<g id="edge37" class="edge">
<title>c38:e&#45;&gt;c33:w</title>
<path fill="none" stroke="#e7298a" d="M618.02,-170C708.87,-170 713.3,-258.08 797.74,-264.62"/>
<polygon fill="#e7298a" stroke="#e7298a" points="797.74,-268.12 807.87,-265 798.01,-261.12 797.74,-268.12"/>
</g>
<!-- v7 -->
<g id="node27" class="node">
<title>v7</title>
<ellipse fill="none" stroke="black" cx="372.26" cy="-177" rx="51.99" ry="18"/>
<text text-anchor="middle" x="372.26" y="-173.3" font-family="Times,serif" font-size="14.00">5000000</text>
</g>
<!-- v7&#45;&gt;c39 -->
<g id="edge45" class="edge">
<title>v7:e&#45;&gt;c39:w</title>
<path fill="none" stroke="#d95f02" stroke-width="3" d="M425.26,-177C457.82,-177 471.09,-160.45 498.52,-178 513.25,-187.43 504.32,-210 510.79,-219.1"/>
<polygon fill="#d95f02" stroke="#d95f02" stroke-width="3" points="509.45,-222.33 520.02,-223 512.17,-215.88 509.45,-222.33"/>
<text text-anchor="middle" x="477.02" y="-181.8" font-family="Times,serif" font-size="14.00" fill="#d95f02">&lt;32&gt;</text>
</g>
<!-- c39&#45;&gt;c32 -->
<g id="edge38" class="edge">
<title>c39:e&#45;&gt;c32:w</title>
<path fill="none" stroke="#e6ab02" d="M618.02,-235C628.47,-235 624.57,-251.27 617.02,-258.5 586.22,-288.02 558.15,-279.52 521.02,-258.5 504.11,-248.92 515.43,-230.58 498.52,-221 481.89,-211.58 474.63,-220.97 455.52,-221 374.4,-221.11 150.12,-166.99 90.5,-222 89.89,-222.57 89.31,-223.25 88.79,-224"/>
<polygon fill="#e6ab02" stroke="#e6ab02" points="85.3,-224.27 89.5,-234 92.28,-223.78 85.3,-224.27"/>
</g>
<!-- v8 -->
<g id="node29" class="node">
<title>v8</title>
<ellipse fill="none" stroke="black" cx="1593.38" cy="-679" rx="27" ry="18"/>
<text text-anchor="middle" x="1593.38" y="-675.3" font-family="Times,serif" font-size="14.00">0</text>
</g>
<!-- v8&#45;&gt;c40 -->
<g id="edge46" class="edge">
<title>v8:e&#45;&gt;c40:w</title>
<path fill="none" stroke="#e7298a" stroke-width="3" d="M1621.38,-679C1679.23,-679 1693.78,-675.18 1750.89,-666 1756.58,-665.09 1759.75,-663.62 1763.25,-662.51"/>
<polygon fill="#e7298a" stroke="#e7298a" stroke-width="3" points="1764.02,-665.93 1773.39,-661 1762.99,-659.01 1764.02,-665.93"/>
<text text-anchor="middle" x="1729.39" y="-675.8" font-family="Times,serif" font-size="14.00" fill="#e7298a">&lt;32&gt;</text>
</g>
<!-- c40&#45;&gt;x4 -->
<g id="edge4" class="edge">
<title>c40:e&#45;&gt;x4:w</title>
<path fill="none" stroke="#66a61e" d="M1869.39,-673C1910.13,-673 1922.1,-683.95 1958.12,-685.75"/>
<polygon fill="#66a61e" stroke="#66a61e" points="1958.31,-689.26 1968.39,-686 1958.48,-682.26 1958.31,-689.26"/>
</g>
<!-- v9 -->
<g id="node31" class="node">
<title>v9</title>
<ellipse fill="none" stroke="black" cx="693.69" cy="-483" rx="30.59" ry="18"/>
<text text-anchor="middle" x="693.69" y="-479.3" font-family="Times,serif" font-size="14.00">32&#39;x</text>
</g>
<!-- c42 -->
<g id="node33" class="node">
<title>c42</title>
<polygon fill="none" stroke="black" points="825.87,-389.5 825.87,-458.5 934.87,-458.5 934.87,-389.5 825.87,-389.5"/>
<text text-anchor="middle" x="839.37" y="-443.3" font-family="Times,serif" font-size="14.00">A</text>
<polyline fill="none" stroke="black" points="825.87,-435.5 852.87,-435.5 "/>
<text text-anchor="middle" x="839.37" y="-420.3" font-family="Times,serif" font-size="14.00">B</text>
<polyline fill="none" stroke="black" points="825.87,-412.5 852.87,-412.5 "/>
<text text-anchor="middle" x="839.37" y="-397.3" font-family="Times,serif" font-size="14.00">S</text>
<polyline fill="none" stroke="black" points="852.87,-389.5 852.87,-458.5 "/>
<text text-anchor="middle" x="880.87" y="-427.8" font-family="Times,serif" font-size="14.00">$18</text>
<text text-anchor="middle" x="880.87" y="-412.8" font-family="Times,serif" font-size="14.00">$mux</text>
<polyline fill="none" stroke="black" points="908.87,-389.5 908.87,-458.5 "/>
<text text-anchor="middle" x="921.87" y="-420.3" font-family="Times,serif" font-size="14.00">Y</text>
</g>
<!-- v9&#45;&gt;c42 -->
<g id="edge47" class="edge">
<title>v9:e&#45;&gt;c42:w</title>
<path fill="none" stroke="#666666" stroke-width="3" d="M725.69,-483C768.73,-483 776.6,-452.41 814.15,-447.62"/>
<polygon fill="#666666" stroke="#666666" stroke-width="3" points="814.6,-451.1 824.37,-447 814.17,-444.12 814.6,-451.1"/>
<text text-anchor="middle" x="768.37" y="-483.8" font-family="Times,serif" font-size="14.00" fill="#666666">&lt;32&gt;</text>
</g>
<!-- v10 -->
<g id="node32" class="node">
<title>v10</title>
<ellipse fill="none" stroke="black" cx="693.69" cy="-429" rx="27" ry="18"/>
<text text-anchor="middle" x="693.69" y="-425.3" font-family="Times,serif" font-size="14.00">0</text>
</g>
<!-- v10&#45;&gt;c42 -->
<g id="edge41" class="edge">
<title>v10:e&#45;&gt;c42:w</title>
<path fill="none" stroke="#e7298a" stroke-width="3" d="M721.69,-429C763.81,-429 776.71,-424.75 814.26,-424.09"/>
<polygon fill="#e7298a" stroke="#e7298a" stroke-width="3" points="814.4,-427.59 824.37,-424 814.34,-420.59 814.4,-427.59"/>
<text text-anchor="middle" x="768.37" y="-432.8" font-family="Times,serif" font-size="14.00" fill="#e7298a">&lt;32&gt;</text>
</g>
<!-- c42&#45;&gt;c43 -->
<g id="edge5" class="edge">
<title>c42:e&#45;&gt;c43:w</title>
<path fill="none" stroke="#d95f02" stroke-width="3" d="M936.37,-424C1040.79,-424 1065.95,-445 1170.37,-445 1170.37,-445 1170.37,-445 1594.38,-445 1720.58,-445 1765.77,-429.91 1873.89,-495 1885.01,-501.69 1881.16,-510.7 1891.89,-518 1912.26,-531.84 1921.98,-535.23 1942.83,-535.87"/>
<polygon fill="#d95f02" stroke="#d95f02" stroke-width="3" points="1942.85,-539.37 1952.89,-536 1942.94,-532.37 1942.85,-539.37"/>
<text text-anchor="middle" x="1457.37" y="-448.8" font-family="Times,serif" font-size="14.00" fill="#d95f02">&lt;32&gt;</text>
</g>
<!-- c43&#45;&gt;c30 -->
<g id="edge3" class="edge">
<title>c43:e&#45;&gt;c30:w</title>
<path fill="none" stroke="#e6ab02" stroke-width="3" d="M2063.39,-513C2071.17,-513 2067.77,-542.38 2062.39,-548 1965.84,-648.81 1560.51,-530.17 1435.87,-593 1424.89,-598.53 1429.04,-608.86 1417.87,-614 1366.19,-637.77 1330.67,-653.65 1289.87,-614 1286.29,-610.53 1283.7,-597.14 1284.34,-587.97"/>
<polygon fill="#e6ab02" stroke="#e6ab02" stroke-width="3" points="1287.48,-589.5 1288.87,-579 1281.23,-586.34 1287.48,-589.5"/>
<text text-anchor="middle" x="1729.39" y="-586.8" font-family="Times,serif" font-size="14.00" fill="#e6ab02">&lt;32&gt;</text>
</g>
<!-- x11&#45;&gt;n15 -->
<g id="edge19" class="edge">
<title>x11:e&#45;&gt;n15:w</title>
<path fill="none" stroke="#666666" stroke-width="3" d="M2860.92,-721C2892.32,-721 2902.66,-721 2929.62,-721"/>
<polygon fill="#666666" stroke="#666666" stroke-width="3" points="2929.92,-724.5 2939.92,-721 2929.92,-717.5 2929.92,-724.5"/>
<text text-anchor="middle" x="2900.42" y="-724.8" font-family="Times,serif" font-size="14.00" fill="#666666">&lt;32&gt;</text>
</g>
<!-- x12&#45;&gt;n19 -->
<g id="edge27" class="edge">
<title>x12:e&#45;&gt;n19:w</title>
<path fill="none" stroke="#e6ab02" d="M1381.87,-300C1450.57,-300 1470.26,-300 1534.18,-300"/>
<polygon fill="#e6ab02" stroke="#e6ab02" points="1534.38,-303.5 1544.38,-300 1534.38,-296.5 1534.38,-303.5"/>
</g>
<!-- n7&#45;&gt;c33 -->
<g id="edge34" class="edge">
<title>n7:e&#45;&gt;c33:w</title>
<path fill="none" stroke="#7570b3" d="M696.69,-391C740.78,-391 760.21,-389.61 789.87,-357 808.2,-336.85 784.91,-300.37 798.11,-290.51"/>
<polygon fill="#7570b3" stroke="#7570b3" points="799.06,-293.89 807.87,-288 797.31,-287.11 799.06,-293.89"/>
</g>
<!-- n7&#45;&gt;x3 -->
<g id="edge36" class="edge">
<title>n7:e&#45;&gt;x3:w</title>
<path fill="none" stroke="#7570b3" d="M696.69,-391C711.81,-391 718.99,-390.56 728.87,-402 757.53,-435.18 715.15,-468.73 746.87,-499 775.02,-525.87 795.4,-514.36 831.34,-512.29"/>
<polygon fill="#7570b3" stroke="#7570b3" points="831.48,-515.79 841.37,-512 831.27,-508.8 831.48,-515.79"/>
</g>
<!-- n7&#45;&gt;c42 -->
<g id="edge35" class="edge">
<title>n7:e&#45;&gt;c42:w</title>
<path fill="none" stroke="#7570b3" d="M696.69,-391C750.06,-391 765.55,-399.79 814.18,-400.89"/>
<polygon fill="#7570b3" stroke="#7570b3" points="814.33,-404.39 824.37,-401 814.41,-397.39 814.33,-404.39"/>
</g>
</g>
</svg>
