<?xml version="1.0" encoding="UTF-8" standalone="no"?>
<!DOCTYPE svg PUBLIC "-//W3C//DTD SVG 1.1//EN"
 "http://www.w3.org/Graphics/SVG/1.1/DTD/svg11.dtd">
<!-- Generated by graphviz version 2.43.0 (0)
 -->
<!-- Title: vin_pwmcounter Pages: 1 -->
<svg width="3942pt" height="506pt"
 viewBox="0.00 0.00 3942.31 506.00" xmlns="http://www.w3.org/2000/svg" xmlns:xlink="http://www.w3.org/1999/xlink">
<g id="graph0" class="graph" transform="scale(1 1) rotate(0) translate(4 502)">
<title>vin_pwmcounter</title>
<polygon fill="white" stroke="transparent" points="-4,4 -4,-502 3938.31,-502 3938.31,4 -4,4"/>
<!-- n10 -->
<g id="node1" class="node">
<title>n10</title>
<polygon fill="none" stroke="black" points="104.18,-87.54 104.18,-102.46 73.65,-113 30.47,-113 -0.06,-102.46 -0.06,-87.54 30.47,-77 73.65,-77 104.18,-87.54"/>
<text text-anchor="middle" x="52.06" y="-91.3" font-family="Times,serif" font-size="14.00">SIGNAL</text>
</g>
<!-- x11 -->
<g id="node31" class="node">
<title>x11</title>
<path fill="none" stroke="#666666" d="M153.12,-84C153.12,-84 204.12,-84 204.12,-84 210.12,-84 216.12,-90 216.12,-96 216.12,-96 216.12,-118 216.12,-118 216.12,-124 210.12,-130 204.12,-130 204.12,-130 153.12,-130 153.12,-130 147.12,-130 141.12,-124 141.12,-118 141.12,-118 141.12,-96 141.12,-96 141.12,-90 147.12,-84 153.12,-84"/>
<text text-anchor="middle" x="178.62" y="-114.8" font-family="Times,serif" font-size="14.00" fill="#666666">1:0 &#45; 2:1</text>
<polyline fill="none" stroke="#666666" points="141.12,-107 216.12,-107 "/>
<text text-anchor="middle" x="178.62" y="-91.8" font-family="Times,serif" font-size="14.00" fill="#666666">0:0 &#45; 0:0</text>
</g>
<!-- n10&#45;&gt;x11 -->
<g id="edge9" class="edge">
<title>n10:e&#45;&gt;x11:w</title>
<path fill="none" stroke="#666666" d="M104.12,-95C116.58,-95 121.96,-95 130.99,-95"/>
<polygon fill="#666666" stroke="#666666" points="131.12,-98.5 141.12,-95 131.12,-91.5 131.12,-98.5"/>
</g>
<!-- n11 -->
<g id="node2" class="node">
<title>n11</title>
<polygon fill="none" stroke="black" points="1574.39,-161 1455.75,-143 1574.39,-125 1693.04,-143 1574.39,-161"/>
<text text-anchor="middle" x="1574.39" y="-139.3" font-family="Times,serif" font-size="14.00">SIG_fallingedge</text>
</g>
<!-- c27 -->
<g id="node11" class="node">
<title>c27</title>
<polygon fill="none" stroke="black" points="1729.96,-93 1729.96,-185 1881.96,-185 1881.96,-93 1729.96,-93"/>
<text text-anchor="middle" x="1757.96" y="-169.8" font-family="Times,serif" font-size="14.00">CLK</text>
<polyline fill="none" stroke="black" points="1729.96,-162 1785.96,-162 "/>
<text text-anchor="middle" x="1757.96" y="-146.8" font-family="Times,serif" font-size="14.00">D</text>
<polyline fill="none" stroke="black" points="1729.96,-139 1785.96,-139 "/>
<text text-anchor="middle" x="1757.96" y="-123.8" font-family="Times,serif" font-size="14.00">EN</text>
<polyline fill="none" stroke="black" points="1729.96,-116 1785.96,-116 "/>
<text text-anchor="middle" x="1757.96" y="-100.8" font-family="Times,serif" font-size="14.00">SRST</text>
<polyline fill="none" stroke="black" points="1785.96,-93 1785.96,-185 "/>
<text text-anchor="middle" x="1819.96" y="-142.8" font-family="Times,serif" font-size="14.00">$30</text>
<text text-anchor="middle" x="1819.96" y="-127.8" font-family="Times,serif" font-size="14.00">$sdffce</text>
<polyline fill="none" stroke="black" points="1853.96,-93 1853.96,-185 "/>
<text text-anchor="middle" x="1867.96" y="-135.3" font-family="Times,serif" font-size="14.00">Q</text>
</g>
<!-- n11&#45;&gt;c27 -->
<g id="edge11" class="edge">
<title>n11:e&#45;&gt;c27:w</title>
<path fill="none" stroke="#d95f02" d="M1692.96,-143C1706.82,-143 1710.66,-133.43 1719.98,-129.09"/>
<polygon fill="#d95f02" stroke="#d95f02" points="1720.89,-132.48 1729.96,-127 1719.46,-125.62 1720.89,-132.48"/>
</g>
<!-- x1 -->
<g id="node14" class="node">
<title>x1</title>
<path fill="none" stroke="#666666" d="M2530.93,-335.5C2530.93,-335.5 2581.93,-335.5 2581.93,-335.5 2587.93,-335.5 2593.93,-341.5 2593.93,-347.5 2593.93,-347.5 2593.93,-392.5 2593.93,-392.5 2593.93,-398.5 2587.93,-404.5 2581.93,-404.5 2581.93,-404.5 2530.93,-404.5 2530.93,-404.5 2524.93,-404.5 2518.93,-398.5 2518.93,-392.5 2518.93,-392.5 2518.93,-347.5 2518.93,-347.5 2518.93,-341.5 2524.93,-335.5 2530.93,-335.5"/>
<text text-anchor="middle" x="2556.43" y="-389.3" font-family="Times,serif" font-size="14.00" fill="#666666">0:0 &#45; 2:2</text>
<polyline fill="none" stroke="#666666" points="2518.93,-381.5 2593.93,-381.5 "/>
<text text-anchor="middle" x="2556.43" y="-366.3" font-family="Times,serif" font-size="14.00" fill="#666666">0:0 &#45; 1:1</text>
<polyline fill="none" stroke="#666666" points="2518.93,-358.5 2593.93,-358.5 "/>
<text text-anchor="middle" x="2556.43" y="-343.3" font-family="Times,serif" font-size="14.00" fill="#666666">0:0 &#45; 0:0</text>
</g>
<!-- n11&#45;&gt;x1 -->
<g id="edge13" class="edge">
<title>n11:e&#45;&gt;x1:w</title>
<path fill="none" stroke="#d95f02" d="M1692.96,-143C1720.97,-143 1705.64,-180.12 1729.96,-194 1837.15,-255.15 2164.81,-209.99 2282.84,-246 2321.07,-257.67 2326.55,-270.21 2361.84,-289 2365.55,-290.98 2475.18,-349.91 2508.22,-365.98"/>
<polygon fill="#d95f02" stroke="#d95f02" points="2506.87,-369.21 2517.43,-370 2509.67,-362.79 2506.87,-369.21"/>
</g>
<!-- x2 -->
<g id="node17" class="node">
<title>x2</title>
<path fill="none" stroke="#666666" d="M1780.46,-423C1780.46,-423 1831.46,-423 1831.46,-423 1837.46,-423 1843.46,-429 1843.46,-435 1843.46,-435 1843.46,-457 1843.46,-457 1843.46,-463 1837.46,-469 1831.46,-469 1831.46,-469 1780.46,-469 1780.46,-469 1774.46,-469 1768.46,-463 1768.46,-457 1768.46,-457 1768.46,-435 1768.46,-435 1768.46,-429 1774.46,-423 1780.46,-423"/>
<text text-anchor="middle" x="1805.96" y="-453.8" font-family="Times,serif" font-size="14.00" fill="#666666">0:0 &#45; 1:1</text>
<polyline fill="none" stroke="#666666" points="1768.46,-446 1843.46,-446 "/>
<text text-anchor="middle" x="1805.96" y="-430.8" font-family="Times,serif" font-size="14.00" fill="#666666">0:0 &#45; 0:0</text>
</g>
<!-- n11&#45;&gt;x2 -->
<g id="edge14" class="edge">
<title>n11:e&#45;&gt;x2:w</title>
<path fill="none" stroke="#d95f02" d="M1692.96,-143C1708.1,-143 1723.9,-399.13 1729.96,-413 1738.8,-433.2 1740.64,-451.63 1756.98,-456.66"/>
<polygon fill="#d95f02" stroke="#d95f02" points="1756.59,-460.13 1766.96,-458 1757.52,-453.2 1756.59,-460.13"/>
</g>
<!-- c40 -->
<g id="node37" class="node">
<title>c40</title>
<polygon fill="none" stroke="black" points="2931.93,-112.5 2931.93,-181.5 3040.93,-181.5 3040.93,-112.5 2931.93,-112.5"/>
<text text-anchor="middle" x="2945.43" y="-166.3" font-family="Times,serif" font-size="14.00">A</text>
<polyline fill="none" stroke="black" points="2931.93,-158.5 2958.93,-158.5 "/>
<text text-anchor="middle" x="2945.43" y="-143.3" font-family="Times,serif" font-size="14.00">B</text>
<polyline fill="none" stroke="black" points="2931.93,-135.5 2958.93,-135.5 "/>
<text text-anchor="middle" x="2945.43" y="-120.3" font-family="Times,serif" font-size="14.00">S</text>
<polyline fill="none" stroke="black" points="2958.93,-112.5 2958.93,-181.5 "/>
<text text-anchor="middle" x="2986.93" y="-150.8" font-family="Times,serif" font-size="14.00">$16</text>
<text text-anchor="middle" x="2986.93" y="-135.8" font-family="Times,serif" font-size="14.00">$mux</text>
<polyline fill="none" stroke="black" points="3014.93,-112.5 3014.93,-181.5 "/>
<text text-anchor="middle" x="3027.93" y="-143.3" font-family="Times,serif" font-size="14.00">Y</text>
</g>
<!-- n11&#45;&gt;c40 -->
<g id="edge12" class="edge">
<title>n11:e&#45;&gt;c40:w</title>
<path fill="none" stroke="#d95f02" d="M1692.96,-143C1724.29,-143 1702.61,-98.27 1729.96,-83 1873.12,-3.09 1934.94,-78.95 2098.84,-83 2188.59,-85.22 2799.31,-121.62 2921.65,-123.89"/>
<polygon fill="#d95f02" stroke="#d95f02" points="2921.9,-127.39 2931.93,-124 2921.97,-120.39 2921.9,-127.39"/>
</g>
<!-- n12 -->
<g id="node3" class="node">
<title>n12</title>
<polygon fill="none" stroke="black" points="1104.93,-320 990.14,-302 1104.93,-284 1219.72,-302 1104.93,-320"/>
<text text-anchor="middle" x="1104.93" y="-298.3" font-family="Times,serif" font-size="14.00">SIG_risingedge</text>
</g>
<!-- n12&#45;&gt;x1 -->
<g id="edge17" class="edge">
<title>n12:e&#45;&gt;x1:w</title>
<path fill="none" stroke="#e6ab02" d="M1219.82,-302C1229.96,-302 1228.69,-311.6 1237.82,-316 1278.6,-335.67 1291.55,-340 1336.82,-340 1336.82,-340 1336.82,-340 1711.96,-340 1901.43,-340 1947.87,-368 2137.34,-368 2137.34,-368 2137.34,-368 2393.39,-368 2434.11,-368 2443.87,-361.28 2483.93,-354 2494.92,-352 2499.63,-349.16 2507.39,-347.8"/>
<polygon fill="#e6ab02" stroke="#e6ab02" points="2507.74,-351.28 2517.43,-347 2507.19,-344.3 2507.74,-351.28"/>
</g>
<!-- n12&#45;&gt;x2 -->
<g id="edge18" class="edge">
<title>n12:e&#45;&gt;x2:w</title>
<path fill="none" stroke="#e6ab02" d="M1219.82,-302C1244.28,-302 1219.02,-338.36 1237.82,-354 1418.09,-503.94 1526.03,-436 1756.94,-434.04"/>
<polygon fill="#e6ab02" stroke="#e6ab02" points="1756.98,-437.54 1766.96,-434 1756.95,-430.54 1756.98,-437.54"/>
</g>
<!-- x5 -->
<g id="node21" class="node">
<title>x5</title>
<path fill="none" stroke="#e6ab02" d="M1312.32,-218C1312.32,-218 1363.32,-218 1363.32,-218 1369.32,-218 1375.32,-224 1375.32,-230 1375.32,-230 1375.32,-252 1375.32,-252 1375.32,-258 1369.32,-264 1363.32,-264 1363.32,-264 1312.32,-264 1312.32,-264 1306.32,-264 1300.32,-258 1300.32,-252 1300.32,-252 1300.32,-230 1300.32,-230 1300.32,-224 1306.32,-218 1312.32,-218"/>
<text text-anchor="middle" x="1337.82" y="-248.8" font-family="Times,serif" font-size="14.00" fill="#e6ab02">0:0 &#45; 1:1</text>
<polyline fill="none" stroke="#e6ab02" points="1300.32,-241 1375.32,-241 "/>
<text text-anchor="middle" x="1337.82" y="-225.8" font-family="Times,serif" font-size="14.00" fill="#e6ab02">0:0 &#45; 0:0</text>
</g>
<!-- n12&#45;&gt;x5 -->
<g id="edge19" class="edge">
<title>n12:e&#45;&gt;x5:w</title>
<path fill="none" stroke="#e6ab02" d="M1219.82,-302C1224.75,-302 1271.16,-252.41 1290.67,-234.97"/>
<polygon fill="#e6ab02" stroke="#e6ab02" points="1292.83,-237.74 1298.82,-229 1288.69,-232.09 1292.83,-237.74"/>
</g>
<!-- c39 -->
<g id="node36" class="node">
<title>c39</title>
<polygon fill="none" stroke="black" points="2716.93,-169.5 2716.93,-238.5 2825.93,-238.5 2825.93,-169.5 2716.93,-169.5"/>
<text text-anchor="middle" x="2730.43" y="-223.3" font-family="Times,serif" font-size="14.00">A</text>
<polyline fill="none" stroke="black" points="2716.93,-215.5 2743.93,-215.5 "/>
<text text-anchor="middle" x="2730.43" y="-200.3" font-family="Times,serif" font-size="14.00">B</text>
<polyline fill="none" stroke="black" points="2716.93,-192.5 2743.93,-192.5 "/>
<text text-anchor="middle" x="2730.43" y="-177.3" font-family="Times,serif" font-size="14.00">S</text>
<polyline fill="none" stroke="black" points="2743.93,-169.5 2743.93,-238.5 "/>
<text text-anchor="middle" x="2771.93" y="-207.8" font-family="Times,serif" font-size="14.00">$13</text>
<text text-anchor="middle" x="2771.93" y="-192.8" font-family="Times,serif" font-size="14.00">$mux</text>
<polyline fill="none" stroke="black" points="2799.93,-169.5 2799.93,-238.5 "/>
<text text-anchor="middle" x="2812.93" y="-200.3" font-family="Times,serif" font-size="14.00">Y</text>
</g>
<!-- n12&#45;&gt;c39 -->
<g id="edge16" class="edge">
<title>n12:e&#45;&gt;c39:w</title>
<path fill="none" stroke="#e6ab02" d="M1219.82,-302C1316.91,-302 1341.05,-295.8 1437.82,-288 1759.18,-262.11 1840.54,-262.64 2159.84,-218 2250.23,-205.36 2270.94,-189.26 2361.84,-181 2514.83,-167.1 2556.43,-180.38 2705.02,-180.98"/>
<polygon fill="#e6ab02" stroke="#e6ab02" points="2705.43,-184.48 2715.43,-181 2705.44,-177.48 2705.43,-184.48"/>
</g>
<!-- n13 -->
<g id="node4" class="node">
<title>n13</title>
<polygon fill="none" stroke="black" points="522.07,-148 476.16,-130 522.07,-112 567.99,-130 522.07,-148"/>
<text text-anchor="middle" x="522.07" y="-126.3" font-family="Times,serif" font-size="14.00">SIGr</text>
</g>
<!-- x6 -->
<g id="node24" class="node">
<title>x6</title>
<path fill="none" stroke="#66a61e" d="M650.03,-282C650.03,-282 701.03,-282 701.03,-282 707.03,-282 713.03,-288 713.03,-294 713.03,-294 713.03,-306 713.03,-306 713.03,-312 707.03,-318 701.03,-318 701.03,-318 650.03,-318 650.03,-318 644.03,-318 638.03,-312 638.03,-306 638.03,-306 638.03,-294 638.03,-294 638.03,-288 644.03,-282 650.03,-282"/>
<text text-anchor="middle" x="675.53" y="-296.3" font-family="Times,serif" font-size="14.00" fill="#66a61e">2:1 &#45; 1:0</text>
</g>
<!-- n13&#45;&gt;x6 -->
<g id="edge22" class="edge">
<title>n13:e&#45;&gt;x6:w</title>
<path fill="none" stroke="#1b9e77" stroke-width="3" d="M568.03,-130C605.38,-130 598.8,-272.04 628.6,-296.45"/>
<polygon fill="#1b9e77" stroke="#1b9e77" stroke-width="3" points="627.44,-299.75 638.03,-300 629.91,-293.2 627.44,-299.75"/>
<text text-anchor="middle" x="603.03" y="-285.8" font-family="Times,serif" font-size="14.00" fill="#1b9e77">&lt;2&gt;</text>
</g>
<!-- x8 -->
<g id="node27" class="node">
<title>x8</title>
<path fill="none" stroke="#d95f02" d="M743.03,-111C743.03,-111 794.03,-111 794.03,-111 800.03,-111 806.03,-117 806.03,-123 806.03,-123 806.03,-135 806.03,-135 806.03,-141 800.03,-147 794.03,-147 794.03,-147 743.03,-147 743.03,-147 737.03,-147 731.03,-141 731.03,-135 731.03,-135 731.03,-123 731.03,-123 731.03,-117 737.03,-111 743.03,-111"/>
<text text-anchor="middle" x="768.53" y="-125.3" font-family="Times,serif" font-size="14.00" fill="#d95f02">2:1 &#45; 1:0</text>
</g>
<!-- n13&#45;&gt;x8 -->
<g id="edge23" class="edge">
<title>n13:e&#45;&gt;x8:w</title>
<path fill="none" stroke="#1b9e77" stroke-width="3" d="M568.03,-130C576.04,-130 578.02,-129.22 586.03,-129 646.93,-127.31 664.68,-128.82 720.88,-128.98"/>
<polygon fill="#1b9e77" stroke="#1b9e77" stroke-width="3" points="721.03,-132.48 731.03,-129 721.04,-125.48 721.03,-132.48"/>
<text text-anchor="middle" x="603.03" y="-132.8" font-family="Times,serif" font-size="14.00" fill="#1b9e77">&lt;2&gt;</text>
</g>
<!-- n13&#45;&gt;x11 -->
<g id="edge21" class="edge">
<title>n13:e&#45;&gt;x11:w</title>
<path fill="none" stroke="#1b9e77" stroke-width="3" d="M569.07,-130C577.09,-130 573.9,-142.49 568.07,-148 538.38,-176.09 516.97,-149.06 476.12,-148 401.49,-146.05 194.31,-182.37 140.62,-130.5 140.27,-130.17 139.94,-129.79 139.62,-129.39"/>
<polygon fill="#1b9e77" stroke="#1b9e77" stroke-width="3" points="143.12,-129 139.62,-119 136.12,-129 143.12,-129"/>
<text text-anchor="middle" x="346.12" y="-162.8" font-family="Times,serif" font-size="14.00" fill="#1b9e77">&lt;2&gt;</text>
</g>
<!-- n14 -->
<g id="node5" class="node">
<title>n14</title>
<polygon fill="none" stroke="black" points="205.62,-181.54 205.62,-196.46 189.8,-207 167.43,-207 151.62,-196.46 151.62,-181.54 167.43,-171 189.8,-171 205.62,-181.54"/>
<text text-anchor="middle" x="178.62" y="-185.3" font-family="Times,serif" font-size="14.00">clk</text>
</g>
<!-- n14&#45;&gt;c27 -->
<g id="edge24" class="edge">
<title>n14:e&#45;&gt;c27:w</title>
<path fill="none" stroke="#e6ab02" d="M206.62,-189C268.17,-189 283.56,-189 345.12,-189 345.12,-189 345.12,-189 1575.39,-189 1640.91,-189 1659.13,-175.48 1719.84,-174.11"/>
<polygon fill="#e6ab02" stroke="#e6ab02" points="1720,-177.61 1729.96,-174 1719.93,-170.61 1720,-177.61"/>
</g>
<!-- c28 -->
<g id="node12" class="node">
<title>c28</title>
<polygon fill="none" stroke="black" points="3306.93,-416.5 3306.93,-485.5 3434.93,-485.5 3434.93,-416.5 3306.93,-416.5"/>
<text text-anchor="middle" x="3330.43" y="-470.3" font-family="Times,serif" font-size="14.00">CLK</text>
<polyline fill="none" stroke="black" points="3306.93,-462.5 3353.93,-462.5 "/>
<text text-anchor="middle" x="3330.43" y="-447.3" font-family="Times,serif" font-size="14.00">D</text>
<polyline fill="none" stroke="black" points="3306.93,-439.5 3353.93,-439.5 "/>
<text text-anchor="middle" x="3330.43" y="-424.3" font-family="Times,serif" font-size="14.00">EN</text>
<polyline fill="none" stroke="black" points="3353.93,-416.5 3353.93,-485.5 "/>
<text text-anchor="middle" x="3380.43" y="-454.8" font-family="Times,serif" font-size="14.00">$33</text>
<text text-anchor="middle" x="3380.43" y="-439.8" font-family="Times,serif" font-size="14.00">$dffe</text>
<polyline fill="none" stroke="black" points="3406.93,-416.5 3406.93,-485.5 "/>
<text text-anchor="middle" x="3420.93" y="-447.3" font-family="Times,serif" font-size="14.00">Q</text>
</g>
<!-- n14&#45;&gt;c28 -->
<g id="edge25" class="edge">
<title>n14:e&#45;&gt;c28:w</title>
<path fill="none" stroke="#e6ab02" d="M206.62,-189C281.87,-189 269.87,-498 345.12,-498 345.12,-498 345.12,-498 3191.43,-498 3240.28,-498 3252.85,-477.17 3296.74,-474.32"/>
<polygon fill="#e6ab02" stroke="#e6ab02" points="3297.05,-477.81 3306.93,-474 3296.83,-470.82 3297.05,-477.81"/>
</g>
<!-- c36 -->
<g id="node30" class="node">
<title>c36</title>
<polygon fill="none" stroke="black" points="286.12,-56 286.12,-102 406.12,-102 406.12,-56 286.12,-56"/>
<text text-anchor="middle" x="309.62" y="-86.8" font-family="Times,serif" font-size="14.00">CLK</text>
<polyline fill="none" stroke="black" points="286.12,-79 333.12,-79 "/>
<text text-anchor="middle" x="309.62" y="-63.8" font-family="Times,serif" font-size="14.00">D</text>
<polyline fill="none" stroke="black" points="333.12,-56 333.12,-102 "/>
<text text-anchor="middle" x="355.62" y="-82.8" font-family="Times,serif" font-size="14.00">$28</text>
<text text-anchor="middle" x="355.62" y="-67.8" font-family="Times,serif" font-size="14.00">$dff</text>
<polyline fill="none" stroke="black" points="378.12,-56 378.12,-102 "/>
<text text-anchor="middle" x="392.12" y="-75.3" font-family="Times,serif" font-size="14.00">Q</text>
</g>
<!-- n14&#45;&gt;c36 -->
<g id="edge26" class="edge">
<title>n14:e&#45;&gt;c36:w</title>
<path fill="none" stroke="#e6ab02" d="M206.62,-189C226.83,-189 256.14,-138.28 268.12,-122 274.61,-113.18 273.15,-101.83 276.78,-95.61"/>
<polygon fill="#e6ab02" stroke="#e6ab02" points="278.7,-98.56 286.12,-91 275.6,-92.29 278.7,-98.56"/>
</g>
<!-- n15 -->
<g id="node6" class="node">
<title>n15</title>
<polygon fill="none" stroke="black" points="3556.21,-469 3514.15,-451 3556.21,-433 3598.28,-451 3556.21,-469"/>
<text text-anchor="middle" x="3556.21" y="-447.3" font-family="Times,serif" font-size="14.00">freq</text>
</g>
<!-- x15 -->
<g id="node38" class="node">
<title>x15</title>
<path fill="none" stroke="black" d="M3719.5,-469C3719.5,-469 3689.5,-469 3689.5,-469 3683.5,-469 3677.5,-463 3677.5,-457 3677.5,-457 3677.5,-445 3677.5,-445 3677.5,-439 3683.5,-433 3689.5,-433 3689.5,-433 3719.5,-433 3719.5,-433 3725.5,-433 3731.5,-439 3731.5,-445 3731.5,-445 3731.5,-457 3731.5,-457 3731.5,-463 3725.5,-469 3719.5,-469"/>
<text text-anchor="middle" x="3704.5" y="-447.3" font-family="Times,serif" font-size="14.00">BUF</text>
</g>
<!-- n15&#45;&gt;x15 -->
<g id="edge28" class="edge">
<title>n15:e&#45;&gt;x15:w</title>
<path fill="none" stroke="#666666" stroke-width="3" d="M3598.5,-451C3629.9,-451 3640.24,-451 3667.2,-451"/>
<polygon fill="#666666" stroke="#666666" stroke-width="3" points="3667.5,-454.5 3677.5,-451 3667.5,-447.5 3667.5,-454.5"/>
<text text-anchor="middle" x="3638" y="-454.8" font-family="Times,serif" font-size="14.00" fill="#666666">&lt;32&gt;</text>
</g>
<!-- n16 -->
<g id="node7" class="node">
<title>n16</title>
<polygon fill="none" stroke="black" points="2029.9,-128 1961.03,-110 2029.9,-92 2098.77,-110 2029.9,-128"/>
<text text-anchor="middle" x="2029.9" y="-106.3" font-family="Times,serif" font-size="14.00">freq_cnt</text>
</g>
<!-- c21 -->
<g id="node10" class="node">
<title>c21</title>
<polygon fill="none" stroke="black" points="2177.84,-10 2177.84,-56 2282.84,-56 2282.84,-10 2177.84,-10"/>
<text text-anchor="middle" x="2191.34" y="-40.8" font-family="Times,serif" font-size="14.00">A</text>
<polyline fill="none" stroke="black" points="2177.84,-33 2204.84,-33 "/>
<text text-anchor="middle" x="2191.34" y="-17.8" font-family="Times,serif" font-size="14.00">B</text>
<polyline fill="none" stroke="black" points="2204.84,-10 2204.84,-56 "/>
<text text-anchor="middle" x="2230.84" y="-36.8" font-family="Times,serif" font-size="14.00">$6</text>
<text text-anchor="middle" x="2230.84" y="-21.8" font-family="Times,serif" font-size="14.00">$add</text>
<polyline fill="none" stroke="black" points="2256.84,-10 2256.84,-56 "/>
<text text-anchor="middle" x="2269.84" y="-29.3" font-family="Times,serif" font-size="14.00">Y</text>
</g>
<!-- n16&#45;&gt;c21 -->
<g id="edge30" class="edge">
<title>n16:e&#45;&gt;c21:w</title>
<path fill="none" stroke="#66a61e" stroke-width="3" d="M2098.84,-110C2101.15,-110 2149.98,-67.09 2169.74,-51"/>
<polygon fill="#66a61e" stroke="#66a61e" stroke-width="3" points="2171.88,-53.76 2177.84,-45 2167.72,-48.14 2171.88,-53.76"/>
<text text-anchor="middle" x="2138.34" y="-98.8" font-family="Times,serif" font-size="14.00" fill="#66a61e">&lt;32&gt;</text>
</g>
<!-- c35 -->
<g id="node29" class="node">
<title>c35</title>
<polygon fill="none" stroke="black" points="2183.34,-255 2183.34,-301 2277.34,-301 2277.34,-255 2183.34,-255"/>
<text text-anchor="middle" x="2196.84" y="-285.8" font-family="Times,serif" font-size="14.00">A</text>
<polyline fill="none" stroke="black" points="2183.34,-278 2210.34,-278 "/>
<text text-anchor="middle" x="2196.84" y="-262.8" font-family="Times,serif" font-size="14.00">B</text>
<polyline fill="none" stroke="black" points="2210.34,-255 2210.34,-301 "/>
<text text-anchor="middle" x="2230.84" y="-281.8" font-family="Times,serif" font-size="14.00">$7</text>
<text text-anchor="middle" x="2230.84" y="-266.8" font-family="Times,serif" font-size="14.00">$gt</text>
<polyline fill="none" stroke="black" points="2251.34,-255 2251.34,-301 "/>
<text text-anchor="middle" x="2264.34" y="-274.3" font-family="Times,serif" font-size="14.00">Y</text>
</g>
<!-- n16&#45;&gt;c35 -->
<g id="edge31" class="edge">
<title>n16:e&#45;&gt;c35:w</title>
<path fill="none" stroke="#66a61e" stroke-width="3" d="M2098.84,-110C2118.33,-110 2108.71,-132.28 2116.84,-150 2118.36,-153.31 2161.28,-251.6 2176.94,-281.47"/>
<polygon fill="#66a61e" stroke="#66a61e" stroke-width="3" points="2174.03,-283.43 2182.34,-290 2179.94,-279.68 2174.03,-283.43"/>
<text text-anchor="middle" x="2138.34" y="-248.8" font-family="Times,serif" font-size="14.00" fill="#66a61e">&lt;32&gt;</text>
</g>
<!-- n17 -->
<g id="node8" class="node">
<title>n17</title>
<polygon fill="none" stroke="black" points="3934.22,-443.54 3934.22,-458.46 3898.01,-469 3846.8,-469 3810.59,-458.46 3810.59,-443.54 3846.8,-433 3898.01,-433 3934.22,-443.54"/>
<text text-anchor="middle" x="3872.4" y="-447.3" font-family="Times,serif" font-size="14.00">frequency</text>
</g>
<!-- v0 -->
<g id="node9" class="node">
<title>v0</title>
<ellipse fill="none" stroke="black" cx="2029.9" cy="-18" rx="27" ry="18"/>
<text text-anchor="middle" x="2029.9" y="-14.3" font-family="Times,serif" font-size="14.00">1</text>
</g>
<!-- v0&#45;&gt;c21 -->
<g id="edge46" class="edge">
<title>v0:e&#45;&gt;c21:w</title>
<path fill="none" stroke="#e6ab02" stroke-width="3" d="M2057.9,-18C2107.68,-18 2122.57,-20.61 2167.72,-20.96"/>
<polygon fill="#e6ab02" stroke="#e6ab02" stroke-width="3" points="2167.83,-24.46 2177.84,-21 2167.85,-17.46 2167.83,-24.46"/>
<text text-anchor="middle" x="2138.34" y="-24.8" font-family="Times,serif" font-size="14.00" fill="#e6ab02">&lt;32&gt;</text>
</g>
<!-- n2 -->
<g id="node39" class="node">
<title>n2</title>
<ellipse fill="black" stroke="black" cx="2392.39" cy="-85" rx="1.8" ry="1.8"/>
</g>
<!-- c21&#45;&gt;n2 -->
<g id="edge33" class="edge">
<title>c21:e&#45;&gt;n2:w</title>
<path fill="none" stroke="#d95f02" stroke-width="3" d="M2282.84,-33C2311.81,-33 2317.92,-43.04 2343.84,-56 2361.78,-64.97 2364.78,-79.21 2379.3,-83.64"/>
<polygon fill="#d95f02" stroke="#d95f02" stroke-width="3" points="2379.01,-87.13 2389.39,-85 2379.94,-80.19 2379.01,-87.13"/>
<text text-anchor="middle" x="2322.34" y="-59.8" font-family="Times,serif" font-size="14.00" fill="#d95f02">&lt;32&gt;</text>
</g>
<!-- c27&#45;&gt;n16 -->
<g id="edge29" class="edge">
<title>c27:e&#45;&gt;n16:w</title>
<path fill="none" stroke="#66a61e" stroke-width="3" d="M1881.96,-139C1891.58,-139 1891.22,-131.01 1899.96,-127 1922.15,-116.83 1930.57,-111.51 1950.76,-110.28"/>
<polygon fill="#66a61e" stroke="#66a61e" stroke-width="3" points="1951.06,-113.77 1960.96,-110 1950.87,-106.78 1951.06,-113.77"/>
<text text-anchor="middle" x="1921.46" y="-130.8" font-family="Times,serif" font-size="14.00" fill="#66a61e">&lt;32&gt;</text>
</g>
<!-- c28&#45;&gt;n15 -->
<g id="edge27" class="edge">
<title>c28:e&#45;&gt;n15:w</title>
<path fill="none" stroke="#666666" stroke-width="3" d="M3434.93,-451C3466.34,-451 3476.68,-451 3503.64,-451"/>
<polygon fill="#666666" stroke="#666666" stroke-width="3" points="3503.93,-454.5 3513.93,-451 3503.93,-447.5 3503.93,-454.5"/>
<text text-anchor="middle" x="3474.43" y="-454.8" font-family="Times,serif" font-size="14.00" fill="#666666">&lt;32&gt;</text>
</g>
<!-- c29 -->
<g id="node13" class="node">
<title>c29</title>
<polygon fill="none" stroke="black" points="2689.93,-359 2689.93,-397 2852.93,-397 2852.93,-359 2689.93,-359"/>
<text text-anchor="middle" x="2702.93" y="-374.3" font-family="Times,serif" font-size="14.00">A</text>
<polyline fill="none" stroke="black" points="2715.93,-359 2715.93,-397 "/>
<text text-anchor="middle" x="2771.43" y="-381.8" font-family="Times,serif" font-size="14.00">$35</text>
<text text-anchor="middle" x="2771.43" y="-366.8" font-family="Times,serif" font-size="14.00">$reduce_bool</text>
<polyline fill="none" stroke="black" points="2826.93,-359 2826.93,-397 "/>
<text text-anchor="middle" x="2839.93" y="-374.3" font-family="Times,serif" font-size="14.00">Y</text>
</g>
<!-- x4 -->
<g id="node19" class="node">
<title>x4</title>
<path fill="none" stroke="#e7298a" d="M2960.93,-372C2960.93,-372 3011.93,-372 3011.93,-372 3017.93,-372 3023.93,-378 3023.93,-384 3023.93,-384 3023.93,-406 3023.93,-406 3023.93,-412 3017.93,-418 3011.93,-418 3011.93,-418 2960.93,-418 2960.93,-418 2954.93,-418 2948.93,-412 2948.93,-406 2948.93,-406 2948.93,-384 2948.93,-384 2948.93,-378 2954.93,-372 2960.93,-372"/>
<text text-anchor="middle" x="2986.43" y="-402.8" font-family="Times,serif" font-size="14.00" fill="#e7298a">0:0 &#45; 1:1</text>
<polyline fill="none" stroke="#e7298a" points="2948.93,-395 3023.93,-395 "/>
<text text-anchor="middle" x="2986.43" y="-379.8" font-family="Times,serif" font-size="14.00" fill="#e7298a">0:0 &#45; 0:0</text>
</g>
<!-- c29&#45;&gt;x4 -->
<g id="edge36" class="edge">
<title>c29:e&#45;&gt;x4:w</title>
<path fill="none" stroke="#d95f02" d="M2852.93,-378C2891.38,-378 2903.36,-382.18 2937.25,-382.9"/>
<polygon fill="#d95f02" stroke="#d95f02" points="2937.4,-386.4 2947.43,-383 2937.47,-379.4 2937.4,-386.4"/>
</g>
<!-- x1&#45;&gt;c29 -->
<g id="edge1" class="edge">
<title>x1:e&#45;&gt;c29:w</title>
<path fill="none" stroke="#666666" stroke-width="3" d="M2607.78,-370.25C2636.3,-371.44 2649.11,-376.57 2677.66,-377.75"/>
<polygon fill="none" stroke="#666666" stroke-width="3" points="2607.43,-370.24 2601.35,-374.12 2595.43,-370 2601.51,-366.12 2607.43,-370.24"/>
<polygon fill="none" stroke="#666666" stroke-width="3" points="2677.94,-377.76 2684.01,-373.88 2689.93,-378 2683.85,-381.88 2677.94,-377.76"/>
<text text-anchor="middle" x="2650.43" y="-380.8" font-family="Times,serif" font-size="14.00" fill="#666666">&lt;3&gt;</text>
</g>
<!-- v3 -->
<g id="node15" class="node">
<title>v3</title>
<ellipse fill="none" stroke="black" cx="1805.96" cy="-386" rx="30.59" ry="18"/>
<text text-anchor="middle" x="1805.96" y="-382.3" font-family="Times,serif" font-size="14.00">2&#39;01</text>
</g>
<!-- c30 -->
<g id="node16" class="node">
<title>c30</title>
<polygon fill="none" stroke="black" points="1981.4,-410 1981.4,-456 2078.4,-456 2078.4,-410 1981.4,-410"/>
<text text-anchor="middle" x="1994.9" y="-440.8" font-family="Times,serif" font-size="14.00">A</text>
<polyline fill="none" stroke="black" points="1981.4,-433 2008.4,-433 "/>
<text text-anchor="middle" x="1994.9" y="-417.8" font-family="Times,serif" font-size="14.00">B</text>
<polyline fill="none" stroke="black" points="2008.4,-410 2008.4,-456 "/>
<text text-anchor="middle" x="2030.4" y="-436.8" font-family="Times,serif" font-size="14.00">$37</text>
<text text-anchor="middle" x="2030.4" y="-421.8" font-family="Times,serif" font-size="14.00">$ne</text>
<polyline fill="none" stroke="black" points="2052.4,-410 2052.4,-456 "/>
<text text-anchor="middle" x="2065.4" y="-429.3" font-family="Times,serif" font-size="14.00">Y</text>
</g>
<!-- v3&#45;&gt;c30 -->
<g id="edge51" class="edge">
<title>v3:e&#45;&gt;c30:w</title>
<path fill="none" stroke="#666666" stroke-width="3" d="M1837.96,-386C1899.38,-386 1913.46,-417.28 1969.7,-420.7"/>
<polygon fill="#666666" stroke="#666666" stroke-width="3" points="1969.8,-424.2 1979.9,-421 1970.01,-417.2 1969.8,-424.2"/>
<text text-anchor="middle" x="1921.46" y="-418.8" font-family="Times,serif" font-size="14.00" fill="#666666">&lt;2&gt;</text>
</g>
<!-- c30&#45;&gt;x4 -->
<g id="edge37" class="edge">
<title>c30:e&#45;&gt;x4:w</title>
<path fill="none" stroke="#7570b3" d="M2079.9,-433C2146.32,-433 2162.92,-433 2229.34,-433 2229.34,-433 2229.34,-433 2772.43,-433 2847.53,-433 2867.08,-409.28 2937.19,-407.15"/>
<polygon fill="#7570b3" stroke="#7570b3" points="2937.49,-410.65 2947.43,-407 2937.38,-403.65 2937.49,-410.65"/>
</g>
<!-- x2&#45;&gt;c30 -->
<g id="edge2" class="edge">
<title>x2:e&#45;&gt;c30:w</title>
<path fill="none" stroke="#e7298a" stroke-width="3" d="M1856.98,-445.99C1903.44,-445.87 1921.38,-445.13 1967.8,-445.01"/>
<polygon fill="none" stroke="#e7298a" stroke-width="3" points="1856.96,-445.99 1850.97,-449.99 1844.96,-446 1850.96,-441.99 1856.96,-445.99"/>
<polygon fill="none" stroke="#e7298a" stroke-width="3" points="1967.9,-445.01 1973.9,-441.01 1979.9,-445 1973.91,-449.01 1967.9,-445.01"/>
<text text-anchor="middle" x="1921.46" y="-448.8" font-family="Times,serif" font-size="14.00" fill="#e7298a">&lt;2&gt;</text>
</g>
<!-- c31 -->
<g id="node18" class="node">
<title>c31</title>
<polygon fill="none" stroke="black" points="3110.93,-376 3110.93,-414 3269.93,-414 3269.93,-376 3110.93,-376"/>
<text text-anchor="middle" x="3123.93" y="-391.3" font-family="Times,serif" font-size="14.00">A</text>
<polyline fill="none" stroke="black" points="3136.93,-376 3136.93,-414 "/>
<text text-anchor="middle" x="3190.43" y="-398.8" font-family="Times,serif" font-size="14.00">$39</text>
<text text-anchor="middle" x="3190.43" y="-383.8" font-family="Times,serif" font-size="14.00">$reduce_and</text>
<polyline fill="none" stroke="black" points="3243.93,-376 3243.93,-414 "/>
<text text-anchor="middle" x="3256.93" y="-391.3" font-family="Times,serif" font-size="14.00">Y</text>
</g>
<!-- c31&#45;&gt;c28 -->
<g id="edge38" class="edge">
<title>c31:e&#45;&gt;c28:w</title>
<path fill="none" stroke="#e7298a" d="M3269.93,-395C3287.84,-395 3286.53,-416.79 3297.22,-424.95"/>
<polygon fill="#e7298a" stroke="#e7298a" points="3296.34,-428.35 3306.93,-428 3298.44,-421.67 3296.34,-428.35"/>
</g>
<!-- x4&#45;&gt;c31 -->
<g id="edge3" class="edge">
<title>x4:e&#45;&gt;c31:w</title>
<path fill="none" stroke="#e6ab02" stroke-width="3" d="M3037.71,-395C3062.29,-395 3074.07,-395 3098.65,-395"/>
<polygon fill="none" stroke="#e6ab02" stroke-width="3" points="3037.43,-395 3031.43,-399 3025.43,-395 3031.43,-391 3037.43,-395"/>
<polygon fill="none" stroke="#e6ab02" stroke-width="3" points="3098.93,-395 3104.93,-391 3110.93,-395 3104.93,-399 3098.93,-395"/>
<text text-anchor="middle" x="3075.93" y="-398.8" font-family="Times,serif" font-size="14.00" fill="#e6ab02">&lt;2&gt;</text>
</g>
<!-- c32 -->
<g id="node20" class="node">
<title>c32</title>
<polygon fill="none" stroke="black" points="1500.39,-68 1500.39,-106 1648.39,-106 1648.39,-68 1500.39,-68"/>
<text text-anchor="middle" x="1513.39" y="-83.3" font-family="Times,serif" font-size="14.00">A</text>
<polyline fill="none" stroke="black" points="1526.39,-68 1526.39,-106 "/>
<text text-anchor="middle" x="1574.39" y="-90.8" font-family="Times,serif" font-size="14.00">$32</text>
<text text-anchor="middle" x="1574.39" y="-75.8" font-family="Times,serif" font-size="14.00">$reduce_or</text>
<polyline fill="none" stroke="black" points="1622.39,-68 1622.39,-106 "/>
<text text-anchor="middle" x="1635.39" y="-83.3" font-family="Times,serif" font-size="14.00">Y</text>
</g>
<!-- c32&#45;&gt;c27 -->
<g id="edge39" class="edge">
<title>c32:e&#45;&gt;c27:w</title>
<path fill="none" stroke="#e6ab02" d="M1649.39,-87C1682.27,-87 1691.57,-100.72 1719.66,-103.51"/>
<polygon fill="#e6ab02" stroke="#e6ab02" points="1719.81,-107.02 1729.96,-104 1720.14,-100.03 1719.81,-107.02"/>
</g>
<!-- x5&#45;&gt;c32 -->
<g id="edge4" class="edge">
<title>x5:e&#45;&gt;c32:w</title>
<path fill="none" stroke="#66a61e" stroke-width="3" d="M1388.35,-236.85C1415.29,-217.56 1435.64,-136.66 1455.82,-116 1468.77,-102.74 1473.98,-92.2 1487.33,-88.46"/>
<polygon fill="none" stroke="#66a61e" stroke-width="3" points="1388.11,-236.94 1383.82,-242.73 1376.82,-241 1381.11,-235.21 1388.11,-236.94"/>
<polygon fill="none" stroke="#66a61e" stroke-width="3" points="1487.48,-88.44 1492.96,-83.75 1499.39,-87 1493.92,-91.69 1487.48,-88.44"/>
<text text-anchor="middle" x="1420.82" y="-222.8" font-family="Times,serif" font-size="14.00" fill="#66a61e">&lt;2&gt;</text>
</g>
<!-- v7 -->
<g id="node22" class="node">
<title>v7</title>
<ellipse fill="none" stroke="black" cx="675.53" cy="-245" rx="30.59" ry="18"/>
<text text-anchor="middle" x="675.53" y="-241.3" font-family="Times,serif" font-size="14.00">2&#39;01</text>
</g>
<!-- c33 -->
<g id="node23" class="node">
<title>c33</title>
<polygon fill="none" stroke="black" points="824.03,-265 824.03,-311 920.03,-311 920.03,-265 824.03,-265"/>
<text text-anchor="middle" x="837.53" y="-295.8" font-family="Times,serif" font-size="14.00">A</text>
<polyline fill="none" stroke="black" points="824.03,-288 851.03,-288 "/>
<text text-anchor="middle" x="837.53" y="-272.8" font-family="Times,serif" font-size="14.00">B</text>
<polyline fill="none" stroke="black" points="851.03,-265 851.03,-311 "/>
<text text-anchor="middle" x="872.53" y="-291.8" font-family="Times,serif" font-size="14.00">$2</text>
<text text-anchor="middle" x="872.53" y="-276.8" font-family="Times,serif" font-size="14.00">$eq</text>
<polyline fill="none" stroke="black" points="894.03,-265 894.03,-311 "/>
<text text-anchor="middle" x="907.03" y="-284.3" font-family="Times,serif" font-size="14.00">Y</text>
</g>
<!-- v7&#45;&gt;c33 -->
<g id="edge52" class="edge">
<title>v7:e&#45;&gt;c33:w</title>
<path fill="none" stroke="#e6ab02" stroke-width="3" d="M707.53,-245C757.55,-245 769.02,-272.02 813.92,-275.61"/>
<polygon fill="#e6ab02" stroke="#e6ab02" stroke-width="3" points="813.9,-279.11 824.03,-276 814.18,-272.12 813.9,-279.11"/>
<text text-anchor="middle" x="768.53" y="-277.8" font-family="Times,serif" font-size="14.00" fill="#e6ab02">&lt;2&gt;</text>
</g>
<!-- c33&#45;&gt;n12 -->
<g id="edge15" class="edge">
<title>c33:e&#45;&gt;n12:w</title>
<path fill="none" stroke="#e6ab02" d="M920.03,-288C948.04,-288 956.43,-298.91 979.83,-301.47"/>
<polygon fill="#e6ab02" stroke="#e6ab02" points="979.86,-304.97 990.03,-302 980.23,-297.98 979.86,-304.97"/>
</g>
<!-- x6&#45;&gt;c33 -->
<g id="edge5" class="edge">
<title>x6:e&#45;&gt;c33:w</title>
<path fill="none" stroke="#d95f02" stroke-width="3" d="M725.23,-300C760.95,-300 776.02,-300 811.68,-300"/>
<polygon fill="none" stroke="#d95f02" stroke-width="3" points="725.03,-300 719.03,-304 713.03,-300 719.03,-296 725.03,-300"/>
<polygon fill="none" stroke="#d95f02" stroke-width="3" points="812.03,-300 818.03,-296 824.03,-300 818.03,-304 812.03,-300"/>
<text text-anchor="middle" x="768.53" y="-303.8" font-family="Times,serif" font-size="14.00" fill="#d95f02">&lt;2&gt;</text>
</g>
<!-- v9 -->
<g id="node25" class="node">
<title>v9</title>
<ellipse fill="none" stroke="black" cx="1104.93" cy="-87" rx="30.59" ry="18"/>
<text text-anchor="middle" x="1104.93" y="-83.3" font-family="Times,serif" font-size="14.00">2&#39;10</text>
</g>
<!-- c34 -->
<g id="node26" class="node">
<title>c34</title>
<polygon fill="none" stroke="black" points="1289.82,-98 1289.82,-144 1385.82,-144 1385.82,-98 1289.82,-98"/>
<text text-anchor="middle" x="1303.32" y="-128.8" font-family="Times,serif" font-size="14.00">A</text>
<polyline fill="none" stroke="black" points="1289.82,-121 1316.82,-121 "/>
<text text-anchor="middle" x="1303.32" y="-105.8" font-family="Times,serif" font-size="14.00">B</text>
<polyline fill="none" stroke="black" points="1316.82,-98 1316.82,-144 "/>
<text text-anchor="middle" x="1338.32" y="-124.8" font-family="Times,serif" font-size="14.00">$3</text>
<text text-anchor="middle" x="1338.32" y="-109.8" font-family="Times,serif" font-size="14.00">$eq</text>
<polyline fill="none" stroke="black" points="1359.82,-98 1359.82,-144 "/>
<text text-anchor="middle" x="1372.82" y="-117.3" font-family="Times,serif" font-size="14.00">Y</text>
</g>
<!-- v9&#45;&gt;c34 -->
<g id="edge53" class="edge">
<title>v9:e&#45;&gt;c34:w</title>
<path fill="none" stroke="#1b9e77" stroke-width="3" d="M1136.93,-87C1197.35,-87 1212.58,-92.1 1271.82,-104 1275.38,-104.72 1277.68,-105.76 1279.84,-106.71"/>
<polygon fill="#1b9e77" stroke="#1b9e77" stroke-width="3" points="1279.29,-110.18 1289.82,-109 1280.86,-103.35 1279.29,-110.18"/>
<text text-anchor="middle" x="1254.82" y="-107.8" font-family="Times,serif" font-size="14.00" fill="#1b9e77">&lt;2&gt;</text>
</g>
<!-- c34&#45;&gt;n11 -->
<g id="edge10" class="edge">
<title>c34:e&#45;&gt;n11:w</title>
<path fill="none" stroke="#d95f02" d="M1385.82,-121C1410,-121 1414.8,-129.62 1437.82,-137 1441.34,-138.13 1443.61,-139.42 1445.75,-140.51"/>
<polygon fill="#d95f02" stroke="#d95f02" points="1445.27,-144 1455.82,-143 1446.96,-137.2 1445.27,-144"/>
</g>
<!-- x8&#45;&gt;c34 -->
<g id="edge6" class="edge">
<title>x8:e&#45;&gt;c34:w</title>
<path fill="none" stroke="#666666" stroke-width="3" d="M818.14,-129C1019.16,-129.15 1076.66,-132.85 1277.64,-133"/>
<polygon fill="none" stroke="#666666" stroke-width="3" points="818.03,-129 812.03,-133 806.03,-129 812.03,-125 818.03,-129"/>
<polygon fill="none" stroke="#666666" stroke-width="3" points="1277.82,-133 1283.82,-129 1289.82,-133 1283.82,-137 1277.82,-133"/>
<text text-anchor="middle" x="955.03" y="-133.8" font-family="Times,serif" font-size="14.00" fill="#666666">&lt;2&gt;</text>
</g>
<!-- v10 -->
<g id="node28" class="node">
<title>v10</title>
<ellipse fill="none" stroke="black" cx="2029.9" cy="-284" rx="57.69" ry="18"/>
<text text-anchor="middle" x="2029.9" y="-280.3" font-family="Times,serif" font-size="14.00">25000000</text>
</g>
<!-- v10&#45;&gt;c35 -->
<g id="edge47" class="edge">
<title>v10:e&#45;&gt;c35:w</title>
<path fill="none" stroke="#66a61e" stroke-width="3" d="M2088.9,-284C2127.56,-284 2138.28,-268.96 2172.13,-266.38"/>
<polygon fill="#66a61e" stroke="#66a61e" stroke-width="3" points="2172.47,-269.87 2182.34,-266 2172.22,-262.87 2172.47,-269.87"/>
<text text-anchor="middle" x="2138.34" y="-283.8" font-family="Times,serif" font-size="14.00" fill="#66a61e">&lt;32&gt;</text>
</g>
<!-- n7 -->
<g id="node40" class="node">
<title>n7</title>
<ellipse fill="black" stroke="black" cx="2392.39" cy="-338" rx="1.8" ry="1.8"/>
</g>
<!-- c35&#45;&gt;n7 -->
<g id="edge40" class="edge">
<title>c35:e&#45;&gt;n7:w</title>
<path fill="none" stroke="#e6ab02" d="M2278.34,-278C2303.32,-278 2349.64,-325.59 2379.29,-336"/>
<polygon fill="#e6ab02" stroke="#e6ab02" points="2378.9,-339.49 2389.39,-338 2380.25,-332.63 2378.9,-339.49"/>
</g>
<!-- c36&#45;&gt;n13 -->
<g id="edge20" class="edge">
<title>c36:e&#45;&gt;n13:w</title>
<path fill="none" stroke="#1b9e77" stroke-width="3" d="M406.12,-79C433.02,-79 437.33,-92.92 458.12,-110 463.6,-114.51 464.7,-120.71 467.2,-125.01"/>
<polygon fill="#1b9e77" stroke="#1b9e77" stroke-width="3" points="465.68,-128.17 476.12,-130 469.1,-122.06 465.68,-128.17"/>
<text text-anchor="middle" x="441.12" y="-113.8" font-family="Times,serif" font-size="14.00" fill="#1b9e77">&lt;3&gt;</text>
</g>
<!-- x11&#45;&gt;c36 -->
<g id="edge7" class="edge">
<title>x11:e&#45;&gt;c36:w</title>
<path fill="none" stroke="#7570b3" stroke-width="3" d="M228.27,-105.18C248.69,-98.48 253.66,-75.3 274.22,-68.74"/>
<polygon fill="none" stroke="#7570b3" stroke-width="3" points="227.98,-105.22 222.64,-110.07 216.12,-107 221.46,-102.15 227.98,-105.22"/>
<polygon fill="none" stroke="#7570b3" stroke-width="3" points="274.24,-68.74 279.6,-63.91 286.12,-67 280.76,-71.83 274.24,-68.74"/>
<text text-anchor="middle" x="251.12" y="-106.8" font-family="Times,serif" font-size="14.00" fill="#7570b3">&lt;3&gt;</text>
</g>
<!-- v12 -->
<g id="node32" class="node">
<title>v12</title>
<ellipse fill="none" stroke="black" cx="2392.39" cy="-262" rx="30.59" ry="18"/>
<text text-anchor="middle" x="2392.39" y="-258.3" font-family="Times,serif" font-size="14.00">32&#39;x</text>
</g>
<!-- c38 -->
<g id="node34" class="node">
<title>c38</title>
<polygon fill="none" stroke="black" points="2501.93,-244.5 2501.93,-313.5 2610.93,-313.5 2610.93,-244.5 2501.93,-244.5"/>
<text text-anchor="middle" x="2515.43" y="-298.3" font-family="Times,serif" font-size="14.00">A</text>
<polyline fill="none" stroke="black" points="2501.93,-290.5 2528.93,-290.5 "/>
<text text-anchor="middle" x="2515.43" y="-275.3" font-family="Times,serif" font-size="14.00">B</text>
<polyline fill="none" stroke="black" points="2501.93,-267.5 2528.93,-267.5 "/>
<text text-anchor="middle" x="2515.43" y="-252.3" font-family="Times,serif" font-size="14.00">S</text>
<polyline fill="none" stroke="black" points="2528.93,-244.5 2528.93,-313.5 "/>
<text text-anchor="middle" x="2556.93" y="-282.8" font-family="Times,serif" font-size="14.00">$10</text>
<text text-anchor="middle" x="2556.93" y="-267.8" font-family="Times,serif" font-size="14.00">$mux</text>
<polyline fill="none" stroke="black" points="2584.93,-244.5 2584.93,-313.5 "/>
<text text-anchor="middle" x="2597.93" y="-275.3" font-family="Times,serif" font-size="14.00">Y</text>
</g>
<!-- v12&#45;&gt;c38 -->
<g id="edge48" class="edge">
<title>v12:e&#45;&gt;c38:w</title>
<path fill="none" stroke="#d95f02" stroke-width="3" d="M2422.93,-262C2451.08,-262 2460.54,-263.36 2483.93,-279 2490.68,-283.51 2490.95,-291.37 2493.38,-296.62"/>
<polygon fill="#d95f02" stroke="#d95f02" stroke-width="3" points="2491.6,-299.64 2501.93,-302 2495.33,-293.72 2491.6,-299.64"/>
<text text-anchor="middle" x="2462.43" y="-282.8" font-family="Times,serif" font-size="14.00" fill="#d95f02">&lt;32&gt;</text>
</g>
<!-- v13 -->
<g id="node33" class="node">
<title>v13</title>
<ellipse fill="none" stroke="black" cx="2392.39" cy="-208" rx="27" ry="18"/>
<text text-anchor="middle" x="2392.39" y="-204.3" font-family="Times,serif" font-size="14.00">0</text>
</g>
<!-- v13&#45;&gt;c38 -->
<g id="edge49" class="edge">
<title>v13:e&#45;&gt;c38:w</title>
<path fill="none" stroke="#d95f02" stroke-width="3" d="M2420.39,-208C2450.58,-208 2462.54,-210.7 2483.93,-232 2496.32,-244.33 2486.69,-266.08 2492.54,-275.01"/>
<polygon fill="#d95f02" stroke="#d95f02" stroke-width="3" points="2491.36,-278.31 2501.93,-279 2494.1,-271.87 2491.36,-278.31"/>
<text text-anchor="middle" x="2462.43" y="-235.8" font-family="Times,serif" font-size="14.00" fill="#d95f02">&lt;32&gt;</text>
</g>
<!-- c38&#45;&gt;c39 -->
<g id="edge44" class="edge">
<title>c38:e&#45;&gt;c39:w</title>
<path fill="none" stroke="#666666" stroke-width="3" d="M2610.93,-279C2659.16,-279 2663.2,-234.06 2705.21,-227.74"/>
<polygon fill="#666666" stroke="#666666" stroke-width="3" points="2705.71,-231.21 2715.43,-227 2705.21,-224.23 2705.71,-231.21"/>
<text text-anchor="middle" x="2650.43" y="-279.8" font-family="Times,serif" font-size="14.00" fill="#666666">&lt;32&gt;</text>
</g>
<!-- v14 -->
<g id="node35" class="node">
<title>v14</title>
<ellipse fill="none" stroke="black" cx="2556.43" cy="-208" rx="30.59" ry="18"/>
<text text-anchor="middle" x="2556.43" y="-204.3" font-family="Times,serif" font-size="14.00">32&#39;x</text>
</g>
<!-- v14&#45;&gt;c39 -->
<g id="edge50" class="edge">
<title>v14:e&#45;&gt;c39:w</title>
<path fill="none" stroke="#e7298a" stroke-width="3" d="M2588.43,-208C2641.38,-208 2657.04,-204.48 2705.32,-204.04"/>
<polygon fill="#e7298a" stroke="#e7298a" stroke-width="3" points="2705.45,-207.54 2715.43,-204 2705.42,-200.54 2705.45,-207.54"/>
<text text-anchor="middle" x="2650.43" y="-211.8" font-family="Times,serif" font-size="14.00" fill="#e7298a">&lt;32&gt;</text>
</g>
<!-- c39&#45;&gt;c40 -->
<g id="edge45" class="edge">
<title>c39:e&#45;&gt;c40:w</title>
<path fill="none" stroke="#e7298a" stroke-width="3" d="M2827.43,-204C2872.65,-204 2881.85,-174.86 2921.72,-170.53"/>
<polygon fill="#e7298a" stroke="#e7298a" stroke-width="3" points="2922.13,-174.02 2931.93,-170 2921.76,-167.03 2922.13,-174.02"/>
<text text-anchor="middle" x="2892.43" y="-196.8" font-family="Times,serif" font-size="14.00" fill="#e7298a">&lt;32&gt;</text>
</g>
<!-- c40&#45;&gt;c28 -->
<g id="edge8" class="edge">
<title>c40:e&#45;&gt;c28:w</title>
<path fill="none" stroke="#1b9e77" stroke-width="3" d="M3040.93,-147C3070.67,-147 3039.24,-391.73 3058.93,-414 3075.88,-433.16 3074.18,-450.49 3296.85,-450.99"/>
<polygon fill="#1b9e77" stroke="#1b9e77" stroke-width="3" points="3296.93,-454.49 3306.93,-451 3296.94,-447.49 3296.93,-454.49"/>
<text text-anchor="middle" x="3190.43" y="-453.8" font-family="Times,serif" font-size="14.00" fill="#1b9e77">&lt;32&gt;</text>
</g>
<!-- x15&#45;&gt;n17 -->
<g id="edge32" class="edge">
<title>x15:e&#45;&gt;n17:w</title>
<path fill="none" stroke="#7570b3" stroke-width="3" d="M3731.5,-451C3762.9,-451 3773.24,-451 3800.2,-451"/>
<polygon fill="#7570b3" stroke="#7570b3" stroke-width="3" points="3800.5,-454.5 3810.5,-451 3800.5,-447.5 3800.5,-454.5"/>
<text text-anchor="middle" x="3771" y="-454.8" font-family="Times,serif" font-size="14.00" fill="#7570b3">&lt;32&gt;</text>
</g>
<!-- n2&#45;&gt;c27 -->
<g id="edge34" class="edge">
<title>n2:e&#45;&gt;c27:w</title>
<path fill="none" stroke="#d95f02" stroke-width="3" d="M2395.39,-85C2396.3,-85 2395.14,-86.28 2394.39,-86.8 2292.06,-158.44 2238.17,-101.33 2116.84,-131 2108.65,-133 2106.96,-134.74 2098.84,-137 2003.67,-163.43 1980.14,-174.66 1881.96,-185.5 1848.39,-189.21 1754.19,-209.04 1729.96,-185.5 1726.48,-182.12 1723.94,-169.2 1724.48,-160.17"/>
<polygon fill="#d95f02" stroke="#d95f02" stroke-width="3" points="1727.71,-161.52 1728.96,-151 1721.43,-158.44 1727.71,-161.52"/>
<text text-anchor="middle" x="2138.34" y="-134.8" font-family="Times,serif" font-size="14.00" fill="#d95f02">&lt;32&gt;</text>
</g>
<!-- n2&#45;&gt;c40 -->
<g id="edge35" class="edge">
<title>n2:e&#45;&gt;c40:w</title>
<path fill="none" stroke="#d95f02" stroke-width="3" d="M2395.39,-85C2632.04,-85 2690.25,-145.26 2921.84,-146.96"/>
<polygon fill="#d95f02" stroke="#d95f02" stroke-width="3" points="2921.92,-150.46 2931.93,-147 2921.95,-143.46 2921.92,-150.46"/>
<text text-anchor="middle" x="2650.43" y="-121.8" font-family="Times,serif" font-size="14.00" fill="#d95f02">&lt;32&gt;</text>
</g>
<!-- n7&#45;&gt;x1 -->
<g id="edge42" class="edge">
<title>n7:e&#45;&gt;x1:w</title>
<path fill="none" stroke="#e6ab02" d="M2395.39,-338C2451.28,-338 2457.36,-386.54 2507.22,-392.42"/>
<polygon fill="#e6ab02" stroke="#e6ab02" points="2507.25,-395.93 2517.43,-393 2507.65,-388.94 2507.25,-395.93"/>
</g>
<!-- n7&#45;&gt;x5 -->
<g id="edge43" class="edge">
<title>n7:e&#45;&gt;x5:w</title>
<path fill="none" stroke="#e6ab02" d="M2395.39,-338C2402.55,-338 2403.94,-340.25 2390.59,-339.8 2199.32,-333.4 2151.89,-324.11 1960.96,-311 1924.23,-308.48 1326.07,-290.32 1299.82,-264.5 1299.48,-264.16 1299.15,-263.79 1298.83,-263.38"/>
<polygon fill="#e6ab02" stroke="#e6ab02" points="1302.33,-263 1298.82,-253 1295.33,-263 1302.33,-263"/>
</g>
<!-- n7&#45;&gt;c38 -->
<g id="edge41" class="edge">
<title>n7:e&#45;&gt;c38:w</title>
<path fill="none" stroke="#e6ab02" d="M2395.39,-338C2415.65,-338 2423.64,-269.57 2440.93,-259 2461.02,-246.73 2471.73,-253.48 2491.92,-255.5"/>
<polygon fill="#e6ab02" stroke="#e6ab02" points="2491.77,-258.99 2501.93,-256 2492.12,-252 2491.77,-258.99"/>
</g>
</g>
</svg>
