<?xml version="1.0" encoding="UTF-8" standalone="no"?>
<!DOCTYPE svg PUBLIC "-//W3C//DTD SVG 1.1//EN"
 "http://www.w3.org/Graphics/SVG/1.1/DTD/svg11.dtd">
<!-- Generated by graphviz version 2.43.0 (0)
 -->
<!-- Title: vin_frequency Pages: 1 -->
<svg width="3335pt" height="425pt"
 viewBox="0.00 0.00 3335.17 425.00" xmlns="http://www.w3.org/2000/svg" xmlns:xlink="http://www.w3.org/1999/xlink">
<g id="graph0" class="graph" transform="scale(1 1) rotate(0) translate(4 421)">
<title>vin_frequency</title>
<polygon fill="white" stroke="transparent" points="-4,4 -4,-421 3331.17,-421 3331.17,4 -4,4"/>
<!-- n7 -->
<g id="node1" class="node">
<title>n7</title>
<polygon fill="none" stroke="black" points="104.18,-354.54 104.18,-369.46 73.65,-380 30.47,-380 -0.06,-369.46 -0.06,-354.54 30.47,-344 73.65,-344 104.18,-354.54"/>
<text text-anchor="middle" x="52.06" y="-358.3" font-family="Times,serif" font-size="14.00">SIGNAL</text>
</g>
<!-- x6 -->
<g id="node22" class="node">
<title>x6</title>
<path fill="none" stroke="#e6ab02" d="M153.12,-351C153.12,-351 204.12,-351 204.12,-351 210.12,-351 216.12,-357 216.12,-363 216.12,-363 216.12,-385 216.12,-385 216.12,-391 210.12,-397 204.12,-397 204.12,-397 153.12,-397 153.12,-397 147.12,-397 141.12,-391 141.12,-385 141.12,-385 141.12,-363 141.12,-363 141.12,-357 147.12,-351 153.12,-351"/>
<text text-anchor="middle" x="178.62" y="-381.8" font-family="Times,serif" font-size="14.00" fill="#e6ab02">1:0 &#45; 2:1</text>
<polyline fill="none" stroke="#e6ab02" points="141.12,-374 216.12,-374 "/>
<text text-anchor="middle" x="178.62" y="-358.8" font-family="Times,serif" font-size="14.00" fill="#e6ab02">0:0 &#45; 0:0</text>
</g>
<!-- n7&#45;&gt;x6 -->
<g id="edge25" class="edge">
<title>n7:e&#45;&gt;x6:w</title>
<path fill="none" stroke="#66a61e" d="M104.12,-362C116.58,-362 121.96,-362 130.99,-362"/>
<polygon fill="#66a61e" stroke="#66a61e" points="131.12,-365.5 141.12,-362 131.12,-358.5 131.12,-365.5"/>
</g>
<!-- n8 -->
<g id="node2" class="node">
<title>n8</title>
<polygon fill="none" stroke="black" points="1030.93,-301 916.14,-283 1030.93,-265 1145.72,-283 1030.93,-301"/>
<text text-anchor="middle" x="1030.93" y="-279.3" font-family="Times,serif" font-size="14.00">SIG_risingedge</text>
</g>
<!-- x1 -->
<g id="node13" class="node">
<title>x1</title>
<path fill="none" stroke="#666666" d="M2298.79,-271C2298.79,-271 2349.79,-271 2349.79,-271 2355.79,-271 2361.79,-277 2361.79,-283 2361.79,-283 2361.79,-305 2361.79,-305 2361.79,-311 2355.79,-317 2349.79,-317 2349.79,-317 2298.79,-317 2298.79,-317 2292.79,-317 2286.79,-311 2286.79,-305 2286.79,-305 2286.79,-283 2286.79,-283 2286.79,-277 2292.79,-271 2298.79,-271"/>
<text text-anchor="middle" x="2324.29" y="-301.8" font-family="Times,serif" font-size="14.00" fill="#666666">0:0 &#45; 1:1</text>
<polyline fill="none" stroke="#666666" points="2286.79,-294 2361.79,-294 "/>
<text text-anchor="middle" x="2324.29" y="-278.8" font-family="Times,serif" font-size="14.00" fill="#666666">0:0 &#45; 0:0</text>
</g>
<!-- n8&#45;&gt;x1 -->
<g id="edge28" class="edge">
<title>n8:e&#45;&gt;x1:w</title>
<path fill="none" stroke="#7570b3" d="M1145.82,-283C1155.96,-283 1155.1,-291.84 1163.82,-297 1186.95,-310.69 1192.45,-321 1219.32,-321 1219.32,-321 1219.32,-321 2161.24,-321 2201.96,-321 2214.24,-322.75 2251.79,-307 2265.04,-301.44 2266.72,-289.53 2275.4,-284.41"/>
<polygon fill="#7570b3" stroke="#7570b3" points="2276.4,-287.77 2285.29,-282 2274.75,-280.97 2276.4,-287.77"/>
</g>
<!-- x2 -->
<g id="node15" class="node">
<title>x2</title>
<path fill="none" stroke="#666666" d="M1194.82,-208C1194.82,-208 1245.82,-208 1245.82,-208 1251.82,-208 1257.82,-214 1257.82,-220 1257.82,-220 1257.82,-242 1257.82,-242 1257.82,-248 1251.82,-254 1245.82,-254 1245.82,-254 1194.82,-254 1194.82,-254 1188.82,-254 1182.82,-248 1182.82,-242 1182.82,-242 1182.82,-220 1182.82,-220 1182.82,-214 1188.82,-208 1194.82,-208"/>
<text text-anchor="middle" x="1220.32" y="-238.8" font-family="Times,serif" font-size="14.00" fill="#666666">0:0 &#45; 1:1</text>
<polyline fill="none" stroke="#666666" points="1182.82,-231 1257.82,-231 "/>
<text text-anchor="middle" x="1220.32" y="-215.8" font-family="Times,serif" font-size="14.00" fill="#666666">0:0 &#45; 0:0</text>
</g>
<!-- n8&#45;&gt;x2 -->
<g id="edge29" class="edge">
<title>n8:e&#45;&gt;x2:w</title>
<path fill="none" stroke="#7570b3" d="M1145.82,-283C1174.57,-283 1156.18,-234 1173.15,-221.75"/>
<polygon fill="#7570b3" stroke="#7570b3" points="1174.16,-225.1 1182.82,-219 1172.25,-218.37 1174.16,-225.1"/>
</g>
<!-- c32 -->
<g id="node26" class="node">
<title>c32</title>
<polygon fill="none" stroke="black" points="2484.79,-149.5 2484.79,-218.5 2593.79,-218.5 2593.79,-149.5 2484.79,-149.5"/>
<text text-anchor="middle" x="2498.29" y="-203.3" font-family="Times,serif" font-size="14.00">A</text>
<polyline fill="none" stroke="black" points="2484.79,-195.5 2511.79,-195.5 "/>
<text text-anchor="middle" x="2498.29" y="-180.3" font-family="Times,serif" font-size="14.00">B</text>
<polyline fill="none" stroke="black" points="2484.79,-172.5 2511.79,-172.5 "/>
<text text-anchor="middle" x="2498.29" y="-157.3" font-family="Times,serif" font-size="14.00">S</text>
<polyline fill="none" stroke="black" points="2511.79,-149.5 2511.79,-218.5 "/>
<text text-anchor="middle" x="2539.79" y="-187.8" font-family="Times,serif" font-size="14.00">$17</text>
<text text-anchor="middle" x="2539.79" y="-172.8" font-family="Times,serif" font-size="14.00">$mux</text>
<polyline fill="none" stroke="black" points="2567.79,-149.5 2567.79,-218.5 "/>
<text text-anchor="middle" x="2580.79" y="-180.3" font-family="Times,serif" font-size="14.00">Y</text>
</g>
<!-- n8&#45;&gt;c32 -->
<g id="edge27" class="edge">
<title>n8:e&#45;&gt;c32:w</title>
<path fill="none" stroke="#7570b3" d="M1145.82,-283C1178.49,-283 1186.66,-283 1219.32,-283 1219.32,-283 1219.32,-283 1494.82,-283 1606.25,-283 1621.32,-222.32 1728.82,-193 1796.58,-174.52 1815.19,-177.12 1884.7,-167 1934.56,-159.74 1946.81,-153 1997.2,-153 1997.2,-153 1997.2,-153 2325.29,-153 2392.03,-153 2411.08,-160.21 2472.97,-160.94"/>
<polygon fill="#7570b3" stroke="#7570b3" points="2473.27,-164.44 2483.29,-161 2473.31,-157.44 2473.27,-164.44"/>
</g>
<!-- n9 -->
<g id="node3" class="node">
<title>n9</title>
<polygon fill="none" stroke="black" points="522.07,-328 476.16,-310 522.07,-292 567.99,-310 522.07,-328"/>
<text text-anchor="middle" x="522.07" y="-306.3" font-family="Times,serif" font-size="14.00">SIGr</text>
</g>
<!-- x3 -->
<g id="node18" class="node">
<title>x3</title>
<path fill="none" stroke="#e7298a" d="M650.03,-292C650.03,-292 701.03,-292 701.03,-292 707.03,-292 713.03,-298 713.03,-304 713.03,-304 713.03,-316 713.03,-316 713.03,-322 707.03,-328 701.03,-328 701.03,-328 650.03,-328 650.03,-328 644.03,-328 638.03,-322 638.03,-316 638.03,-316 638.03,-304 638.03,-304 638.03,-298 644.03,-292 650.03,-292"/>
<text text-anchor="middle" x="675.53" y="-306.3" font-family="Times,serif" font-size="14.00" fill="#e7298a">2:1 &#45; 1:0</text>
</g>
<!-- n9&#45;&gt;x3 -->
<g id="edge31" class="edge">
<title>n9:e&#45;&gt;x3:w</title>
<path fill="none" stroke="#d95f02" stroke-width="3" d="M568.03,-310C595.5,-310 604.78,-310 627.98,-310"/>
<polygon fill="#d95f02" stroke="#d95f02" stroke-width="3" points="628.03,-313.5 638.03,-310 628.03,-306.5 628.03,-313.5"/>
<text text-anchor="middle" x="603.03" y="-313.8" font-family="Times,serif" font-size="14.00" fill="#d95f02">&lt;2&gt;</text>
</g>
<!-- n9&#45;&gt;x6 -->
<g id="edge32" class="edge">
<title>n9:e&#45;&gt;x6:w</title>
<path fill="none" stroke="#d95f02" stroke-width="3" d="M569.07,-310C577.09,-310 573.33,-321.95 568.07,-328 463.46,-448.33 374.81,-381.98 216.12,-397.5 182.72,-400.77 165.35,-420.18 140.62,-397.5 140.14,-397.07 139.69,-396.56 139.28,-396.01"/>
<polygon fill="#d95f02" stroke="#d95f02" stroke-width="3" points="142.78,-396.11 139.62,-386 135.78,-395.88 142.78,-396.11"/>
<text text-anchor="middle" x="346.12" y="-405.8" font-family="Times,serif" font-size="14.00" fill="#d95f02">&lt;2&gt;</text>
</g>
<!-- n10 -->
<g id="node4" class="node">
<title>n10</title>
<polygon fill="none" stroke="black" points="205.62,-288.54 205.62,-303.46 189.8,-314 167.43,-314 151.62,-303.46 151.62,-288.54 167.43,-278 189.8,-278 205.62,-288.54"/>
<text text-anchor="middle" x="178.62" y="-292.3" font-family="Times,serif" font-size="14.00">clk</text>
</g>
<!-- c22 -->
<g id="node10" class="node">
<title>c22</title>
<polygon fill="none" stroke="black" points="1512.82,-92.5 1512.82,-161.5 1649.82,-161.5 1649.82,-92.5 1512.82,-92.5"/>
<text text-anchor="middle" x="1540.82" y="-146.3" font-family="Times,serif" font-size="14.00">CLK</text>
<polyline fill="none" stroke="black" points="1512.82,-138.5 1568.82,-138.5 "/>
<text text-anchor="middle" x="1540.82" y="-123.3" font-family="Times,serif" font-size="14.00">D</text>
<polyline fill="none" stroke="black" points="1512.82,-115.5 1568.82,-115.5 "/>
<text text-anchor="middle" x="1540.82" y="-100.3" font-family="Times,serif" font-size="14.00">SRST</text>
<polyline fill="none" stroke="black" points="1568.82,-92.5 1568.82,-161.5 "/>
<text text-anchor="middle" x="1595.32" y="-130.8" font-family="Times,serif" font-size="14.00">$22</text>
<text text-anchor="middle" x="1595.32" y="-115.8" font-family="Times,serif" font-size="14.00">$sdff</text>
<polyline fill="none" stroke="black" points="1621.82,-92.5 1621.82,-161.5 "/>
<text text-anchor="middle" x="1635.82" y="-123.3" font-family="Times,serif" font-size="14.00">Q</text>
</g>
<!-- n10&#45;&gt;c22 -->
<g id="edge6" class="edge">
<title>n10:e&#45;&gt;c22:w</title>
<path fill="none" stroke="#666666" d="M206.62,-296C296.38,-296 255.35,-149 345.12,-149 345.12,-149 345.12,-149 1402.82,-149 1448.18,-149 1461.97,-149.86 1502.77,-149.99"/>
<polygon fill="#666666" stroke="#666666" points="1502.82,-153.49 1512.82,-150 1502.83,-146.49 1502.82,-153.49"/>
</g>
<!-- c24 -->
<g id="node11" class="node">
<title>c24</title>
<polygon fill="none" stroke="black" points="2699.79,-292.5 2699.79,-361.5 2827.79,-361.5 2827.79,-292.5 2699.79,-292.5"/>
<text text-anchor="middle" x="2723.29" y="-346.3" font-family="Times,serif" font-size="14.00">CLK</text>
<polyline fill="none" stroke="black" points="2699.79,-338.5 2746.79,-338.5 "/>
<text text-anchor="middle" x="2723.29" y="-323.3" font-family="Times,serif" font-size="14.00">D</text>
<polyline fill="none" stroke="black" points="2699.79,-315.5 2746.79,-315.5 "/>
<text text-anchor="middle" x="2723.29" y="-300.3" font-family="Times,serif" font-size="14.00">EN</text>
<polyline fill="none" stroke="black" points="2746.79,-292.5 2746.79,-361.5 "/>
<text text-anchor="middle" x="2773.29" y="-330.8" font-family="Times,serif" font-size="14.00">$25</text>
<text text-anchor="middle" x="2773.29" y="-315.8" font-family="Times,serif" font-size="14.00">$dffe</text>
<polyline fill="none" stroke="black" points="2799.79,-292.5 2799.79,-361.5 "/>
<text text-anchor="middle" x="2813.79" y="-323.3" font-family="Times,serif" font-size="14.00">Q</text>
</g>
<!-- n10&#45;&gt;c24 -->
<g id="edge7" class="edge">
<title>n10:e&#45;&gt;c24:w</title>
<path fill="none" stroke="#666666" d="M206.62,-296C231.59,-296 213.4,-331.06 234.12,-345 275.37,-372.76 295.39,-359 345.12,-359 345.12,-359 345.12,-359 2540.29,-359 2607.82,-359 2626.95,-350.86 2689.76,-350.06"/>
<polygon fill="#666666" stroke="#666666" points="2689.81,-353.56 2699.79,-350 2689.77,-346.56 2689.81,-353.56"/>
</g>
<!-- c29 -->
<g id="node21" class="node">
<title>c29</title>
<polygon fill="none" stroke="black" points="286.12,-284 286.12,-330 406.12,-330 406.12,-284 286.12,-284"/>
<text text-anchor="middle" x="309.62" y="-314.8" font-family="Times,serif" font-size="14.00">CLK</text>
<polyline fill="none" stroke="black" points="286.12,-307 333.12,-307 "/>
<text text-anchor="middle" x="309.62" y="-291.8" font-family="Times,serif" font-size="14.00">D</text>
<polyline fill="none" stroke="black" points="333.12,-284 333.12,-330 "/>
<text text-anchor="middle" x="355.62" y="-310.8" font-family="Times,serif" font-size="14.00">$21</text>
<text text-anchor="middle" x="355.62" y="-295.8" font-family="Times,serif" font-size="14.00">$dff</text>
<polyline fill="none" stroke="black" points="378.12,-284 378.12,-330 "/>
<text text-anchor="middle" x="392.12" y="-303.3" font-family="Times,serif" font-size="14.00">Q</text>
</g>
<!-- n10&#45;&gt;c29 -->
<g id="edge8" class="edge">
<title>n10:e&#45;&gt;c29:w</title>
<path fill="none" stroke="#666666" d="M206.62,-296C234.65,-296 241.72,-300.55 268.12,-310 272.06,-311.41 274.3,-313.48 276.48,-315.27"/>
<polygon fill="#666666" stroke="#666666" points="275.53,-318.66 286.12,-319 278.05,-312.13 275.53,-318.66"/>
</g>
<!-- n11 -->
<g id="node5" class="node">
<title>n11</title>
<polygon fill="none" stroke="black" points="2949.07,-345 2907.01,-327 2949.07,-309 2991.13,-327 2949.07,-345"/>
<text text-anchor="middle" x="2949.07" y="-323.3" font-family="Times,serif" font-size="14.00">freq</text>
</g>
<!-- x9 -->
<g id="node27" class="node">
<title>x9</title>
<path fill="none" stroke="black" d="M3112.35,-345C3112.35,-345 3082.35,-345 3082.35,-345 3076.35,-345 3070.35,-339 3070.35,-333 3070.35,-333 3070.35,-321 3070.35,-321 3070.35,-315 3076.35,-309 3082.35,-309 3082.35,-309 3112.35,-309 3112.35,-309 3118.35,-309 3124.35,-315 3124.35,-321 3124.35,-321 3124.35,-333 3124.35,-333 3124.35,-339 3118.35,-345 3112.35,-345"/>
<text text-anchor="middle" x="3097.35" y="-323.3" font-family="Times,serif" font-size="14.00">BUF</text>
</g>
<!-- n11&#45;&gt;x9 -->
<g id="edge10" class="edge">
<title>n11:e&#45;&gt;x9:w</title>
<path fill="none" stroke="#7570b3" stroke-width="3" d="M2991.35,-327C3022.76,-327 3033.1,-327 3060.06,-327"/>
<polygon fill="#7570b3" stroke="#7570b3" stroke-width="3" points="3060.35,-330.5 3070.35,-327 3060.35,-323.5 3060.35,-330.5"/>
<text text-anchor="middle" x="3030.85" y="-330.8" font-family="Times,serif" font-size="14.00" fill="#7570b3">&lt;32&gt;</text>
</g>
<!-- n12 -->
<g id="node6" class="node">
<title>n12</title>
<polygon fill="none" stroke="black" points="1797.76,-146 1728.89,-128 1797.76,-110 1866.63,-128 1797.76,-146"/>
<text text-anchor="middle" x="1797.76" y="-124.3" font-family="Times,serif" font-size="14.00">freq_cnt</text>
</g>
<!-- c17 -->
<g id="node9" class="node">
<title>c17</title>
<polygon fill="none" stroke="black" points="1945.7,-7 1945.7,-53 2050.7,-53 2050.7,-7 1945.7,-7"/>
<text text-anchor="middle" x="1959.2" y="-37.8" font-family="Times,serif" font-size="14.00">A</text>
<polyline fill="none" stroke="black" points="1945.7,-30 1972.7,-30 "/>
<text text-anchor="middle" x="1959.2" y="-14.8" font-family="Times,serif" font-size="14.00">B</text>
<polyline fill="none" stroke="black" points="1972.7,-7 1972.7,-53 "/>
<text text-anchor="middle" x="1998.7" y="-33.8" font-family="Times,serif" font-size="14.00">$5</text>
<text text-anchor="middle" x="1998.7" y="-18.8" font-family="Times,serif" font-size="14.00">$add</text>
<polyline fill="none" stroke="black" points="2024.7,-7 2024.7,-53 "/>
<text text-anchor="middle" x="2037.7" y="-26.3" font-family="Times,serif" font-size="14.00">Y</text>
</g>
<!-- n12&#45;&gt;c17 -->
<g id="edge12" class="edge">
<title>n12:e&#45;&gt;c17:w</title>
<path fill="none" stroke="#1b9e77" stroke-width="3" d="M1866.7,-128C1874.15,-128 1922.77,-105.6 1927.7,-100 1942.45,-83.21 1926.6,-54.45 1936.05,-45.06"/>
<polygon fill="#1b9e77" stroke="#1b9e77" stroke-width="3" points="1937.22,-48.36 1945.7,-42 1935.11,-41.69 1937.22,-48.36"/>
<text text-anchor="middle" x="1906.2" y="-125.8" font-family="Times,serif" font-size="14.00" fill="#1b9e77">&lt;32&gt;</text>
</g>
<!-- c28 -->
<g id="node20" class="node">
<title>c28</title>
<polygon fill="none" stroke="black" points="1951.2,-191 1951.2,-237 2045.2,-237 2045.2,-191 1951.2,-191"/>
<text text-anchor="middle" x="1964.7" y="-221.8" font-family="Times,serif" font-size="14.00">A</text>
<polyline fill="none" stroke="black" points="1951.2,-214 1978.2,-214 "/>
<text text-anchor="middle" x="1964.7" y="-198.8" font-family="Times,serif" font-size="14.00">B</text>
<polyline fill="none" stroke="black" points="1978.2,-191 1978.2,-237 "/>
<text text-anchor="middle" x="1998.7" y="-217.8" font-family="Times,serif" font-size="14.00">$6</text>
<text text-anchor="middle" x="1998.7" y="-202.8" font-family="Times,serif" font-size="14.00">$gt</text>
<polyline fill="none" stroke="black" points="2019.2,-191 2019.2,-237 "/>
<text text-anchor="middle" x="2032.2" y="-210.3" font-family="Times,serif" font-size="14.00">Y</text>
</g>
<!-- n12&#45;&gt;c28 -->
<g id="edge13" class="edge">
<title>n12:e&#45;&gt;c28:w</title>
<path fill="none" stroke="#1b9e77" stroke-width="3" d="M1866.7,-128C1871.37,-128 1924.82,-182.31 1927.7,-186 1937.48,-198.57 1933.26,-215.92 1940.67,-222.9"/>
<polygon fill="#1b9e77" stroke="#1b9e77" stroke-width="3" points="1939.6,-226.23 1950.2,-226 1941.77,-219.58 1939.6,-226.23"/>
<text text-anchor="middle" x="1906.2" y="-189.8" font-family="Times,serif" font-size="14.00" fill="#1b9e77">&lt;32&gt;</text>
</g>
<!-- n13 -->
<g id="node7" class="node">
<title>n13</title>
<polygon fill="none" stroke="black" points="3327.07,-319.54 3327.07,-334.46 3290.86,-345 3239.66,-345 3203.45,-334.46 3203.45,-319.54 3239.66,-309 3290.86,-309 3327.07,-319.54"/>
<text text-anchor="middle" x="3265.26" y="-323.3" font-family="Times,serif" font-size="14.00">frequency</text>
</g>
<!-- v0 -->
<g id="node8" class="node">
<title>v0</title>
<ellipse fill="none" stroke="black" cx="1797.76" cy="-18" rx="27" ry="18"/>
<text text-anchor="middle" x="1797.76" y="-14.3" font-family="Times,serif" font-size="14.00">1</text>
</g>
<!-- v0&#45;&gt;c17 -->
<g id="edge33" class="edge">
<title>v0:e&#45;&gt;c17:w</title>
<path fill="none" stroke="#d95f02" stroke-width="3" d="M1825.76,-18C1875.52,-18 1890.44,-18 1935.58,-18"/>
<polygon fill="#d95f02" stroke="#d95f02" stroke-width="3" points="1935.7,-21.5 1945.7,-18 1935.7,-14.5 1935.7,-21.5"/>
<text text-anchor="middle" x="1906.2" y="-21.8" font-family="Times,serif" font-size="14.00" fill="#d95f02">&lt;32&gt;</text>
</g>
<!-- n2 -->
<g id="node28" class="node">
<title>n2</title>
<ellipse fill="black" stroke="black" cx="2160.24" cy="-82" rx="1.8" ry="1.8"/>
</g>
<!-- c17&#45;&gt;n2 -->
<g id="edge15" class="edge">
<title>c17:e&#45;&gt;n2:w</title>
<path fill="none" stroke="#d95f02" stroke-width="3" d="M2050.7,-30C2079.67,-30 2085.78,-40.04 2111.7,-53 2129.64,-61.97 2132.64,-76.21 2147.16,-80.64"/>
<polygon fill="#d95f02" stroke="#d95f02" stroke-width="3" points="2146.86,-84.13 2157.24,-82 2147.8,-77.19 2146.86,-84.13"/>
<text text-anchor="middle" x="2090.2" y="-56.8" font-family="Times,serif" font-size="14.00" fill="#d95f02">&lt;32&gt;</text>
</g>
<!-- c22&#45;&gt;n12 -->
<g id="edge11" class="edge">
<title>c22:e&#45;&gt;n12:w</title>
<path fill="none" stroke="#1b9e77" stroke-width="3" d="M1649.82,-127C1681.23,-127 1691.56,-127.8 1718.53,-127.97"/>
<polygon fill="#1b9e77" stroke="#1b9e77" stroke-width="3" points="1718.81,-131.47 1728.82,-128 1718.83,-124.47 1718.81,-131.47"/>
<text text-anchor="middle" x="1689.32" y="-131.8" font-family="Times,serif" font-size="14.00" fill="#1b9e77">&lt;32&gt;</text>
</g>
<!-- c24&#45;&gt;n11 -->
<g id="edge9" class="edge">
<title>c24:e&#45;&gt;n11:w</title>
<path fill="none" stroke="#7570b3" stroke-width="3" d="M2827.79,-327C2859.2,-327 2869.53,-327 2896.5,-327"/>
<polygon fill="#7570b3" stroke="#7570b3" stroke-width="3" points="2896.79,-330.5 2906.79,-327 2896.79,-323.5 2896.79,-330.5"/>
<text text-anchor="middle" x="2867.29" y="-330.8" font-family="Times,serif" font-size="14.00" fill="#7570b3">&lt;32&gt;</text>
</g>
<!-- c25 -->
<g id="node12" class="node">
<title>c25</title>
<polygon fill="none" stroke="black" points="2457.79,-275 2457.79,-313 2620.79,-313 2620.79,-275 2457.79,-275"/>
<text text-anchor="middle" x="2470.79" y="-290.3" font-family="Times,serif" font-size="14.00">A</text>
<polyline fill="none" stroke="black" points="2483.79,-275 2483.79,-313 "/>
<text text-anchor="middle" x="2539.29" y="-297.8" font-family="Times,serif" font-size="14.00">$27</text>
<text text-anchor="middle" x="2539.29" y="-282.8" font-family="Times,serif" font-size="14.00">$reduce_bool</text>
<polyline fill="none" stroke="black" points="2594.79,-275 2594.79,-313 "/>
<text text-anchor="middle" x="2607.79" y="-290.3" font-family="Times,serif" font-size="14.00">Y</text>
</g>
<!-- c25&#45;&gt;c24 -->
<g id="edge18" class="edge">
<title>c25:e&#45;&gt;c24:w</title>
<path fill="none" stroke="#e6ab02" d="M2620.79,-294C2652.59,-294 2662.45,-302.07 2689.79,-303.71"/>
<polygon fill="#e6ab02" stroke="#e6ab02" points="2689.69,-307.21 2699.79,-304 2689.9,-300.21 2689.69,-307.21"/>
</g>
<!-- x1&#45;&gt;c25 -->
<g id="edge1" class="edge">
<title>x1:e&#45;&gt;c25:w</title>
<path fill="none" stroke="#666666" stroke-width="3" d="M2375.6,-294C2404.08,-294 2417.05,-294 2445.55,-294"/>
<polygon fill="none" stroke="#666666" stroke-width="3" points="2375.29,-294 2369.29,-298 2363.29,-294 2369.29,-290 2375.29,-294"/>
<polygon fill="none" stroke="#666666" stroke-width="3" points="2445.79,-294 2451.79,-290 2457.79,-294 2451.79,-298 2445.79,-294"/>
<text text-anchor="middle" x="2418.29" y="-297.8" font-family="Times,serif" font-size="14.00" fill="#666666">&lt;2&gt;</text>
</g>
<!-- c26 -->
<g id="node14" class="node">
<title>c26</title>
<polygon fill="none" stroke="black" points="1327.82,-178 1327.82,-216 1475.82,-216 1475.82,-178 1327.82,-178"/>
<text text-anchor="middle" x="1340.82" y="-193.3" font-family="Times,serif" font-size="14.00">A</text>
<polyline fill="none" stroke="black" points="1353.82,-178 1353.82,-216 "/>
<text text-anchor="middle" x="1401.82" y="-200.8" font-family="Times,serif" font-size="14.00">$24</text>
<text text-anchor="middle" x="1401.82" y="-185.8" font-family="Times,serif" font-size="14.00">$reduce_or</text>
<polyline fill="none" stroke="black" points="1449.82,-178 1449.82,-216 "/>
<text text-anchor="middle" x="1462.82" y="-193.3" font-family="Times,serif" font-size="14.00">Y</text>
</g>
<!-- c26&#45;&gt;c22 -->
<g id="edge19" class="edge">
<title>c26:e&#45;&gt;c22:w</title>
<path fill="none" stroke="#1b9e77" d="M1475.82,-197C1493.13,-197 1488.04,-178.92 1494.82,-163 1503.81,-141.92 1491.19,-114.85 1502.82,-106.54"/>
<polygon fill="#1b9e77" stroke="#1b9e77" points="1503.99,-109.86 1512.82,-104 1502.27,-103.07 1503.99,-109.86"/>
</g>
<!-- x2&#45;&gt;c26 -->
<g id="edge2" class="edge">
<title>x2:e&#45;&gt;c26:w</title>
<path fill="none" stroke="#e7298a" stroke-width="3" d="M1268.12,-224.26C1269.93,-221.43 1271.87,-218.27 1275.82,-216 1293.15,-206.02 1300.4,-199.72 1315.71,-197.7"/>
<polygon fill="none" stroke="#e7298a" stroke-width="3" points="1267.86,-224.43 1265.03,-231.06 1257.82,-231 1260.65,-224.37 1267.86,-224.43"/>
<polygon fill="none" stroke="#e7298a" stroke-width="3" points="1315.84,-197.69 1321.6,-193.35 1327.82,-197 1322.06,-201.34 1315.84,-197.69"/>
<text text-anchor="middle" x="1292.82" y="-219.8" font-family="Times,serif" font-size="14.00" fill="#e7298a">&lt;2&gt;</text>
</g>
<!-- v4 -->
<g id="node16" class="node">
<title>v4</title>
<ellipse fill="none" stroke="black" cx="675.53" cy="-255" rx="30.59" ry="18"/>
<text text-anchor="middle" x="675.53" y="-251.3" font-family="Times,serif" font-size="14.00">2&#39;01</text>
</g>
<!-- c27 -->
<g id="node17" class="node">
<title>c27</title>
<polygon fill="none" stroke="black" points="783.03,-260 783.03,-306 879.03,-306 879.03,-260 783.03,-260"/>
<text text-anchor="middle" x="796.53" y="-290.8" font-family="Times,serif" font-size="14.00">A</text>
<polyline fill="none" stroke="black" points="783.03,-283 810.03,-283 "/>
<text text-anchor="middle" x="796.53" y="-267.8" font-family="Times,serif" font-size="14.00">B</text>
<polyline fill="none" stroke="black" points="810.03,-260 810.03,-306 "/>
<text text-anchor="middle" x="831.53" y="-286.8" font-family="Times,serif" font-size="14.00">$2</text>
<text text-anchor="middle" x="831.53" y="-271.8" font-family="Times,serif" font-size="14.00">$eq</text>
<polyline fill="none" stroke="black" points="853.03,-260 853.03,-306 "/>
<text text-anchor="middle" x="866.03" y="-279.3" font-family="Times,serif" font-size="14.00">Y</text>
</g>
<!-- v4&#45;&gt;c27 -->
<g id="edge34" class="edge">
<title>v4:e&#45;&gt;c27:w</title>
<path fill="none" stroke="#7570b3" stroke-width="3" d="M707.53,-255C738.22,-255 746.97,-267.8 773.03,-270.5"/>
<polygon fill="#7570b3" stroke="#7570b3" stroke-width="3" points="772.87,-274 783.03,-271 773.22,-267.01 772.87,-274"/>
<text text-anchor="middle" x="748.03" y="-272.8" font-family="Times,serif" font-size="14.00" fill="#7570b3">&lt;2&gt;</text>
</g>
<!-- c27&#45;&gt;n8 -->
<g id="edge26" class="edge">
<title>c27:e&#45;&gt;n8:w</title>
<path fill="none" stroke="#7570b3" d="M879.03,-283C891.49,-283 896.87,-283 905.9,-283"/>
<polygon fill="#7570b3" stroke="#7570b3" points="906.03,-286.5 916.03,-283 906.03,-279.5 906.03,-286.5"/>
</g>
<!-- x3&#45;&gt;c27 -->
<g id="edge3" class="edge">
<title>x3:e&#45;&gt;c27:w</title>
<path fill="none" stroke="#e6ab02" stroke-width="3" d="M725.09,-309.19C743.52,-306.59 752.52,-298.42 770.95,-295.81"/>
<polygon fill="none" stroke="#e6ab02" stroke-width="3" points="725.01,-309.2 719.29,-313.59 713.03,-310 718.75,-305.61 725.01,-309.2"/>
<polygon fill="none" stroke="#e6ab02" stroke-width="3" points="771.06,-295.8 776.78,-291.41 783.03,-295 777.31,-299.39 771.06,-295.8"/>
<text text-anchor="middle" x="748.03" y="-310.8" font-family="Times,serif" font-size="14.00" fill="#e6ab02">&lt;2&gt;</text>
</g>
<!-- v5 -->
<g id="node19" class="node">
<title>v5</title>
<ellipse fill="none" stroke="black" cx="1797.76" cy="-220" rx="57.69" ry="18"/>
<text text-anchor="middle" x="1797.76" y="-216.3" font-family="Times,serif" font-size="14.00">25000000</text>
</g>
<!-- v5&#45;&gt;c28 -->
<g id="edge35" class="edge">
<title>v5:e&#45;&gt;c28:w</title>
<path fill="none" stroke="#e7298a" stroke-width="3" d="M1856.76,-220C1895.42,-220 1906.14,-204.96 1939.99,-202.38"/>
<polygon fill="#e7298a" stroke="#e7298a" stroke-width="3" points="1940.33,-205.87 1950.2,-202 1940.07,-198.87 1940.33,-205.87"/>
<text text-anchor="middle" x="1906.2" y="-220.8" font-family="Times,serif" font-size="14.00" fill="#e7298a">&lt;32&gt;</text>
</g>
<!-- n5 -->
<g id="node29" class="node">
<title>n5</title>
<ellipse fill="black" stroke="black" cx="2160.24" cy="-237" rx="1.8" ry="1.8"/>
</g>
<!-- c28&#45;&gt;n5 -->
<g id="edge20" class="edge">
<title>c28:e&#45;&gt;n5:w</title>
<path fill="none" stroke="#e6ab02" d="M2046.2,-214C2093.05,-214 2105.2,-233.88 2147.18,-236.67"/>
<polygon fill="#e6ab02" stroke="#e6ab02" points="2147.13,-240.18 2157.24,-237 2147.36,-233.18 2147.13,-240.18"/>
</g>
<!-- c29&#45;&gt;n9 -->
<g id="edge30" class="edge">
<title>c29:e&#45;&gt;n9:w</title>
<path fill="none" stroke="#d95f02" stroke-width="3" d="M406.12,-307C433.61,-307 442.85,-309.34 466.06,-309.89"/>
<polygon fill="#d95f02" stroke="#d95f02" stroke-width="3" points="466.08,-313.39 476.12,-310 466.16,-306.39 466.08,-313.39"/>
<text text-anchor="middle" x="441.12" y="-312.8" font-family="Times,serif" font-size="14.00" fill="#d95f02">&lt;3&gt;</text>
</g>
<!-- x6&#45;&gt;c29 -->
<g id="edge4" class="edge">
<title>x6:e&#45;&gt;c29:w</title>
<path fill="none" stroke="#66a61e" stroke-width="3" d="M227.09,-368.82C243.1,-354.54 259,-314.73 275.01,-300.31"/>
<polygon fill="none" stroke="#66a61e" stroke-width="3" points="226.97,-368.87 223.25,-375.05 216.12,-374 219.83,-367.82 226.97,-368.87"/>
<polygon fill="none" stroke="#66a61e" stroke-width="3" points="275.29,-300.17 278.98,-293.98 286.12,-295 282.43,-301.2 275.29,-300.17"/>
<text text-anchor="middle" x="251.12" y="-363.8" font-family="Times,serif" font-size="14.00" fill="#66a61e">&lt;3&gt;</text>
</g>
<!-- v7 -->
<g id="node23" class="node">
<title>v7</title>
<ellipse fill="none" stroke="black" cx="2160.24" cy="-275" rx="30.59" ry="18"/>
<text text-anchor="middle" x="2160.24" y="-271.3" font-family="Times,serif" font-size="14.00">32&#39;x</text>
</g>
<!-- c31 -->
<g id="node25" class="node">
<title>c31</title>
<polygon fill="none" stroke="black" points="2269.79,-181.5 2269.79,-250.5 2378.79,-250.5 2378.79,-181.5 2269.79,-181.5"/>
<text text-anchor="middle" x="2283.29" y="-235.3" font-family="Times,serif" font-size="14.00">A</text>
<polyline fill="none" stroke="black" points="2269.79,-227.5 2296.79,-227.5 "/>
<text text-anchor="middle" x="2283.29" y="-212.3" font-family="Times,serif" font-size="14.00">B</text>
<polyline fill="none" stroke="black" points="2269.79,-204.5 2296.79,-204.5 "/>
<text text-anchor="middle" x="2283.29" y="-189.3" font-family="Times,serif" font-size="14.00">S</text>
<polyline fill="none" stroke="black" points="2296.79,-181.5 2296.79,-250.5 "/>
<text text-anchor="middle" x="2324.79" y="-219.8" font-family="Times,serif" font-size="14.00">$14</text>
<text text-anchor="middle" x="2324.79" y="-204.8" font-family="Times,serif" font-size="14.00">$mux</text>
<polyline fill="none" stroke="black" points="2352.79,-181.5 2352.79,-250.5 "/>
<text text-anchor="middle" x="2365.79" y="-212.3" font-family="Times,serif" font-size="14.00">Y</text>
</g>
<!-- v7&#45;&gt;c31 -->
<g id="edge36" class="edge">
<title>v7:e&#45;&gt;c31:w</title>
<path fill="none" stroke="#e6ab02" stroke-width="3" d="M2190.79,-275C2225.61,-275 2230.5,-245.69 2259.47,-239.96"/>
<polygon fill="#e6ab02" stroke="#e6ab02" stroke-width="3" points="2260.16,-243.41 2269.79,-239 2259.51,-236.44 2260.16,-243.41"/>
<text text-anchor="middle" x="2230.29" y="-274.8" font-family="Times,serif" font-size="14.00" fill="#e6ab02">&lt;32&gt;</text>
</g>
<!-- v8 -->
<g id="node24" class="node">
<title>v8</title>
<ellipse fill="none" stroke="black" cx="2160.24" cy="-199" rx="27" ry="18"/>
<text text-anchor="middle" x="2160.24" y="-195.3" font-family="Times,serif" font-size="14.00">0</text>
</g>
<!-- v8&#45;&gt;c31 -->
<g id="edge37" class="edge">
<title>v8:e&#45;&gt;c31:w</title>
<path fill="none" stroke="#e6ab02" stroke-width="3" d="M2188.24,-199C2221.65,-199 2231.02,-212.84 2259.73,-215.55"/>
<polygon fill="#e6ab02" stroke="#e6ab02" stroke-width="3" points="2259.64,-219.04 2269.79,-216 2259.96,-212.05 2259.64,-219.04"/>
<text text-anchor="middle" x="2230.29" y="-218.8" font-family="Times,serif" font-size="14.00" fill="#e6ab02">&lt;32&gt;</text>
</g>
<!-- c31&#45;&gt;c32 -->
<g id="edge24" class="edge">
<title>c31:e&#45;&gt;c32:w</title>
<path fill="none" stroke="#666666" stroke-width="3" d="M2378.79,-216C2421.76,-216 2434.7,-208.35 2472.98,-207.16"/>
<polygon fill="#666666" stroke="#666666" stroke-width="3" points="2473.34,-210.65 2483.29,-207 2473.24,-203.65 2473.34,-210.65"/>
<text text-anchor="middle" x="2418.29" y="-219.8" font-family="Times,serif" font-size="14.00" fill="#666666">&lt;32&gt;</text>
</g>
<!-- c32&#45;&gt;c24 -->
<g id="edge5" class="edge">
<title>c32:e&#45;&gt;c24:w</title>
<path fill="none" stroke="#d95f02" stroke-width="3" d="M2595.29,-184C2670.32,-184 2625.75,-313.91 2689.56,-326.09"/>
<polygon fill="#d95f02" stroke="#d95f02" stroke-width="3" points="2689.52,-329.6 2699.79,-327 2690.14,-322.62 2689.52,-329.6"/>
<text text-anchor="middle" x="2660.29" y="-325.8" font-family="Times,serif" font-size="14.00" fill="#d95f02">&lt;32&gt;</text>
</g>
<!-- x9&#45;&gt;n13 -->
<g id="edge14" class="edge">
<title>x9:e&#45;&gt;n13:w</title>
<path fill="none" stroke="#666666" stroke-width="3" d="M3124.35,-327C3155.76,-327 3166.1,-327 3193.06,-327"/>
<polygon fill="#666666" stroke="#666666" stroke-width="3" points="3193.35,-330.5 3203.35,-327 3193.35,-323.5 3193.35,-330.5"/>
<text text-anchor="middle" x="3163.85" y="-330.8" font-family="Times,serif" font-size="14.00" fill="#666666">&lt;32&gt;</text>
</g>
<!-- n2&#45;&gt;c22 -->
<g id="edge16" class="edge">
<title>n2:e&#45;&gt;c22:w</title>
<path fill="none" stroke="#d95f02" stroke-width="3" d="M2163.24,-82C2164.16,-82 2163.03,-83.34 2162.24,-83.8 2160.79,-84.66 2160.13,-83.81 2158.44,-83.8 2055.88,-83.18 2030.26,-81.62 1927.7,-81 1838.86,-80.46 1815.02,-79.53 1728.82,-101 1700.71,-108 1689.13,-104.37 1667.82,-124 1654.08,-136.66 1665.61,-152.01 1649.82,-162 1598.18,-194.68 1556.15,-204.59 1512.32,-162 1508.75,-158.53 1506.15,-145.14 1506.79,-135.97"/>
<polygon fill="#d95f02" stroke="#d95f02" stroke-width="3" points="1509.93,-137.5 1511.32,-127 1503.69,-134.34 1509.93,-137.5"/>
<text text-anchor="middle" x="1906.2" y="-84.8" font-family="Times,serif" font-size="14.00" fill="#d95f02">&lt;32&gt;</text>
</g>
<!-- n2&#45;&gt;c32 -->
<g id="edge17" class="edge">
<title>n2:e&#45;&gt;c32:w</title>
<path fill="none" stroke="#d95f02" stroke-width="3" d="M2163.24,-82C2234.68,-82 2394.15,-175.42 2473.15,-183.45"/>
<polygon fill="#d95f02" stroke="#d95f02" stroke-width="3" points="2473.12,-186.95 2483.29,-184 2473.49,-179.96 2473.12,-186.95"/>
<text text-anchor="middle" x="2324.29" y="-158.8" font-family="Times,serif" font-size="14.00" fill="#d95f02">&lt;32&gt;</text>
</g>
<!-- n5&#45;&gt;x1 -->
<g id="edge22" class="edge">
<title>n5:e&#45;&gt;x1:w</title>
<path fill="none" stroke="#e6ab02" d="M2163.24,-237C2176.43,-237 2180.98,-239.19 2190.79,-248 2203.51,-259.43 2195.65,-271.06 2208.79,-282 2233.4,-302.48 2246.78,-305.53 2275.08,-305.94"/>
<polygon fill="#e6ab02" stroke="#e6ab02" points="2275.27,-309.44 2285.29,-306 2275.31,-302.44 2275.27,-309.44"/>
</g>
<!-- n5&#45;&gt;x2 -->
<g id="edge23" class="edge">
<title>n5:e&#45;&gt;x2:w</title>
<path fill="none" stroke="#e6ab02" d="M2163.24,-237C2164.16,-237 2163.02,-238.31 2162.24,-238.8 2141.25,-252.08 2075.52,-245.07 2050.7,-246 1698.54,-259.24 1610.23,-252.61 1257.82,-254.5 1224.27,-254.68 1207.06,-277.18 1182.32,-254.5 1181.85,-254.07 1181.4,-253.56 1180.98,-253.01"/>
<polygon fill="#e6ab02" stroke="#e6ab02" points="1184.48,-253.11 1181.32,-243 1177.49,-252.88 1184.48,-253.11"/>
</g>
<!-- n5&#45;&gt;c31 -->
<g id="edge21" class="edge">
<title>n5:e&#45;&gt;c31:w</title>
<path fill="none" stroke="#e6ab02" d="M2163.24,-237C2176.43,-237 2180.62,-234.39 2190.79,-226 2202.2,-216.59 2196.11,-205.61 2208.79,-198 2229.02,-185.86 2239.58,-191.02 2259.77,-192.6"/>
<polygon fill="#e6ab02" stroke="#e6ab02" points="2259.66,-196.1 2269.79,-193 2259.94,-189.1 2259.66,-196.1"/>
</g>
</g>
</svg>
