<?xml version="1.0" encoding="UTF-8" standalone="no"?>
<!DOCTYPE svg PUBLIC "-//W3C//DTD SVG 1.1//EN"
 "http://www.w3.org/Graphics/SVG/1.1/DTD/svg11.dtd">
<!-- Generated by graphviz version 2.43.0 (0)
 -->
<!-- Title: vin_quadencoder Pages: 1 -->
<svg width="2579pt" height="478pt"
 viewBox="0.00 0.00 2578.64 478.00" xmlns="http://www.w3.org/2000/svg" xmlns:xlink="http://www.w3.org/1999/xlink">
<g id="graph0" class="graph" transform="scale(1 1) rotate(0) translate(4 474)">
<title>vin_quadencoder</title>
<polygon fill="white" stroke="transparent" points="-4,4 -4,-474 2574.64,-474 2574.64,4 -4,4"/>
<!-- n6 -->
<g id="node1" class="node">
<title>n6</title>
<polygon fill="none" stroke="black" points="54,-223.54 54,-238.46 38.18,-249 15.82,-249 0,-238.46 0,-223.54 15.82,-213 38.18,-213 54,-223.54"/>
<text text-anchor="middle" x="27" y="-227.3" font-family="Times,serif" font-size="14.00">clk</text>
</g>
<!-- c23 -->
<g id="node12" class="node">
<title>c23</title>
<polygon fill="none" stroke="black" points="1882.42,-325.5 1882.42,-394.5 2010.42,-394.5 2010.42,-325.5 1882.42,-325.5"/>
<text text-anchor="middle" x="1905.92" y="-379.3" font-family="Times,serif" font-size="14.00">CLK</text>
<polyline fill="none" stroke="black" points="1882.42,-371.5 1929.42,-371.5 "/>
<text text-anchor="middle" x="1905.92" y="-356.3" font-family="Times,serif" font-size="14.00">D</text>
<polyline fill="none" stroke="black" points="1882.42,-348.5 1929.42,-348.5 "/>
<text text-anchor="middle" x="1905.92" y="-333.3" font-family="Times,serif" font-size="14.00">EN</text>
<polyline fill="none" stroke="black" points="1929.42,-325.5 1929.42,-394.5 "/>
<text text-anchor="middle" x="1955.92" y="-363.8" font-family="Times,serif" font-size="14.00">$22</text>
<text text-anchor="middle" x="1955.92" y="-348.8" font-family="Times,serif" font-size="14.00">$dffe</text>
<polyline fill="none" stroke="black" points="1982.42,-325.5 1982.42,-394.5 "/>
<text text-anchor="middle" x="1996.42" y="-356.3" font-family="Times,serif" font-size="14.00">Q</text>
</g>
<!-- n6&#45;&gt;c23 -->
<g id="edge27" class="edge">
<title>n6:e&#45;&gt;c23:w</title>
<path fill="none" stroke="#7570b3" d="M54,-231C75.11,-231 128.89,-395 150,-395 150,-395 150,-395 1745.31,-395 1802.9,-395 1819.36,-384.37 1872.13,-383.12"/>
<polygon fill="#7570b3" stroke="#7570b3" points="1872.46,-386.62 1882.42,-383 1872.38,-379.62 1872.46,-386.62"/>
</g>
<!-- c24 -->
<g id="node13" class="node">
<title>c24</title>
<polygon fill="none" stroke="black" points="334.98,-61 334.98,-107 454.98,-107 454.98,-61 334.98,-61"/>
<text text-anchor="middle" x="358.48" y="-91.8" font-family="Times,serif" font-size="14.00">CLK</text>
<polyline fill="none" stroke="black" points="334.98,-84 381.98,-84 "/>
<text text-anchor="middle" x="358.48" y="-68.8" font-family="Times,serif" font-size="14.00">D</text>
<polyline fill="none" stroke="black" points="381.98,-61 381.98,-107 "/>
<text text-anchor="middle" x="404.48" y="-87.8" font-family="Times,serif" font-size="14.00">$20</text>
<text text-anchor="middle" x="404.48" y="-72.8" font-family="Times,serif" font-size="14.00">$dff</text>
<polyline fill="none" stroke="black" points="426.98,-61 426.98,-107 "/>
<text text-anchor="middle" x="440.98" y="-80.3" font-family="Times,serif" font-size="14.00">Q</text>
</g>
<!-- n6&#45;&gt;c24 -->
<g id="edge28" class="edge">
<title>n6:e&#45;&gt;c24:w</title>
<path fill="none" stroke="#7570b3" d="M54,-231C79.89,-231 69.91,-201.02 91,-186 181.97,-121.23 216.7,-97.45 323.74,-96.06"/>
<polygon fill="#7570b3" stroke="#7570b3" points="324,-99.56 333.98,-96 323.95,-92.56 324,-99.56"/>
</g>
<!-- c25 -->
<g id="node15" class="node">
<title>c25</title>
<polygon fill="none" stroke="black" points="91,-196 91,-242 211,-242 211,-196 91,-196"/>
<text text-anchor="middle" x="114.5" y="-226.8" font-family="Times,serif" font-size="14.00">CLK</text>
<polyline fill="none" stroke="black" points="91,-219 138,-219 "/>
<text text-anchor="middle" x="114.5" y="-203.8" font-family="Times,serif" font-size="14.00">D</text>
<polyline fill="none" stroke="black" points="138,-196 138,-242 "/>
<text text-anchor="middle" x="160.5" y="-222.8" font-family="Times,serif" font-size="14.00">$21</text>
<text text-anchor="middle" x="160.5" y="-207.8" font-family="Times,serif" font-size="14.00">$dff</text>
<polyline fill="none" stroke="black" points="183,-196 183,-242 "/>
<text text-anchor="middle" x="197" y="-215.3" font-family="Times,serif" font-size="14.00">Q</text>
</g>
<!-- n6&#45;&gt;c25 -->
<g id="edge29" class="edge">
<title>n6:e&#45;&gt;c25:w</title>
<path fill="none" stroke="#7570b3" d="M54,-231C66.46,-231 71.84,-231 80.87,-231"/>
<polygon fill="#7570b3" stroke="#7570b3" points="81,-234.5 91,-231 81,-227.5 81,-234.5"/>
</g>
<!-- n7 -->
<g id="node2" class="node">
<title>n7</title>
<polygon fill="none" stroke="black" points="2140.89,-440 2089.45,-422 2140.89,-404 2192.34,-422 2140.89,-440"/>
<text text-anchor="middle" x="2140.89" y="-418.3" font-family="Times,serif" font-size="14.00">count</text>
</g>
<!-- c18 -->
<g id="node11" class="node">
<title>c18</title>
<polygon fill="none" stroke="black" points="2271.37,-225 2271.37,-271 2376.37,-271 2376.37,-225 2271.37,-225"/>
<text text-anchor="middle" x="2284.87" y="-255.8" font-family="Times,serif" font-size="14.00">A</text>
<polyline fill="none" stroke="black" points="2271.37,-248 2298.37,-248 "/>
<text text-anchor="middle" x="2284.87" y="-232.8" font-family="Times,serif" font-size="14.00">B</text>
<polyline fill="none" stroke="black" points="2298.37,-225 2298.37,-271 "/>
<text text-anchor="middle" x="2324.37" y="-251.8" font-family="Times,serif" font-size="14.00">$9</text>
<text text-anchor="middle" x="2324.37" y="-236.8" font-family="Times,serif" font-size="14.00">$add</text>
<polyline fill="none" stroke="black" points="2350.37,-225 2350.37,-271 "/>
<text text-anchor="middle" x="2363.37" y="-244.3" font-family="Times,serif" font-size="14.00">Y</text>
</g>
<!-- n7&#45;&gt;c18 -->
<g id="edge31" class="edge">
<title>n7:e&#45;&gt;c18:w</title>
<path fill="none" stroke="#e7298a" stroke-width="3" d="M2192.37,-422C2224.49,-422 2193.23,-379.17 2210.37,-352 2223.66,-330.92 2239.45,-336.68 2253.37,-316 2265.34,-298.21 2252.19,-271.92 2261.51,-263.05"/>
<polygon fill="#e7298a" stroke="#e7298a" stroke-width="3" points="2262.85,-266.3 2271.37,-260 2260.78,-259.61 2262.85,-266.3"/>
<text text-anchor="middle" x="2231.87" y="-355.8" font-family="Times,serif" font-size="14.00" fill="#e7298a">&lt;32&gt;</text>
</g>
<!-- c28 -->
<g id="node19" class="node">
<title>c28</title>
<polygon fill="none" stroke="black" points="2271.87,-365 2271.87,-411 2375.87,-411 2375.87,-365 2271.87,-365"/>
<text text-anchor="middle" x="2285.37" y="-395.8" font-family="Times,serif" font-size="14.00">A</text>
<polyline fill="none" stroke="black" points="2271.87,-388 2298.87,-388 "/>
<text text-anchor="middle" x="2285.37" y="-372.8" font-family="Times,serif" font-size="14.00">B</text>
<polyline fill="none" stroke="black" points="2298.87,-365 2298.87,-411 "/>
<text text-anchor="middle" x="2324.37" y="-391.8" font-family="Times,serif" font-size="14.00">$10</text>
<text text-anchor="middle" x="2324.37" y="-376.8" font-family="Times,serif" font-size="14.00">$sub</text>
<polyline fill="none" stroke="black" points="2349.87,-365 2349.87,-411 "/>
<text text-anchor="middle" x="2362.87" y="-384.3" font-family="Times,serif" font-size="14.00">Y</text>
</g>
<!-- n7&#45;&gt;c28 -->
<g id="edge32" class="edge">
<title>n7:e&#45;&gt;c28:w</title>
<path fill="none" stroke="#e7298a" stroke-width="3" d="M2192.37,-422C2201.74,-422 2201.6,-414.33 2210.37,-411 2232.7,-402.51 2241.45,-400.47 2261.35,-400.08"/>
<polygon fill="#e7298a" stroke="#e7298a" stroke-width="3" points="2261.4,-403.58 2271.37,-400 2261.34,-396.58 2261.4,-403.58"/>
<text text-anchor="middle" x="2231.87" y="-414.8" font-family="Times,serif" font-size="14.00" fill="#e7298a">&lt;32&gt;</text>
</g>
<!-- x10 -->
<g id="node30" class="node">
<title>x10</title>
<path fill="none" stroke="black" d="M2338.87,-470C2338.87,-470 2308.87,-470 2308.87,-470 2302.87,-470 2296.87,-464 2296.87,-458 2296.87,-458 2296.87,-446 2296.87,-446 2296.87,-440 2302.87,-434 2308.87,-434 2308.87,-434 2338.87,-434 2338.87,-434 2344.87,-434 2350.87,-440 2350.87,-446 2350.87,-446 2350.87,-458 2350.87,-458 2350.87,-464 2344.87,-470 2338.87,-470"/>
<text text-anchor="middle" x="2323.87" y="-448.3" font-family="Times,serif" font-size="14.00">BUF</text>
</g>
<!-- n7&#45;&gt;x10 -->
<g id="edge33" class="edge">
<title>n7:e&#45;&gt;x10:w</title>
<path fill="none" stroke="#e7298a" stroke-width="3" d="M2192.37,-422C2201.12,-422 2202.1,-427.12 2210.37,-430 2243.95,-441.69 2254.66,-450.26 2285.57,-451.76"/>
<polygon fill="#e7298a" stroke="#e7298a" stroke-width="3" points="2285.79,-455.27 2295.87,-452 2285.95,-448.27 2285.79,-455.27"/>
<text text-anchor="middle" x="2231.87" y="-449.8" font-family="Times,serif" font-size="14.00" fill="#e7298a">&lt;32&gt;</text>
</g>
<!-- n8 -->
<g id="node3" class="node">
<title>n8</title>
<polygon fill="none" stroke="black" points="1508.47,-211 1391.51,-193 1508.47,-175 1625.44,-193 1508.47,-211"/>
<text text-anchor="middle" x="1508.47" y="-189.3" font-family="Times,serif" font-size="14.00">count_direction</text>
</g>
<!-- c27 -->
<g id="node17" class="node">
<title>c27</title>
<polygon fill="none" stroke="black" points="2455.37,-244.5 2455.37,-313.5 2564.37,-313.5 2564.37,-244.5 2455.37,-244.5"/>
<text text-anchor="middle" x="2468.87" y="-298.3" font-family="Times,serif" font-size="14.00">A</text>
<polyline fill="none" stroke="black" points="2455.37,-290.5 2482.37,-290.5 "/>
<text text-anchor="middle" x="2468.87" y="-275.3" font-family="Times,serif" font-size="14.00">B</text>
<polyline fill="none" stroke="black" points="2455.37,-267.5 2482.37,-267.5 "/>
<text text-anchor="middle" x="2468.87" y="-252.3" font-family="Times,serif" font-size="14.00">S</text>
<polyline fill="none" stroke="black" points="2482.37,-244.5 2482.37,-313.5 "/>
<text text-anchor="middle" x="2510.37" y="-282.8" font-family="Times,serif" font-size="14.00">$15</text>
<text text-anchor="middle" x="2510.37" y="-267.8" font-family="Times,serif" font-size="14.00">$mux</text>
<polyline fill="none" stroke="black" points="2538.37,-244.5 2538.37,-313.5 "/>
<text text-anchor="middle" x="2551.37" y="-275.3" font-family="Times,serif" font-size="14.00">Y</text>
</g>
<!-- n8&#45;&gt;c27 -->
<g id="edge35" class="edge">
<title>n8:e&#45;&gt;c27:w</title>
<path fill="none" stroke="#e6ab02" d="M1625.21,-193C1731.08,-193 1757.55,-193 1863.42,-193 1863.42,-193 1863.42,-193 2324.87,-193 2349.76,-193 2353.86,-204.37 2376.37,-215 2377.25,-215.42 2425.63,-240.95 2446.24,-251.51"/>
<polygon fill="#e6ab02" stroke="#e6ab02" points="2444.85,-254.72 2455.37,-256 2447.94,-248.44 2444.85,-254.72"/>
</g>
<!-- n9 -->
<g id="node4" class="node">
<title>n9</title>
<polygon fill="none" stroke="black" points="1744.31,-328 1643.1,-310 1744.31,-292 1845.53,-310 1744.31,-328"/>
<text text-anchor="middle" x="1744.31" y="-306.3" font-family="Times,serif" font-size="14.00">count_enable</text>
</g>
<!-- n9&#45;&gt;c23 -->
<g id="edge37" class="edge">
<title>n9:e&#45;&gt;c23:w</title>
<path fill="none" stroke="#e6ab02" d="M1845.42,-310C1861.64,-310 1862.58,-327.15 1872.59,-334.11"/>
<polygon fill="#e6ab02" stroke="#e6ab02" points="1871.84,-337.54 1882.42,-337 1873.81,-330.82 1871.84,-337.54"/>
</g>
<!-- n10 -->
<g id="node5" class="node">
<title>n10</title>
<polygon fill="none" stroke="black" points="2538.55,-444.54 2538.55,-459.46 2521.75,-470 2497.98,-470 2481.18,-459.46 2481.18,-444.54 2497.98,-434 2521.75,-434 2538.55,-444.54"/>
<text text-anchor="middle" x="2509.87" y="-448.3" font-family="Times,serif" font-size="14.00">pos</text>
</g>
<!-- n11 -->
<g id="node6" class="node">
<title>n11</title>
<polygon fill="none" stroke="black" points="438.71,-136.54 438.71,-151.46 413.09,-162 376.86,-162 351.24,-151.46 351.24,-136.54 376.86,-126 413.09,-126 438.71,-136.54"/>
<text text-anchor="middle" x="394.98" y="-140.3" font-family="Times,serif" font-size="14.00">quadA</text>
</g>
<!-- x2 -->
<g id="node16" class="node">
<title>x2</title>
<path fill="none" stroke="#666666" d="M668.35,-171C668.35,-171 719.35,-171 719.35,-171 725.35,-171 731.35,-177 731.35,-183 731.35,-183 731.35,-205 731.35,-205 731.35,-211 725.35,-217 719.35,-217 719.35,-217 668.35,-217 668.35,-217 662.35,-217 656.35,-211 656.35,-205 656.35,-205 656.35,-183 656.35,-183 656.35,-177 662.35,-171 668.35,-171"/>
<text text-anchor="middle" x="693.85" y="-201.8" font-family="Times,serif" font-size="14.00" fill="#666666">1:0 &#45; 2:1</text>
<polyline fill="none" stroke="#666666" points="656.35,-194 731.35,-194 "/>
<text text-anchor="middle" x="693.85" y="-178.8" font-family="Times,serif" font-size="14.00" fill="#666666">0:0 &#45; 0:0</text>
</g>
<!-- n11&#45;&gt;x2 -->
<g id="edge11" class="edge">
<title>n11:e&#45;&gt;x2:w</title>
<path fill="none" stroke="#e6ab02" d="M439.98,-144C533.45,-144 556.26,-179.3 644.62,-181.85"/>
<polygon fill="#e6ab02" stroke="#e6ab02" points="644.8,-185.36 654.85,-182 644.9,-178.36 644.8,-185.36"/>
</g>
<!-- n12 -->
<g id="node7" class="node">
<title>n12</title>
<polygon fill="none" stroke="black" points="394.98,-275 281.02,-257 394.98,-239 508.93,-257 394.98,-275"/>
<text text-anchor="middle" x="394.98" y="-253.3" font-family="Times,serif" font-size="14.00">quadA_delayed</text>
</g>
<!-- n12&#45;&gt;x2 -->
<g id="edge13" class="edge">
<title>n12:e&#45;&gt;x2:w</title>
<path fill="none" stroke="#1b9e77" stroke-width="3" d="M508.95,-257C524.12,-257 514.37,-236.48 526.95,-228 571.89,-197.73 594.37,-204.92 644.74,-205.9"/>
<polygon fill="#1b9e77" stroke="#1b9e77" stroke-width="3" points="644.81,-209.4 654.85,-206 644.88,-202.4 644.81,-209.4"/>
<text text-anchor="middle" x="543.95" y="-231.8" font-family="Times,serif" font-size="14.00" fill="#1b9e77">&lt;2&gt;</text>
</g>
<!-- x4 -->
<g id="node21" class="node">
<title>x4</title>
<path fill="none" stroke="#e7298a" d="M668.35,-330C668.35,-330 719.35,-330 719.35,-330 725.35,-330 731.35,-336 731.35,-342 731.35,-342 731.35,-354 731.35,-354 731.35,-360 725.35,-366 719.35,-366 719.35,-366 668.35,-366 668.35,-366 662.35,-366 656.35,-360 656.35,-354 656.35,-354 656.35,-342 656.35,-342 656.35,-336 662.35,-330 668.35,-330"/>
<text text-anchor="middle" x="693.85" y="-344.3" font-family="Times,serif" font-size="14.00" fill="#e7298a">1:1 &#45; 0:0</text>
</g>
<!-- n12&#45;&gt;x4 -->
<g id="edge14" class="edge">
<title>n12:e&#45;&gt;x4:w</title>
<path fill="none" stroke="#1b9e77" d="M508.95,-257C526.44,-257 514.7,-279.51 526.95,-292 567.95,-333.78 590.19,-346.57 644.67,-347.88"/>
<polygon fill="#1b9e77" stroke="#1b9e77" points="644.81,-351.39 654.85,-348 644.89,-344.39 644.81,-351.39"/>
</g>
<!-- x5 -->
<g id="node22" class="node">
<title>x5</title>
<path fill="none" stroke="#e6ab02" d="M668.35,-275C668.35,-275 719.35,-275 719.35,-275 725.35,-275 731.35,-281 731.35,-287 731.35,-287 731.35,-299 731.35,-299 731.35,-305 725.35,-311 719.35,-311 719.35,-311 668.35,-311 668.35,-311 662.35,-311 656.35,-305 656.35,-299 656.35,-299 656.35,-287 656.35,-287 656.35,-281 662.35,-275 668.35,-275"/>
<text text-anchor="middle" x="693.85" y="-289.3" font-family="Times,serif" font-size="14.00" fill="#e6ab02">2:2 &#45; 0:0</text>
</g>
<!-- n12&#45;&gt;x5 -->
<g id="edge15" class="edge">
<title>n12:e&#45;&gt;x5:w</title>
<path fill="none" stroke="#1b9e77" d="M508.95,-257C519.09,-257 517.68,-266.91 526.95,-271 576.52,-292.88 594.93,-293.07 644.79,-293.01"/>
<polygon fill="#1b9e77" stroke="#1b9e77" points="644.85,-296.51 654.85,-293 644.84,-289.51 644.85,-296.51"/>
</g>
<!-- x8 -->
<g id="node28" class="node">
<title>x8</title>
<path fill="none" stroke="#666666" d="M838.74,-225C838.74,-225 889.74,-225 889.74,-225 895.74,-225 901.74,-231 901.74,-237 901.74,-237 901.74,-249 901.74,-249 901.74,-255 895.74,-261 889.74,-261 889.74,-261 838.74,-261 838.74,-261 832.74,-261 826.74,-255 826.74,-249 826.74,-249 826.74,-237 826.74,-237 826.74,-231 832.74,-225 838.74,-225"/>
<text text-anchor="middle" x="864.24" y="-239.3" font-family="Times,serif" font-size="14.00" fill="#666666">1:1 &#45; 0:0</text>
</g>
<!-- n12&#45;&gt;x8 -->
<g id="edge16" class="edge">
<title>n12:e&#45;&gt;x8:w</title>
<path fill="none" stroke="#1b9e77" d="M508.95,-257C646.88,-257 683.59,-243.68 816.57,-243.02"/>
<polygon fill="#1b9e77" stroke="#1b9e77" points="816.75,-246.52 826.74,-243 816.73,-239.52 816.75,-246.52"/>
</g>
<!-- n13 -->
<g id="node8" class="node">
<title>n13</title>
<polygon fill="none" stroke="black" points="737.58,-10.54 737.58,-25.46 711.96,-36 675.73,-36 650.11,-25.46 650.11,-10.54 675.73,0 711.96,0 737.58,-10.54"/>
<text text-anchor="middle" x="693.85" y="-14.3" font-family="Times,serif" font-size="14.00">quadB</text>
</g>
<!-- x1 -->
<g id="node14" class="node">
<title>x1</title>
<path fill="none" stroke="#666666" d="M945.24,-49C945.24,-49 996.24,-49 996.24,-49 1002.24,-49 1008.24,-55 1008.24,-61 1008.24,-61 1008.24,-83 1008.24,-83 1008.24,-89 1002.24,-95 996.24,-95 996.24,-95 945.24,-95 945.24,-95 939.24,-95 933.24,-89 933.24,-83 933.24,-83 933.24,-61 933.24,-61 933.24,-55 939.24,-49 945.24,-49"/>
<text text-anchor="middle" x="970.74" y="-79.8" font-family="Times,serif" font-size="14.00" fill="#666666">1:0 &#45; 2:1</text>
<polyline fill="none" stroke="#666666" points="933.24,-72 1008.24,-72 "/>
<text text-anchor="middle" x="970.74" y="-56.8" font-family="Times,serif" font-size="14.00" fill="#666666">0:0 &#45; 0:0</text>
</g>
<!-- n13&#45;&gt;x1 -->
<g id="edge17" class="edge">
<title>n13:e&#45;&gt;x1:w</title>
<path fill="none" stroke="#e6ab02" d="M738.85,-18C779.63,-18 873.39,-54.3 921.62,-59.41"/>
<polygon fill="#e6ab02" stroke="#e6ab02" points="921.55,-62.91 931.74,-60 921.96,-55.92 921.55,-62.91"/>
</g>
<!-- n14 -->
<g id="node9" class="node">
<title>n14</title>
<polygon fill="none" stroke="black" points="693.85,-152 579.06,-134 693.85,-116 808.64,-134 693.85,-152"/>
<text text-anchor="middle" x="693.85" y="-130.3" font-family="Times,serif" font-size="14.00">quadB_delayed</text>
</g>
<!-- n14&#45;&gt;x1 -->
<g id="edge19" class="edge">
<title>n14:e&#45;&gt;x1:w</title>
<path fill="none" stroke="#666666" stroke-width="3" d="M808.74,-134C820.05,-134 817.04,-121.82 826.74,-116 865.55,-92.71 880.73,-85.09 921.68,-84.11"/>
<polygon fill="#666666" stroke="#666666" stroke-width="3" points="921.78,-87.61 931.74,-84 921.7,-80.61 921.78,-87.61"/>
<text text-anchor="middle" x="864.24" y="-119.8" font-family="Times,serif" font-size="14.00" fill="#666666">&lt;2&gt;</text>
</g>
<!-- x6 -->
<g id="node24" class="node">
<title>x6</title>
<path fill="none" stroke="#66a61e" d="M945.24,-249C945.24,-249 996.24,-249 996.24,-249 1002.24,-249 1008.24,-255 1008.24,-261 1008.24,-261 1008.24,-273 1008.24,-273 1008.24,-279 1002.24,-285 996.24,-285 996.24,-285 945.24,-285 945.24,-285 939.24,-285 933.24,-279 933.24,-273 933.24,-273 933.24,-261 933.24,-261 933.24,-255 939.24,-249 945.24,-249"/>
<text text-anchor="middle" x="970.74" y="-263.3" font-family="Times,serif" font-size="14.00" fill="#66a61e">1:1 &#45; 0:0</text>
</g>
<!-- n14&#45;&gt;x6 -->
<g id="edge20" class="edge">
<title>n14:e&#45;&gt;x6:w</title>
<path fill="none" stroke="#666666" d="M808.74,-134C836.58,-134 807.71,-173.68 826.74,-194 851.06,-219.97 873.85,-199.9 901.74,-222 917.19,-234.25 911.31,-256.68 921.96,-264.35"/>
<polygon fill="#666666" stroke="#666666" points="921.17,-267.76 931.74,-267 923,-261.01 921.17,-267.76"/>
</g>
<!-- x7 -->
<g id="node26" class="node">
<title>x7</title>
<path fill="none" stroke="#d95f02" d="M1051.74,-240C1051.74,-240 1102.74,-240 1102.74,-240 1108.74,-240 1114.74,-246 1114.74,-252 1114.74,-252 1114.74,-264 1114.74,-264 1114.74,-270 1108.74,-276 1102.74,-276 1102.74,-276 1051.74,-276 1051.74,-276 1045.74,-276 1039.74,-270 1039.74,-264 1039.74,-264 1039.74,-252 1039.74,-252 1039.74,-246 1045.74,-240 1051.74,-240"/>
<text text-anchor="middle" x="1077.24" y="-254.3" font-family="Times,serif" font-size="14.00" fill="#d95f02">2:2 &#45; 0:0</text>
</g>
<!-- n14&#45;&gt;x7 -->
<g id="edge21" class="edge">
<title>n14:e&#45;&gt;x7:w</title>
<path fill="none" stroke="#666666" d="M808.74,-134C819.15,-134 817.94,-143.44 826.74,-149 907.43,-199.99 944.19,-183.35 1021.74,-239 1027.2,-242.92 1028.48,-248.66 1030.83,-252.8"/>
<polygon fill="#666666" stroke="#666666" points="1029.34,-255.98 1039.74,-258 1032.87,-249.94 1029.34,-255.98"/>
</g>
<!-- x9 -->
<g id="node29" class="node">
<title>x9</title>
<path fill="none" stroke="#7570b3" d="M945.24,-117C945.24,-117 996.24,-117 996.24,-117 1002.24,-117 1008.24,-123 1008.24,-129 1008.24,-129 1008.24,-141 1008.24,-141 1008.24,-147 1002.24,-153 996.24,-153 996.24,-153 945.24,-153 945.24,-153 939.24,-153 933.24,-147 933.24,-141 933.24,-141 933.24,-129 933.24,-129 933.24,-123 939.24,-117 945.24,-117"/>
<text text-anchor="middle" x="970.74" y="-131.3" font-family="Times,serif" font-size="14.00" fill="#7570b3">2:2 &#45; 0:0</text>
</g>
<!-- n14&#45;&gt;x9 -->
<g id="edge22" class="edge">
<title>n14:e&#45;&gt;x9:w</title>
<path fill="none" stroke="#666666" d="M808.74,-134C859.89,-134 875.14,-134.88 921.66,-134.99"/>
<polygon fill="#666666" stroke="#666666" points="921.74,-138.49 931.74,-135 921.74,-131.49 921.74,-138.49"/>
</g>
<!-- v0 -->
<g id="node10" class="node">
<title>v0</title>
<ellipse fill="none" stroke="black" cx="2140.89" cy="-239" rx="27" ry="18"/>
<text text-anchor="middle" x="2140.89" y="-235.3" font-family="Times,serif" font-size="14.00">1</text>
</g>
<!-- v0&#45;&gt;c18 -->
<g id="edge38" class="edge">
<title>v0:e&#45;&gt;c18:w</title>
<path fill="none" stroke="#666666" stroke-width="3" d="M2168.89,-239C2210.9,-239 2223.82,-236.45 2261.28,-236.05"/>
<polygon fill="#666666" stroke="#666666" stroke-width="3" points="2261.38,-239.55 2271.37,-236 2261.35,-232.55 2261.38,-239.55"/>
<text text-anchor="middle" x="2231.87" y="-241.8" font-family="Times,serif" font-size="14.00" fill="#666666">&lt;32&gt;</text>
</g>
<!-- c18&#45;&gt;c27 -->
<g id="edge9" class="edge">
<title>c18:e&#45;&gt;c27:w</title>
<path fill="none" stroke="#666666" stroke-width="3" d="M2376.37,-248C2405.34,-248 2410.56,-260 2437.37,-271 2441.16,-272.56 2443.43,-274.41 2445.67,-275.94"/>
<polygon fill="#666666" stroke="#666666" stroke-width="3" points="2444.78,-279.33 2455.37,-279 2446.88,-272.66 2444.78,-279.33"/>
<text text-anchor="middle" x="2415.87" y="-274.8" font-family="Times,serif" font-size="14.00" fill="#666666">&lt;32&gt;</text>
</g>
<!-- c23&#45;&gt;n7 -->
<g id="edge30" class="edge">
<title>c23:e&#45;&gt;n7:w</title>
<path fill="none" stroke="#e7298a" stroke-width="3" d="M2010.42,-360C2051.39,-360 2046.1,-412.25 2079.48,-420.82"/>
<polygon fill="#e7298a" stroke="#e7298a" stroke-width="3" points="2079.08,-424.29 2089.42,-422 2079.9,-417.34 2079.08,-424.29"/>
<text text-anchor="middle" x="2049.92" y="-420.8" font-family="Times,serif" font-size="14.00" fill="#e7298a">&lt;32&gt;</text>
</g>
<!-- c24&#45;&gt;n14 -->
<g id="edge18" class="edge">
<title>c24:e&#45;&gt;n14:w</title>
<path fill="none" stroke="#666666" stroke-width="3" d="M455.98,-84C511.4,-84 519.15,-128.13 568.8,-133.47"/>
<polygon fill="#666666" stroke="#666666" stroke-width="3" points="568.78,-136.98 578.95,-134 569.15,-129.99 568.78,-136.98"/>
<text text-anchor="middle" x="543.95" y="-136.8" font-family="Times,serif" font-size="14.00" fill="#666666">&lt;3&gt;</text>
</g>
<!-- x1&#45;&gt;c24 -->
<g id="edge1" class="edge">
<title>x1:e&#45;&gt;c24:w</title>
<path fill="none" stroke="#666666" stroke-width="3" d="M1015.76,-82.46C1014.83,-87.09 1012.16,-92.22 1008.74,-95.5 984.51,-118.72 966.44,-100.4 933.24,-95.5 918.77,-93.37 916.14,-88.55 901.74,-86 705.89,-51.38 653.78,-66.17 454.98,-60.5 405.41,-59.09 378.27,-29.15 342.3,-63.15"/>
<polygon fill="none" stroke="#666666" stroke-width="3" points="1015.73,-82.4 1009.27,-79.2 1009.74,-72 1016.2,-75.2 1015.73,-82.4"/>
<polygon fill="none" stroke="#666666" stroke-width="3" points="342.2,-63.26 341,-70.37 333.98,-72 335.17,-64.89 342.2,-63.26"/>
<text text-anchor="middle" x="693.85" y="-75.8" font-family="Times,serif" font-size="14.00" fill="#666666">&lt;3&gt;</text>
</g>
<!-- c25&#45;&gt;n12 -->
<g id="edge12" class="edge">
<title>c25:e&#45;&gt;n12:w</title>
<path fill="none" stroke="#1b9e77" stroke-width="3" d="M211,-219C242.67,-219 245.37,-249.41 270.92,-255.82"/>
<polygon fill="#1b9e77" stroke="#1b9e77" stroke-width="3" points="270.66,-259.31 281,-257 271.47,-252.36 270.66,-259.31"/>
<text text-anchor="middle" x="246" y="-256.8" font-family="Times,serif" font-size="14.00" fill="#1b9e77">&lt;3&gt;</text>
</g>
<!-- x2&#45;&gt;c25 -->
<g id="edge2" class="edge">
<title>x2:e&#45;&gt;c25:w</title>
<path fill="none" stroke="#e7298a" stroke-width="3" d="M738.87,-204.46C737.94,-209.09 735.27,-214.22 731.85,-217.5 707.62,-240.72 689.86,-219.16 656.35,-217.5 613.79,-215.39 603.46,-210.87 560.95,-208 405.67,-197.51 366.61,-198.28 211,-195.5 161.42,-194.61 134.29,-164.22 98.32,-198.16"/>
<polygon fill="none" stroke="#e7298a" stroke-width="3" points="738.83,-204.4 732.37,-201.2 732.85,-194 739.31,-197.2 738.83,-204.4"/>
<polygon fill="none" stroke="#e7298a" stroke-width="3" points="98.23,-198.26 97.03,-205.37 90,-207 91.2,-199.89 98.23,-198.26"/>
<text text-anchor="middle" x="394.98" y="-208.8" font-family="Times,serif" font-size="14.00" fill="#e7298a">&lt;3&gt;</text>
</g>
<!-- c27&#45;&gt;c23 -->
<g id="edge23" class="edge">
<title>c27:e&#45;&gt;c23:w</title>
<path fill="none" stroke="#66a61e" stroke-width="3" d="M2565.87,-279C2573.65,-279 2570.45,-308.58 2564.87,-314 2529.97,-347.92 2503.99,-316.04 2455.37,-314 2365.35,-310.22 2343.38,-300.78 2253.37,-297 2234.27,-296.2 2229.2,-293.74 2210.37,-297 2125.76,-311.66 2093.69,-306.2 2028.42,-362 2015.72,-372.86 2024.79,-386.47 2010.42,-395 1961.5,-424.04 1923.22,-434.65 1882.42,-395 1878.85,-391.53 1876.25,-378.14 1876.89,-368.97"/>
<polygon fill="#66a61e" stroke="#66a61e" stroke-width="3" points="1880.03,-370.5 1881.42,-360 1873.79,-367.34 1880.03,-370.5"/>
<text text-anchor="middle" x="2231.87" y="-300.8" font-family="Times,serif" font-size="14.00" fill="#66a61e">&lt;32&gt;</text>
</g>
<!-- v3 -->
<g id="node18" class="node">
<title>v3</title>
<ellipse fill="none" stroke="black" cx="2140.89" cy="-368" rx="27" ry="18"/>
<text text-anchor="middle" x="2140.89" y="-364.3" font-family="Times,serif" font-size="14.00">1</text>
</g>
<!-- v3&#45;&gt;c28 -->
<g id="edge39" class="edge">
<title>v3:e&#45;&gt;c28:w</title>
<path fill="none" stroke="#e7298a" stroke-width="3" d="M2168.89,-368C2211.01,-368 2223.74,-374.8 2261.26,-375.86"/>
<polygon fill="#e7298a" stroke="#e7298a" stroke-width="3" points="2261.32,-379.36 2271.37,-376 2261.42,-372.36 2261.32,-379.36"/>
<text text-anchor="middle" x="2231.87" y="-379.8" font-family="Times,serif" font-size="14.00" fill="#e7298a">&lt;32&gt;</text>
</g>
<!-- c28&#45;&gt;c27 -->
<g id="edge24" class="edge">
<title>c28:e&#45;&gt;c27:w</title>
<path fill="none" stroke="#7570b3" stroke-width="3" d="M2376.37,-388C2387.37,-388 2427.16,-326.21 2446.93,-307.38"/>
<polygon fill="#7570b3" stroke="#7570b3" stroke-width="3" points="2448.82,-310.33 2455.37,-302 2445.05,-304.43 2448.82,-310.33"/>
<text text-anchor="middle" x="2415.87" y="-375.8" font-family="Times,serif" font-size="14.00" fill="#7570b3">&lt;32&gt;</text>
</g>
<!-- c29 -->
<g id="node20" class="node">
<title>c29</title>
<polygon fill="none" stroke="black" points="919.74,-304 919.74,-350 1021.74,-350 1021.74,-304 919.74,-304"/>
<text text-anchor="middle" x="933.24" y="-334.8" font-family="Times,serif" font-size="14.00">A</text>
<polyline fill="none" stroke="black" points="919.74,-327 946.74,-327 "/>
<text text-anchor="middle" x="933.24" y="-311.8" font-family="Times,serif" font-size="14.00">B</text>
<polyline fill="none" stroke="black" points="946.74,-304 946.74,-350 "/>
<text text-anchor="middle" x="971.24" y="-330.8" font-family="Times,serif" font-size="14.00">$3</text>
<text text-anchor="middle" x="971.24" y="-315.8" font-family="Times,serif" font-size="14.00">$xor</text>
<polyline fill="none" stroke="black" points="995.74,-304 995.74,-350 "/>
<text text-anchor="middle" x="1008.74" y="-323.3" font-family="Times,serif" font-size="14.00">Y</text>
</g>
<!-- c30 -->
<g id="node23" class="node">
<title>c30</title>
<polygon fill="none" stroke="black" points="1132.74,-289 1132.74,-335 1234.74,-335 1234.74,-289 1132.74,-289"/>
<text text-anchor="middle" x="1146.24" y="-319.8" font-family="Times,serif" font-size="14.00">A</text>
<polyline fill="none" stroke="black" points="1132.74,-312 1159.74,-312 "/>
<text text-anchor="middle" x="1146.24" y="-296.8" font-family="Times,serif" font-size="14.00">B</text>
<polyline fill="none" stroke="black" points="1159.74,-289 1159.74,-335 "/>
<text text-anchor="middle" x="1184.24" y="-315.8" font-family="Times,serif" font-size="14.00">$4</text>
<text text-anchor="middle" x="1184.24" y="-300.8" font-family="Times,serif" font-size="14.00">$xor</text>
<polyline fill="none" stroke="black" points="1208.74,-289 1208.74,-335 "/>
<text text-anchor="middle" x="1221.74" y="-308.3" font-family="Times,serif" font-size="14.00">Y</text>
</g>
<!-- c29&#45;&gt;c30 -->
<g id="edge25" class="edge">
<title>c29:e&#45;&gt;c30:w</title>
<path fill="none" stroke="#d95f02" d="M1021.74,-327C1067.53,-327 1081.42,-324.42 1122.59,-324.04"/>
<polygon fill="#d95f02" stroke="#d95f02" points="1122.76,-327.54 1132.74,-324 1122.72,-320.54 1122.76,-327.54"/>
</g>
<!-- x4&#45;&gt;c29 -->
<g id="edge3" class="edge">
<title>x4:e&#45;&gt;c29:w</title>
<path fill="none" stroke="#e6ab02" d="M745.05,-347.93C814.4,-347.15 838.28,-339.84 907.71,-339.07"/>
<polygon fill="none" stroke="#e6ab02" points="744.85,-347.93 738.87,-351.97 732.85,-348 738.82,-343.97 744.85,-347.93"/>
<polygon fill="none" stroke="#e6ab02" points="907.74,-339.07 913.72,-335.03 919.74,-339 913.76,-343.03 907.74,-339.07"/>
</g>
<!-- x5&#45;&gt;c29 -->
<g id="edge4" class="edge">
<title>x5:e&#45;&gt;c29:w</title>
<path fill="none" stroke="#66a61e" d="M745.11,-293.16C814.76,-295.07 837.92,-312.96 907.65,-314.84"/>
<polygon fill="none" stroke="#66a61e" points="744.84,-293.16 738.79,-297.08 732.85,-293 738.9,-289.08 744.84,-293.16"/>
<polygon fill="none" stroke="#66a61e" points="907.74,-314.84 913.79,-310.92 919.74,-315 913.69,-318.92 907.74,-314.84"/>
</g>
<!-- c31 -->
<g id="node25" class="node">
<title>c31</title>
<polygon fill="none" stroke="black" points="1271.74,-277 1271.74,-323 1373.74,-323 1373.74,-277 1271.74,-277"/>
<text text-anchor="middle" x="1285.24" y="-307.8" font-family="Times,serif" font-size="14.00">A</text>
<polyline fill="none" stroke="black" points="1271.74,-300 1298.74,-300 "/>
<text text-anchor="middle" x="1285.24" y="-284.8" font-family="Times,serif" font-size="14.00">B</text>
<polyline fill="none" stroke="black" points="1298.74,-277 1298.74,-323 "/>
<text text-anchor="middle" x="1323.24" y="-303.8" font-family="Times,serif" font-size="14.00">$5</text>
<text text-anchor="middle" x="1323.24" y="-288.8" font-family="Times,serif" font-size="14.00">$xor</text>
<polyline fill="none" stroke="black" points="1347.74,-277 1347.74,-323 "/>
<text text-anchor="middle" x="1360.74" y="-296.3" font-family="Times,serif" font-size="14.00">Y</text>
</g>
<!-- c30&#45;&gt;c31 -->
<g id="edge26" class="edge">
<title>c30:e&#45;&gt;c31:w</title>
<path fill="none" stroke="#d95f02" d="M1234.74,-312C1247.2,-312 1252.58,-312 1261.61,-312"/>
<polygon fill="#d95f02" stroke="#d95f02" points="1261.74,-315.5 1271.74,-312 1261.74,-308.5 1261.74,-315.5"/>
</g>
<!-- x6&#45;&gt;c30 -->
<g id="edge5" class="edge">
<title>x6:e&#45;&gt;c30:w</title>
<path fill="none" stroke="#d95f02" d="M1021.67,-270.23C1027.05,-273.64 1030.7,-278.93 1039.74,-282 1075.4,-294.11 1087.99,-298.96 1120.39,-299.85"/>
<polygon fill="none" stroke="#d95f02" points="1021.32,-270.14 1014.49,-272.43 1009.74,-267 1016.58,-264.71 1021.32,-270.14"/>
<polygon fill="none" stroke="#d95f02" points="1120.74,-299.85 1126.79,-295.93 1132.74,-300 1126.69,-303.92 1120.74,-299.85"/>
</g>
<!-- c31&#45;&gt;n9 -->
<g id="edge36" class="edge">
<title>c31:e&#45;&gt;n9:w</title>
<path fill="none" stroke="#e6ab02" d="M1373.74,-300C1490.07,-300 1521.54,-309.42 1632.9,-309.97"/>
<polygon fill="#e6ab02" stroke="#e6ab02" points="1633.2,-313.48 1643.21,-310 1633.21,-306.48 1633.2,-313.48"/>
</g>
<!-- x7&#45;&gt;c31 -->
<g id="edge6" class="edge">
<title>x7:e&#45;&gt;c31:w</title>
<path fill="none" stroke="#666666" d="M1127,-258.19C1171.2,-259.6 1185.98,-268.82 1234.74,-279 1246.52,-281.46 1251.7,-284.97 1259.79,-286.8"/>
<polygon fill="none" stroke="#666666" points="1126.74,-258.18 1120.68,-262.09 1114.74,-258 1120.8,-254.09 1126.74,-258.18"/>
<polygon fill="none" stroke="#666666" points="1259.8,-286.8 1266.17,-283.42 1271.74,-288 1265.37,-291.38 1259.8,-286.8"/>
</g>
<!-- c32 -->
<g id="node27" class="node">
<title>c32</title>
<polygon fill="none" stroke="black" points="1132.74,-170 1132.74,-216 1234.74,-216 1234.74,-170 1132.74,-170"/>
<text text-anchor="middle" x="1146.24" y="-200.8" font-family="Times,serif" font-size="14.00">A</text>
<polyline fill="none" stroke="black" points="1132.74,-193 1159.74,-193 "/>
<text text-anchor="middle" x="1146.24" y="-177.8" font-family="Times,serif" font-size="14.00">B</text>
<polyline fill="none" stroke="black" points="1159.74,-170 1159.74,-216 "/>
<text text-anchor="middle" x="1184.24" y="-196.8" font-family="Times,serif" font-size="14.00">$6</text>
<text text-anchor="middle" x="1184.24" y="-181.8" font-family="Times,serif" font-size="14.00">$xor</text>
<polyline fill="none" stroke="black" points="1208.74,-170 1208.74,-216 "/>
<text text-anchor="middle" x="1221.74" y="-189.3" font-family="Times,serif" font-size="14.00">Y</text>
</g>
<!-- c32&#45;&gt;n8 -->
<g id="edge34" class="edge">
<title>c32:e&#45;&gt;n8:w</title>
<path fill="none" stroke="#e6ab02" d="M1234.74,-193C1300.97,-193 1320.06,-193 1381.5,-193"/>
<polygon fill="#e6ab02" stroke="#e6ab02" points="1381.74,-196.5 1391.74,-193 1381.74,-189.5 1381.74,-196.5"/>
</g>
<!-- x8&#45;&gt;c32 -->
<g id="edge7" class="edge">
<title>x8:e&#45;&gt;c32:w</title>
<path fill="none" stroke="#7570b3" d="M913.65,-240.61C915.32,-240.05 917.22,-239.48 919.74,-239 1009.77,-221.83 1034.72,-206.41 1120.51,-205.09"/>
<polygon fill="none" stroke="#7570b3" points="913.51,-240.64 908.41,-245.74 901.74,-243 906.84,-237.9 913.51,-240.64"/>
<polygon fill="none" stroke="#7570b3" points="1120.74,-205.09 1126.71,-201.05 1132.74,-205 1126.77,-209.04 1120.74,-205.09"/>
</g>
<!-- x9&#45;&gt;c32 -->
<g id="edge8" class="edge">
<title>x9:e&#45;&gt;c32:w</title>
<path fill="none" stroke="#1b9e77" d="M1021.92,-135.72C1065.53,-141.11 1076.96,-174.9 1120.58,-180.28"/>
<polygon fill="none" stroke="#1b9e77" points="1021.72,-135.71 1015.49,-139.35 1009.74,-135 1015.97,-131.36 1021.72,-135.71"/>
<polygon fill="none" stroke="#1b9e77" points="1120.76,-180.29 1126.99,-176.65 1132.74,-181 1126.51,-184.64 1120.76,-180.29"/>
</g>
<!-- x10&#45;&gt;n10 -->
<g id="edge10" class="edge">
<title>x10:e&#45;&gt;n10:w</title>
<path fill="none" stroke="#d95f02" stroke-width="3" d="M2351.87,-452C2405.2,-452 2421.03,-452 2469.68,-452"/>
<polygon fill="#d95f02" stroke="#d95f02" stroke-width="3" points="2469.87,-455.5 2479.87,-452 2469.87,-448.5 2469.87,-455.5"/>
<text text-anchor="middle" x="2415.87" y="-455.8" font-family="Times,serif" font-size="14.00" fill="#d95f02">&lt;32&gt;</text>
</g>
</g>
</svg>
