<?xml version="1.0" encoding="UTF-8" standalone="no"?>
<!DOCTYPE svg PUBLIC "-//W3C//DTD SVG 1.1//EN"
 "http://www.w3.org/Graphics/SVG/1.1/DTD/svg11.dtd">
<!-- Generated by graphviz version 2.43.0 (0)
 -->
<!-- Title: vin_pulsecounter Pages: 1 -->
<svg width="2560pt" height="484pt"
 viewBox="0.00 0.00 2560.34 484.00" xmlns="http://www.w3.org/2000/svg" xmlns:xlink="http://www.w3.org/1999/xlink">
<g id="graph0" class="graph" transform="scale(1 1) rotate(0) translate(4 480)">
<title>vin_pulsecounter</title>
<polygon fill="white" stroke="transparent" points="-4,4 -4,-480 2556.34,-480 2556.34,4 -4,4"/>
<!-- n7 -->
<g id="node1" class="node">
<title>n7</title>
<polygon fill="none" stroke="black" points="92.17,-10.54 92.17,-25.46 65.25,-36 27.18,-36 0.26,-25.46 0.26,-10.54 27.18,0 65.25,0 92.17,-10.54"/>
<text text-anchor="middle" x="46.22" y="-14.3" font-family="Times,serif" font-size="14.00">DOWN</text>
</g>
<!-- x6 -->
<g id="node23" class="node">
<title>x6</title>
<path fill="none" stroke="#e6ab02" d="M173.94,-7C173.94,-7 224.94,-7 224.94,-7 230.94,-7 236.94,-13 236.94,-19 236.94,-19 236.94,-41 236.94,-41 236.94,-47 230.94,-53 224.94,-53 224.94,-53 173.94,-53 173.94,-53 167.94,-53 161.94,-47 161.94,-41 161.94,-41 161.94,-19 161.94,-19 161.94,-13 167.94,-7 173.94,-7"/>
<text text-anchor="middle" x="199.44" y="-37.8" font-family="Times,serif" font-size="14.00" fill="#e6ab02">1:0 &#45; 2:1</text>
<polyline fill="none" stroke="#e6ab02" points="161.94,-30 236.94,-30 "/>
<text text-anchor="middle" x="199.44" y="-14.8" font-family="Times,serif" font-size="14.00" fill="#e6ab02">0:0 &#45; 0:0</text>
</g>
<!-- n7&#45;&gt;x6 -->
<g id="edge29" class="edge">
<title>n7:e&#45;&gt;x6:w</title>
<path fill="none" stroke="#7570b3" d="M91.94,-18C119.41,-18 128.69,-18 151.89,-18"/>
<polygon fill="#7570b3" stroke="#7570b3" points="151.94,-21.5 161.94,-18 151.94,-14.5 151.94,-21.5"/>
</g>
<!-- n8 -->
<g id="node2" class="node">
<title>n8</title>
<polygon fill="none" stroke="black" points="1113.34,-101 977.27,-83 1113.34,-65 1249.41,-83 1113.34,-101"/>
<text text-anchor="middle" x="1113.34" y="-79.3" font-family="Times,serif" font-size="14.00">DOWN_risingedge</text>
</g>
<!-- x1 -->
<g id="node15" class="node">
<title>x1</title>
<path fill="none" stroke="#666666" d="M1357.37,-258.5C1357.37,-258.5 1408.37,-258.5 1408.37,-258.5 1414.37,-258.5 1420.37,-264.5 1420.37,-270.5 1420.37,-270.5 1420.37,-315.5 1420.37,-315.5 1420.37,-321.5 1414.37,-327.5 1408.37,-327.5 1408.37,-327.5 1357.37,-327.5 1357.37,-327.5 1351.37,-327.5 1345.37,-321.5 1345.37,-315.5 1345.37,-315.5 1345.37,-270.5 1345.37,-270.5 1345.37,-264.5 1351.37,-258.5 1357.37,-258.5"/>
<text text-anchor="middle" x="1382.87" y="-312.3" font-family="Times,serif" font-size="14.00" fill="#666666">0:0 &#45; 2:2</text>
<polyline fill="none" stroke="#666666" points="1345.37,-304.5 1420.37,-304.5 "/>
<text text-anchor="middle" x="1382.87" y="-289.3" font-family="Times,serif" font-size="14.00" fill="#666666">0:0 &#45; 1:1</text>
<polyline fill="none" stroke="#666666" points="1345.37,-281.5 1420.37,-281.5 "/>
<text text-anchor="middle" x="1382.87" y="-266.3" font-family="Times,serif" font-size="14.00" fill="#666666">0:0 &#45; 0:0</text>
</g>
<!-- n8&#45;&gt;x1 -->
<g id="edge32" class="edge">
<title>n8:e&#45;&gt;x1:w</title>
<path fill="none" stroke="#e7298a" d="M1249.37,-83C1274.58,-83 1308.49,-272.71 1335.4,-309.77"/>
<polygon fill="#e7298a" stroke="#e7298a" points="1333.74,-312.89 1343.87,-316 1337.89,-307.25 1333.74,-312.89"/>
</g>
<!-- c33 -->
<g id="node27" class="node">
<title>c33</title>
<polygon fill="none" stroke="black" points="2437.07,-136.5 2437.07,-205.5 2546.07,-205.5 2546.07,-136.5 2437.07,-136.5"/>
<text text-anchor="middle" x="2450.57" y="-190.3" font-family="Times,serif" font-size="14.00">A</text>
<polyline fill="none" stroke="black" points="2437.07,-182.5 2464.07,-182.5 "/>
<text text-anchor="middle" x="2450.57" y="-167.3" font-family="Times,serif" font-size="14.00">B</text>
<polyline fill="none" stroke="black" points="2437.07,-159.5 2464.07,-159.5 "/>
<text text-anchor="middle" x="2450.57" y="-144.3" font-family="Times,serif" font-size="14.00">S</text>
<polyline fill="none" stroke="black" points="2464.07,-136.5 2464.07,-205.5 "/>
<text text-anchor="middle" x="2492.07" y="-174.8" font-family="Times,serif" font-size="14.00">$13</text>
<text text-anchor="middle" x="2492.07" y="-159.8" font-family="Times,serif" font-size="14.00">$mux</text>
<polyline fill="none" stroke="black" points="2520.07,-136.5 2520.07,-205.5 "/>
<text text-anchor="middle" x="2533.07" y="-167.3" font-family="Times,serif" font-size="14.00">Y</text>
</g>
<!-- n8&#45;&gt;c33 -->
<g id="edge31" class="edge">
<title>n8:e&#45;&gt;c33:w</title>
<path fill="none" stroke="#e7298a" d="M1249.37,-83C1308.28,-83 1322.97,-80 1381.87,-80 1381.87,-80 1381.87,-80 2304.57,-80 2367.14,-80 2370.67,-140.77 2426.78,-147.41"/>
<polygon fill="#e7298a" stroke="#e7298a" points="2426.88,-150.92 2437.07,-148 2427.28,-143.94 2426.88,-150.92"/>
</g>
<!-- n9 -->
<g id="node3" class="node">
<title>n9</title>
<polygon fill="none" stroke="black" points="563.12,-115 496.76,-97 563.12,-79 629.48,-97 563.12,-115"/>
<text text-anchor="middle" x="563.12" y="-93.3" font-family="Times,serif" font-size="14.00">DOWNr</text>
</g>
<!-- x4 -->
<g id="node21" class="node">
<title>x4</title>
<path fill="none" stroke="#e7298a" d="M711.3,-79C711.3,-79 762.3,-79 762.3,-79 768.3,-79 774.3,-85 774.3,-91 774.3,-91 774.3,-103 774.3,-103 774.3,-109 768.3,-115 762.3,-115 762.3,-115 711.3,-115 711.3,-115 705.3,-115 699.3,-109 699.3,-103 699.3,-103 699.3,-91 699.3,-91 699.3,-85 705.3,-79 711.3,-79"/>
<text text-anchor="middle" x="736.8" y="-93.3" font-family="Times,serif" font-size="14.00" fill="#e7298a">2:1 &#45; 1:0</text>
</g>
<!-- n9&#45;&gt;x4 -->
<g id="edge34" class="edge">
<title>n9:e&#45;&gt;x4:w</title>
<path fill="none" stroke="#e6ab02" stroke-width="3" d="M629.3,-97C656.77,-97 666.05,-97 689.25,-97"/>
<polygon fill="#e6ab02" stroke="#e6ab02" stroke-width="3" points="689.3,-100.5 699.3,-97 689.3,-93.5 689.3,-100.5"/>
<text text-anchor="middle" x="664.3" y="-100.8" font-family="Times,serif" font-size="14.00" fill="#e6ab02">&lt;2&gt;</text>
</g>
<!-- n9&#45;&gt;x6 -->
<g id="edge35" class="edge">
<title>n9:e&#45;&gt;x6:w</title>
<path fill="none" stroke="#e6ab02" stroke-width="3" d="M630.12,-97C638.14,-97 634.94,-109.49 629.12,-115 586.45,-155.37 550.32,-139.55 496.94,-115 485.78,-109.86 487.71,-102.62 478.94,-94 457.55,-72.98 455.16,-61.16 426.94,-51 347.48,-22.4 321.38,-51.99 236.94,-53.5 220.17,-53.8 173.81,-64.84 161.44,-53.5 160.97,-53.07 160.52,-52.56 160.11,-52.01"/>
<polygon fill="#e6ab02" stroke="#e6ab02" stroke-width="3" points="163.6,-52.11 160.44,-42 156.61,-51.88 163.6,-52.11"/>
<text text-anchor="middle" x="366.94" y="-54.8" font-family="Times,serif" font-size="14.00" fill="#e6ab02">&lt;2&gt;</text>
</g>
<!-- n10 -->
<g id="node4" class="node">
<title>n10</title>
<polygon fill="none" stroke="black" points="1160.61,-268.54 1160.61,-283.46 1132.92,-294 1093.76,-294 1066.07,-283.46 1066.07,-268.54 1093.76,-258 1132.92,-258 1160.61,-268.54"/>
<text text-anchor="middle" x="1113.34" y="-272.3" font-family="Times,serif" font-size="14.00">RESET</text>
</g>
<!-- n10&#45;&gt;x1 -->
<g id="edge8" class="edge">
<title>n10:e&#45;&gt;x1:w</title>
<path fill="none" stroke="#7570b3" d="M1162.34,-276C1239.6,-276 1261.31,-270.5 1333.79,-270.03"/>
<polygon fill="#7570b3" stroke="#7570b3" points="1333.88,-273.53 1343.87,-270 1333.86,-266.53 1333.88,-273.53"/>
</g>
<!-- c34 -->
<g id="node30" class="node">
<title>c34</title>
<polygon fill="none" stroke="black" points="1328.37,-384.5 1328.37,-453.5 1437.37,-453.5 1437.37,-384.5 1328.37,-384.5"/>
<text text-anchor="middle" x="1341.87" y="-438.3" font-family="Times,serif" font-size="14.00">A</text>
<polyline fill="none" stroke="black" points="1328.37,-430.5 1355.37,-430.5 "/>
<text text-anchor="middle" x="1341.87" y="-415.3" font-family="Times,serif" font-size="14.00">B</text>
<polyline fill="none" stroke="black" points="1328.37,-407.5 1355.37,-407.5 "/>
<text text-anchor="middle" x="1341.87" y="-392.3" font-family="Times,serif" font-size="14.00">S</text>
<polyline fill="none" stroke="black" points="1355.37,-384.5 1355.37,-453.5 "/>
<text text-anchor="middle" x="1383.37" y="-422.8" font-family="Times,serif" font-size="14.00">$9</text>
<text text-anchor="middle" x="1383.37" y="-407.8" font-family="Times,serif" font-size="14.00">$mux</text>
<polyline fill="none" stroke="black" points="1411.37,-384.5 1411.37,-453.5 "/>
<text text-anchor="middle" x="1424.37" y="-415.3" font-family="Times,serif" font-size="14.00">Y</text>
</g>
<!-- n10&#45;&gt;c34 -->
<g id="edge7" class="edge">
<title>n10:e&#45;&gt;c34:w</title>
<path fill="none" stroke="#7570b3" d="M1162.34,-276C1202.84,-276 1215.58,-280.68 1249.37,-303 1291.53,-330.85 1276.63,-387.53 1318.25,-395.15"/>
<polygon fill="#7570b3" stroke="#7570b3" points="1318.11,-398.65 1328.37,-396 1318.7,-391.67 1318.11,-398.65"/>
</g>
<!-- n11 -->
<g id="node5" class="node">
<title>n11</title>
<polygon fill="none" stroke="black" points="73.22,-75.54 73.22,-90.46 57.4,-101 35.03,-101 19.22,-90.46 19.22,-75.54 35.03,-65 57.4,-65 73.22,-75.54"/>
<text text-anchor="middle" x="46.22" y="-79.3" font-family="Times,serif" font-size="14.00">UP</text>
</g>
<!-- x7 -->
<g id="node25" class="node">
<title>x7</title>
<path fill="none" stroke="#66a61e" d="M173.94,-72C173.94,-72 224.94,-72 224.94,-72 230.94,-72 236.94,-78 236.94,-84 236.94,-84 236.94,-106 236.94,-106 236.94,-112 230.94,-118 224.94,-118 224.94,-118 173.94,-118 173.94,-118 167.94,-118 161.94,-112 161.94,-106 161.94,-106 161.94,-84 161.94,-84 161.94,-78 167.94,-72 173.94,-72"/>
<text text-anchor="middle" x="199.44" y="-102.8" font-family="Times,serif" font-size="14.00" fill="#66a61e">1:0 &#45; 2:1</text>
<polyline fill="none" stroke="#66a61e" points="161.94,-95 236.94,-95 "/>
<text text-anchor="middle" x="199.44" y="-79.8" font-family="Times,serif" font-size="14.00" fill="#66a61e">0:0 &#45; 0:0</text>
</g>
<!-- n11&#45;&gt;x7 -->
<g id="edge9" class="edge">
<title>n11:e&#45;&gt;x7:w</title>
<path fill="none" stroke="#1b9e77" d="M74.22,-83C109.55,-83 120.87,-83 151.7,-83"/>
<polygon fill="#1b9e77" stroke="#1b9e77" points="151.94,-86.5 161.94,-83 151.94,-79.5 151.94,-86.5"/>
</g>
<!-- n12 -->
<g id="node6" class="node">
<title>n12</title>
<polygon fill="none" stroke="black" points="1113.34,-348 1001.9,-330 1113.34,-312 1224.77,-330 1113.34,-348"/>
<text text-anchor="middle" x="1113.34" y="-326.3" font-family="Times,serif" font-size="14.00">UP_risingedge</text>
</g>
<!-- n12&#45;&gt;x1 -->
<g id="edge12" class="edge">
<title>n12:e&#45;&gt;x1:w</title>
<path fill="none" stroke="#666666" d="M1225.34,-330C1276.97,-330 1287.44,-297.62 1333.76,-293.44"/>
<polygon fill="#666666" stroke="#666666" points="1334.04,-296.93 1343.87,-293 1333.73,-289.94 1334.04,-296.93"/>
</g>
<!-- c32 -->
<g id="node26" class="node">
<title>c32</title>
<polygon fill="none" stroke="black" points="2249.07,-349.5 2249.07,-418.5 2358.07,-418.5 2358.07,-349.5 2249.07,-349.5"/>
<text text-anchor="middle" x="2262.57" y="-403.3" font-family="Times,serif" font-size="14.00">A</text>
<polyline fill="none" stroke="black" points="2249.07,-395.5 2276.07,-395.5 "/>
<text text-anchor="middle" x="2262.57" y="-380.3" font-family="Times,serif" font-size="14.00">B</text>
<polyline fill="none" stroke="black" points="2249.07,-372.5 2276.07,-372.5 "/>
<text text-anchor="middle" x="2262.57" y="-357.3" font-family="Times,serif" font-size="14.00">S</text>
<polyline fill="none" stroke="black" points="2276.07,-349.5 2276.07,-418.5 "/>
<text text-anchor="middle" x="2304.07" y="-387.8" font-family="Times,serif" font-size="14.00">$11</text>
<text text-anchor="middle" x="2304.07" y="-372.8" font-family="Times,serif" font-size="14.00">$mux</text>
<polyline fill="none" stroke="black" points="2332.07,-349.5 2332.07,-418.5 "/>
<text text-anchor="middle" x="2345.07" y="-380.3" font-family="Times,serif" font-size="14.00">Y</text>
</g>
<!-- n12&#45;&gt;c32 -->
<g id="edge11" class="edge">
<title>n12:e&#45;&gt;c32:w</title>
<path fill="none" stroke="#666666" d="M1225.34,-330C1295.86,-330 1311.35,-356 1381.87,-356 1381.87,-356 1381.87,-356 2118.57,-356 2173.1,-356 2189.12,-360.41 2238.99,-360.95"/>
<polygon fill="#666666" stroke="#666666" points="2239.05,-364.45 2249.07,-361 2239.09,-357.45 2239.05,-364.45"/>
</g>
<!-- n13 -->
<g id="node7" class="node">
<title>n13</title>
<polygon fill="none" stroke="black" points="46.22,-173 4.99,-155 46.22,-137 87.44,-155 46.22,-173"/>
<text text-anchor="middle" x="46.22" y="-151.3" font-family="Times,serif" font-size="14.00">UPr</text>
</g>
<!-- x2 -->
<g id="node18" class="node">
<title>x2</title>
<path fill="none" stroke="#666666" d="M173.94,-312C173.94,-312 224.94,-312 224.94,-312 230.94,-312 236.94,-318 236.94,-324 236.94,-324 236.94,-336 236.94,-336 236.94,-342 230.94,-348 224.94,-348 224.94,-348 173.94,-348 173.94,-348 167.94,-348 161.94,-342 161.94,-336 161.94,-336 161.94,-324 161.94,-324 161.94,-318 167.94,-312 173.94,-312"/>
<text text-anchor="middle" x="199.44" y="-326.3" font-family="Times,serif" font-size="14.00" fill="#666666">2:1 &#45; 1:0</text>
</g>
<!-- n13&#45;&gt;x2 -->
<g id="edge14" class="edge">
<title>n13:e&#45;&gt;x2:w</title>
<path fill="none" stroke="#d95f02" stroke-width="3" d="M88.22,-155C126.79,-155 121.19,-301.21 152.17,-326.34"/>
<polygon fill="#d95f02" stroke="#d95f02" stroke-width="3" points="151.35,-329.78 161.94,-330 153.8,-323.22 151.35,-329.78"/>
<text text-anchor="middle" x="126.94" y="-318.8" font-family="Times,serif" font-size="14.00" fill="#d95f02">&lt;2&gt;</text>
</g>
<!-- n13&#45;&gt;x7 -->
<g id="edge15" class="edge">
<title>n13:e&#45;&gt;x7:w</title>
<path fill="none" stroke="#d95f02" stroke-width="3" d="M88.22,-155C104.32,-155 97.02,-135.61 109.94,-126 126.61,-113.62 134.65,-108.6 151.54,-107.34"/>
<polygon fill="#d95f02" stroke="#d95f02" stroke-width="3" points="152.06,-110.82 161.94,-107 151.84,-103.83 152.06,-110.82"/>
<text text-anchor="middle" x="126.94" y="-129.8" font-family="Times,serif" font-size="14.00" fill="#d95f02">&lt;2&gt;</text>
</g>
<!-- n14 -->
<g id="node8" class="node">
<title>n14</title>
<polygon fill="none" stroke="black" points="226.44,-198.54 226.44,-213.46 210.63,-224 188.26,-224 172.44,-213.46 172.44,-198.54 188.26,-188 210.63,-188 226.44,-198.54"/>
<text text-anchor="middle" x="199.44" y="-202.3" font-family="Times,serif" font-size="14.00">clk</text>
</g>
<!-- c25 -->
<g id="node13" class="node">
<title>c25</title>
<polygon fill="none" stroke="black" points="1707.37,-172.5 1707.37,-241.5 1835.37,-241.5 1835.37,-172.5 1707.37,-172.5"/>
<text text-anchor="middle" x="1730.87" y="-226.3" font-family="Times,serif" font-size="14.00">CLK</text>
<polyline fill="none" stroke="black" points="1707.37,-218.5 1754.37,-218.5 "/>
<text text-anchor="middle" x="1730.87" y="-203.3" font-family="Times,serif" font-size="14.00">D</text>
<polyline fill="none" stroke="black" points="1707.37,-195.5 1754.37,-195.5 "/>
<text text-anchor="middle" x="1730.87" y="-180.3" font-family="Times,serif" font-size="14.00">EN</text>
<polyline fill="none" stroke="black" points="1754.37,-172.5 1754.37,-241.5 "/>
<text text-anchor="middle" x="1780.87" y="-210.8" font-family="Times,serif" font-size="14.00">$18</text>
<text text-anchor="middle" x="1780.87" y="-195.8" font-family="Times,serif" font-size="14.00">$dffe</text>
<polyline fill="none" stroke="black" points="1807.37,-172.5 1807.37,-241.5 "/>
<text text-anchor="middle" x="1821.37" y="-203.3" font-family="Times,serif" font-size="14.00">Q</text>
</g>
<!-- n14&#45;&gt;c25 -->
<g id="edge16" class="edge">
<title>n14:e&#45;&gt;c25:w</title>
<path fill="none" stroke="#e6ab02" d="M227.44,-206C239.87,-206 242.71,-208.84 254.94,-211 304.23,-219.7 315.89,-230 365.94,-230 365.94,-230 365.94,-230 1589.87,-230 1638.53,-230 1653.18,-230 1697.19,-230"/>
<polygon fill="#e6ab02" stroke="#e6ab02" points="1697.37,-233.5 1707.37,-230 1697.37,-226.5 1697.37,-233.5"/>
</g>
<!-- c29 -->
<g id="node22" class="node">
<title>c29</title>
<polygon fill="none" stroke="black" points="306.94,-76 306.94,-122 426.94,-122 426.94,-76 306.94,-76"/>
<text text-anchor="middle" x="330.44" y="-106.8" font-family="Times,serif" font-size="14.00">CLK</text>
<polyline fill="none" stroke="black" points="306.94,-99 353.94,-99 "/>
<text text-anchor="middle" x="330.44" y="-83.8" font-family="Times,serif" font-size="14.00">D</text>
<polyline fill="none" stroke="black" points="353.94,-76 353.94,-122 "/>
<text text-anchor="middle" x="376.44" y="-102.8" font-family="Times,serif" font-size="14.00">$16</text>
<text text-anchor="middle" x="376.44" y="-87.8" font-family="Times,serif" font-size="14.00">$dff</text>
<polyline fill="none" stroke="black" points="398.94,-76 398.94,-122 "/>
<text text-anchor="middle" x="412.94" y="-95.3" font-family="Times,serif" font-size="14.00">Q</text>
</g>
<!-- n14&#45;&gt;c29 -->
<g id="edge17" class="edge">
<title>n14:e&#45;&gt;c29:w</title>
<path fill="none" stroke="#e6ab02" d="M227.44,-206C246.69,-206 277.48,-160.46 288.94,-145 296.27,-135.13 293.53,-121.88 297.76,-115.21"/>
<polygon fill="#e6ab02" stroke="#e6ab02" points="299.31,-118.35 306.94,-111 296.4,-111.99 299.31,-118.35"/>
</g>
<!-- c30 -->
<g id="node24" class="node">
<title>c30</title>
<polygon fill="none" stroke="black" points="306.94,-141 306.94,-187 426.94,-187 426.94,-141 306.94,-141"/>
<text text-anchor="middle" x="330.44" y="-171.8" font-family="Times,serif" font-size="14.00">CLK</text>
<polyline fill="none" stroke="black" points="306.94,-164 353.94,-164 "/>
<text text-anchor="middle" x="330.44" y="-148.8" font-family="Times,serif" font-size="14.00">D</text>
<polyline fill="none" stroke="black" points="353.94,-141 353.94,-187 "/>
<text text-anchor="middle" x="376.44" y="-167.8" font-family="Times,serif" font-size="14.00">$17</text>
<text text-anchor="middle" x="376.44" y="-152.8" font-family="Times,serif" font-size="14.00">$dff</text>
<polyline fill="none" stroke="black" points="398.94,-141 398.94,-187 "/>
<text text-anchor="middle" x="412.94" y="-160.3" font-family="Times,serif" font-size="14.00">Q</text>
</g>
<!-- n14&#45;&gt;c30 -->
<g id="edge18" class="edge">
<title>n14:e&#45;&gt;c30:w</title>
<path fill="none" stroke="#e6ab02" d="M227.44,-206C255.58,-206 263.82,-203.67 288.94,-191 294.03,-188.44 295.82,-184.19 298.1,-180.87"/>
<polygon fill="#e6ab02" stroke="#e6ab02" points="299.87,-183.89 306.94,-176 296.5,-177.76 299.87,-183.89"/>
</g>
<!-- n15 -->
<g id="node9" class="node">
<title>n15</title>
<polygon fill="none" stroke="black" points="1950.22,-257 1914.53,-239 1950.22,-221 1985.92,-239 1950.22,-257"/>
<text text-anchor="middle" x="1950.22" y="-235.3" font-family="Times,serif" font-size="14.00">cnt</text>
</g>
<!-- c20 -->
<g id="node12" class="node">
<title>c20</title>
<polygon fill="none" stroke="black" points="2065.07,-281 2065.07,-327 2170.07,-327 2170.07,-281 2065.07,-281"/>
<text text-anchor="middle" x="2078.57" y="-311.8" font-family="Times,serif" font-size="14.00">A</text>
<polyline fill="none" stroke="black" points="2065.07,-304 2092.07,-304 "/>
<text text-anchor="middle" x="2078.57" y="-288.8" font-family="Times,serif" font-size="14.00">B</text>
<polyline fill="none" stroke="black" points="2092.07,-281 2092.07,-327 "/>
<text text-anchor="middle" x="2118.07" y="-307.8" font-family="Times,serif" font-size="14.00">$6</text>
<text text-anchor="middle" x="2118.07" y="-292.8" font-family="Times,serif" font-size="14.00">$add</text>
<polyline fill="none" stroke="black" points="2144.07,-281 2144.07,-327 "/>
<text text-anchor="middle" x="2157.07" y="-300.3" font-family="Times,serif" font-size="14.00">Y</text>
</g>
<!-- n15&#45;&gt;c20 -->
<g id="edge20" class="edge">
<title>n15:e&#45;&gt;c20:w</title>
<path fill="none" stroke="#1b9e77" stroke-width="3" d="M1986.07,-239C2016.04,-239 1982.08,-283.62 2004.07,-304 2021.72,-320.36 2033.94,-317.32 2055.06,-316.27"/>
<polygon fill="#1b9e77" stroke="#1b9e77" stroke-width="3" points="2055.17,-319.77 2065.07,-316 2054.98,-312.77 2055.17,-319.77"/>
<text text-anchor="middle" x="2025.57" y="-320.8" font-family="Times,serif" font-size="14.00" fill="#1b9e77">&lt;32&gt;</text>
</g>
<!-- c35 -->
<g id="node32" class="node">
<title>c35</title>
<polygon fill="none" stroke="black" points="2065.57,-110 2065.57,-156 2169.57,-156 2169.57,-110 2065.57,-110"/>
<text text-anchor="middle" x="2079.07" y="-140.8" font-family="Times,serif" font-size="14.00">A</text>
<polyline fill="none" stroke="black" points="2065.57,-133 2092.57,-133 "/>
<text text-anchor="middle" x="2079.07" y="-117.8" font-family="Times,serif" font-size="14.00">B</text>
<polyline fill="none" stroke="black" points="2092.57,-110 2092.57,-156 "/>
<text text-anchor="middle" x="2118.07" y="-136.8" font-family="Times,serif" font-size="14.00">$7</text>
<text text-anchor="middle" x="2118.07" y="-121.8" font-family="Times,serif" font-size="14.00">$sub</text>
<polyline fill="none" stroke="black" points="2143.57,-110 2143.57,-156 "/>
<text text-anchor="middle" x="2156.57" y="-129.3" font-family="Times,serif" font-size="14.00">Y</text>
</g>
<!-- n15&#45;&gt;c35 -->
<g id="edge21" class="edge">
<title>n15:e&#45;&gt;c35:w</title>
<path fill="none" stroke="#1b9e77" stroke-width="3" d="M1986.07,-239C1991.77,-239 2038.38,-173.31 2057.5,-151.76"/>
<polygon fill="#1b9e77" stroke="#1b9e77" stroke-width="3" points="2059.94,-154.27 2065.07,-145 2055.28,-149.05 2059.94,-154.27"/>
<text text-anchor="middle" x="2025.57" y="-221.8" font-family="Times,serif" font-size="14.00" fill="#1b9e77">&lt;32&gt;</text>
</g>
<!-- x11 -->
<g id="node33" class="node">
<title>x11</title>
<path fill="none" stroke="black" d="M2132.57,-262C2132.57,-262 2102.57,-262 2102.57,-262 2096.57,-262 2090.57,-256 2090.57,-250 2090.57,-250 2090.57,-238 2090.57,-238 2090.57,-232 2096.57,-226 2102.57,-226 2102.57,-226 2132.57,-226 2132.57,-226 2138.57,-226 2144.57,-232 2144.57,-238 2144.57,-238 2144.57,-250 2144.57,-250 2144.57,-256 2138.57,-262 2132.57,-262"/>
<text text-anchor="middle" x="2117.57" y="-240.3" font-family="Times,serif" font-size="14.00">BUF</text>
</g>
<!-- n15&#45;&gt;x11 -->
<g id="edge22" class="edge">
<title>n15:e&#45;&gt;x11:w</title>
<path fill="none" stroke="#1b9e77" stroke-width="3" d="M1986.07,-239C2028.52,-239 2041.52,-243.25 2079.38,-243.91"/>
<polygon fill="#1b9e77" stroke="#1b9e77" stroke-width="3" points="2079.54,-247.41 2089.57,-244 2079.6,-240.41 2079.54,-247.41"/>
<text text-anchor="middle" x="2025.57" y="-245.8" font-family="Times,serif" font-size="14.00" fill="#1b9e77">&lt;32&gt;</text>
</g>
<!-- n16 -->
<g id="node10" class="node">
<title>n16</title>
<polygon fill="none" stroke="black" points="2353.46,-236.54 2353.46,-251.46 2324.24,-262 2282.9,-262 2253.67,-251.46 2253.67,-236.54 2282.9,-226 2324.24,-226 2353.46,-236.54"/>
<text text-anchor="middle" x="2303.57" y="-240.3" font-family="Times,serif" font-size="14.00">counter</text>
</g>
<!-- v0 -->
<g id="node11" class="node">
<title>v0</title>
<ellipse fill="none" stroke="black" cx="1950.22" cy="-293" rx="27" ry="18"/>
<text text-anchor="middle" x="1950.22" y="-289.3" font-family="Times,serif" font-size="14.00">1</text>
</g>
<!-- v0&#45;&gt;c20 -->
<g id="edge36" class="edge">
<title>v0:e&#45;&gt;c20:w</title>
<path fill="none" stroke="#e6ab02" stroke-width="3" d="M1978.22,-293C1989.85,-293 1992.48,-289.89 2004.07,-289 2023.12,-287.53 2028.02,-287.42 2047.07,-289 2050.6,-289.29 2052.94,-289.9 2055.13,-290.5"/>
<polygon fill="#e6ab02" stroke="#e6ab02" stroke-width="3" points="2054.66,-293.97 2065.07,-292 2055.7,-287.05 2054.66,-293.97"/>
<text text-anchor="middle" x="2025.57" y="-292.8" font-family="Times,serif" font-size="14.00" fill="#e6ab02">&lt;32&gt;</text>
</g>
<!-- c20&#45;&gt;c32 -->
<g id="edge24" class="edge">
<title>c20:e&#45;&gt;c32:w</title>
<path fill="none" stroke="#666666" stroke-width="3" d="M2170.07,-304C2216.33,-304 2201.82,-372.57 2239.06,-382.74"/>
<polygon fill="#666666" stroke="#666666" stroke-width="3" points="2238.71,-386.23 2249.07,-384 2239.58,-379.28 2238.71,-386.23"/>
<text text-anchor="middle" x="2209.57" y="-381.8" font-family="Times,serif" font-size="14.00" fill="#666666">&lt;32&gt;</text>
</g>
<!-- c25&#45;&gt;n15 -->
<g id="edge19" class="edge">
<title>c25:e&#45;&gt;n15:w</title>
<path fill="none" stroke="#1b9e77" stroke-width="3" d="M1835.37,-207C1869.56,-207 1875.53,-233.06 1904.2,-238.14"/>
<polygon fill="#1b9e77" stroke="#1b9e77" stroke-width="3" points="1904.12,-241.65 1914.37,-239 1904.7,-234.67 1904.12,-241.65"/>
<text text-anchor="middle" x="1874.87" y="-238.8" font-family="Times,serif" font-size="14.00" fill="#1b9e77">&lt;32&gt;</text>
</g>
<!-- c26 -->
<g id="node14" class="node">
<title>c26</title>
<polygon fill="none" stroke="black" points="1507.37,-163 1507.37,-201 1670.37,-201 1670.37,-163 1507.37,-163"/>
<text text-anchor="middle" x="1520.37" y="-178.3" font-family="Times,serif" font-size="14.00">A</text>
<polyline fill="none" stroke="black" points="1533.37,-163 1533.37,-201 "/>
<text text-anchor="middle" x="1588.87" y="-185.8" font-family="Times,serif" font-size="14.00">$20</text>
<text text-anchor="middle" x="1588.87" y="-170.8" font-family="Times,serif" font-size="14.00">$reduce_bool</text>
<polyline fill="none" stroke="black" points="1644.37,-163 1644.37,-201 "/>
<text text-anchor="middle" x="1657.37" y="-178.3" font-family="Times,serif" font-size="14.00">Y</text>
</g>
<!-- c26&#45;&gt;c25 -->
<g id="edge25" class="edge">
<title>c26:e&#45;&gt;c25:w</title>
<path fill="none" stroke="#66a61e" d="M1670.37,-182C1682.85,-182 1688.21,-183.15 1697.24,-183.7"/>
<polygon fill="#66a61e" stroke="#66a61e" points="1697.28,-187.21 1707.37,-184 1697.48,-180.21 1697.28,-187.21"/>
</g>
<!-- x1&#45;&gt;c26 -->
<g id="edge1" class="edge">
<title>x1:e&#45;&gt;c26:w</title>
<path fill="none" stroke="#666666" stroke-width="3" d="M1433.86,-291.34C1475.5,-278.62 1453.74,-196.43 1495.35,-183.66"/>
<polygon fill="none" stroke="#666666" stroke-width="3" points="1433.76,-291.36 1428.36,-296.14 1421.87,-293 1427.27,-288.22 1433.76,-291.36"/>
<polygon fill="none" stroke="#666666" stroke-width="3" points="1495.49,-183.65 1500.88,-178.86 1507.37,-182 1501.98,-186.79 1495.49,-183.65"/>
<text text-anchor="middle" x="1472.37" y="-272.8" font-family="Times,serif" font-size="14.00" fill="#666666">&lt;3&gt;</text>
</g>
<!-- v3 -->
<g id="node16" class="node">
<title>v3</title>
<ellipse fill="none" stroke="black" cx="199.44" cy="-275" rx="30.59" ry="18"/>
<text text-anchor="middle" x="199.44" y="-271.3" font-family="Times,serif" font-size="14.00">2&#39;01</text>
</g>
<!-- c27 -->
<g id="node17" class="node">
<title>c27</title>
<polygon fill="none" stroke="black" points="318.94,-295 318.94,-341 414.94,-341 414.94,-295 318.94,-295"/>
<text text-anchor="middle" x="332.44" y="-325.8" font-family="Times,serif" font-size="14.00">A</text>
<polyline fill="none" stroke="black" points="318.94,-318 345.94,-318 "/>
<text text-anchor="middle" x="332.44" y="-302.8" font-family="Times,serif" font-size="14.00">B</text>
<polyline fill="none" stroke="black" points="345.94,-295 345.94,-341 "/>
<text text-anchor="middle" x="367.44" y="-321.8" font-family="Times,serif" font-size="14.00">$3</text>
<text text-anchor="middle" x="367.44" y="-306.8" font-family="Times,serif" font-size="14.00">$eq</text>
<polyline fill="none" stroke="black" points="388.94,-295 388.94,-341 "/>
<text text-anchor="middle" x="401.94" y="-314.3" font-family="Times,serif" font-size="14.00">Y</text>
</g>
<!-- v3&#45;&gt;c27 -->
<g id="edge38" class="edge">
<title>v3:e&#45;&gt;c27:w</title>
<path fill="none" stroke="#e7298a" stroke-width="3" d="M231.44,-275C268.61,-275 275.95,-300.68 307.76,-305.29"/>
<polygon fill="#e7298a" stroke="#e7298a" stroke-width="3" points="307.73,-308.8 317.94,-306 308.21,-301.82 307.73,-308.8"/>
<text text-anchor="middle" x="271.94" y="-301.8" font-family="Times,serif" font-size="14.00" fill="#e7298a">&lt;2&gt;</text>
</g>
<!-- c27&#45;&gt;n12 -->
<g id="edge10" class="edge">
<title>c27:e&#45;&gt;n12:w</title>
<path fill="none" stroke="#666666" d="M415.94,-318C480.97,-318 497.1,-324 562.12,-324 562.12,-324 562.12,-324 893.3,-324 937.82,-324 951.29,-329.14 991.2,-329.91"/>
<polygon fill="#666666" stroke="#666666" points="991.31,-333.41 1001.34,-330 991.37,-326.41 991.31,-333.41"/>
</g>
<!-- x2&#45;&gt;c27 -->
<g id="edge2" class="edge">
<title>x2:e&#45;&gt;c27:w</title>
<path fill="none" stroke="#e7298a" stroke-width="3" d="M249.28,-330C271.91,-330 283.09,-330 305.78,-330"/>
<polygon fill="none" stroke="#e7298a" stroke-width="3" points="248.94,-330 242.94,-334 236.94,-330 242.94,-326 248.94,-330"/>
<polygon fill="none" stroke="#e7298a" stroke-width="3" points="305.94,-330 311.94,-326 317.94,-330 311.94,-334 305.94,-330"/>
<text text-anchor="middle" x="271.94" y="-333.8" font-family="Times,serif" font-size="14.00" fill="#e7298a">&lt;2&gt;</text>
</g>
<!-- v5 -->
<g id="node19" class="node">
<title>v5</title>
<ellipse fill="none" stroke="black" cx="736.8" cy="-42" rx="30.59" ry="18"/>
<text text-anchor="middle" x="736.8" y="-38.3" font-family="Times,serif" font-size="14.00">2&#39;01</text>
</g>
<!-- c28 -->
<g id="node20" class="node">
<title>c28</title>
<polygon fill="none" stroke="black" points="844.3,-60 844.3,-106 940.3,-106 940.3,-60 844.3,-60"/>
<text text-anchor="middle" x="857.8" y="-90.8" font-family="Times,serif" font-size="14.00">A</text>
<polyline fill="none" stroke="black" points="844.3,-83 871.3,-83 "/>
<text text-anchor="middle" x="857.8" y="-67.8" font-family="Times,serif" font-size="14.00">B</text>
<polyline fill="none" stroke="black" points="871.3,-60 871.3,-106 "/>
<text text-anchor="middle" x="892.8" y="-86.8" font-family="Times,serif" font-size="14.00">$4</text>
<text text-anchor="middle" x="892.8" y="-71.8" font-family="Times,serif" font-size="14.00">$eq</text>
<polyline fill="none" stroke="black" points="914.3,-60 914.3,-106 "/>
<text text-anchor="middle" x="927.3" y="-79.3" font-family="Times,serif" font-size="14.00">Y</text>
</g>
<!-- v5&#45;&gt;c28 -->
<g id="edge39" class="edge">
<title>v5:e&#45;&gt;c28:w</title>
<path fill="none" stroke="#e6ab02" stroke-width="3" d="M768.8,-42C801.1,-42 807.29,-65.41 834.28,-70.16"/>
<polygon fill="#e6ab02" stroke="#e6ab02" stroke-width="3" points="834.05,-73.66 844.3,-71 834.63,-66.68 834.05,-73.66"/>
<text text-anchor="middle" x="809.3" y="-71.8" font-family="Times,serif" font-size="14.00" fill="#e6ab02">&lt;2&gt;</text>
</g>
<!-- c28&#45;&gt;n8 -->
<g id="edge30" class="edge">
<title>c28:e&#45;&gt;n8:w</title>
<path fill="none" stroke="#e7298a" d="M940.3,-83C952.76,-83 958.14,-83 967.17,-83"/>
<polygon fill="#e7298a" stroke="#e7298a" points="967.3,-86.5 977.3,-83 967.3,-79.5 967.3,-86.5"/>
</g>
<!-- x4&#45;&gt;c28 -->
<g id="edge3" class="edge">
<title>x4:e&#45;&gt;c28:w</title>
<path fill="none" stroke="#e6ab02" stroke-width="3" d="M786.47,-96.89C804.51,-96.53 814.14,-95.46 832.2,-95.11"/>
<polygon fill="none" stroke="#e6ab02" stroke-width="3" points="786.3,-96.89 780.34,-100.94 774.3,-97 780.27,-92.94 786.3,-96.89"/>
<polygon fill="none" stroke="#e6ab02" stroke-width="3" points="832.3,-95.11 838.27,-91.06 844.3,-95 838.34,-99.06 832.3,-95.11"/>
<text text-anchor="middle" x="809.3" y="-100.8" font-family="Times,serif" font-size="14.00" fill="#e6ab02">&lt;2&gt;</text>
</g>
<!-- c29&#45;&gt;n9 -->
<g id="edge33" class="edge">
<title>c29:e&#45;&gt;n9:w</title>
<path fill="none" stroke="#e6ab02" stroke-width="3" d="M426.94,-99C454.42,-99 463.68,-97.44 486.89,-97.08"/>
<polygon fill="#e6ab02" stroke="#e6ab02" stroke-width="3" points="486.97,-100.58 496.94,-97 486.92,-93.58 486.97,-100.58"/>
<text text-anchor="middle" x="461.94" y="-102.8" font-family="Times,serif" font-size="14.00" fill="#e6ab02">&lt;3&gt;</text>
</g>
<!-- x6&#45;&gt;c29 -->
<g id="edge4" class="edge">
<title>x6:e&#45;&gt;c29:w</title>
<path fill="none" stroke="#66a61e" stroke-width="3" d="M246.79,-37.48C248.64,-43.05 249.17,-50.6 254.94,-56 271.23,-71.21 277.75,-82.49 294.79,-85.92"/>
<polygon fill="none" stroke="#66a61e" stroke-width="3" points="246.5,-37.26 239.3,-36.81 236.94,-30 244.14,-30.44 246.5,-37.26"/>
<polygon fill="none" stroke="#66a61e" stroke-width="3" points="294.99,-85.93 301.32,-82.48 306.94,-87 300.61,-90.45 294.99,-85.93"/>
<text text-anchor="middle" x="271.94" y="-88.8" font-family="Times,serif" font-size="14.00" fill="#66a61e">&lt;3&gt;</text>
</g>
<!-- c30&#45;&gt;n13 -->
<g id="edge13" class="edge">
<title>c30:e&#45;&gt;n13:w</title>
<path fill="none" stroke="#d95f02" stroke-width="3" d="M427.94,-164C438.4,-164 434.49,-180.27 426.94,-187.5 388.44,-224.4 359.58,-196.1 306.94,-187.5 274.56,-182.21 269.33,-169.29 236.94,-164 171.31,-153.28 153.96,-169 87.58,-173 51.04,-175.2 31.81,-198.16 5.22,-173 2.85,-170.76 0.92,-167.37 0,-164.14"/>
<polygon fill="#d95f02" stroke="#d95f02" stroke-width="3" points="3.2,-165.55 4.22,-155 -3.15,-162.61 3.2,-165.55"/>
<text text-anchor="middle" x="199.44" y="-167.8" font-family="Times,serif" font-size="14.00" fill="#d95f02">&lt;3&gt;</text>
</g>
<!-- x7&#45;&gt;c30 -->
<g id="edge5" class="edge">
<title>x7:e&#45;&gt;c30:w</title>
<path fill="none" stroke="#d95f02" stroke-width="3" d="M248.92,-98.35C263.2,-104.83 281.49,-119.04 288.94,-126 294.72,-131.4 295.25,-138.95 297.1,-144.52"/>
<polygon fill="none" stroke="#d95f02" stroke-width="3" points="248.5,-98.23 241.65,-100.47 236.94,-95 243.8,-92.76 248.5,-98.23"/>
<polygon fill="none" stroke="#d95f02" stroke-width="3" points="297.39,-144.74 304.59,-145.19 306.94,-152 299.75,-151.56 297.39,-144.74"/>
<text text-anchor="middle" x="271.94" y="-129.8" font-family="Times,serif" font-size="14.00" fill="#d95f02">&lt;3&gt;</text>
</g>
<!-- c32&#45;&gt;c33 -->
<g id="edge26" class="edge">
<title>c32:e&#45;&gt;c33:w</title>
<path fill="none" stroke="#7570b3" stroke-width="3" d="M2358.07,-384C2400.22,-384 2392.93,-222.53 2427.36,-197.3"/>
<polygon fill="#7570b3" stroke="#7570b3" stroke-width="3" points="2428.73,-200.53 2437.07,-194 2426.47,-193.9 2428.73,-200.53"/>
<text text-anchor="middle" x="2397.57" y="-370.8" font-family="Times,serif" font-size="14.00" fill="#7570b3">&lt;32&gt;</text>
</g>
<!-- c33&#45;&gt;c25 -->
<g id="edge6" class="edge">
<title>c33:e&#45;&gt;c25:w</title>
<path fill="none" stroke="#666666" stroke-width="3" d="M2547.57,-171C2555.35,-171 2552.15,-200.58 2546.57,-206 2527.26,-224.77 2331.5,-193 2304.57,-193 1949.22,-193 1949.22,-193 1949.22,-193 1906.17,-193 1888.4,-181.97 1853.37,-207 1839.14,-217.17 1850.31,-232.89 1835.37,-242 1786.81,-271.63 1748.17,-281.65 1707.37,-242 1703.8,-238.53 1701.2,-225.14 1701.84,-215.97"/>
<polygon fill="#666666" stroke="#666666" stroke-width="3" points="1704.98,-217.5 1706.37,-207 1698.74,-214.34 1704.98,-217.5"/>
<text text-anchor="middle" x="2117.57" y="-196.8" font-family="Times,serif" font-size="14.00" fill="#666666">&lt;32&gt;</text>
</g>
<!-- v8 -->
<g id="node28" class="node">
<title>v8</title>
<ellipse fill="none" stroke="black" cx="1113.34" cy="-458" rx="30.59" ry="18"/>
<text text-anchor="middle" x="1113.34" y="-454.3" font-family="Times,serif" font-size="14.00">32&#39;x</text>
</g>
<!-- v8&#45;&gt;c34 -->
<g id="edge40" class="edge">
<title>v8:e&#45;&gt;c34:w</title>
<path fill="none" stroke="#66a61e" stroke-width="3" d="M1145.34,-458C1223.49,-458 1244.91,-443.35 1318.18,-442.09"/>
<polygon fill="#66a61e" stroke="#66a61e" stroke-width="3" points="1318.4,-445.58 1328.37,-442 1318.34,-438.58 1318.4,-445.58"/>
<text text-anchor="middle" x="1288.87" y="-448.8" font-family="Times,serif" font-size="14.00" fill="#66a61e">&lt;32&gt;</text>
</g>
<!-- v9 -->
<g id="node29" class="node">
<title>v9</title>
<ellipse fill="none" stroke="black" cx="1113.34" cy="-404" rx="27" ry="18"/>
<text text-anchor="middle" x="1113.34" y="-400.3" font-family="Times,serif" font-size="14.00">0</text>
</g>
<!-- v9&#45;&gt;c34 -->
<g id="edge41" class="edge">
<title>v9:e&#45;&gt;c34:w</title>
<path fill="none" stroke="#d95f02" stroke-width="3" d="M1141.34,-404C1221.15,-404 1243.12,-417.74 1317.96,-418.92"/>
<polygon fill="#d95f02" stroke="#d95f02" stroke-width="3" points="1318.35,-422.42 1328.37,-419 1318.4,-415.42 1318.35,-422.42"/>
<text text-anchor="middle" x="1288.87" y="-421.8" font-family="Times,serif" font-size="14.00" fill="#d95f02">&lt;32&gt;</text>
</g>
<!-- c34&#45;&gt;c32 -->
<g id="edge27" class="edge">
<title>c34:e&#45;&gt;c32:w</title>
<path fill="none" stroke="#d95f02" stroke-width="3" d="M1437.37,-419C1504.26,-419 1520.98,-419 1587.87,-419 1587.87,-419 1587.87,-419 2118.57,-419 2173.29,-419 2188.96,-408.41 2238.96,-407.13"/>
<polygon fill="#d95f02" stroke="#d95f02" stroke-width="3" points="2239.11,-410.63 2249.07,-407 2239.02,-403.63 2239.11,-410.63"/>
<text text-anchor="middle" x="1874.87" y="-422.8" font-family="Times,serif" font-size="14.00" fill="#d95f02">&lt;32&gt;</text>
</g>
<!-- v10 -->
<g id="node31" class="node">
<title>v10</title>
<ellipse fill="none" stroke="black" cx="1950.22" cy="-126" rx="27" ry="18"/>
<text text-anchor="middle" x="1950.22" y="-122.3" font-family="Times,serif" font-size="14.00">1</text>
</g>
<!-- v10&#45;&gt;c35 -->
<g id="edge37" class="edge">
<title>v10:e&#45;&gt;c35:w</title>
<path fill="none" stroke="#666666" stroke-width="3" d="M1978.22,-126C2013.26,-126 2024.36,-121.89 2054.91,-121.12"/>
<polygon fill="#666666" stroke="#666666" stroke-width="3" points="2055.11,-124.62 2065.07,-121 2055.03,-117.62 2055.11,-124.62"/>
<text text-anchor="middle" x="2025.57" y="-129.8" font-family="Times,serif" font-size="14.00" fill="#666666">&lt;32&gt;</text>
</g>
<!-- c35&#45;&gt;c33 -->
<g id="edge28" class="edge">
<title>c35:e&#45;&gt;c33:w</title>
<path fill="none" stroke="#d95f02" stroke-width="3" d="M2170.07,-133C2226.84,-133 2361.86,-167.1 2426.88,-170.69"/>
<polygon fill="#d95f02" stroke="#d95f02" stroke-width="3" points="2426.97,-174.2 2437.07,-171 2427.18,-167.2 2426.97,-174.2"/>
<text text-anchor="middle" x="2303.57" y="-164.8" font-family="Times,serif" font-size="14.00" fill="#d95f02">&lt;32&gt;</text>
</g>
<!-- x11&#45;&gt;n16 -->
<g id="edge23" class="edge">
<title>x11:e&#45;&gt;n16:w</title>
<path fill="none" stroke="#e6ab02" stroke-width="3" d="M2145.57,-244C2189.59,-244 2203.05,-244 2242.54,-244"/>
<polygon fill="#e6ab02" stroke="#e6ab02" stroke-width="3" points="2242.57,-247.5 2252.57,-244 2242.57,-240.5 2242.57,-247.5"/>
<text text-anchor="middle" x="2209.57" y="-247.8" font-family="Times,serif" font-size="14.00" fill="#e6ab02">&lt;32&gt;</text>
</g>
</g>
</svg>
