<?xml version="1.0" encoding="UTF-8" standalone="no"?>
<!DOCTYPE svg PUBLIC "-//W3C//DTD SVG 1.1//EN"
 "http://www.w3.org/Graphics/SVG/1.1/DTD/svg11.dtd">
<!-- Generated by graphviz version 2.43.0 (0)
 -->
<!-- Title: joint_pwmdir Pages: 1 -->
<svg width="3510pt" height="478pt"
 viewBox="0.00 0.00 3509.82 478.00" xmlns="http://www.w3.org/2000/svg" xmlns:xlink="http://www.w3.org/1999/xlink">
<g id="graph0" class="graph" transform="scale(1 1) rotate(0) translate(4 474)">
<title>joint_pwmdir</title>
<polygon fill="white" stroke="transparent" points="-4,4 -4,-474 3505.82,-474 3505.82,4 -4,4"/>
<!-- n11 -->
<g id="node1" class="node">
<title>n11</title>
<polygon fill="none" stroke="black" points="646.83,-247.54 646.83,-262.46 628.72,-273 603.12,-273 585.01,-262.46 585.01,-247.54 603.12,-237 628.72,-237 646.83,-247.54"/>
<text text-anchor="middle" x="615.92" y="-251.3" font-family="Times,serif" font-size="14.00">DIR</text>
</g>
<!-- c41 -->
<g id="node30" class="node">
<title>c41</title>
<polygon fill="none" stroke="black" points="792.63,-251.5 792.63,-320.5 901.63,-320.5 901.63,-251.5 792.63,-251.5"/>
<text text-anchor="middle" x="806.13" y="-305.3" font-family="Times,serif" font-size="14.00">A</text>
<polyline fill="none" stroke="black" points="792.63,-297.5 819.63,-297.5 "/>
<text text-anchor="middle" x="806.13" y="-282.3" font-family="Times,serif" font-size="14.00">B</text>
<polyline fill="none" stroke="black" points="792.63,-274.5 819.63,-274.5 "/>
<text text-anchor="middle" x="806.13" y="-259.3" font-family="Times,serif" font-size="14.00">S</text>
<polyline fill="none" stroke="black" points="819.63,-251.5 819.63,-320.5 "/>
<text text-anchor="middle" x="847.63" y="-289.8" font-family="Times,serif" font-size="14.00">$58</text>
<text text-anchor="middle" x="847.63" y="-274.8" font-family="Times,serif" font-size="14.00">$mux</text>
<polyline fill="none" stroke="black" points="875.63,-251.5 875.63,-320.5 "/>
<text text-anchor="middle" x="888.63" y="-282.3" font-family="Times,serif" font-size="14.00">Y</text>
</g>
<!-- n11&#45;&gt;c41 -->
<g id="edge7" class="edge">
<title>n11:e&#45;&gt;c41:w</title>
<path fill="none" stroke="#66a61e" d="M647.92,-255C708.81,-255 726.34,-262.15 782.49,-262.93"/>
<polygon fill="#66a61e" stroke="#66a61e" points="782.61,-266.43 792.63,-263 782.66,-259.43 782.61,-266.43"/>
</g>
<!-- n12 -->
<g id="node2" class="node">
<title>n12</title>
<polygon fill="none" stroke="black" points="3502.02,-213.54 3502.02,-228.46 3479.24,-239 3447.02,-239 3424.24,-228.46 3424.24,-213.54 3447.02,-203 3479.24,-203 3502.02,-213.54"/>
<text text-anchor="middle" x="3463.13" y="-217.3" font-family="Times,serif" font-size="14.00">PWM</text>
</g>
<!-- n13 -->
<g id="node3" class="node">
<title>n13</title>
<polygon fill="none" stroke="black" points="1298.63,-233.54 1298.63,-248.46 1282.82,-259 1260.45,-259 1244.63,-248.46 1244.63,-233.54 1260.45,-223 1282.82,-223 1298.63,-233.54"/>
<text text-anchor="middle" x="1271.63" y="-237.3" font-family="Times,serif" font-size="14.00">clk</text>
</g>
<!-- c29 -->
<g id="node12" class="node">
<title>c29</title>
<polygon fill="none" stroke="black" points="1335.63,-141 1335.63,-233 1487.63,-233 1487.63,-141 1335.63,-141"/>
<text text-anchor="middle" x="1363.63" y="-217.8" font-family="Times,serif" font-size="14.00">CLK</text>
<polyline fill="none" stroke="black" points="1335.63,-210 1391.63,-210 "/>
<text text-anchor="middle" x="1363.63" y="-194.8" font-family="Times,serif" font-size="14.00">D</text>
<polyline fill="none" stroke="black" points="1335.63,-187 1391.63,-187 "/>
<text text-anchor="middle" x="1363.63" y="-171.8" font-family="Times,serif" font-size="14.00">EN</text>
<polyline fill="none" stroke="black" points="1335.63,-164 1391.63,-164 "/>
<text text-anchor="middle" x="1363.63" y="-148.8" font-family="Times,serif" font-size="14.00">SRST</text>
<polyline fill="none" stroke="black" points="1391.63,-141 1391.63,-233 "/>
<text text-anchor="middle" x="1425.63" y="-190.8" font-family="Times,serif" font-size="14.00">$69</text>
<text text-anchor="middle" x="1425.63" y="-175.8" font-family="Times,serif" font-size="14.00">$sdffce</text>
<polyline fill="none" stroke="black" points="1459.63,-141 1459.63,-233 "/>
<text text-anchor="middle" x="1473.63" y="-183.3" font-family="Times,serif" font-size="14.00">Q</text>
</g>
<!-- n13&#45;&gt;c29 -->
<g id="edge9" class="edge">
<title>n13:e&#45;&gt;c29:w</title>
<path fill="none" stroke="#666666" d="M1298.63,-241C1313.08,-241 1316.25,-229.4 1325.77,-224.33"/>
<polygon fill="#666666" stroke="#666666" points="1326.71,-227.7 1335.63,-222 1325.1,-220.89 1326.71,-227.7"/>
</g>
<!-- c30 -->
<g id="node13" class="node">
<title>c30</title>
<polygon fill="none" stroke="black" points="3013.33,-175 3013.33,-267 3158.33,-267 3158.33,-175 3013.33,-175"/>
<text text-anchor="middle" x="3041.33" y="-251.8" font-family="Times,serif" font-size="14.00">CLK</text>
<polyline fill="none" stroke="black" points="3013.33,-244 3069.33,-244 "/>
<text text-anchor="middle" x="3041.33" y="-228.8" font-family="Times,serif" font-size="14.00">D</text>
<polyline fill="none" stroke="black" points="3013.33,-221 3069.33,-221 "/>
<text text-anchor="middle" x="3041.33" y="-205.8" font-family="Times,serif" font-size="14.00">EN</text>
<polyline fill="none" stroke="black" points="3013.33,-198 3069.33,-198 "/>
<text text-anchor="middle" x="3041.33" y="-182.8" font-family="Times,serif" font-size="14.00">SRST</text>
<polyline fill="none" stroke="black" points="3069.33,-175 3069.33,-267 "/>
<text text-anchor="middle" x="3099.83" y="-224.8" font-family="Times,serif" font-size="14.00">$70</text>
<text text-anchor="middle" x="3099.83" y="-209.8" font-family="Times,serif" font-size="14.00">$sdffe</text>
<polyline fill="none" stroke="black" points="3130.33,-175 3130.33,-267 "/>
<text text-anchor="middle" x="3144.33" y="-217.3" font-family="Times,serif" font-size="14.00">Q</text>
</g>
<!-- n13&#45;&gt;c30 -->
<g id="edge10" class="edge">
<title>n13:e&#45;&gt;c30:w</title>
<path fill="none" stroke="#666666" d="M1298.63,-241C1306.94,-241 1308.55,-244.11 1316.63,-246 1358.05,-255.7 1368.1,-264 1410.63,-264 1410.63,-264 1410.63,-264 2092.95,-264 2325.13,-264 2383.14,-258 2615.33,-258 2615.33,-258 2615.33,-258 2895.83,-258 2944.49,-258 2959.13,-256.26 3003.14,-256.03"/>
<polygon fill="#666666" stroke="#666666" points="3003.34,-259.53 3013.33,-256 3003.32,-252.53 3003.34,-259.53"/>
</g>
<!-- n14 -->
<g id="node4" class="node">
<title>n14</title>
<polygon fill="none" stroke="black" points="1631.89,-198 1566.87,-180 1631.89,-162 1696.92,-180 1631.89,-198"/>
<text text-anchor="middle" x="1631.89" y="-176.3" font-family="Times,serif" font-size="14.00">counter</text>
</g>
<!-- c23 -->
<g id="node11" class="node">
<title>c23</title>
<polygon fill="none" stroke="black" points="1776.15,-145 1776.15,-191 1881.15,-191 1881.15,-145 1776.15,-145"/>
<text text-anchor="middle" x="1789.65" y="-175.8" font-family="Times,serif" font-size="14.00">A</text>
<polyline fill="none" stroke="black" points="1776.15,-168 1803.15,-168 "/>
<text text-anchor="middle" x="1789.65" y="-152.8" font-family="Times,serif" font-size="14.00">B</text>
<polyline fill="none" stroke="black" points="1803.15,-145 1803.15,-191 "/>
<text text-anchor="middle" x="1829.15" y="-171.8" font-family="Times,serif" font-size="14.00">$6</text>
<text text-anchor="middle" x="1829.15" y="-156.8" font-family="Times,serif" font-size="14.00">$add</text>
<polyline fill="none" stroke="black" points="1855.15,-145 1855.15,-191 "/>
<text text-anchor="middle" x="1868.15" y="-164.3" font-family="Times,serif" font-size="14.00">Y</text>
</g>
<!-- n14&#45;&gt;c23 -->
<g id="edge12" class="edge">
<title>n14:e&#45;&gt;c23:w</title>
<path fill="none" stroke="#7570b3" stroke-width="3" d="M1697.15,-180C1728.56,-180 1738.9,-180 1765.86,-180"/>
<polygon fill="#7570b3" stroke="#7570b3" stroke-width="3" points="1766.15,-183.5 1776.15,-180 1766.15,-176.5 1766.15,-183.5"/>
<text text-anchor="middle" x="1736.65" y="-183.8" font-family="Times,serif" font-size="14.00" fill="#7570b3">&lt;32&gt;</text>
</g>
<!-- n15 -->
<g id="node5" class="node">
<title>n15</title>
<polygon fill="none" stroke="black" points="2269.27,-38.54 2269.27,-53.46 2228.92,-64 2171.86,-64 2131.5,-53.46 2131.5,-38.54 2171.86,-28 2228.92,-28 2269.27,-38.54"/>
<text text-anchor="middle" x="2200.39" y="-42.3" font-family="Times,serif" font-size="14.00">jointEnable</text>
</g>
<!-- c36 -->
<g id="node23" class="node">
<title>c36</title>
<polygon fill="none" stroke="black" points="2306.33,-121 2306.33,-167 2451.33,-167 2451.33,-121 2306.33,-121"/>
<text text-anchor="middle" x="2319.83" y="-151.8" font-family="Times,serif" font-size="14.00">A</text>
<polyline fill="none" stroke="black" points="2306.33,-144 2333.33,-144 "/>
<text text-anchor="middle" x="2319.83" y="-128.8" font-family="Times,serif" font-size="14.00">B</text>
<polyline fill="none" stroke="black" points="2333.33,-121 2333.33,-167 "/>
<text text-anchor="middle" x="2379.33" y="-147.8" font-family="Times,serif" font-size="14.00">$9</text>
<text text-anchor="middle" x="2379.33" y="-132.8" font-family="Times,serif" font-size="14.00">$logic_and</text>
<polyline fill="none" stroke="black" points="2425.33,-121 2425.33,-167 "/>
<text text-anchor="middle" x="2438.33" y="-140.3" font-family="Times,serif" font-size="14.00">Y</text>
</g>
<!-- n15&#45;&gt;c36 -->
<g id="edge13" class="edge">
<title>n15:e&#45;&gt;c36:w</title>
<path fill="none" stroke="#1b9e77" d="M2269.33,-46C2306.88,-46 2272.91,-116.02 2296.49,-129.7"/>
<polygon fill="#1b9e77" stroke="#1b9e77" points="2295.8,-133.13 2306.33,-132 2297.39,-126.32 2295.8,-133.13"/>
</g>
<!-- n16 -->
<g id="node6" class="node">
<title>n16</title>
<polygon fill="none" stroke="black" points="697.63,-390.54 697.63,-405.46 649.77,-416 582.08,-416 534.21,-405.46 534.21,-390.54 582.08,-380 649.77,-380 697.63,-390.54"/>
<text text-anchor="middle" x="615.92" y="-394.3" font-family="Times,serif" font-size="14.00">jointFeedback</text>
</g>
<!-- n17 -->
<g id="node7" class="node">
<title>n17</title>
<polygon fill="none" stroke="black" points="615.92,-470 476,-452 615.92,-434 755.85,-452 615.92,-470"/>
<text text-anchor="middle" x="615.92" y="-448.3" font-family="Times,serif" font-size="14.00">jointFeedbackMem</text>
</g>
<!-- n18 -->
<g id="node8" class="node">
<title>n18</title>
<polygon fill="none" stroke="black" points="163.32,-304.54 163.32,-319.46 115.45,-330 47.76,-330 -0.11,-319.46 -0.11,-304.54 47.76,-294 115.45,-294 163.32,-304.54"/>
<text text-anchor="middle" x="81.61" y="-308.3" font-family="Times,serif" font-size="14.00">jointFreqCmd</text>
</g>
<!-- c34 -->
<g id="node20" class="node">
<title>c34</title>
<polygon fill="none" stroke="black" points="242.21,-232 242.21,-278 336.21,-278 336.21,-232 242.21,-232"/>
<text text-anchor="middle" x="255.71" y="-262.8" font-family="Times,serif" font-size="14.00">A</text>
<polyline fill="none" stroke="black" points="242.21,-255 269.21,-255 "/>
<text text-anchor="middle" x="255.71" y="-239.8" font-family="Times,serif" font-size="14.00">B</text>
<polyline fill="none" stroke="black" points="269.21,-232 269.21,-278 "/>
<text text-anchor="middle" x="289.71" y="-258.8" font-family="Times,serif" font-size="14.00">$3</text>
<text text-anchor="middle" x="289.71" y="-243.8" font-family="Times,serif" font-size="14.00">$gt</text>
<polyline fill="none" stroke="black" points="310.21,-232 310.21,-278 "/>
<text text-anchor="middle" x="323.21" y="-251.3" font-family="Times,serif" font-size="14.00">Y</text>
</g>
<!-- n18&#45;&gt;c34 -->
<g id="edge16" class="edge">
<title>n18:e&#45;&gt;c34:w</title>
<path fill="none" stroke="#e6ab02" stroke-width="3" d="M163.21,-312C181.5,-312 166.37,-285.69 181.21,-275 200.45,-261.14 211.63,-265.3 232.09,-266.65"/>
<polygon fill="#e6ab02" stroke="#e6ab02" stroke-width="3" points="232.1,-270.15 242.21,-267 232.34,-263.16 232.1,-270.15"/>
<text text-anchor="middle" x="202.71" y="-278.8" font-family="Times,serif" font-size="14.00" fill="#e6ab02">&lt;32&gt;</text>
</g>
<!-- c37 -->
<g id="node24" class="node">
<title>c37</title>
<polygon fill="none" stroke="black" points="354.21,-290 354.21,-328 458.21,-328 458.21,-290 354.21,-290"/>
<text text-anchor="middle" x="367.21" y="-305.3" font-family="Times,serif" font-size="14.00">A</text>
<polyline fill="none" stroke="black" points="380.21,-290 380.21,-328 "/>
<text text-anchor="middle" x="406.21" y="-312.8" font-family="Times,serif" font-size="14.00">$4</text>
<text text-anchor="middle" x="406.21" y="-297.8" font-family="Times,serif" font-size="14.00">$neg</text>
<polyline fill="none" stroke="black" points="432.21,-290 432.21,-328 "/>
<text text-anchor="middle" x="445.21" y="-305.3" font-family="Times,serif" font-size="14.00">Y</text>
</g>
<!-- n18&#45;&gt;c37 -->
<g id="edge17" class="edge">
<title>n18:e&#45;&gt;c37:w</title>
<path fill="none" stroke="#e6ab02" stroke-width="3" d="M163.21,-312C244.63,-312 267.46,-309.24 344.08,-309.01"/>
<polygon fill="#e6ab02" stroke="#e6ab02" stroke-width="3" points="344.22,-312.51 354.21,-309 344.21,-305.51 344.22,-312.51"/>
<text text-anchor="middle" x="202.71" y="-315.8" font-family="Times,serif" font-size="14.00" fill="#e6ab02">&lt;32&gt;</text>
</g>
<!-- n18&#45;&gt;c41 -->
<g id="edge18" class="edge">
<title>n18:e&#45;&gt;c41:w</title>
<path fill="none" stroke="#e6ab02" stroke-width="3" d="M163.21,-312C174.84,-312 170.52,-326.4 181.21,-331 198.77,-338.55 205.1,-331.04 224.21,-331 460.4,-330.5 521.5,-359.09 755.63,-328 764.29,-326.85 767.89,-328.54 774.63,-323 784.9,-314.57 780.1,-298.86 783.72,-290.89"/>
<polygon fill="#e6ab02" stroke="#e6ab02" stroke-width="3" points="785.55,-293.88 792.63,-286 782.18,-287.74 785.55,-293.88"/>
<text text-anchor="middle" x="406.21" y="-343.8" font-family="Times,serif" font-size="14.00" fill="#e6ab02">&lt;32&gt;</text>
</g>
<!-- n19 -->
<g id="node9" class="node">
<title>n19</title>
<polygon fill="none" stroke="black" points="3245.88,-239 3195.28,-221 3245.88,-203 3296.49,-221 3245.88,-239"/>
<text text-anchor="middle" x="3245.88" y="-217.3" font-family="Times,serif" font-size="14.00">pulse</text>
</g>
<!-- x8 -->
<g id="node31" class="node">
<title>x8</title>
<path fill="none" stroke="black" d="M3375.44,-239C3375.44,-239 3345.44,-239 3345.44,-239 3339.44,-239 3333.44,-233 3333.44,-227 3333.44,-227 3333.44,-215 3333.44,-215 3333.44,-209 3339.44,-203 3345.44,-203 3345.44,-203 3375.44,-203 3375.44,-203 3381.44,-203 3387.44,-209 3387.44,-215 3387.44,-215 3387.44,-227 3387.44,-227 3387.44,-233 3381.44,-239 3375.44,-239"/>
<text text-anchor="middle" x="3360.44" y="-217.3" font-family="Times,serif" font-size="14.00">BUF</text>
</g>
<!-- n19&#45;&gt;x8 -->
<g id="edge20" class="edge">
<title>n19:e&#45;&gt;x8:w</title>
<path fill="none" stroke="#1b9e77" d="M3296.44,-221C3308.9,-221 3314.28,-221 3323.31,-221"/>
<polygon fill="#1b9e77" stroke="#1b9e77" points="3323.44,-224.5 3333.44,-221 3323.44,-217.5 3323.44,-224.5"/>
</g>
<!-- v0 -->
<g id="node10" class="node">
<title>v0</title>
<ellipse fill="none" stroke="black" cx="1631.89" cy="-126" rx="27" ry="18"/>
<text text-anchor="middle" x="1631.89" y="-122.3" font-family="Times,serif" font-size="14.00">1</text>
</g>
<!-- v0&#45;&gt;c23 -->
<g id="edge39" class="edge">
<title>v0:e&#45;&gt;c23:w</title>
<path fill="none" stroke="#e6ab02" stroke-width="3" d="M1659.89,-126C1709.71,-126 1721.33,-152.15 1766.08,-155.62"/>
<polygon fill="#e6ab02" stroke="#e6ab02" stroke-width="3" points="1766.03,-159.12 1776.15,-156 1766.29,-152.13 1766.03,-159.12"/>
<text text-anchor="middle" x="1736.65" y="-158.8" font-family="Times,serif" font-size="14.00" fill="#e6ab02">&lt;32&gt;</text>
</g>
<!-- n4 -->
<g id="node37" class="node">
<title>n4</title>
<ellipse fill="black" stroke="black" cx="2006.3" cy="-203" rx="1.8" ry="1.8"/>
</g>
<!-- c23&#45;&gt;n4 -->
<g id="edge23" class="edge">
<title>c23:e&#45;&gt;n4:w</title>
<path fill="none" stroke="#66a61e" stroke-width="3" d="M1881.15,-168C1934.1,-168 1945.49,-198.76 1993.24,-202.61"/>
<polygon fill="#66a61e" stroke="#66a61e" stroke-width="3" points="1993.17,-206.11 2003.3,-203 1993.44,-199.11 1993.17,-206.11"/>
<text text-anchor="middle" x="1920.65" y="-188.8" font-family="Times,serif" font-size="14.00" fill="#66a61e">&lt;32&gt;</text>
</g>
<!-- c29&#45;&gt;n14 -->
<g id="edge11" class="edge">
<title>c29:e&#45;&gt;n14:w</title>
<path fill="none" stroke="#7570b3" stroke-width="3" d="M1487.63,-187C1519.17,-187 1529.29,-181.4 1556.31,-180.22"/>
<polygon fill="#7570b3" stroke="#7570b3" stroke-width="3" points="1556.71,-183.71 1566.63,-180 1556.56,-176.71 1556.71,-183.71"/>
<text text-anchor="middle" x="1527.13" y="-190.8" font-family="Times,serif" font-size="14.00" fill="#7570b3">&lt;32&gt;</text>
</g>
<!-- c30&#45;&gt;n19 -->
<g id="edge19" class="edge">
<title>c30:e&#45;&gt;n19:w</title>
<path fill="none" stroke="#1b9e77" d="M3158.33,-221C3170.79,-221 3176.17,-221 3185.2,-221"/>
<polygon fill="#1b9e77" stroke="#1b9e77" points="3185.33,-224.5 3195.33,-221 3185.33,-217.5 3185.33,-224.5"/>
</g>
<!-- c31 -->
<g id="node14" class="node">
<title>c31</title>
<polygon fill="none" stroke="black" points="2813.33,-187 2813.33,-225 2976.33,-225 2976.33,-187 2813.33,-187"/>
<text text-anchor="middle" x="2826.33" y="-202.3" font-family="Times,serif" font-size="14.00">A</text>
<polyline fill="none" stroke="black" points="2839.33,-187 2839.33,-225 "/>
<text text-anchor="middle" x="2894.83" y="-209.8" font-family="Times,serif" font-size="14.00">$72</text>
<text text-anchor="middle" x="2894.83" y="-194.8" font-family="Times,serif" font-size="14.00">$reduce_bool</text>
<polyline fill="none" stroke="black" points="2950.33,-187 2950.33,-225 "/>
<text text-anchor="middle" x="2963.33" y="-202.3" font-family="Times,serif" font-size="14.00">Y</text>
</g>
<!-- c31&#45;&gt;c30 -->
<g id="edge27" class="edge">
<title>c31:e&#45;&gt;c30:w</title>
<path fill="none" stroke="#7570b3" d="M2976.33,-206C2988.83,-206 2994.16,-207.72 3003.19,-208.56"/>
<polygon fill="#7570b3" stroke="#7570b3" points="3003.19,-212.06 3013.33,-209 3003.49,-205.07 3003.19,-212.06"/>
</g>
<!-- x1 -->
<g id="node15" class="node">
<title>x1</title>
<path fill="none" stroke="#666666" d="M2663.33,-177C2663.33,-177 2714.33,-177 2714.33,-177 2720.33,-177 2726.33,-183 2726.33,-189 2726.33,-189 2726.33,-211 2726.33,-211 2726.33,-217 2720.33,-223 2714.33,-223 2714.33,-223 2663.33,-223 2663.33,-223 2657.33,-223 2651.33,-217 2651.33,-211 2651.33,-211 2651.33,-189 2651.33,-189 2651.33,-183 2657.33,-177 2663.33,-177"/>
<text text-anchor="middle" x="2688.83" y="-207.8" font-family="Times,serif" font-size="14.00" fill="#666666">0:0 &#45; 1:1</text>
<polyline fill="none" stroke="#666666" points="2651.33,-200 2726.33,-200 "/>
<text text-anchor="middle" x="2688.83" y="-184.8" font-family="Times,serif" font-size="14.00" fill="#666666">0:0 &#45; 0:0</text>
</g>
<!-- x1&#45;&gt;c31 -->
<g id="edge1" class="edge">
<title>x1:e&#45;&gt;c31:w</title>
<path fill="none" stroke="#666666" stroke-width="3" d="M2740.13,-200.23C2764.73,-201.18 2776.42,-204.82 2801.03,-205.77"/>
<polygon fill="none" stroke="#666666" stroke-width="3" points="2739.83,-200.22 2733.76,-204.11 2727.83,-200 2733.9,-196.11 2739.83,-200.22"/>
<polygon fill="none" stroke="#666666" stroke-width="3" points="2801.33,-205.78 2807.41,-201.89 2813.33,-206 2807.26,-209.89 2801.33,-205.78"/>
<text text-anchor="middle" x="2778.33" y="-209.8" font-family="Times,serif" font-size="14.00" fill="#666666">&lt;2&gt;</text>
</g>
<!-- v2 -->
<g id="node16" class="node">
<title>v2</title>
<ellipse fill="none" stroke="black" cx="2006.3" cy="-46" rx="46.29" ry="18"/>
<text text-anchor="middle" x="2006.3" y="-42.3" font-family="Times,serif" font-size="14.00">100000</text>
</g>
<!-- c32 -->
<g id="node17" class="node">
<title>c32</title>
<polygon fill="none" stroke="black" points="2152.39,-124 2152.39,-170 2248.39,-170 2248.39,-124 2152.39,-124"/>
<text text-anchor="middle" x="2165.89" y="-154.8" font-family="Times,serif" font-size="14.00">A</text>
<polyline fill="none" stroke="black" points="2152.39,-147 2179.39,-147 "/>
<text text-anchor="middle" x="2165.89" y="-131.8" font-family="Times,serif" font-size="14.00">B</text>
<polyline fill="none" stroke="black" points="2179.39,-124 2179.39,-170 "/>
<text text-anchor="middle" x="2200.89" y="-150.8" font-family="Times,serif" font-size="14.00">$7</text>
<text text-anchor="middle" x="2200.89" y="-135.8" font-family="Times,serif" font-size="14.00">$ge</text>
<polyline fill="none" stroke="black" points="2222.39,-124 2222.39,-170 "/>
<text text-anchor="middle" x="2235.39" y="-143.3" font-family="Times,serif" font-size="14.00">Y</text>
</g>
<!-- v2&#45;&gt;c32 -->
<g id="edge41" class="edge">
<title>v2:e&#45;&gt;c32:w</title>
<path fill="none" stroke="#666666" stroke-width="3" d="M2052.45,-46C2107.9,-46 2094.35,-124.22 2141.18,-134"/>
<polygon fill="#666666" stroke="#666666" stroke-width="3" points="2141.09,-137.51 2151.39,-135 2141.78,-130.54 2141.09,-137.51"/>
<text text-anchor="middle" x="2091.95" y="-115.8" font-family="Times,serif" font-size="14.00" fill="#666666">&lt;32&gt;</text>
</g>
<!-- c32&#45;&gt;c36 -->
<g id="edge28" class="edge">
<title>c32:e&#45;&gt;c36:w</title>
<path fill="none" stroke="#d95f02" d="M2249.39,-147C2271.21,-147 2278.58,-153.53 2296.11,-155.46"/>
<polygon fill="#d95f02" stroke="#d95f02" points="2296.16,-158.97 2306.33,-156 2296.53,-151.98 2296.16,-158.97"/>
</g>
<!-- c33 -->
<g id="node18" class="node">
<title>c33</title>
<polygon fill="none" stroke="black" points="2151.89,-189 2151.89,-235 2248.89,-235 2248.89,-189 2151.89,-189"/>
<text text-anchor="middle" x="2165.39" y="-219.8" font-family="Times,serif" font-size="14.00">A</text>
<polyline fill="none" stroke="black" points="2151.89,-212 2178.89,-212 "/>
<text text-anchor="middle" x="2165.39" y="-196.8" font-family="Times,serif" font-size="14.00">B</text>
<polyline fill="none" stroke="black" points="2178.89,-189 2178.89,-235 "/>
<text text-anchor="middle" x="2200.89" y="-215.8" font-family="Times,serif" font-size="14.00">$10</text>
<text text-anchor="middle" x="2200.89" y="-200.8" font-family="Times,serif" font-size="14.00">$ge</text>
<polyline fill="none" stroke="black" points="2222.89,-189 2222.89,-235 "/>
<text text-anchor="middle" x="2235.89" y="-208.3" font-family="Times,serif" font-size="14.00">Y</text>
</g>
<!-- n7 -->
<g id="node38" class="node">
<title>n7</title>
<ellipse fill="black" stroke="black" cx="2378.83" cy="-212" rx="1.8" ry="1.8"/>
</g>
<!-- c33&#45;&gt;n7 -->
<g id="edge29" class="edge">
<title>c33:e&#45;&gt;n7:w</title>
<path fill="none" stroke="#d95f02" d="M2250.39,-212C2302.55,-212 2318.11,-212 2365.55,-212"/>
<polygon fill="#d95f02" stroke="#d95f02" points="2365.83,-215.5 2375.83,-212 2365.83,-208.5 2365.83,-215.5"/>
</g>
<!-- v3 -->
<g id="node19" class="node">
<title>v3</title>
<ellipse fill="none" stroke="black" cx="81.61" cy="-236" rx="27" ry="18"/>
<text text-anchor="middle" x="81.61" y="-232.3" font-family="Times,serif" font-size="14.00">0</text>
</g>
<!-- v3&#45;&gt;c34 -->
<g id="edge42" class="edge">
<title>v3:e&#45;&gt;c34:w</title>
<path fill="none" stroke="#e7298a" stroke-width="3" d="M109.61,-236C160.54,-236 173.97,-228.62 224.21,-237 227.85,-237.61 230.14,-238.83 232.26,-240.02"/>
<polygon fill="#e7298a" stroke="#e7298a" stroke-width="3" points="231.63,-243.48 242.21,-243 233.64,-236.77 231.63,-243.48"/>
<text text-anchor="middle" x="202.71" y="-240.8" font-family="Times,serif" font-size="14.00" fill="#e7298a">&lt;32&gt;</text>
</g>
<!-- c34&#45;&gt;n11 -->
<g id="edge6" class="edge">
<title>c34:e&#45;&gt;n11:w</title>
<path fill="none" stroke="#66a61e" d="M336.21,-255C442.86,-255 472.03,-255 573.84,-255"/>
<polygon fill="#66a61e" stroke="#66a61e" points="573.92,-258.5 583.92,-255 573.92,-251.5 573.92,-258.5"/>
</g>
<!-- v4 -->
<g id="node21" class="node">
<title>v4</title>
<ellipse fill="none" stroke="black" cx="1007.63" cy="-190" rx="27" ry="18"/>
<text text-anchor="middle" x="1007.63" y="-186.3" font-family="Times,serif" font-size="14.00">0</text>
</g>
<!-- c35 -->
<g id="node22" class="node">
<title>c35</title>
<polygon fill="none" stroke="black" points="1113.63,-179 1113.63,-225 1207.63,-225 1207.63,-179 1113.63,-179"/>
<text text-anchor="middle" x="1127.13" y="-209.8" font-family="Times,serif" font-size="14.00">A</text>
<polyline fill="none" stroke="black" points="1113.63,-202 1140.63,-202 "/>
<text text-anchor="middle" x="1127.13" y="-186.8" font-family="Times,serif" font-size="14.00">B</text>
<polyline fill="none" stroke="black" points="1140.63,-179 1140.63,-225 "/>
<text text-anchor="middle" x="1161.13" y="-205.8" font-family="Times,serif" font-size="14.00">$5</text>
<text text-anchor="middle" x="1161.13" y="-190.8" font-family="Times,serif" font-size="14.00">$gt</text>
<polyline fill="none" stroke="black" points="1181.63,-179 1181.63,-225 "/>
<text text-anchor="middle" x="1194.63" y="-198.3" font-family="Times,serif" font-size="14.00">Y</text>
</g>
<!-- v4&#45;&gt;c35 -->
<g id="edge43" class="edge">
<title>v4:e&#45;&gt;c35:w</title>
<path fill="none" stroke="#e6ab02" stroke-width="3" d="M1034.63,-190C1066.04,-190 1076.38,-190 1103.34,-190"/>
<polygon fill="#e6ab02" stroke="#e6ab02" stroke-width="3" points="1103.63,-193.5 1113.63,-190 1103.63,-186.5 1103.63,-193.5"/>
<text text-anchor="middle" x="1074.13" y="-193.8" font-family="Times,serif" font-size="14.00" fill="#e6ab02">&lt;32&gt;</text>
</g>
<!-- n8 -->
<g id="node39" class="node">
<title>n8</title>
<ellipse fill="black" stroke="black" cx="1271.63" cy="-175" rx="1.8" ry="1.8"/>
</g>
<!-- c35&#45;&gt;n8 -->
<g id="edge32" class="edge">
<title>c35:e&#45;&gt;n8:w</title>
<path fill="none" stroke="#7570b3" d="M1207.63,-202C1233.46,-202 1238.08,-181.51 1258.44,-176.23"/>
<polygon fill="#7570b3" stroke="#7570b3" points="1259.13,-179.67 1268.63,-175 1258.29,-172.72 1259.13,-179.67"/>
</g>
<!-- n9 -->
<g id="node40" class="node">
<title>n9</title>
<ellipse fill="black" stroke="black" cx="2542.83" cy="-149" rx="1.8" ry="1.8"/>
</g>
<!-- c36&#45;&gt;n9 -->
<g id="edge35" class="edge">
<title>c36:e&#45;&gt;n9:w</title>
<path fill="none" stroke="#e7298a" d="M2451.33,-144C2487.03,-144 2498.35,-148.11 2529.48,-148.88"/>
<polygon fill="#e7298a" stroke="#e7298a" points="2529.79,-152.38 2539.83,-149 2529.87,-145.38 2529.79,-152.38"/>
</g>
<!-- c37&#45;&gt;c41 -->
<g id="edge5" class="edge">
<title>c37:e&#45;&gt;c41:w</title>
<path fill="none" stroke="#e6ab02" stroke-width="3" d="M458.21,-309C603.36,-309 642.2,-309 782.36,-309"/>
<polygon fill="#e6ab02" stroke="#e6ab02" stroke-width="3" points="782.63,-312.5 792.63,-309 782.63,-305.5 782.63,-312.5"/>
<text text-anchor="middle" x="615.92" y="-312.8" font-family="Times,serif" font-size="14.00" fill="#e6ab02">&lt;32&gt;</text>
</g>
<!-- v5 -->
<g id="node25" class="node">
<title>v5</title>
<ellipse fill="none" stroke="black" cx="2378.83" cy="-413" rx="27" ry="18"/>
<text text-anchor="middle" x="2378.83" y="-409.3" font-family="Times,serif" font-size="14.00">1&#39;x</text>
</g>
<!-- c39 -->
<g id="node27" class="node">
<title>c39</title>
<polygon fill="none" stroke="black" points="2488.33,-340.5 2488.33,-409.5 2597.33,-409.5 2597.33,-340.5 2488.33,-340.5"/>
<text text-anchor="middle" x="2501.83" y="-394.3" font-family="Times,serif" font-size="14.00">A</text>
<polyline fill="none" stroke="black" points="2488.33,-386.5 2515.33,-386.5 "/>
<text text-anchor="middle" x="2501.83" y="-371.3" font-family="Times,serif" font-size="14.00">B</text>
<polyline fill="none" stroke="black" points="2488.33,-363.5 2515.33,-363.5 "/>
<text text-anchor="middle" x="2501.83" y="-348.3" font-family="Times,serif" font-size="14.00">S</text>
<polyline fill="none" stroke="black" points="2515.33,-340.5 2515.33,-409.5 "/>
<text text-anchor="middle" x="2543.33" y="-378.8" font-family="Times,serif" font-size="14.00">$32</text>
<text text-anchor="middle" x="2543.33" y="-363.8" font-family="Times,serif" font-size="14.00">$mux</text>
<polyline fill="none" stroke="black" points="2571.33,-340.5 2571.33,-409.5 "/>
<text text-anchor="middle" x="2584.33" y="-371.3" font-family="Times,serif" font-size="14.00">Y</text>
</g>
<!-- v5&#45;&gt;c39 -->
<g id="edge44" class="edge">
<title>v5:e&#45;&gt;c39:w</title>
<path fill="none" stroke="#66a61e" d="M2406.83,-413C2440.06,-413 2449.69,-400.79 2478.32,-398.4"/>
<polygon fill="#66a61e" stroke="#66a61e" points="2478.48,-401.9 2488.33,-398 2478.2,-394.9 2478.48,-401.9"/>
</g>
<!-- v6 -->
<g id="node26" class="node">
<title>v6</title>
<ellipse fill="none" stroke="black" cx="2378.83" cy="-359" rx="27" ry="18"/>
<text text-anchor="middle" x="2378.83" y="-355.3" font-family="Times,serif" font-size="14.00">1&#39;0</text>
</g>
<!-- v6&#45;&gt;c39 -->
<g id="edge45" class="edge">
<title>v6:e&#45;&gt;c39:w</title>
<path fill="none" stroke="#d95f02" d="M2406.83,-359C2440.14,-359 2449.64,-372.03 2478.3,-374.57"/>
<polygon fill="#d95f02" stroke="#d95f02" points="2478.19,-378.07 2488.33,-375 2478.49,-371.08 2478.19,-378.07"/>
</g>
<!-- c40 -->
<g id="node29" class="node">
<title>c40</title>
<polygon fill="none" stroke="black" points="2634.33,-286.5 2634.33,-355.5 2743.33,-355.5 2743.33,-286.5 2634.33,-286.5"/>
<text text-anchor="middle" x="2647.83" y="-340.3" font-family="Times,serif" font-size="14.00">A</text>
<polyline fill="none" stroke="black" points="2634.33,-332.5 2661.33,-332.5 "/>
<text text-anchor="middle" x="2647.83" y="-317.3" font-family="Times,serif" font-size="14.00">B</text>
<polyline fill="none" stroke="black" points="2634.33,-309.5 2661.33,-309.5 "/>
<text text-anchor="middle" x="2647.83" y="-294.3" font-family="Times,serif" font-size="14.00">S</text>
<polyline fill="none" stroke="black" points="2661.33,-286.5 2661.33,-355.5 "/>
<text text-anchor="middle" x="2689.33" y="-324.8" font-family="Times,serif" font-size="14.00">$47</text>
<text text-anchor="middle" x="2689.33" y="-309.8" font-family="Times,serif" font-size="14.00">$mux</text>
<polyline fill="none" stroke="black" points="2717.33,-286.5 2717.33,-355.5 "/>
<text text-anchor="middle" x="2730.33" y="-317.3" font-family="Times,serif" font-size="14.00">Y</text>
</g>
<!-- c39&#45;&gt;c40 -->
<g id="edge22" class="edge">
<title>c39:e&#45;&gt;c40:w</title>
<path fill="none" stroke="#666666" d="M2597.33,-375C2614.59,-375 2614.14,-354.93 2624.48,-347.09"/>
<polygon fill="#666666" stroke="#666666" points="2625.83,-350.33 2634.33,-344 2623.74,-343.65 2625.83,-350.33"/>
</g>
<!-- v7 -->
<g id="node28" class="node">
<title>v7</title>
<ellipse fill="none" stroke="black" cx="2542.83" cy="-304" rx="27" ry="18"/>
<text text-anchor="middle" x="2542.83" y="-300.3" font-family="Times,serif" font-size="14.00">1&#39;1</text>
</g>
<!-- v7&#45;&gt;c40 -->
<g id="edge46" class="edge">
<title>v7:e&#45;&gt;c40:w</title>
<path fill="none" stroke="#d95f02" d="M2570.83,-304C2596.28,-304 2603.41,-316.9 2624.13,-320.23"/>
<polygon fill="#d95f02" stroke="#d95f02" points="2624.09,-323.73 2634.33,-321 2624.62,-316.75 2624.09,-323.73"/>
</g>
<!-- c40&#45;&gt;c30 -->
<g id="edge21" class="edge">
<title>c40:e&#45;&gt;c30:w</title>
<path fill="none" stroke="#e6ab02" d="M2743.33,-321C2857.43,-321 2905.56,-342.42 2995.33,-272 3006.48,-263.25 3000.48,-246.01 3004.45,-237.7"/>
<polygon fill="#e6ab02" stroke="#e6ab02" points="3006.13,-240.77 3013.33,-233 3002.85,-234.58 3006.13,-240.77"/>
</g>
<!-- n1 -->
<g id="node36" class="node">
<title>n1</title>
<ellipse fill="black" stroke="black" cx="1007.63" cy="-286" rx="1.8" ry="1.8"/>
</g>
<!-- c41&#45;&gt;n1 -->
<g id="edge2" class="edge">
<title>c41:e&#45;&gt;n1:w</title>
<path fill="none" stroke="#e7298a" stroke-width="3" d="M901.63,-286C943.84,-286 956.86,-286 994.5,-286"/>
<polygon fill="#e7298a" stroke="#e7298a" stroke-width="3" points="994.63,-289.5 1004.63,-286 994.63,-282.5 994.63,-289.5"/>
<text text-anchor="middle" x="941.13" y="-289.8" font-family="Times,serif" font-size="14.00" fill="#e7298a">&lt;32&gt;</text>
</g>
<!-- x8&#45;&gt;n12 -->
<g id="edge8" class="edge">
<title>x8:e&#45;&gt;n12:w</title>
<path fill="none" stroke="#d95f02" d="M3387.44,-221C3399.9,-221 3405.28,-221 3414.31,-221"/>
<polygon fill="#d95f02" stroke="#d95f02" points="3414.44,-224.5 3424.44,-221 3414.44,-217.5 3414.44,-224.5"/>
</g>
<!-- v9 -->
<g id="node32" class="node">
<title>v9</title>
<ellipse fill="none" stroke="black" cx="81.61" cy="-398" rx="27" ry="18"/>
<text text-anchor="middle" x="81.61" y="-394.3" font-family="Times,serif" font-size="14.00">0</text>
</g>
<!-- x10 -->
<g id="node33" class="node">
<title>x10</title>
<path fill="none" stroke="black" d="M304.21,-416C304.21,-416 274.21,-416 274.21,-416 268.21,-416 262.21,-410 262.21,-404 262.21,-404 262.21,-392 262.21,-392 262.21,-386 268.21,-380 274.21,-380 274.21,-380 304.21,-380 304.21,-380 310.21,-380 316.21,-386 316.21,-392 316.21,-392 316.21,-404 316.21,-404 316.21,-410 310.21,-416 304.21,-416"/>
<text text-anchor="middle" x="289.21" y="-394.3" font-family="Times,serif" font-size="14.00">BUF</text>
</g>
<!-- v9&#45;&gt;x10 -->
<g id="edge47" class="edge">
<title>v9:e&#45;&gt;x10:w</title>
<path fill="none" stroke="#e7298a" stroke-width="3" d="M109.61,-398C173.43,-398 191.91,-398 250.96,-398"/>
<polygon fill="#e7298a" stroke="#e7298a" stroke-width="3" points="251.21,-401.5 261.21,-398 251.21,-394.5 251.21,-401.5"/>
<text text-anchor="middle" x="202.71" y="-401.8" font-family="Times,serif" font-size="14.00" fill="#e7298a">&lt;32&gt;</text>
</g>
<!-- x10&#45;&gt;n16 -->
<g id="edge14" class="edge">
<title>x10:e&#45;&gt;n16:w</title>
<path fill="none" stroke="#666666" stroke-width="3" d="M317.21,-398C409.62,-398 435.22,-398 522.8,-398"/>
<polygon fill="#666666" stroke="#666666" stroke-width="3" points="522.92,-401.5 532.92,-398 522.92,-394.5 522.92,-401.5"/>
<text text-anchor="middle" x="406.21" y="-401.8" font-family="Times,serif" font-size="14.00" fill="#666666">&lt;32&gt;</text>
</g>
<!-- v11 -->
<g id="node34" class="node">
<title>v11</title>
<ellipse fill="none" stroke="black" cx="81.61" cy="-452" rx="27" ry="18"/>
<text text-anchor="middle" x="81.61" y="-448.3" font-family="Times,serif" font-size="14.00">0</text>
</g>
<!-- x12 -->
<g id="node35" class="node">
<title>x12</title>
<path fill="none" stroke="black" d="M304.21,-470C304.21,-470 274.21,-470 274.21,-470 268.21,-470 262.21,-464 262.21,-458 262.21,-458 262.21,-446 262.21,-446 262.21,-440 268.21,-434 274.21,-434 274.21,-434 304.21,-434 304.21,-434 310.21,-434 316.21,-440 316.21,-446 316.21,-446 316.21,-458 316.21,-458 316.21,-464 310.21,-470 304.21,-470"/>
<text text-anchor="middle" x="289.21" y="-448.3" font-family="Times,serif" font-size="14.00">BUF</text>
</g>
<!-- v11&#45;&gt;x12 -->
<g id="edge40" class="edge">
<title>v11:e&#45;&gt;x12:w</title>
<path fill="none" stroke="#e6ab02" stroke-width="3" d="M109.61,-452C173.43,-452 191.91,-452 250.96,-452"/>
<polygon fill="#e6ab02" stroke="#e6ab02" stroke-width="3" points="251.21,-455.5 261.21,-452 251.21,-448.5 251.21,-455.5"/>
<text text-anchor="middle" x="202.71" y="-456.8" font-family="Times,serif" font-size="14.00" fill="#e6ab02">&lt;32&gt;</text>
</g>
<!-- x12&#45;&gt;n17 -->
<g id="edge15" class="edge">
<title>x12:e&#45;&gt;n17:w</title>
<path fill="none" stroke="#d95f02" stroke-width="3" d="M317.21,-452C384.29,-452 403.61,-452 465.84,-452"/>
<polygon fill="#d95f02" stroke="#d95f02" stroke-width="3" points="466.21,-455.5 476.21,-452 466.21,-448.5 466.21,-455.5"/>
<text text-anchor="middle" x="406.21" y="-456.8" font-family="Times,serif" font-size="14.00" fill="#d95f02">&lt;32&gt;</text>
</g>
<!-- n1&#45;&gt;c33 -->
<g id="edge3" class="edge">
<title>n1:e&#45;&gt;c33:w</title>
<path fill="none" stroke="#e7298a" stroke-width="3" d="M1010.63,-286C1077.24,-286 1093.03,-302 1159.63,-302 1159.63,-302 1159.63,-302 2007.3,-302 2061.93,-302 2070.86,-274.22 2113.45,-240 2129.07,-227.45 2127.56,-208.25 2140.32,-202.03"/>
<polygon fill="#e7298a" stroke="#e7298a" stroke-width="3" points="2141.28,-205.4 2150.39,-200 2139.89,-198.54 2141.28,-205.4"/>
<text text-anchor="middle" x="1527.13" y="-305.8" font-family="Times,serif" font-size="14.00" fill="#e7298a">&lt;32&gt;</text>
</g>
<!-- n1&#45;&gt;c35 -->
<g id="edge4" class="edge">
<title>n1:e&#45;&gt;c35:w</title>
<path fill="none" stroke="#e7298a" stroke-width="3" d="M1010.63,-286C1062.89,-286 1058.63,-222.98 1103.6,-214.86"/>
<polygon fill="#e7298a" stroke="#e7298a" stroke-width="3" points="1103.97,-218.34 1113.63,-214 1103.37,-211.37 1103.97,-218.34"/>
<text text-anchor="middle" x="1074.13" y="-266.8" font-family="Times,serif" font-size="14.00" fill="#e7298a">&lt;32&gt;</text>
</g>
<!-- n4&#45;&gt;c29 -->
<g id="edge24" class="edge">
<title>n4:e&#45;&gt;c29:w</title>
<path fill="none" stroke="#66a61e" stroke-width="3" d="M2009.3,-203C2010.22,-203 2009.08,-204.31 2008.3,-204.8 1959.19,-235.55 1545.55,-231.9 1487.63,-233.5 1453.87,-234.43 1359.86,-257.04 1335.63,-233.5 1332.15,-230.12 1329.61,-217.2 1330.15,-208.17"/>
<polygon fill="#66a61e" stroke="#66a61e" stroke-width="3" points="1333.38,-209.52 1334.63,-199 1327.1,-206.44 1333.38,-209.52"/>
<text text-anchor="middle" x="1736.65" y="-234.8" font-family="Times,serif" font-size="14.00" fill="#66a61e">&lt;32&gt;</text>
</g>
<!-- n4&#45;&gt;c32 -->
<g id="edge25" class="edge">
<title>n4:e&#45;&gt;c32:w</title>
<path fill="none" stroke="#66a61e" stroke-width="3" d="M2009.3,-203C2071.92,-203 2084.08,-163.52 2141.38,-159.35"/>
<polygon fill="#66a61e" stroke="#66a61e" stroke-width="3" points="2141.52,-162.85 2151.39,-159 2141.27,-155.86 2141.52,-162.85"/>
<text text-anchor="middle" x="2091.95" y="-190.8" font-family="Times,serif" font-size="14.00" fill="#66a61e">&lt;32&gt;</text>
</g>
<!-- n4&#45;&gt;c33 -->
<g id="edge26" class="edge">
<title>n4:e&#45;&gt;c33:w</title>
<path fill="none" stroke="#66a61e" stroke-width="3" d="M2009.3,-203C2069.11,-203 2085.21,-221.69 2140.07,-223.81"/>
<polygon fill="#66a61e" stroke="#66a61e" stroke-width="3" points="2140.32,-227.31 2150.39,-224 2140.46,-220.31 2140.32,-227.31"/>
<text text-anchor="middle" x="2091.95" y="-224.8" font-family="Times,serif" font-size="14.00" fill="#66a61e">&lt;32&gt;</text>
</g>
<!-- n7&#45;&gt;x1 -->
<g id="edge31" class="edge">
<title>n7:e&#45;&gt;x1:w</title>
<path fill="none" stroke="#d95f02" d="M2381.83,-212C2497.45,-212 2528.9,-212 2639.59,-212"/>
<polygon fill="#d95f02" stroke="#d95f02" points="2639.83,-215.5 2649.83,-212 2639.83,-208.5 2639.83,-215.5"/>
</g>
<!-- n7&#45;&gt;c39 -->
<g id="edge30" class="edge">
<title>n7:e&#45;&gt;c39:w</title>
<path fill="none" stroke="#d95f02" d="M2381.83,-212C2417.56,-212 2444.29,-328.97 2478.48,-349.08"/>
<polygon fill="#d95f02" stroke="#d95f02" points="2477.75,-352.51 2488.33,-352 2479.74,-345.8 2477.75,-352.51"/>
</g>
<!-- n8&#45;&gt;c29 -->
<g id="edge33" class="edge">
<title>n8:e&#45;&gt;c29:w</title>
<path fill="none" stroke="#7570b3" d="M1274.63,-175C1298.04,-175 1306.29,-175 1325.55,-175"/>
<polygon fill="#7570b3" stroke="#7570b3" points="1325.63,-178.5 1335.63,-175 1325.63,-171.5 1325.63,-178.5"/>
</g>
<!-- n8&#45;&gt;c30 -->
<g id="edge34" class="edge">
<title>n8:e&#45;&gt;c30:w</title>
<path fill="none" stroke="#7570b3" d="M1274.63,-175C1373.14,-175 1312.13,0 1410.63,0 1410.63,0 1410.63,0 2895.83,0 2989.98,0 2921.1,-172.45 3003.15,-185.25"/>
<polygon fill="#7570b3" stroke="#7570b3" points="3003.1,-188.76 3013.33,-186 3003.61,-181.77 3003.1,-188.76"/>
</g>
<!-- n9&#45;&gt;c29 -->
<g id="edge36" class="edge">
<title>n9:e&#45;&gt;c29:w</title>
<path fill="none" stroke="#e7298a" d="M2545.83,-149C2554.43,-149 2557.91,-154.38 2541.03,-150.8 2466.43,-134.99 2456.09,-92 2379.83,-92 2090.95,-92 2090.95,-92 2090.95,-92 1857.9,-92 1798.62,-76.77 1566.63,-99 1462.8,-108.95 1405.96,-63.46 1335.63,-140.5 1335.31,-140.86 1334.99,-141.24 1334.69,-141.66"/>
<polygon fill="#e7298a" stroke="#e7298a" points="1331.19,-141.98 1334.63,-152 1338.19,-142.02 1331.19,-141.98"/>
</g>
<!-- n9&#45;&gt;x1 -->
<g id="edge38" class="edge">
<title>n9:e&#45;&gt;x1:w</title>
<path fill="none" stroke="#e7298a" d="M2545.83,-149C2578.4,-149 2586.28,-156.43 2616.33,-169 2628.3,-174.01 2631.54,-182.34 2639.85,-186.08"/>
<polygon fill="#e7298a" stroke="#e7298a" points="2639.35,-189.54 2649.83,-188 2640.67,-182.67 2639.35,-189.54"/>
</g>
<!-- n9&#45;&gt;c40 -->
<g id="edge37" class="edge">
<title>n9:e&#45;&gt;c40:w</title>
<path fill="none" stroke="#e7298a" d="M2545.83,-149C2619.09,-149 2563.37,-283.8 2624.03,-296.97"/>
<polygon fill="#e7298a" stroke="#e7298a" points="2624.03,-300.49 2634.33,-298 2624.73,-293.52 2624.03,-300.49"/>
</g>
</g>
</svg>
