<?xml version="1.0" encoding="UTF-8" standalone="no"?>
<!DOCTYPE svg PUBLIC "-//W3C//DTD SVG 1.1//EN"
 "http://www.w3.org/Graphics/SVG/1.1/DTD/svg11.dtd">
<!-- Generated by graphviz version 2.43.0 (0)
 -->
<!-- Title: %3 Pages: 1 -->
<svg width="1604pt" height="876pt"
 viewBox="0.00 0.00 1604.17 876.48" xmlns="http://www.w3.org/2000/svg" xmlns:xlink="http://www.w3.org/1999/xlink">
<g id="graph0" class="graph" transform="scale(1 1) rotate(0) translate(4 872.48)">
<title>%3</title>
<polygon fill="white" stroke="transparent" points="-4,4 -4,-872.48 1600.17,-872.48 1600.17,4 -4,4"/>
<g id="clust1" class="cluster">
<title>cluster_0</title>
<polygon fill="none" stroke="black" points="488.77,-155.48 488.77,-859.48 794.77,-859.48 794.77,-155.48 488.77,-155.48"/>
</g>
<!-- FPGA -->
<g id="node1" class="node">
<title>FPGA</title>
<polygon fill="none" stroke="black" points="631.77,-568.98 574.77,-568.98 574.77,-511.98 631.77,-511.98 631.77,-568.98"/>
<polyline fill="none" stroke="black" points="586.77,-568.98 574.77,-556.98 "/>
<polyline fill="none" stroke="black" points="574.77,-523.98 586.77,-511.98 "/>
<polyline fill="none" stroke="black" points="619.77,-511.98 631.77,-523.98 "/>
<polyline fill="none" stroke="black" points="631.77,-556.98 619.77,-568.98 "/>
<text text-anchor="middle" x="603.27" y="-536.78" font-family="Times,serif" font-size="14.00">FPGA</text>
</g>
<!-- STEP/DIR -->
<g id="node2" class="node">
<title>STEP/DIR</title>
<polygon fill="none" stroke="black" points="771.27,-850.98 684.27,-850.98 684.27,-763.98 771.27,-763.98 771.27,-850.98"/>
<text text-anchor="middle" x="727.77" y="-803.78" font-family="Times,serif" font-size="14.00">STEP/DIR</text>
</g>
<!-- FPGA&#45;&gt;STEP/DIR -->
<g id="edge1" class="edge">
<title>FPGA&#45;&gt;STEP/DIR</title>
<path fill="none" stroke="black" d="M607.95,-569.15C614.52,-612.21 631.27,-694.86 668.77,-754.48 671.32,-758.52 674.25,-762.45 677.42,-766.22"/>
<polygon fill="black" stroke="black" points="674.91,-768.66 684.21,-773.73 680.1,-763.96 674.91,-768.66"/>
</g>
<!-- PWM/DIR -->
<g id="node3" class="node">
<title>PWM/DIR</title>
<polygon fill="none" stroke="black" points="770.77,-745.48 684.77,-745.48 684.77,-659.48 770.77,-659.48 770.77,-745.48"/>
<text text-anchor="middle" x="727.77" y="-698.78" font-family="Times,serif" font-size="14.00">PWM/DIR</text>
</g>
<!-- FPGA&#45;&gt;PWM/DIR -->
<g id="edge2" class="edge">
<title>FPGA&#45;&gt;PWM/DIR</title>
<path fill="none" stroke="black" d="M617.96,-569.14C629.72,-592.3 648.04,-625.11 668.77,-650.48 671.47,-653.78 674.38,-657.05 677.41,-660.26"/>
<polygon fill="black" stroke="black" points="675.14,-662.94 684.66,-667.59 680.12,-658.02 675.14,-662.94"/>
</g>
<!-- PWM -->
<g id="node4" class="node">
<title>PWM</title>
<polygon fill="none" stroke="black" points="755.27,-640.98 700.27,-640.98 700.27,-585.98 755.27,-585.98 755.27,-640.98"/>
<text text-anchor="middle" x="727.77" y="-609.78" font-family="Times,serif" font-size="14.00">PWM</text>
</g>
<!-- FPGA&#45;&gt;PWM -->
<g id="edge3" class="edge">
<title>FPGA&#45;&gt;PWM</title>
<path fill="none" stroke="black" d="M632.07,-557.04C649.62,-567.5 672.46,-581.11 691.31,-592.34"/>
<polygon fill="black" stroke="black" points="689.55,-595.37 699.93,-597.48 693.13,-589.35 689.55,-595.37"/>
</g>
<!-- GPIO -->
<g id="node5" class="node">
<title>GPIO</title>
<polygon fill="none" stroke="black" points="754.77,-567.48 700.77,-567.48 700.77,-513.48 754.77,-513.48 754.77,-567.48"/>
<text text-anchor="middle" x="727.77" y="-536.78" font-family="Times,serif" font-size="14.00">GPIO</text>
</g>
<!-- FPGA&#45;&gt;GPIO -->
<g id="edge4" class="edge">
<title>FPGA&#45;&gt;GPIO</title>
<path fill="none" stroke="black" d="M642.21,-540.48C657.65,-540.48 675.42,-540.48 690.67,-540.48"/>
<polygon fill="black" stroke="black" points="642.07,-536.98 632.07,-540.48 642.07,-543.98 642.07,-536.98"/>
<polygon fill="black" stroke="black" points="690.76,-543.98 700.76,-540.48 690.76,-536.98 690.76,-543.98"/>
</g>
<!-- MODBUS -->
<g id="node6" class="node">
<title>MODBUS</title>
<polygon fill="none" stroke="black" points="770.77,-495.48 684.77,-495.48 684.77,-409.48 770.77,-409.48 770.77,-495.48"/>
<text text-anchor="middle" x="727.77" y="-448.78" font-family="Times,serif" font-size="14.00">MODBUS</text>
</g>
<!-- FPGA&#45;&gt;MODBUS -->
<g id="edge5" class="edge">
<title>FPGA&#45;&gt;MODBUS</title>
<path fill="none" stroke="black" d="M640.41,-514.52C651.69,-506.41 664.35,-497.32 676.42,-488.65"/>
<polygon fill="black" stroke="black" points="638.15,-511.83 632.07,-520.51 642.24,-517.52 638.15,-511.83"/>
<polygon fill="black" stroke="black" points="678.57,-491.41 684.65,-482.73 674.49,-485.73 678.57,-491.41"/>
</g>
<!-- COUNTER -->
<g id="node7" class="node">
<title>COUNTER</title>
<polygon fill="none" stroke="black" points="773.77,-391.48 681.77,-391.48 681.77,-299.48 773.77,-299.48 773.77,-391.48"/>
<text text-anchor="middle" x="727.77" y="-341.78" font-family="Times,serif" font-size="14.00">COUNTER</text>
</g>
<!-- FPGA&#45;&gt;COUNTER -->
<g id="edge6" class="edge">
<title>FPGA&#45;&gt;COUNTER</title>
<path fill="none" stroke="black" d="M617.26,-502.46C628.35,-473.05 646.08,-432.14 668.77,-400.48 672.57,-395.18 676.93,-389.97 681.52,-385"/>
<polygon fill="black" stroke="black" points="613.93,-501.37 613.76,-511.96 620.5,-503.79 613.93,-501.37"/>
</g>
<!-- SPI/I2C/1Wire -->
<g id="node9" class="node">
<title>SPI/I2C/1Wire</title>
<polygon fill="none" stroke="black" points="786.77,-281.48 668.77,-281.48 668.77,-163.48 786.77,-163.48 786.77,-281.48"/>
<text text-anchor="middle" x="727.77" y="-218.78" font-family="Times,serif" font-size="14.00">SPI/I2C/1Wire</text>
</g>
<!-- FPGA&#45;&gt;SPI/I2C/1Wire -->
<g id="edge7" class="edge">
<title>FPGA&#45;&gt;SPI/I2C/1Wire</title>
<path fill="none" stroke="black" d="M608.76,-501.68C615.56,-452.79 631.4,-366.91 668.99,-291.07"/>
<polygon fill="black" stroke="black" points="605.29,-501.23 607.43,-511.6 612.22,-502.16 605.29,-501.23"/>
<polygon fill="black" stroke="black" points="672.25,-292.37 673.68,-281.87 666.02,-289.19 672.25,-292.37"/>
</g>
<!-- Stepper&#45;Driver -->
<g id="node10" class="node">
<title>Stepper&#45;Driver</title>
<ellipse fill="none" stroke="black" cx="1030.25" cy="-850.48" rx="80.69" ry="18"/>
<text text-anchor="middle" x="1030.25" y="-846.78" font-family="Times,serif" font-size="14.00">Stepper&#45;Driver</text>
</g>
<!-- STEP/DIR&#45;&gt;Stepper&#45;Driver -->
<g id="edge9" class="edge">
<title>STEP/DIR&#45;&gt;Stepper&#45;Driver</title>
<path fill="none" stroke="black" d="M771.28,-814.97C787.67,-817.77 806.57,-820.9 823.77,-823.48 865.09,-829.67 911.21,-835.8 949.26,-840.65"/>
<polygon fill="black" stroke="black" points="948.9,-844.13 959.26,-841.92 949.78,-837.19 948.9,-844.13"/>
</g>
<!-- H&#45;Bridge -->
<g id="node14" class="node">
<title>H&#45;Bridge</title>
<ellipse fill="none" stroke="black" cx="1030.25" cy="-796.48" rx="52.79" ry="18"/>
<text text-anchor="middle" x="1030.25" y="-792.78" font-family="Times,serif" font-size="14.00">H&#45;Bridge</text>
</g>
<!-- PWM/DIR&#45;&gt;H&#45;Bridge -->
<g id="edge13" class="edge">
<title>PWM/DIR&#45;&gt;H&#45;Bridge</title>
<path fill="none" stroke="black" d="M771.14,-738.96C786.74,-750.54 805.16,-762.21 823.77,-769.48 869.75,-787.44 925.46,-793.9 967.26,-796.03"/>
<polygon fill="black" stroke="black" points="967.16,-799.53 977.31,-796.48 967.47,-792.54 967.16,-799.53"/>
</g>
<!-- PWM&#45;Output\n(spindle&#45;speed/...) -->
<g id="node25" class="node">
<title>PWM&#45;Output\n(spindle&#45;speed/...)</title>
<ellipse fill="none" stroke="black" cx="1030.25" cy="-733.48" rx="101.23" ry="26.74"/>
<text text-anchor="middle" x="1030.25" y="-737.28" font-family="Times,serif" font-size="14.00">PWM&#45;Output</text>
<text text-anchor="middle" x="1030.25" y="-722.28" font-family="Times,serif" font-size="14.00">(spindle&#45;speed/...)</text>
</g>
<!-- PWM/DIR&#45;&gt;PWM&#45;Output\n(spindle&#45;speed/...) -->
<g id="edge24" class="edge">
<title>PWM/DIR&#45;&gt;PWM&#45;Output\n(spindle&#45;speed/...)</title>
<path fill="none" stroke="black" d="M770.87,-706.82C810.85,-710.94 872.57,-717.31 925.66,-722.79"/>
<polygon fill="black" stroke="black" points="925.51,-726.29 935.81,-723.84 926.22,-719.33 925.51,-726.29"/>
</g>
<!-- RC&#45;Servo -->
<g id="node16" class="node">
<title>RC&#45;Servo</title>
<ellipse fill="none" stroke="black" cx="1030.25" cy="-670.48" rx="53.89" ry="18"/>
<text text-anchor="middle" x="1030.25" y="-666.78" font-family="Times,serif" font-size="14.00">RC&#45;Servo</text>
</g>
<!-- PWM&#45;&gt;RC&#45;Servo -->
<g id="edge15" class="edge">
<title>PWM&#45;&gt;RC&#45;Servo</title>
<path fill="none" stroke="black" d="M755.46,-623.29C774.31,-629.87 800.3,-638.27 823.77,-643.48 871.54,-654.07 926.53,-661.03 967.6,-665.22"/>
<polygon fill="black" stroke="black" points="967.43,-668.72 977.73,-666.23 968.12,-661.76 967.43,-668.72"/>
</g>
<!-- ULN2803 -->
<g id="node12" class="node">
<title>ULN2803</title>
<ellipse fill="none" stroke="black" cx="1030.25" cy="-616.48" rx="55.79" ry="18"/>
<text text-anchor="middle" x="1030.25" y="-612.78" font-family="Times,serif" font-size="14.00">ULN2803</text>
</g>
<!-- GPIO&#45;&gt;ULN2803 -->
<g id="edge11" class="edge">
<title>GPIO&#45;&gt;ULN2803</title>
<path fill="none" stroke="black" d="M755.06,-555.33C778.12,-568.12 810.05,-585.18 823.77,-589.48 869.51,-603.8 923.29,-610.53 964.35,-613.68"/>
<polygon fill="black" stroke="black" points="964.28,-617.19 974.5,-614.41 964.78,-610.21 964.28,-617.19"/>
</g>
<!-- Digial&#45;Input\n(switches/buttons/sensors/...) -->
<g id="node23" class="node">
<title>Digial&#45;Input\n(switches/buttons/sensors/...)</title>
<ellipse fill="none" stroke="black" cx="1030.25" cy="-553.48" rx="159.61" ry="26.74"/>
<text text-anchor="middle" x="1030.25" y="-557.28" font-family="Times,serif" font-size="14.00">Digial&#45;Input</text>
<text text-anchor="middle" x="1030.25" y="-542.28" font-family="Times,serif" font-size="14.00">(switches/buttons/sensors/...)</text>
</g>
<!-- GPIO&#45;&gt;Digial&#45;Input\n(switches/buttons/sensors/...) -->
<g id="edge22" class="edge">
<title>GPIO&#45;&gt;Digial&#45;Input\n(switches/buttons/sensors/...)</title>
<path fill="none" stroke="black" d="M765.01,-542.04C793.06,-543.26 833.98,-545.03 875.28,-546.82"/>
<polygon fill="black" stroke="black" points="765.06,-538.54 754.91,-541.61 764.75,-545.54 765.06,-538.54"/>
</g>
<!-- Digial&#45;Output\n(spindle/flood/LED&#39;s/...) -->
<g id="node24" class="node">
<title>Digial&#45;Output\n(spindle/flood/LED&#39;s/...)</title>
<ellipse fill="none" stroke="black" cx="1030.25" cy="-481.48" rx="129.3" ry="26.74"/>
<text text-anchor="middle" x="1030.25" y="-485.28" font-family="Times,serif" font-size="14.00">Digial&#45;Output</text>
<text text-anchor="middle" x="1030.25" y="-470.28" font-family="Times,serif" font-size="14.00">(spindle/flood/LED&#39;s/...)</text>
</g>
<!-- GPIO&#45;&gt;Digial&#45;Output\n(spindle/flood/LED&#39;s/...) -->
<g id="edge23" class="edge">
<title>GPIO&#45;&gt;Digial&#45;Output\n(spindle/flood/LED&#39;s/...)</title>
<path fill="none" stroke="black" d="M754.88,-533.68C773.91,-528.84 800.35,-522.36 823.77,-517.48 854.03,-511.17 886.96,-505.07 917.4,-499.73"/>
<polygon fill="black" stroke="black" points="918.37,-503.12 927.63,-497.95 917.17,-496.22 918.37,-503.12"/>
</g>
<!-- MAX485 -->
<g id="node17" class="node">
<title>MAX485</title>
<ellipse fill="none" stroke="black" cx="1030.25" cy="-418.48" rx="50.09" ry="18"/>
<text text-anchor="middle" x="1030.25" y="-414.78" font-family="Times,serif" font-size="14.00">MAX485</text>
</g>
<!-- MODBUS&#45;&gt;MAX485 -->
<g id="edge16" class="edge">
<title>MODBUS&#45;&gt;MAX485</title>
<path fill="none" stroke="black" d="M781.07,-446.56C834.5,-440.51 917.24,-431.15 972.3,-424.92"/>
<polygon fill="black" stroke="black" points="780.41,-443.11 770.87,-447.71 781.2,-450.07 780.41,-443.11"/>
<polygon fill="black" stroke="black" points="972.71,-428.4 982.25,-423.8 971.92,-421.44 972.71,-428.4"/>
</g>
<!-- Encoder\nOptical for joint feedback (closed&#45;loop)\nmechanical for user inputs -->
<g id="node19" class="node">
<title>Encoder\nOptical for joint feedback (closed&#45;loop)\nmechanical for user inputs</title>
<ellipse fill="none" stroke="black" cx="1030.25" cy="-345.48" rx="206.45" ry="37.45"/>
<text text-anchor="middle" x="1030.25" y="-356.78" font-family="Times,serif" font-size="14.00">Encoder</text>
<text text-anchor="middle" x="1030.25" y="-341.78" font-family="Times,serif" font-size="14.00">Optical for joint feedback (closed&#45;loop)</text>
<text text-anchor="middle" x="1030.25" y="-326.78" font-family="Times,serif" font-size="14.00">mechanical for user inputs</text>
</g>
<!-- COUNTER&#45;&gt;Encoder\nOptical for joint feedback (closed&#45;loop)\nmechanical for user inputs -->
<g id="edge18" class="edge">
<title>COUNTER&#45;&gt;Encoder\nOptical for joint feedback (closed&#45;loop)\nmechanical for user inputs</title>
<path fill="none" stroke="black" d="M784.21,-345.48C796.15,-345.48 809.44,-345.48 823.48,-345.48"/>
<polygon fill="black" stroke="black" points="784.08,-341.98 774.08,-345.48 784.08,-348.98 784.08,-341.98"/>
</g>
<!-- Counter\n(up/down/reset) -->
<g id="node22" class="node">
<title>Counter\n(up/down/reset)</title>
<ellipse fill="none" stroke="black" cx="1030.25" cy="-263.48" rx="91.43" ry="26.74"/>
<text text-anchor="middle" x="1030.25" y="-267.28" font-family="Times,serif" font-size="14.00">Counter</text>
<text text-anchor="middle" x="1030.25" y="-252.28" font-family="Times,serif" font-size="14.00">(up/down/reset)</text>
</g>
<!-- COUNTER&#45;&gt;Counter\n(up/down/reset) -->
<g id="edge21" class="edge">
<title>COUNTER&#45;&gt;Counter\n(up/down/reset)</title>
<path fill="none" stroke="black" d="M783.34,-315.87C796.31,-309.74 810.3,-303.82 823.77,-299.48 862.63,-286.93 907.12,-278.46 944.74,-272.9"/>
<polygon fill="black" stroke="black" points="781.56,-312.85 774.1,-320.36 784.62,-319.14 781.56,-312.85"/>
</g>
<!-- SPI -->
<g id="node8" class="node">
<title>SPI</title>
<polygon fill="none" stroke="black" points="537.77,-560.98 496.77,-560.98 496.77,-519.98 537.77,-519.98 537.77,-560.98"/>
<text text-anchor="middle" x="517.27" y="-536.78" font-family="Times,serif" font-size="14.00">SPI</text>
</g>
<!-- SPI&#45;&gt;FPGA -->
<g id="edge8" class="edge">
<title>SPI&#45;&gt;FPGA</title>
<path fill="none" stroke="black" d="M548.19,-540.48C553.42,-540.48 558.93,-540.48 564.35,-540.48"/>
<polygon fill="black" stroke="black" points="548.18,-536.98 538.18,-540.48 548.18,-543.98 548.18,-536.98"/>
<polygon fill="black" stroke="black" points="564.57,-543.98 574.57,-540.48 564.57,-536.98 564.57,-543.98"/>
</g>
<!-- ADC\n(tlc549c / ads1115) -->
<g id="node20" class="node">
<title>ADC\n(tlc549c / ads1115)</title>
<ellipse fill="none" stroke="black" cx="1030.25" cy="-191.48" rx="108.79" ry="26.74"/>
<text text-anchor="middle" x="1030.25" y="-195.28" font-family="Times,serif" font-size="14.00">ADC</text>
<text text-anchor="middle" x="1030.25" y="-180.28" font-family="Times,serif" font-size="14.00">(tlc549c / ads1115)</text>
</g>
<!-- SPI/I2C/1Wire&#45;&gt;ADC\n(tlc549c / ads1115) -->
<g id="edge19" class="edge">
<title>SPI/I2C/1Wire&#45;&gt;ADC\n(tlc549c / ads1115)</title>
<path fill="none" stroke="black" d="M797.28,-215.41C836.36,-211.38 886.05,-206.25 929.41,-201.78"/>
<polygon fill="black" stroke="black" points="796.65,-211.95 787.07,-216.46 797.37,-218.92 796.65,-211.95"/>
</g>
<!-- Sensors\n(ds18b20 / lm75) -->
<g id="node21" class="node">
<title>Sensors\n(ds18b20 / lm75)</title>
<ellipse fill="none" stroke="black" cx="1030.25" cy="-119.48" rx="97.66" ry="26.74"/>
<text text-anchor="middle" x="1030.25" y="-123.28" font-family="Times,serif" font-size="14.00">Sensors</text>
<text text-anchor="middle" x="1030.25" y="-108.28" font-family="Times,serif" font-size="14.00">(ds18b20 / lm75)</text>
</g>
<!-- SPI/I2C/1Wire&#45;&gt;Sensors\n(ds18b20 / lm75) -->
<g id="edge20" class="edge">
<title>SPI/I2C/1Wire&#45;&gt;Sensors\n(ds18b20 / lm75)</title>
<path fill="none" stroke="black" d="M795.6,-170.04C804.72,-164.49 814.24,-159.44 823.77,-155.48 859.06,-140.81 900.16,-132.12 936.28,-126.97"/>
<polygon fill="black" stroke="black" points="793.56,-167.19 786.98,-175.5 797.3,-173.11 793.56,-167.19"/>
</g>
<!-- IO&#45;Extensions\n(shiftreg/pcf8574)\n(for extra Digital&#45;Ports) -->
<g id="node26" class="node">
<title>IO&#45;Extensions\n(shiftreg/pcf8574)\n(for extra Digital&#45;Ports)</title>
<ellipse fill="none" stroke="black" cx="1030.25" cy="-37.48" rx="130.22" ry="37.45"/>
<text text-anchor="middle" x="1030.25" y="-48.78" font-family="Times,serif" font-size="14.00">IO&#45;Extensions</text>
<text text-anchor="middle" x="1030.25" y="-33.78" font-family="Times,serif" font-size="14.00">(shiftreg/pcf8574)</text>
<text text-anchor="middle" x="1030.25" y="-18.78" font-family="Times,serif" font-size="14.00">(for extra Digital&#45;Ports)</text>
</g>
<!-- SPI/I2C/1Wire&#45;&gt;IO&#45;Extensions\n(shiftreg/pcf8574)\n(for extra Digital&#45;Ports) -->
<g id="edge25" class="edge">
<title>SPI/I2C/1Wire&#45;&gt;IO&#45;Extensions\n(shiftreg/pcf8574)\n(for extra Digital&#45;Ports)</title>
<path fill="none" stroke="black" d="M761.2,-154.45C776.73,-128.6 797.69,-101.16 823.77,-83.48 845.44,-68.79 871.06,-58.72 896.73,-51.83"/>
<polygon fill="black" stroke="black" points="758.15,-152.73 756.14,-163.13 764.2,-156.25 758.15,-152.73"/>
<polygon fill="black" stroke="black" points="897.72,-55.19 906.56,-49.35 896.01,-48.4 897.72,-55.19"/>
</g>
<!-- STEPPER -->
<g id="node11" class="node">
<title>STEPPER</title>
<ellipse fill="none" stroke="black" cx="1434.94" cy="-850.48" rx="55.79" ry="18"/>
<text text-anchor="middle" x="1434.94" y="-846.78" font-family="Times,serif" font-size="14.00">STEPPER</text>
</g>
<!-- Stepper&#45;Driver&#45;&gt;STEPPER -->
<g id="edge10" class="edge">
<title>Stepper&#45;Driver&#45;&gt;STEPPER</title>
<path fill="none" stroke="black" d="M1111.29,-850.48C1186.82,-850.48 1298.67,-850.48 1368.87,-850.48"/>
<polygon fill="black" stroke="black" points="1368.91,-853.98 1378.91,-850.48 1368.91,-846.98 1368.91,-853.98"/>
</g>
<!-- UNIPOLAR -->
<g id="node13" class="node">
<title>UNIPOLAR</title>
<ellipse fill="none" stroke="black" cx="1434.94" cy="-616.48" rx="62.29" ry="18"/>
<text text-anchor="middle" x="1434.94" y="-612.78" font-family="Times,serif" font-size="14.00">UNIPOLAR</text>
</g>
<!-- ULN2803&#45;&gt;UNIPOLAR -->
<g id="edge12" class="edge">
<title>ULN2803&#45;&gt;UNIPOLAR</title>
<path fill="none" stroke="black" d="M1086.4,-616.48C1157.93,-616.48 1282.88,-616.48 1361.86,-616.48"/>
<polygon fill="black" stroke="black" points="1362.21,-619.98 1372.21,-616.48 1362.21,-612.98 1362.21,-619.98"/>
</g>
<!-- DC&#45;Servo -->
<g id="node15" class="node">
<title>DC&#45;Servo</title>
<ellipse fill="none" stroke="black" cx="1434.94" cy="-796.48" rx="54.69" ry="18"/>
<text text-anchor="middle" x="1434.94" y="-792.78" font-family="Times,serif" font-size="14.00">DC&#45;Servo</text>
</g>
<!-- H&#45;Bridge&#45;&gt;DC&#45;Servo -->
<g id="edge14" class="edge">
<title>H&#45;Bridge&#45;&gt;DC&#45;Servo</title>
<path fill="none" stroke="black" d="M1083.07,-796.48C1156.36,-796.48 1290.2,-796.48 1369.71,-796.48"/>
<polygon fill="black" stroke="black" points="1370.08,-799.98 1380.08,-796.48 1370.08,-792.98 1370.08,-799.98"/>
</g>
<!-- HY&#45;VFD -->
<g id="node18" class="node">
<title>HY&#45;VFD</title>
<ellipse fill="none" stroke="black" cx="1434.94" cy="-418.48" rx="46.29" ry="18"/>
<text text-anchor="middle" x="1434.94" y="-414.78" font-family="Times,serif" font-size="14.00">HY&#45;VFD</text>
</g>
<!-- MAX485&#45;&gt;HY&#45;VFD -->
<g id="edge17" class="edge">
<title>MAX485&#45;&gt;HY&#45;VFD</title>
<path fill="none" stroke="black" d="M1090.68,-418.48C1168.16,-418.48 1302.66,-418.48 1378.25,-418.48"/>
<polygon fill="black" stroke="black" points="1090.63,-414.98 1080.63,-418.48 1090.63,-421.98 1090.63,-414.98"/>
<polygon fill="black" stroke="black" points="1378.51,-421.98 1388.51,-418.48 1378.51,-414.98 1378.51,-421.98"/>
</g>
<!-- extra GPIO&#39;s\n(Buttons/LED&#39;s)\n(do not use for realtime stuff) -->
<g id="node27" class="node">
<title>extra GPIO&#39;s\n(Buttons/LED&#39;s)\n(do not use for realtime stuff)</title>
<ellipse fill="none" stroke="black" cx="1434.94" cy="-37.48" rx="161.44" ry="37.45"/>
<text text-anchor="middle" x="1434.94" y="-48.78" font-family="Times,serif" font-size="14.00">extra GPIO&#39;s</text>
<text text-anchor="middle" x="1434.94" y="-33.78" font-family="Times,serif" font-size="14.00">(Buttons/LED&#39;s)</text>
<text text-anchor="middle" x="1434.94" y="-18.78" font-family="Times,serif" font-size="14.00">(do not use for realtime stuff)</text>
</g>
<!-- IO&#45;Extensions\n(shiftreg/pcf8574)\n(for extra Digital&#45;Ports)&#45;&gt;extra GPIO&#39;s\n(Buttons/LED&#39;s)\n(do not use for realtime stuff) -->
<g id="edge26" class="edge">
<title>IO&#45;Extensions\n(shiftreg/pcf8574)\n(for extra Digital&#45;Ports)&#45;&gt;extra GPIO&#39;s\n(Buttons/LED&#39;s)\n(do not use for realtime stuff)</title>
<path fill="none" stroke="black" d="M1170.82,-37.48C1200.75,-37.48 1232.7,-37.48 1263.65,-37.48"/>
<polygon fill="black" stroke="black" points="1170.6,-33.98 1160.6,-37.48 1170.6,-40.98 1170.6,-33.98"/>
<polygon fill="black" stroke="black" points="1263.66,-40.98 1273.66,-37.48 1263.66,-33.98 1263.66,-40.98"/>
</g>
<!-- W5500 -->
<g id="node28" class="node">
<title>W5500</title>
<ellipse fill="none" stroke="black" cx="350.38" cy="-540.48" rx="43.59" ry="18"/>
<text text-anchor="middle" x="350.38" y="-536.78" font-family="Times,serif" font-size="14.00">W5500</text>
</g>
<!-- W5500&#45;&gt;SPI -->
<g id="edge27" class="edge">
<title>W5500&#45;&gt;SPI</title>
<path fill="none" stroke="lightgray" d="M404.65,-540.48C431.76,-540.48 463.71,-540.48 486.47,-540.48"/>
<polygon fill="lightgray" stroke="lightgray" points="404.28,-536.98 394.28,-540.48 404.28,-543.98 404.28,-536.98"/>
<polygon fill="lightgray" stroke="lightgray" points="486.53,-543.98 496.53,-540.48 486.53,-536.98 486.53,-543.98"/>
<text text-anchor="middle" x="467.77" y="-544.28" font-family="Times,serif" font-size="14.00">spi</text>
</g>
<!-- LinuxCNC\n(RPI4/PC/Laptop) -->
<g id="node29" class="node">
<title>LinuxCNC\n(RPI4/PC/Laptop)</title>
<ellipse fill="none" stroke="black" cx="98.99" cy="-540.48" rx="98.99" ry="26.74"/>
<text text-anchor="middle" x="98.99" y="-544.28" font-family="Times,serif" font-size="14.00">LinuxCNC</text>
<text text-anchor="middle" x="98.99" y="-529.28" font-family="Times,serif" font-size="14.00">(RPI4/PC/Laptop)</text>
</g>
<!-- LinuxCNC\n(RPI4/PC/Laptop)&#45;&gt;SPI -->
<g id="edge31" class="edge">
<title>LinuxCNC\n(RPI4/PC/Laptop)&#45;&gt;SPI</title>
<path fill="none" stroke="lightgray" d="M189.16,-558.05C212.74,-561.95 238.25,-565.51 261.99,-567.48 340.29,-573.96 360.59,-575.22 438.77,-567.48 456.82,-565.69 461.64,-565.41 478.77,-559.48 481.55,-558.51 484.39,-557.38 487.19,-556.16"/>
<polygon fill="lightgray" stroke="lightgray" points="189.62,-554.58 179.18,-556.36 188.45,-561.48 189.62,-554.58"/>
<polygon fill="lightgray" stroke="lightgray" points="488.93,-559.21 496.47,-551.77 485.94,-552.88 488.93,-559.21"/>
<text text-anchor="middle" x="350.38" y="-576.28" font-family="Times,serif" font-size="14.00">spi</text>
</g>
<!-- LinuxCNC\n(RPI4/PC/Laptop)&#45;&gt;W5500 -->
<g id="edge28" class="edge">
<title>LinuxCNC\n(RPI4/PC/Laptop)&#45;&gt;W5500</title>
<path fill="none" stroke="lightgray" d="M208.41,-540.48C238.9,-540.48 270.7,-540.48 296.37,-540.48"/>
<polygon fill="lightgray" stroke="lightgray" points="208.2,-536.98 198.2,-540.48 208.2,-543.98 208.2,-536.98"/>
<polygon fill="lightgray" stroke="lightgray" points="296.61,-543.98 306.61,-540.48 296.61,-536.98 296.61,-543.98"/>
<text text-anchor="middle" x="229.99" y="-544.28" font-family="Times,serif" font-size="14.00">udp</text>
</g>
<!-- UDP2SPI Bridge -->
<g id="node30" class="node">
<title>UDP2SPI Bridge</title>
<ellipse fill="none" stroke="black" cx="350.38" cy="-486.48" rx="88.28" ry="18"/>
<text text-anchor="middle" x="350.38" y="-482.78" font-family="Times,serif" font-size="14.00">UDP2SPI Bridge</text>
</g>
<!-- LinuxCNC\n(RPI4/PC/Laptop)&#45;&gt;UDP2SPI Bridge -->
<g id="edge30" class="edge">
<title>LinuxCNC\n(RPI4/PC/Laptop)&#45;&gt;UDP2SPI Bridge</title>
<path fill="none" stroke="lightgray" d="M186.72,-521.7C216.9,-515.16 250.37,-507.92 279.06,-501.7"/>
<polygon fill="lightgray" stroke="lightgray" points="185.89,-518.3 176.85,-523.83 187.37,-525.14 185.89,-518.3"/>
<polygon fill="lightgray" stroke="lightgray" points="279.96,-505.09 289,-499.55 278.48,-498.25 279.96,-505.09"/>
<text text-anchor="middle" x="229.99" y="-518.28" font-family="Times,serif" font-size="14.00">udp</text>
</g>
<!-- UDP2SPI Bridge&#45;&gt;SPI -->
<g id="edge29" class="edge">
<title>UDP2SPI Bridge&#45;&gt;SPI</title>
<path fill="none" stroke="lightgray" d="M419.56,-502.5C438.95,-507.78 459.92,-514.2 478.77,-521.48 481.68,-522.6 484.65,-523.87 487.6,-525.22"/>
<polygon fill="lightgray" stroke="lightgray" points="420.45,-499.11 409.89,-499.92 418.65,-505.88 420.45,-499.11"/>
<polygon fill="lightgray" stroke="lightgray" points="486.24,-528.45 496.76,-529.66 489.29,-522.15 486.24,-528.45"/>
<text text-anchor="middle" x="467.77" y="-525.28" font-family="Times,serif" font-size="14.00">spi</text>
</g>
</g>
</svg>
