<?xml version="1.0" encoding="UTF-8" standalone="no"?>
<!DOCTYPE svg PUBLIC "-//W3C//DTD SVG 1.1//EN"
 "http://www.w3.org/Graphics/SVG/1.1/DTD/svg11.dtd">
<!-- Generated by graphviz version 2.43.0 (0)
 -->
<!-- Title: %3 Pages: 1 -->
<svg width="1280pt" height="969pt"
 viewBox="0.00 0.00 1279.68 969.35" xmlns="http://www.w3.org/2000/svg" xmlns:xlink="http://www.w3.org/1999/xlink">
<g id="graph0" class="graph" transform="scale(1 1) rotate(0) translate(4 965.35)">
<title>%3</title>
<polygon fill="white" stroke="transparent" points="-4,4 -4,-965.35 1275.68,-965.35 1275.68,4 -4,4"/>
<!-- STEPPER -->
<g id="node1" class="node">
<title>STEPPER</title>
<ellipse fill="none" stroke="black" cx="161.22" cy="-934.48" rx="55.79" ry="18"/>
<text text-anchor="middle" x="161.22" y="-930.78" font-family="Times,serif" font-size="14.00">STEPPER</text>
</g>
<!-- STEP/DIR\nstepper&#45;driver -->
<g id="node2" class="node">
<title>STEP/DIR\nstepper&#45;driver</title>
<ellipse fill="none" stroke="black" cx="564.92" cy="-934.48" rx="84.29" ry="26.74"/>
<text text-anchor="middle" x="564.92" y="-938.28" font-family="Times,serif" font-size="14.00">STEP/DIR</text>
<text text-anchor="middle" x="564.92" y="-923.28" font-family="Times,serif" font-size="14.00">stepper&#45;driver</text>
</g>
<!-- STEPPER&#45;&gt;STEP/DIR\nstepper&#45;driver -->
<g id="edge1" class="edge">
<title>STEPPER&#45;&gt;STEP/DIR\nstepper&#45;driver</title>
<path fill="none" stroke="black" d="M227.53,-934.48C296.52,-934.48 405.5,-934.48 480.62,-934.48"/>
<polygon fill="black" stroke="black" points="227.23,-930.98 217.23,-934.48 227.23,-937.98 227.23,-930.98"/>
</g>
<!-- FPGA -->
<g id="node3" class="node">
<title>FPGA</title>
<ellipse fill="none" stroke="black" cx="844.44" cy="-479.48" rx="37.09" ry="18"/>
<text text-anchor="middle" x="844.44" y="-475.78" font-family="Times,serif" font-size="14.00">FPGA</text>
</g>
<!-- STEP/DIR\nstepper&#45;driver&#45;&gt;FPGA -->
<g id="edge2" class="edge">
<title>STEP/DIR\nstepper&#45;driver&#45;&gt;FPGA</title>
<path fill="none" stroke="black" d="M656.77,-940.63C697,-938.36 741.81,-928.15 771.39,-898.48 828.97,-840.71 840.83,-570.42 842.99,-497.59"/>
<polygon fill="black" stroke="black" points="656.5,-937.14 646.65,-941.04 656.78,-944.13 656.5,-937.14"/>
</g>
<!-- SPI -->
<g id="node21" class="node">
<title>SPI</title>
<ellipse fill="none" stroke="black" cx="977.59" cy="-511.48" rx="27" ry="18"/>
<text text-anchor="middle" x="977.59" y="-507.78" font-family="Times,serif" font-size="14.00">SPI</text>
</g>
<!-- FPGA&#45;&gt;SPI -->
<g id="edge20" class="edge">
<title>FPGA&#45;&gt;SPI</title>
<path fill="none" stroke="black" d="M887.62,-489.77C905.21,-494.06 925.38,-498.98 942.06,-503.05"/>
<polygon fill="black" stroke="black" points="888.4,-486.36 877.86,-487.39 886.74,-493.16 888.4,-486.36"/>
<polygon fill="black" stroke="black" points="941.4,-506.49 951.95,-505.46 943.06,-499.69 941.4,-506.49"/>
</g>
<!-- Ethernet\n(optional) -->
<g id="node22" class="node">
<title>Ethernet\n(optional)</title>
<ellipse fill="none" stroke="lightgray" cx="977.59" cy="-448.48" rx="60.21" ry="26.74"/>
<text text-anchor="middle" x="977.59" y="-452.28" font-family="Times,serif" font-size="14.00">Ethernet</text>
<text text-anchor="middle" x="977.59" y="-437.28" font-family="Times,serif" font-size="14.00">(optional)</text>
</g>
<!-- FPGA&#45;&gt;Ethernet\n(optional) -->
<g id="edge21" class="edge">
<title>FPGA&#45;&gt;Ethernet\n(optional)</title>
<path fill="none" stroke="lightgray" d="M888,-469.42C896.37,-467.44 905.31,-465.32 914.18,-463.23"/>
<polygon fill="lightgray" stroke="lightgray" points="887.12,-466.03 878.19,-471.73 888.73,-472.84 887.12,-466.03"/>
<polygon fill="lightgray" stroke="lightgray" points="915.19,-466.59 924.12,-460.88 913.58,-459.77 915.19,-466.59"/>
</g>
<!-- UNIPOLAR -->
<g id="node4" class="node">
<title>UNIPOLAR</title>
<ellipse fill="none" stroke="black" cx="161.22" cy="-862.48" rx="62.29" ry="18"/>
<text text-anchor="middle" x="161.22" y="-858.78" font-family="Times,serif" font-size="14.00">UNIPOLAR</text>
</g>
<!-- GPIO\nuln2803 -->
<g id="node5" class="node">
<title>GPIO\nuln2803</title>
<ellipse fill="none" stroke="black" cx="564.92" cy="-862.48" rx="53.07" ry="26.74"/>
<text text-anchor="middle" x="564.92" y="-866.28" font-family="Times,serif" font-size="14.00">GPIO</text>
<text text-anchor="middle" x="564.92" y="-851.28" font-family="Times,serif" font-size="14.00">uln2803</text>
</g>
<!-- UNIPOLAR&#45;&gt;GPIO\nuln2803 -->
<g id="edge3" class="edge">
<title>UNIPOLAR&#45;&gt;GPIO\nuln2803</title>
<path fill="none" stroke="black" d="M234.13,-862.48C313.97,-862.48 440.91,-862.48 511.75,-862.48"/>
<polygon fill="black" stroke="black" points="233.67,-858.98 223.67,-862.48 233.67,-865.98 233.67,-858.98"/>
</g>
<!-- GPIO\nuln2803&#45;&gt;FPGA -->
<g id="edge4" class="edge">
<title>GPIO\nuln2803&#45;&gt;FPGA</title>
<path fill="none" stroke="black" d="M627.01,-868.65C672.74,-869.72 733.67,-863.03 771.39,-826.48 819.44,-779.91 837.85,-561.99 842.3,-497.5"/>
<polygon fill="black" stroke="black" points="627.03,-865.15 616.91,-868.29 626.78,-872.15 627.03,-865.15"/>
</g>
<!-- DC&#45;Servo -->
<g id="node6" class="node">
<title>DC&#45;Servo</title>
<ellipse fill="none" stroke="black" cx="161.22" cy="-790.48" rx="54.69" ry="18"/>
<text text-anchor="middle" x="161.22" y="-786.78" font-family="Times,serif" font-size="14.00">DC&#45;Servo</text>
</g>
<!-- PWM/DIR\nh&#45;bridge -->
<g id="node7" class="node">
<title>PWM/DIR\nh&#45;bridge</title>
<ellipse fill="none" stroke="black" cx="564.92" cy="-790.48" rx="60.62" ry="26.74"/>
<text text-anchor="middle" x="564.92" y="-794.28" font-family="Times,serif" font-size="14.00">PWM/DIR</text>
<text text-anchor="middle" x="564.92" y="-779.28" font-family="Times,serif" font-size="14.00">h&#45;bridge</text>
</g>
<!-- DC&#45;Servo&#45;&gt;PWM/DIR\nh&#45;bridge -->
<g id="edge5" class="edge">
<title>DC&#45;Servo&#45;&gt;PWM/DIR\nh&#45;bridge</title>
<path fill="none" stroke="black" d="M226.42,-790.48C302.83,-790.48 429.42,-790.48 503.93,-790.48"/>
<polygon fill="black" stroke="black" points="225.98,-786.98 215.98,-790.48 225.98,-793.98 225.98,-786.98"/>
</g>
<!-- PWM/DIR\nh&#45;bridge&#45;&gt;FPGA -->
<g id="edge6" class="edge">
<title>PWM/DIR\nh&#45;bridge&#45;&gt;FPGA</title>
<path fill="none" stroke="black" d="M634.78,-796.15C679.12,-795.95 735.05,-787.93 771.39,-754.48 809.97,-718.96 834.15,-552.92 841.25,-497.52"/>
<polygon fill="black" stroke="black" points="634.67,-792.65 624.64,-796.06 634.61,-799.65 634.67,-792.65"/>
</g>
<!-- RC&#45;Servo -->
<g id="node8" class="node">
<title>RC&#45;Servo</title>
<ellipse fill="none" stroke="black" cx="161.22" cy="-727.48" rx="53.89" ry="18"/>
<text text-anchor="middle" x="161.22" y="-723.78" font-family="Times,serif" font-size="14.00">RC&#45;Servo</text>
</g>
<!-- PWM -->
<g id="node9" class="node">
<title>PWM</title>
<ellipse fill="none" stroke="black" cx="564.92" cy="-727.48" rx="36" ry="18"/>
<text text-anchor="middle" x="564.92" y="-723.78" font-family="Times,serif" font-size="14.00">PWM</text>
</g>
<!-- RC&#45;Servo&#45;&gt;PWM -->
<g id="edge7" class="edge">
<title>RC&#45;Servo&#45;&gt;PWM</title>
<path fill="none" stroke="black" d="M225.69,-727.48C311.44,-727.48 461.32,-727.48 529,-727.48"/>
<polygon fill="black" stroke="black" points="225.56,-723.98 215.56,-727.48 225.56,-730.98 225.56,-723.98"/>
</g>
<!-- PWM&#45;&gt;FPGA -->
<g id="edge8" class="edge">
<title>PWM&#45;&gt;FPGA</title>
<path fill="none" stroke="black" d="M609.47,-734.19C655.07,-738.65 726.2,-738.01 771.39,-700.48 834.25,-648.26 842.75,-540.37 843.55,-497.56"/>
<polygon fill="black" stroke="black" points="609.63,-730.69 599.3,-733.07 608.86,-737.64 609.63,-730.69"/>
</g>
<!-- HY&#45;VFD -->
<g id="node10" class="node">
<title>HY&#45;VFD</title>
<ellipse fill="none" stroke="black" cx="161.22" cy="-654.48" rx="46.29" ry="18"/>
<text text-anchor="middle" x="161.22" y="-650.78" font-family="Times,serif" font-size="14.00">HY&#45;VFD</text>
</g>
<!-- MODBUS\nlevel&#45;converter\n(MAX485) -->
<g id="node11" class="node">
<title>MODBUS\nlevel&#45;converter\n(MAX485)</title>
<ellipse fill="none" stroke="black" cx="564.92" cy="-654.48" rx="87.86" ry="37.45"/>
<text text-anchor="middle" x="564.92" y="-665.78" font-family="Times,serif" font-size="14.00">MODBUS</text>
<text text-anchor="middle" x="564.92" y="-650.78" font-family="Times,serif" font-size="14.00">level&#45;converter</text>
<text text-anchor="middle" x="564.92" y="-635.78" font-family="Times,serif" font-size="14.00">(MAX485)</text>
</g>
<!-- HY&#45;VFD&#45;&gt;MODBUS\nlevel&#45;converter\n(MAX485) -->
<g id="edge9" class="edge">
<title>HY&#45;VFD&#45;&gt;MODBUS\nlevel&#45;converter\n(MAX485)</title>
<path fill="none" stroke="black" d="M217.87,-654.48C282.01,-654.48 388.61,-654.48 466.58,-654.48"/>
<polygon fill="black" stroke="black" points="217.52,-650.98 207.52,-654.48 217.52,-657.98 217.52,-650.98"/>
<polygon fill="black" stroke="black" points="466.9,-657.98 476.9,-654.48 466.9,-650.98 466.9,-657.98"/>
</g>
<!-- MODBUS\nlevel&#45;converter\n(MAX485)&#45;&gt;FPGA -->
<g id="edge10" class="edge">
<title>MODBUS\nlevel&#45;converter\n(MAX485)&#45;&gt;FPGA</title>
<path fill="none" stroke="black" d="M662.6,-648.93C699.54,-642.79 740.24,-630.75 771.39,-607.48 805.02,-582.36 825.19,-536.63 835.3,-507.17"/>
<polygon fill="black" stroke="black" points="661.64,-645.54 652.29,-650.51 662.7,-652.45 661.64,-645.54"/>
<polygon fill="black" stroke="black" points="838.69,-508.09 838.47,-497.49 832.03,-505.91 838.69,-508.09"/>
</g>
<!-- Encoder\nOptical for joint feedback (closed&#45;loop)\nmechanical for user inputs -->
<g id="node12" class="node">
<title>Encoder\nOptical for joint feedback (closed&#45;loop)\nmechanical for user inputs</title>
<ellipse fill="none" stroke="black" cx="564.92" cy="-561.48" rx="206.45" ry="37.45"/>
<text text-anchor="middle" x="564.92" y="-572.78" font-family="Times,serif" font-size="14.00">Encoder</text>
<text text-anchor="middle" x="564.92" y="-557.78" font-family="Times,serif" font-size="14.00">Optical for joint feedback (closed&#45;loop)</text>
<text text-anchor="middle" x="564.92" y="-542.78" font-family="Times,serif" font-size="14.00">mechanical for user inputs</text>
</g>
<!-- Encoder\nOptical for joint feedback (closed&#45;loop)\nmechanical for user inputs&#45;&gt;FPGA -->
<g id="edge11" class="edge">
<title>Encoder\nOptical for joint feedback (closed&#45;loop)\nmechanical for user inputs&#45;&gt;FPGA</title>
<path fill="none" stroke="black" d="M708.13,-534.38C729.57,-528.94 751.24,-522.64 771.39,-515.48 784.72,-510.73 798.77,-504.11 810.89,-497.84"/>
<polygon fill="black" stroke="black" points="812.54,-500.93 819.74,-493.15 809.26,-494.75 812.54,-500.93"/>
</g>
<!-- ADC\n(tlc549c / ads1115) -->
<g id="node13" class="node">
<title>ADC\n(tlc549c / ads1115)</title>
<ellipse fill="none" stroke="black" cx="564.92" cy="-479.48" rx="108.79" ry="26.74"/>
<text text-anchor="middle" x="564.92" y="-483.28" font-family="Times,serif" font-size="14.00">ADC</text>
<text text-anchor="middle" x="564.92" y="-468.28" font-family="Times,serif" font-size="14.00">(tlc549c / ads1115)</text>
</g>
<!-- ADC\n(tlc549c / ads1115)&#45;&gt;FPGA -->
<g id="edge12" class="edge">
<title>ADC\n(tlc549c / ads1115)&#45;&gt;FPGA</title>
<path fill="none" stroke="black" d="M674.01,-479.48C716.58,-479.48 763.21,-479.48 796.75,-479.48"/>
<polygon fill="black" stroke="black" points="797.16,-482.98 807.16,-479.48 797.16,-475.98 797.16,-482.98"/>
</g>
<!-- Sensors\n(ds18b20 / lm75) -->
<g id="node14" class="node">
<title>Sensors\n(ds18b20 / lm75)</title>
<ellipse fill="none" stroke="black" cx="564.92" cy="-407.48" rx="97.66" ry="26.74"/>
<text text-anchor="middle" x="564.92" y="-411.28" font-family="Times,serif" font-size="14.00">Sensors</text>
<text text-anchor="middle" x="564.92" y="-396.28" font-family="Times,serif" font-size="14.00">(ds18b20 / lm75)</text>
</g>
<!-- Sensors\n(ds18b20 / lm75)&#45;&gt;FPGA -->
<g id="edge13" class="edge">
<title>Sensors\n(ds18b20 / lm75)&#45;&gt;FPGA</title>
<path fill="none" stroke="black" d="M655.8,-417.46C692.26,-422.99 734.42,-431.29 771.39,-443.48 784.94,-447.94 799.13,-454.56 811.29,-460.92"/>
<polygon fill="black" stroke="black" points="809.7,-464.03 820.16,-465.68 813.01,-457.86 809.7,-464.03"/>
</g>
<!-- Counter\n(up/down/reset) -->
<g id="node15" class="node">
<title>Counter\n(up/down/reset)</title>
<ellipse fill="none" stroke="black" cx="564.92" cy="-335.48" rx="91.43" ry="26.74"/>
<text text-anchor="middle" x="564.92" y="-339.28" font-family="Times,serif" font-size="14.00">Counter</text>
<text text-anchor="middle" x="564.92" y="-324.28" font-family="Times,serif" font-size="14.00">(up/down/reset)</text>
</g>
<!-- Counter\n(up/down/reset)&#45;&gt;FPGA -->
<g id="edge14" class="edge">
<title>Counter\n(up/down/reset)&#45;&gt;FPGA</title>
<path fill="none" stroke="black" d="M656.34,-335.88C694.42,-339.79 737.64,-349.47 771.39,-371.48 801.06,-390.83 821.45,-427.11 832.78,-452.26"/>
<polygon fill="black" stroke="black" points="829.64,-453.81 836.81,-461.61 836.06,-451.04 829.64,-453.81"/>
</g>
<!-- Digial&#45;Input\n(switches/buttons/sensors/...) -->
<g id="node16" class="node">
<title>Digial&#45;Input\n(switches/buttons/sensors/...)</title>
<ellipse fill="none" stroke="black" cx="564.92" cy="-263.48" rx="159.61" ry="26.74"/>
<text text-anchor="middle" x="564.92" y="-267.28" font-family="Times,serif" font-size="14.00">Digial&#45;Input</text>
<text text-anchor="middle" x="564.92" y="-252.28" font-family="Times,serif" font-size="14.00">(switches/buttons/sensors/...)</text>
</g>
<!-- Digial&#45;Input\n(switches/buttons/sensors/...)&#45;&gt;FPGA -->
<g id="edge15" class="edge">
<title>Digial&#45;Input\n(switches/buttons/sensors/...)&#45;&gt;FPGA</title>
<path fill="none" stroke="black" d="M717.36,-271.66C736.95,-277.78 755.64,-286.7 771.39,-299.48 818.42,-337.64 834.93,-411.07 840.59,-451.35"/>
<polygon fill="black" stroke="black" points="837.12,-451.82 841.86,-461.3 844.07,-450.94 837.12,-451.82"/>
</g>
<!-- Digial&#45;Output\n(spindle/flood/LED&#39;s/...) -->
<g id="node17" class="node">
<title>Digial&#45;Output\n(spindle/flood/LED&#39;s/...)</title>
<ellipse fill="none" stroke="black" cx="564.92" cy="-191.48" rx="129.3" ry="26.74"/>
<text text-anchor="middle" x="564.92" y="-195.28" font-family="Times,serif" font-size="14.00">Digial&#45;Output</text>
<text text-anchor="middle" x="564.92" y="-180.28" font-family="Times,serif" font-size="14.00">(spindle/flood/LED&#39;s/...)</text>
</g>
<!-- Digial&#45;Output\n(spindle/flood/LED&#39;s/...)&#45;&gt;FPGA -->
<g id="edge16" class="edge">
<title>Digial&#45;Output\n(spindle/flood/LED&#39;s/...)&#45;&gt;FPGA</title>
<path fill="none" stroke="black" d="M704.37,-194.14C728.97,-200.28 752.68,-210.63 771.39,-227.48 840.89,-290.04 845.24,-414.54 844.25,-461.23"/>
<polygon fill="black" stroke="black" points="705.06,-190.71 694.54,-191.91 703.52,-197.53 705.06,-190.71"/>
</g>
<!-- PWM&#45;Output\n(spindle&#45;speed/...) -->
<g id="node18" class="node">
<title>PWM&#45;Output\n(spindle&#45;speed/...)</title>
<ellipse fill="none" stroke="black" cx="564.92" cy="-119.48" rx="101.23" ry="26.74"/>
<text text-anchor="middle" x="564.92" y="-123.28" font-family="Times,serif" font-size="14.00">PWM&#45;Output</text>
<text text-anchor="middle" x="564.92" y="-108.28" font-family="Times,serif" font-size="14.00">(spindle&#45;speed/...)</text>
</g>
<!-- PWM&#45;Output\n(spindle&#45;speed/...)&#45;&gt;FPGA -->
<g id="edge17" class="edge">
<title>PWM&#45;Output\n(spindle&#45;speed/...)&#45;&gt;FPGA</title>
<path fill="none" stroke="black" d="M674.71,-115.66C709.56,-119.92 745.71,-130.94 771.39,-155.48 816.38,-198.47 836.74,-399.57 842.01,-461.37"/>
<polygon fill="black" stroke="black" points="674.76,-112.14 664.45,-114.59 674.03,-119.11 674.76,-112.14"/>
</g>
<!-- extra GPIO&#39;s\n(Buttons/LED&#39;s)\n(do not use for realtime stuff) -->
<g id="node19" class="node">
<title>extra GPIO&#39;s\n(Buttons/LED&#39;s)\n(do not use for realtime stuff)</title>
<ellipse fill="none" stroke="black" cx="161.22" cy="-37.48" rx="161.44" ry="37.45"/>
<text text-anchor="middle" x="161.22" y="-48.78" font-family="Times,serif" font-size="14.00">extra GPIO&#39;s</text>
<text text-anchor="middle" x="161.22" y="-33.78" font-family="Times,serif" font-size="14.00">(Buttons/LED&#39;s)</text>
<text text-anchor="middle" x="161.22" y="-18.78" font-family="Times,serif" font-size="14.00">(do not use for realtime stuff)</text>
</g>
<!-- IO&#45;Extensions\n(shiftreg/pcf8574)\n(for extra Digital&#45;Ports) -->
<g id="node20" class="node">
<title>IO&#45;Extensions\n(shiftreg/pcf8574)\n(for extra Digital&#45;Ports)</title>
<ellipse fill="none" stroke="black" cx="564.92" cy="-37.48" rx="130.22" ry="37.45"/>
<text text-anchor="middle" x="564.92" y="-48.78" font-family="Times,serif" font-size="14.00">IO&#45;Extensions</text>
<text text-anchor="middle" x="564.92" y="-33.78" font-family="Times,serif" font-size="14.00">(shiftreg/pcf8574)</text>
<text text-anchor="middle" x="564.92" y="-18.78" font-family="Times,serif" font-size="14.00">(for extra Digital&#45;Ports)</text>
</g>
<!-- extra GPIO&#39;s\n(Buttons/LED&#39;s)\n(do not use for realtime stuff)&#45;&gt;IO&#45;Extensions\n(shiftreg/pcf8574)\n(for extra Digital&#45;Ports) -->
<g id="edge18" class="edge">
<title>extra GPIO&#39;s\n(Buttons/LED&#39;s)\n(do not use for realtime stuff)&#45;&gt;IO&#45;Extensions\n(shiftreg/pcf8574)\n(for extra Digital&#45;Ports)</title>
<path fill="none" stroke="black" d="M332.77,-37.48C363.26,-37.48 394.71,-37.48 424.21,-37.48"/>
<polygon fill="black" stroke="black" points="332.71,-33.98 322.71,-37.48 332.71,-40.98 332.71,-33.98"/>
<polygon fill="black" stroke="black" points="424.56,-40.98 434.56,-37.48 424.56,-33.98 424.56,-40.98"/>
</g>
<!-- IO&#45;Extensions\n(shiftreg/pcf8574)\n(for extra Digital&#45;Ports)&#45;&gt;FPGA -->
<g id="edge19" class="edge">
<title>IO&#45;Extensions\n(shiftreg/pcf8574)\n(for extra Digital&#45;Ports)&#45;&gt;FPGA</title>
<path fill="none" stroke="black" d="M703.7,-45.24C729.05,-52.61 753.2,-64.54 771.39,-83.48 822.35,-136.53 838.22,-370.18 842.25,-451.48"/>
<polygon fill="black" stroke="black" points="704.51,-41.83 693.94,-42.64 702.7,-48.6 704.51,-41.83"/>
<polygon fill="black" stroke="black" points="838.75,-451.65 842.72,-461.47 845.75,-451.32 838.75,-451.65"/>
</g>
<!-- LinuxCNC\n(RPI4/PC/Laptop) -->
<g id="node23" class="node">
<title>LinuxCNC\n(RPI4/PC/Laptop)</title>
<ellipse fill="none" stroke="black" cx="1172.69" cy="-479.48" rx="98.99" ry="26.74"/>
<text text-anchor="middle" x="1172.69" y="-483.28" font-family="Times,serif" font-size="14.00">LinuxCNC</text>
<text text-anchor="middle" x="1172.69" y="-468.28" font-family="Times,serif" font-size="14.00">(RPI4/PC/Laptop)</text>
</g>
<!-- SPI&#45;&gt;LinuxCNC\n(RPI4/PC/Laptop) -->
<g id="edge23" class="edge">
<title>SPI&#45;&gt;LinuxCNC\n(RPI4/PC/Laptop)</title>
<path fill="none" stroke="black" d="M1014.14,-505.58C1032.17,-502.6 1055.01,-498.81 1077.66,-495.06"/>
<polygon fill="black" stroke="black" points="1013.52,-502.14 1004.23,-507.23 1014.67,-509.05 1013.52,-502.14"/>
<polygon fill="black" stroke="black" points="1078.39,-498.48 1087.69,-493.4 1077.25,-491.58 1078.39,-498.48"/>
</g>
<!-- Ethernet\n(optional)&#45;&gt;LinuxCNC\n(RPI4/PC/Laptop) -->
<g id="edge22" class="edge">
<title>Ethernet\n(optional)&#45;&gt;LinuxCNC\n(RPI4/PC/Laptop)</title>
<path fill="none" stroke="lightgray" d="M1044.71,-459.09C1055.18,-460.77 1066.19,-462.54 1077.16,-464.3"/>
<polygon fill="lightgray" stroke="lightgray" points="1044.87,-455.57 1034.44,-457.44 1043.76,-462.48 1044.87,-455.57"/>
<polygon fill="lightgray" stroke="lightgray" points="1076.78,-467.79 1087.21,-465.91 1077.89,-460.87 1076.78,-467.79"/>
</g>
</g>
</svg>
