<?xml version="1.0" encoding="UTF-8" standalone="no"?>
<!DOCTYPE svg PUBLIC "-//W3C//DTD SVG 1.1//EN"
 "http://www.w3.org/Graphics/SVG/1.1/DTD/svg11.dtd">
<!-- Generated by graphviz version 2.43.0 (0)
 -->
<!-- Title: %3 Pages: 1 -->
<svg width="1604pt" height="931pt"
 viewBox="0.00 0.00 1604.17 930.87" xmlns="http://www.w3.org/2000/svg" xmlns:xlink="http://www.w3.org/1999/xlink">
<g id="graph0" class="graph" transform="scale(1 1) rotate(0) translate(4 926.87)">
<title>%3</title>
<polygon fill="white" stroke="transparent" points="-4,4 -4,-926.87 1600.17,-926.87 1600.17,4 -4,4"/>
<g id="clust1" class="cluster">
<title>cluster_0</title>
<polygon fill="none" stroke="black" points="801.39,-211.87 801.39,-914.87 1107.39,-914.87 1107.39,-211.87 801.39,-211.87"/>
</g>
<!-- FPGA -->
<g id="node1" class="node">
<title>FPGA</title>
<polygon fill="none" stroke="black" points="1021.39,-609.37 964.39,-609.37 964.39,-552.37 1021.39,-552.37 1021.39,-609.37"/>
<polyline fill="none" stroke="black" points="976.39,-609.37 964.39,-597.37 "/>
<polyline fill="none" stroke="black" points="964.39,-564.37 976.39,-552.37 "/>
<polyline fill="none" stroke="black" points="1009.39,-552.37 1021.39,-564.37 "/>
<polyline fill="none" stroke="black" points="1021.39,-597.37 1009.39,-609.37 "/>
<text text-anchor="middle" x="992.89" y="-577.17" font-family="Times,serif" font-size="14.00">FPGA</text>
</g>
<!-- SPI -->
<g id="node8" class="node">
<title>SPI</title>
<polygon fill="none" stroke="black" points="1099.39,-601.37 1058.39,-601.37 1058.39,-560.37 1099.39,-560.37 1099.39,-601.37"/>
<text text-anchor="middle" x="1078.89" y="-577.17" font-family="Times,serif" font-size="14.00">SPI</text>
</g>
<!-- FPGA&#45;&gt;SPI -->
<g id="edge8" class="edge">
<title>FPGA&#45;&gt;SPI</title>
<path fill="none" stroke="black" d="M1031.6,-580.87C1037.08,-580.87 1042.65,-580.87 1047.95,-580.87"/>
<polygon fill="black" stroke="black" points="1031.4,-577.37 1021.4,-580.87 1031.4,-584.37 1031.4,-577.37"/>
<polygon fill="black" stroke="black" points="1048.31,-584.37 1058.31,-580.87 1048.31,-577.37 1048.31,-584.37"/>
</g>
<!-- STEP/DIR -->
<g id="node2" class="node">
<title>STEP/DIR</title>
<polygon fill="none" stroke="black" points="911.89,-906.37 824.89,-906.37 824.89,-819.37 911.89,-819.37 911.89,-906.37"/>
<text text-anchor="middle" x="868.39" y="-859.17" font-family="Times,serif" font-size="14.00">STEP/DIR</text>
</g>
<!-- STEP/DIR&#45;&gt;FPGA -->
<g id="edge1" class="edge">
<title>STEP/DIR&#45;&gt;FPGA</title>
<path fill="none" stroke="black" d="M918.84,-822.52C921.98,-818.79 924.89,-814.89 927.39,-810.87 967.82,-745.91 983.47,-655.12 989.07,-609.47"/>
<polygon fill="black" stroke="black" points="916.24,-820.17 912.08,-829.92 921.41,-824.89 916.24,-820.17"/>
</g>
<!-- PWM/DIR -->
<g id="node3" class="node">
<title>PWM/DIR</title>
<polygon fill="none" stroke="black" points="911.39,-623.87 825.39,-623.87 825.39,-537.87 911.39,-537.87 911.39,-623.87"/>
<text text-anchor="middle" x="868.39" y="-577.17" font-family="Times,serif" font-size="14.00">PWM/DIR</text>
</g>
<!-- PWM/DIR&#45;&gt;FPGA -->
<g id="edge2" class="edge">
<title>PWM/DIR&#45;&gt;FPGA</title>
<path fill="none" stroke="black" d="M921.56,-580.87C936.24,-580.87 951.64,-580.87 964.27,-580.87"/>
<polygon fill="black" stroke="black" points="921.55,-577.37 911.55,-580.87 921.55,-584.37 921.55,-577.37"/>
</g>
<!-- PWM -->
<g id="node4" class="node">
<title>PWM</title>
<polygon fill="none" stroke="black" points="895.89,-801.37 840.89,-801.37 840.89,-746.37 895.89,-746.37 895.89,-801.37"/>
<text text-anchor="middle" x="868.39" y="-770.17" font-family="Times,serif" font-size="14.00">PWM</text>
</g>
<!-- PWM&#45;&gt;FPGA -->
<g id="edge3" class="edge">
<title>PWM&#45;&gt;FPGA</title>
<path fill="none" stroke="black" d="M904.52,-756.31C912.81,-750.93 921.07,-744.41 927.39,-736.87 959.2,-698.91 977.12,-643.08 985.63,-609.52"/>
<polygon fill="black" stroke="black" points="902.69,-753.32 895.94,-761.49 906.31,-759.31 902.69,-753.32"/>
</g>
<!-- GPIO -->
<g id="node5" class="node">
<title>GPIO</title>
<polygon fill="none" stroke="black" points="895.39,-273.87 841.39,-273.87 841.39,-219.87 895.39,-219.87 895.39,-273.87"/>
<text text-anchor="middle" x="868.39" y="-243.17" font-family="Times,serif" font-size="14.00">GPIO</text>
</g>
<!-- GPIO&#45;&gt;FPGA -->
<g id="edge4" class="edge">
<title>GPIO&#45;&gt;FPGA</title>
<path fill="none" stroke="black" d="M904.58,-262.51C913.17,-267.85 921.56,-274.6 927.39,-282.87 983.37,-362.24 992.24,-480.92 992.77,-541.79"/>
<polygon fill="black" stroke="black" points="906.07,-259.34 895.65,-257.47 902.63,-265.43 906.07,-259.34"/>
<polygon fill="black" stroke="black" points="989.27,-542.11 992.79,-552.11 996.27,-542.1 989.27,-542.11"/>
</g>
<!-- MODBUS -->
<g id="node6" class="node">
<title>MODBUS</title>
<polygon fill="none" stroke="black" points="911.39,-727.87 825.39,-727.87 825.39,-641.87 911.39,-641.87 911.39,-727.87"/>
<text text-anchor="middle" x="868.39" y="-681.17" font-family="Times,serif" font-size="14.00">MODBUS</text>
</g>
<!-- MODBUS&#45;&gt;FPGA -->
<g id="edge5" class="edge">
<title>MODBUS&#45;&gt;FPGA</title>
<path fill="none" stroke="black" d="M919.45,-642.37C931.89,-631.81 944.96,-620.71 956.53,-610.89"/>
<polygon fill="black" stroke="black" points="916.91,-639.94 911.55,-649.08 921.44,-645.28 916.91,-639.94"/>
<polygon fill="black" stroke="black" points="958.91,-613.46 964.27,-604.32 954.38,-608.12 958.91,-613.46"/>
</g>
<!-- COUNTER -->
<g id="node7" class="node">
<title>COUNTER</title>
<polygon fill="none" stroke="black" points="914.39,-519.87 822.39,-519.87 822.39,-427.87 914.39,-427.87 914.39,-519.87"/>
<text text-anchor="middle" x="868.39" y="-470.17" font-family="Times,serif" font-size="14.00">COUNTER</text>
</g>
<!-- COUNTER&#45;&gt;FPGA -->
<g id="edge6" class="edge">
<title>COUNTER&#45;&gt;FPGA</title>
<path fill="none" stroke="black" d="M914.66,-513.41C928.43,-525.44 943.36,-538.48 956.39,-549.86"/>
<polygon fill="black" stroke="black" points="954.4,-552.77 964.23,-556.71 959,-547.49 954.4,-552.77"/>
</g>
<!-- W5500 -->
<g id="node28" class="node">
<title>W5500</title>
<ellipse fill="none" stroke="black" cx="1245.78" cy="-631.87" rx="43.59" ry="18"/>
<text text-anchor="middle" x="1245.78" y="-628.17" font-family="Times,serif" font-size="14.00">W5500</text>
</g>
<!-- SPI&#45;&gt;W5500 -->
<g id="edge27" class="edge">
<title>SPI&#45;&gt;W5500</title>
<path fill="none" stroke="lightgray" d="M1109.04,-591.99C1111.85,-592.99 1114.67,-593.97 1117.39,-594.87 1144.29,-603.78 1174.76,-612.68 1199.16,-619.51"/>
<polygon fill="lightgray" stroke="lightgray" points="1110.24,-588.7 1099.64,-588.56 1107.83,-595.28 1110.24,-588.7"/>
<polygon fill="lightgray" stroke="lightgray" points="1198.3,-622.9 1208.87,-622.21 1200.17,-616.16 1198.3,-622.9"/>
<text text-anchor="middle" x="1128.39" y="-604.67" font-family="Times,serif" font-size="14.00">spi</text>
</g>
<!-- LinuxCNC\n(RPI4/PC/Laptop) -->
<g id="node29" class="node">
<title>LinuxCNC\n(RPI4/PC/Laptop)</title>
<ellipse fill="none" stroke="black" cx="1497.17" cy="-580.87" rx="98.99" ry="26.74"/>
<text text-anchor="middle" x="1497.17" y="-584.67" font-family="Times,serif" font-size="14.00">LinuxCNC</text>
<text text-anchor="middle" x="1497.17" y="-569.67" font-family="Times,serif" font-size="14.00">(RPI4/PC/Laptop)</text>
</g>
<!-- SPI&#45;&gt;LinuxCNC\n(RPI4/PC/Laptop) -->
<g id="edge31" class="edge">
<title>SPI&#45;&gt;LinuxCNC\n(RPI4/PC/Laptop)</title>
<path fill="none" stroke="lightgray" d="M1109.56,-580.87C1166.74,-580.87 1294.74,-580.87 1387.84,-580.87"/>
<polygon fill="lightgray" stroke="lightgray" points="1109.41,-577.37 1099.41,-580.87 1109.41,-584.37 1109.41,-577.37"/>
<polygon fill="lightgray" stroke="lightgray" points="1387.88,-584.37 1397.88,-580.87 1387.88,-577.37 1387.88,-584.37"/>
<text text-anchor="middle" x="1245.78" y="-584.67" font-family="Times,serif" font-size="14.00">spi</text>
</g>
<!-- UDP2SPI Bridge -->
<g id="node30" class="node">
<title>UDP2SPI Bridge</title>
<ellipse fill="none" stroke="black" cx="1245.78" cy="-526.87" rx="88.28" ry="18"/>
<text text-anchor="middle" x="1245.78" y="-523.17" font-family="Times,serif" font-size="14.00">UDP2SPI Bridge</text>
</g>
<!-- SPI&#45;&gt;UDP2SPI Bridge -->
<g id="edge29" class="edge">
<title>SPI&#45;&gt;UDP2SPI Bridge</title>
<path fill="none" stroke="lightgray" d="M1107.81,-557.13C1110.92,-555.15 1114.15,-553.34 1117.39,-551.87 1130.4,-545.97 1144.77,-541.45 1159.04,-538.01"/>
<polygon fill="lightgray" stroke="lightgray" points="1105.56,-554.44 1099.4,-563.06 1109.59,-560.16 1105.56,-554.44"/>
<polygon fill="lightgray" stroke="lightgray" points="1159.9,-541.4 1168.88,-535.78 1158.36,-534.57 1159.9,-541.4"/>
<text text-anchor="middle" x="1128.39" y="-555.67" font-family="Times,serif" font-size="14.00">spi</text>
</g>
<!-- SPI/I2C/1Wire -->
<g id="node9" class="node">
<title>SPI/I2C/1Wire</title>
<polygon fill="none" stroke="black" points="927.39,-409.87 809.39,-409.87 809.39,-291.87 927.39,-291.87 927.39,-409.87"/>
<text text-anchor="middle" x="868.39" y="-347.17" font-family="Times,serif" font-size="14.00">SPI/I2C/1Wire</text>
</g>
<!-- SPI/I2C/1Wire&#45;&gt;FPGA -->
<g id="edge7" class="edge">
<title>SPI/I2C/1Wire&#45;&gt;FPGA</title>
<path fill="none" stroke="black" d="M927.23,-418.6C927.28,-418.69 927.34,-418.78 927.39,-418.87 951.36,-458.63 969.76,-508.89 980.66,-542.8"/>
<polygon fill="black" stroke="black" points="930.12,-416.63 921.76,-410.12 924.24,-420.42 930.12,-416.63"/>
<polygon fill="black" stroke="black" points="977.32,-543.86 983.67,-552.34 984,-541.75 977.32,-543.86"/>
</g>
<!-- STEPPER -->
<g id="node10" class="node">
<title>STEPPER</title>
<ellipse fill="none" stroke="black" cx="161.22" cy="-862.87" rx="55.79" ry="18"/>
<text text-anchor="middle" x="161.22" y="-859.17" font-family="Times,serif" font-size="14.00">STEPPER</text>
</g>
<!-- Stepper&#45;Driver -->
<g id="node11" class="node">
<title>Stepper&#45;Driver</title>
<ellipse fill="none" stroke="black" cx="565.92" cy="-862.87" rx="80.69" ry="18"/>
<text text-anchor="middle" x="565.92" y="-859.17" font-family="Times,serif" font-size="14.00">Stepper&#45;Driver</text>
</g>
<!-- STEPPER&#45;&gt;Stepper&#45;Driver -->
<g id="edge9" class="edge">
<title>STEPPER&#45;&gt;Stepper&#45;Driver</title>
<path fill="none" stroke="black" d="M227.43,-862.87C297.72,-862.87 409.65,-862.87 485.14,-862.87"/>
<polygon fill="black" stroke="black" points="227.37,-859.37 217.37,-862.87 227.37,-866.37 227.37,-859.37"/>
</g>
<!-- Stepper&#45;Driver&#45;&gt;STEP/DIR -->
<g id="edge10" class="edge">
<title>Stepper&#45;Driver&#45;&gt;STEP/DIR</title>
<path fill="none" stroke="black" d="M656.88,-862.87C712.52,-862.87 781.39,-862.87 824.87,-862.87"/>
<polygon fill="black" stroke="black" points="656.65,-859.37 646.65,-862.87 656.65,-866.37 656.65,-859.37"/>
</g>
<!-- UNIPOLAR -->
<g id="node12" class="node">
<title>UNIPOLAR</title>
<ellipse fill="none" stroke="black" cx="161.22" cy="-89.87" rx="62.29" ry="18"/>
<text text-anchor="middle" x="161.22" y="-86.17" font-family="Times,serif" font-size="14.00">UNIPOLAR</text>
</g>
<!-- ULN2803 -->
<g id="node13" class="node">
<title>ULN2803</title>
<ellipse fill="none" stroke="black" cx="565.92" cy="-89.87" rx="55.79" ry="18"/>
<text text-anchor="middle" x="565.92" y="-86.17" font-family="Times,serif" font-size="14.00">ULN2803</text>
</g>
<!-- UNIPOLAR&#45;&gt;ULN2803 -->
<g id="edge11" class="edge">
<title>UNIPOLAR&#45;&gt;ULN2803</title>
<path fill="none" stroke="black" d="M234.17,-89.87C313.15,-89.87 438.23,-89.87 509.8,-89.87"/>
<polygon fill="black" stroke="black" points="233.82,-86.37 223.82,-89.87 233.82,-93.37 233.82,-86.37"/>
</g>
<!-- ULN2803&#45;&gt;GPIO -->
<g id="edge12" class="edge">
<title>ULN2803&#45;&gt;GPIO</title>
<path fill="none" stroke="black" d="M630.47,-85.65C673.36,-85.69 729.7,-91.56 772.39,-116.87 812.79,-140.82 841.08,-189.32 855.75,-219.84"/>
<polygon fill="black" stroke="black" points="630.4,-82.15 620.43,-85.75 630.46,-89.15 630.4,-82.15"/>
</g>
<!-- DC&#45;Servo -->
<g id="node14" class="node">
<title>DC&#45;Servo</title>
<ellipse fill="none" stroke="black" cx="161.22" cy="-615.87" rx="54.69" ry="18"/>
<text text-anchor="middle" x="161.22" y="-612.17" font-family="Times,serif" font-size="14.00">DC&#45;Servo</text>
</g>
<!-- H&#45;Bridge -->
<g id="node15" class="node">
<title>H&#45;Bridge</title>
<ellipse fill="none" stroke="black" cx="565.92" cy="-615.87" rx="52.79" ry="18"/>
<text text-anchor="middle" x="565.92" y="-612.17" font-family="Times,serif" font-size="14.00">H&#45;Bridge</text>
</g>
<!-- DC&#45;Servo&#45;&gt;H&#45;Bridge -->
<g id="edge13" class="edge">
<title>DC&#45;Servo&#45;&gt;H&#45;Bridge</title>
<path fill="none" stroke="black" d="M226.49,-615.87C306.06,-615.87 440.01,-615.87 513.25,-615.87"/>
<polygon fill="black" stroke="black" points="226.11,-612.37 216.11,-615.87 226.11,-619.37 226.11,-612.37"/>
</g>
<!-- H&#45;Bridge&#45;&gt;PWM/DIR -->
<g id="edge14" class="edge">
<title>H&#45;Bridge&#45;&gt;PWM/DIR</title>
<path fill="none" stroke="black" d="M626.1,-608.98C684.83,-602.14 773.35,-591.82 825.26,-585.78"/>
<polygon fill="black" stroke="black" points="625.39,-605.54 615.86,-610.17 626.2,-612.49 625.39,-605.54"/>
</g>
<!-- RC&#45;Servo -->
<g id="node16" class="node">
<title>RC&#45;Servo</title>
<ellipse fill="none" stroke="black" cx="565.92" cy="-795.87" rx="53.89" ry="18"/>
<text text-anchor="middle" x="565.92" y="-792.17" font-family="Times,serif" font-size="14.00">RC&#45;Servo</text>
</g>
<!-- RC&#45;Servo&#45;&gt;PWM -->
<g id="edge15" class="edge">
<title>RC&#45;Servo&#45;&gt;PWM</title>
<path fill="none" stroke="black" d="M629.06,-791.32C694.18,-786.55 793.46,-779.28 840.66,-775.83"/>
<polygon fill="black" stroke="black" points="628.63,-787.84 618.91,-792.06 629.14,-794.82 628.63,-787.84"/>
</g>
<!-- HY&#45;VFD -->
<g id="node17" class="node">
<title>HY&#45;VFD</title>
<ellipse fill="none" stroke="black" cx="161.22" cy="-741.87" rx="46.29" ry="18"/>
<text text-anchor="middle" x="161.22" y="-738.17" font-family="Times,serif" font-size="14.00">HY&#45;VFD</text>
</g>
<!-- MAX485 -->
<g id="node18" class="node">
<title>MAX485</title>
<ellipse fill="none" stroke="black" cx="565.92" cy="-741.87" rx="50.09" ry="18"/>
<text text-anchor="middle" x="565.92" y="-738.17" font-family="Times,serif" font-size="14.00">MAX485</text>
</g>
<!-- HY&#45;VFD&#45;&gt;MAX485 -->
<g id="edge16" class="edge">
<title>HY&#45;VFD&#45;&gt;MAX485</title>
<path fill="none" stroke="black" d="M217.87,-741.87C293.46,-741.87 428.03,-741.87 505.51,-741.87"/>
<polygon fill="black" stroke="black" points="217.63,-738.37 207.63,-741.87 217.63,-745.37 217.63,-738.37"/>
<polygon fill="black" stroke="black" points="505.6,-745.37 515.59,-741.87 505.59,-738.37 505.6,-745.37"/>
</g>
<!-- MAX485&#45;&gt;MODBUS -->
<g id="edge17" class="edge">
<title>MAX485&#45;&gt;MODBUS</title>
<path fill="none" stroke="black" d="M625.26,-736.95C666.65,-732.8 723.33,-725.75 772.39,-714.87 786.52,-711.74 801.57,-707.44 815.42,-703.09"/>
<polygon fill="black" stroke="black" points="624.69,-733.49 615.08,-737.95 625.37,-740.46 624.69,-733.49"/>
<polygon fill="black" stroke="black" points="816.81,-706.32 825.26,-699.92 814.67,-699.65 816.81,-706.32"/>
</g>
<!-- Encoder\nOptical for joint feedback (closed&#45;loop)\nmechanical for user inputs -->
<g id="node19" class="node">
<title>Encoder\nOptical for joint feedback (closed&#45;loop)\nmechanical for user inputs</title>
<ellipse fill="none" stroke="black" cx="565.92" cy="-542.87" rx="206.45" ry="37.45"/>
<text text-anchor="middle" x="565.92" y="-554.17" font-family="Times,serif" font-size="14.00">Encoder</text>
<text text-anchor="middle" x="565.92" y="-539.17" font-family="Times,serif" font-size="14.00">Optical for joint feedback (closed&#45;loop)</text>
<text text-anchor="middle" x="565.92" y="-524.17" font-family="Times,serif" font-size="14.00">mechanical for user inputs</text>
</g>
<!-- Encoder\nOptical for joint feedback (closed&#45;loop)\nmechanical for user inputs&#45;&gt;COUNTER -->
<g id="edge18" class="edge">
<title>Encoder\nOptical for joint feedback (closed&#45;loop)\nmechanical for user inputs&#45;&gt;COUNTER</title>
<path fill="none" stroke="black" d="M697.71,-513.95C722.53,-508.36 748.27,-502.49 772.39,-496.87 785.3,-493.86 799.17,-490.55 812.22,-487.4"/>
<polygon fill="black" stroke="black" points="813.11,-490.78 822.01,-485.03 811.46,-483.98 813.11,-490.78"/>
</g>
<!-- ADC\n(tlc549c / ads1115) -->
<g id="node20" class="node">
<title>ADC\n(tlc549c / ads1115)</title>
<ellipse fill="none" stroke="black" cx="565.92" cy="-224.87" rx="108.79" ry="26.74"/>
<text text-anchor="middle" x="565.92" y="-228.67" font-family="Times,serif" font-size="14.00">ADC</text>
<text text-anchor="middle" x="565.92" y="-213.67" font-family="Times,serif" font-size="14.00">(tlc549c / ads1115)</text>
</g>
<!-- ADC\n(tlc549c / ads1115)&#45;&gt;SPI/I2C/1Wire -->
<g id="edge19" class="edge">
<title>ADC\n(tlc549c / ads1115)&#45;&gt;SPI/I2C/1Wire</title>
<path fill="none" stroke="black" d="M671.77,-231.3C705.24,-236.42 741.57,-245.37 772.39,-260.87 779.87,-264.63 790.92,-273.69 802.86,-284.68"/>
<polygon fill="black" stroke="black" points="800.7,-287.45 810.39,-291.74 805.49,-282.34 800.7,-287.45"/>
</g>
<!-- Sensors\n(ds18b20 / lm75) -->
<g id="node21" class="node">
<title>Sensors\n(ds18b20 / lm75)</title>
<ellipse fill="none" stroke="black" cx="565.92" cy="-388.87" rx="97.66" ry="26.74"/>
<text text-anchor="middle" x="565.92" y="-392.67" font-family="Times,serif" font-size="14.00">Sensors</text>
<text text-anchor="middle" x="565.92" y="-377.67" font-family="Times,serif" font-size="14.00">(ds18b20 / lm75)</text>
</g>
<!-- Sensors\n(ds18b20 / lm75)&#45;&gt;SPI/I2C/1Wire -->
<g id="edge20" class="edge">
<title>Sensors\n(ds18b20 / lm75)&#45;&gt;SPI/I2C/1Wire</title>
<path fill="none" stroke="black" d="M655.04,-377.73C701.05,-371.91 756.49,-364.89 799.19,-359.5"/>
<polygon fill="black" stroke="black" points="799.72,-362.96 809.2,-358.23 798.84,-356.01 799.72,-362.96"/>
</g>
<!-- Counter\n(up/down/reset) -->
<g id="node22" class="node">
<title>Counter\n(up/down/reset)</title>
<ellipse fill="none" stroke="black" cx="565.92" cy="-460.87" rx="91.43" ry="26.74"/>
<text text-anchor="middle" x="565.92" y="-464.67" font-family="Times,serif" font-size="14.00">Counter</text>
<text text-anchor="middle" x="565.92" y="-449.67" font-family="Times,serif" font-size="14.00">(up/down/reset)</text>
</g>
<!-- Counter\n(up/down/reset)&#45;&gt;COUNTER -->
<g id="edge21" class="edge">
<title>Counter\n(up/down/reset)&#45;&gt;COUNTER</title>
<path fill="none" stroke="black" d="M656.25,-464.74C706.86,-466.92 768.57,-469.59 812.17,-471.48"/>
<polygon fill="black" stroke="black" points="812.15,-474.98 822.29,-471.92 812.45,-467.99 812.15,-474.98"/>
</g>
<!-- Digial&#45;Input\n(switches/buttons/sensors/...) -->
<g id="node23" class="node">
<title>Digial&#45;Input\n(switches/buttons/sensors/...)</title>
<ellipse fill="none" stroke="black" cx="565.92" cy="-152.87" rx="159.61" ry="26.74"/>
<text text-anchor="middle" x="565.92" y="-156.67" font-family="Times,serif" font-size="14.00">Digial&#45;Input</text>
<text text-anchor="middle" x="565.92" y="-141.67" font-family="Times,serif" font-size="14.00">(switches/buttons/sensors/...)</text>
</g>
<!-- Digial&#45;Input\n(switches/buttons/sensors/...)&#45;&gt;GPIO -->
<g id="edge22" class="edge">
<title>Digial&#45;Input\n(switches/buttons/sensors/...)&#45;&gt;GPIO</title>
<path fill="none" stroke="black" d="M697.41,-168.15C722.75,-173.22 748.76,-179.95 772.39,-188.87 793.64,-196.89 815.4,-209.76 832.72,-221.35"/>
<polygon fill="black" stroke="black" points="831.12,-224.5 841.35,-227.26 835.08,-218.72 831.12,-224.5"/>
</g>
<!-- Digial&#45;Output\n(spindle/flood/LED&#39;s/...) -->
<g id="node24" class="node">
<title>Digial&#45;Output\n(spindle/flood/LED&#39;s/...)</title>
<ellipse fill="none" stroke="black" cx="565.92" cy="-26.87" rx="129.3" ry="26.74"/>
<text text-anchor="middle" x="565.92" y="-30.67" font-family="Times,serif" font-size="14.00">Digial&#45;Output</text>
<text text-anchor="middle" x="565.92" y="-15.67" font-family="Times,serif" font-size="14.00">(spindle/flood/LED&#39;s/...)</text>
</g>
<!-- Digial&#45;Output\n(spindle/flood/LED&#39;s/...)&#45;&gt;GPIO -->
<g id="edge23" class="edge">
<title>Digial&#45;Output\n(spindle/flood/LED&#39;s/...)&#45;&gt;GPIO</title>
<path fill="none" stroke="black" d="M703.81,-32.84C728.3,-38.73 752.36,-48.15 772.39,-62.87 825.26,-101.73 851.03,-178.69 861.47,-219.69"/>
<polygon fill="black" stroke="black" points="704.56,-29.42 694.04,-30.67 703.05,-36.25 704.56,-29.42"/>
</g>
<!-- PWM&#45;Output\n(spindle&#45;speed/...) -->
<g id="node25" class="node">
<title>PWM&#45;Output\n(spindle&#45;speed/...)</title>
<ellipse fill="none" stroke="black" cx="565.92" cy="-678.87" rx="101.23" ry="26.74"/>
<text text-anchor="middle" x="565.92" y="-682.67" font-family="Times,serif" font-size="14.00">PWM&#45;Output</text>
<text text-anchor="middle" x="565.92" y="-667.67" font-family="Times,serif" font-size="14.00">(spindle&#45;speed/...)</text>
</g>
<!-- PWM&#45;Output\n(spindle&#45;speed/...)&#45;&gt;PWM/DIR -->
<g id="edge24" class="edge">
<title>PWM&#45;Output\n(spindle&#45;speed/...)&#45;&gt;PWM/DIR</title>
<path fill="none" stroke="black" d="M672.03,-668.8C704.94,-663.46 740.87,-655.31 772.39,-642.87 790.71,-635.64 809.21,-624.6 824.96,-613.83"/>
<polygon fill="black" stroke="black" points="671.27,-665.38 661.93,-670.37 672.35,-672.3 671.27,-665.38"/>
</g>
<!-- extra GPIO&#39;s\n(Buttons/LED&#39;s)\n(do not use for realtime stuff) -->
<g id="node26" class="node">
<title>extra GPIO&#39;s\n(Buttons/LED&#39;s)\n(do not use for realtime stuff)</title>
<ellipse fill="none" stroke="black" cx="161.22" cy="-306.87" rx="161.44" ry="37.45"/>
<text text-anchor="middle" x="161.22" y="-318.17" font-family="Times,serif" font-size="14.00">extra GPIO&#39;s</text>
<text text-anchor="middle" x="161.22" y="-303.17" font-family="Times,serif" font-size="14.00">(Buttons/LED&#39;s)</text>
<text text-anchor="middle" x="161.22" y="-288.17" font-family="Times,serif" font-size="14.00">(do not use for realtime stuff)</text>
</g>
<!-- IO&#45;Extensions\n(shiftreg/pcf8574)\n(for extra Digital&#45;Ports) -->
<g id="node27" class="node">
<title>IO&#45;Extensions\n(shiftreg/pcf8574)\n(for extra Digital&#45;Ports)</title>
<ellipse fill="none" stroke="black" cx="565.92" cy="-306.87" rx="130.22" ry="37.45"/>
<text text-anchor="middle" x="565.92" y="-318.17" font-family="Times,serif" font-size="14.00">IO&#45;Extensions</text>
<text text-anchor="middle" x="565.92" y="-303.17" font-family="Times,serif" font-size="14.00">(shiftreg/pcf8574)</text>
<text text-anchor="middle" x="565.92" y="-288.17" font-family="Times,serif" font-size="14.00">(for extra Digital&#45;Ports)</text>
</g>
<!-- extra GPIO&#39;s\n(Buttons/LED&#39;s)\n(do not use for realtime stuff)&#45;&gt;IO&#45;Extensions\n(shiftreg/pcf8574)\n(for extra Digital&#45;Ports) -->
<g id="edge25" class="edge">
<title>extra GPIO&#39;s\n(Buttons/LED&#39;s)\n(do not use for realtime stuff)&#45;&gt;IO&#45;Extensions\n(shiftreg/pcf8574)\n(for extra Digital&#45;Ports)</title>
<path fill="none" stroke="black" d="M332.69,-306.87C363.61,-306.87 395.53,-306.87 425.43,-306.87"/>
<polygon fill="black" stroke="black" points="332.53,-303.37 322.53,-306.87 332.53,-310.37 332.53,-303.37"/>
<polygon fill="black" stroke="black" points="425.49,-310.37 435.49,-306.87 425.49,-303.37 425.49,-310.37"/>
</g>
<!-- IO&#45;Extensions\n(shiftreg/pcf8574)\n(for extra Digital&#45;Ports)&#45;&gt;SPI/I2C/1Wire -->
<g id="edge26" class="edge">
<title>IO&#45;Extensions\n(shiftreg/pcf8574)\n(for extra Digital&#45;Ports)&#45;&gt;SPI/I2C/1Wire</title>
<path fill="none" stroke="black" d="M692.2,-325.22C728.79,-330.57 767.42,-336.23 799.06,-340.86"/>
<polygon fill="black" stroke="black" points="692.63,-321.74 682.23,-323.76 691.62,-328.67 692.63,-321.74"/>
<polygon fill="black" stroke="black" points="798.68,-344.35 809.08,-342.33 799.69,-337.42 798.68,-344.35"/>
</g>
<!-- W5500&#45;&gt;LinuxCNC\n(RPI4/PC/Laptop) -->
<g id="edge28" class="edge">
<title>W5500&#45;&gt;LinuxCNC\n(RPI4/PC/Laptop)</title>
<path fill="none" stroke="lightgray" d="M1295.1,-621.99C1327.01,-615.46 1369.78,-606.72 1407.66,-598.97"/>
<polygon fill="lightgray" stroke="lightgray" points="1294.3,-618.58 1285.2,-624.01 1295.7,-625.44 1294.3,-618.58"/>
<polygon fill="lightgray" stroke="lightgray" points="1408.6,-602.35 1417.69,-596.92 1407.19,-595.49 1408.6,-602.35"/>
<text text-anchor="middle" x="1366.18" y="-612.67" font-family="Times,serif" font-size="14.00">udp</text>
</g>
<!-- UDP2SPI Bridge&#45;&gt;LinuxCNC\n(RPI4/PC/Laptop) -->
<g id="edge30" class="edge">
<title>UDP2SPI Bridge&#45;&gt;LinuxCNC\n(RPI4/PC/Laptop)</title>
<path fill="none" stroke="lightgray" d="M1323.35,-540.41C1341.99,-543.93 1361.83,-547.86 1380.18,-551.87 1391.58,-554.36 1403.58,-557.16 1415.35,-560.01"/>
<polygon fill="lightgray" stroke="lightgray" points="1323.91,-536.95 1313.43,-538.55 1322.62,-543.83 1323.91,-536.95"/>
<polygon fill="lightgray" stroke="lightgray" points="1414.62,-563.43 1425.17,-562.41 1416.29,-556.63 1414.62,-563.43"/>
<text text-anchor="middle" x="1366.18" y="-555.67" font-family="Times,serif" font-size="14.00">udp</text>
</g>
</g>
</svg>
