<?xml version="1.0" encoding="UTF-8" standalone="no"?>
<!DOCTYPE svg PUBLIC "-//W3C//DTD SVG 1.1//EN"
 "http://www.w3.org/Graphics/SVG/1.1/DTD/svg11.dtd">
<!-- Generated by graphviz version 2.43.0 (0)
 -->
<!-- Title: %3 Pages: 1 -->
<svg width="970pt" height="620pt"
 viewBox="0.00 0.00 969.99 620.00" xmlns="http://www.w3.org/2000/svg" xmlns:xlink="http://www.w3.org/1999/xlink">
<g id="graph0" class="graph" transform="scale(1 1) rotate(0) translate(4 616)">
<title>%3</title>
<polygon fill="white" stroke="transparent" points="-4,4 -4,-616 965.99,-616 965.99,4 -4,4"/>
<!-- json&#45;config -->
<g id="node1" class="node">
<title>json&#45;config</title>
<ellipse fill="none" stroke="black" cx="426.99" cy="-594" rx="61.19" ry="18"/>
<text text-anchor="middle" x="426.99" y="-590.3" font-family="Times,serif" font-size="14.00">json&#45;config</text>
</g>
<!-- buildtool.py -->
<g id="node2" class="node">
<title>buildtool.py</title>
<ellipse fill="none" stroke="black" cx="488.99" cy="-522" rx="65.79" ry="18"/>
<text text-anchor="middle" x="488.99" y="-518.3" font-family="Times,serif" font-size="14.00">buildtool.py</text>
</g>
<!-- json&#45;config&#45;&gt;buildtool.py -->
<g id="edge1" class="edge">
<title>json&#45;config&#45;&gt;buildtool.py</title>
<path fill="none" stroke="black" d="M441.68,-576.41C449.29,-567.82 458.74,-557.16 467.18,-547.63"/>
<polygon fill="black" stroke="black" points="469.96,-549.76 473.97,-539.96 464.72,-545.12 469.96,-549.76"/>
</g>
<!-- Output/TARGET -->
<g id="node4" class="node">
<title>Output/TARGET</title>
<ellipse fill="none" stroke="black" cx="488.99" cy="-450" rx="85.29" ry="18"/>
<text text-anchor="middle" x="488.99" y="-446.3" font-family="Times,serif" font-size="14.00">Output/TARGET</text>
</g>
<!-- buildtool.py&#45;&gt;Output/TARGET -->
<g id="edge3" class="edge">
<title>buildtool.py&#45;&gt;Output/TARGET</title>
<path fill="none" stroke="black" d="M488.99,-503.7C488.99,-495.98 488.99,-486.71 488.99,-478.11"/>
<polygon fill="black" stroke="black" points="492.49,-478.1 488.99,-468.1 485.49,-478.1 492.49,-478.1"/>
</g>
<!-- plugins -->
<g id="node3" class="node">
<title>plugins</title>
<ellipse fill="none" stroke="black" cx="550.99" cy="-594" rx="44.69" ry="18"/>
<text text-anchor="middle" x="550.99" y="-590.3" font-family="Times,serif" font-size="14.00">plugins</text>
</g>
<!-- plugins&#45;&gt;buildtool.py -->
<g id="edge2" class="edge">
<title>plugins&#45;&gt;buildtool.py</title>
<path fill="none" stroke="black" d="M536.61,-576.76C528.82,-567.97 519.04,-556.93 510.38,-547.14"/>
<polygon fill="black" stroke="black" points="512.97,-544.8 503.72,-539.63 507.73,-549.44 512.97,-544.8"/>
</g>
<!-- Firmware -->
<g id="node5" class="node">
<title>Firmware</title>
<ellipse fill="none" stroke="black" cx="378.99" cy="-378" rx="55.79" ry="18"/>
<text text-anchor="middle" x="378.99" y="-374.3" font-family="Times,serif" font-size="14.00">Firmware</text>
</g>
<!-- Output/TARGET&#45;&gt;Firmware -->
<g id="edge4" class="edge">
<title>Output/TARGET&#45;&gt;Firmware</title>
<path fill="none" stroke="black" d="M463.48,-432.76C448.16,-423.02 428.52,-410.52 412.02,-400.02"/>
<polygon fill="black" stroke="black" points="413.55,-396.84 403.23,-394.43 409.79,-402.75 413.55,-396.84"/>
</g>
<!-- LinuxCNC -->
<g id="node12" class="node">
<title>LinuxCNC</title>
<ellipse fill="none" stroke="black" cx="672.99" cy="-378" rx="57.69" ry="18"/>
<text text-anchor="middle" x="672.99" y="-374.3" font-family="Times,serif" font-size="14.00">LinuxCNC</text>
</g>
<!-- Output/TARGET&#45;&gt;LinuxCNC -->
<g id="edge13" class="edge">
<title>Output/TARGET&#45;&gt;LinuxCNC</title>
<path fill="none" stroke="black" d="M528.46,-433.98C557.81,-422.82 597.88,-407.57 628.39,-395.97"/>
<polygon fill="black" stroke="black" points="629.83,-399.16 637.93,-392.34 627.34,-392.62 629.83,-399.16"/>
</g>
<!-- Verilog Source&#45;Files -->
<g id="node6" class="node">
<title>Verilog Source&#45;Files</title>
<ellipse fill="none" stroke="black" cx="103.99" cy="-306" rx="103.98" ry="18"/>
<text text-anchor="middle" x="103.99" y="-302.3" font-family="Times,serif" font-size="14.00">Verilog Source&#45;Files</text>
</g>
<!-- Firmware&#45;&gt;Verilog Source&#45;Files -->
<g id="edge5" class="edge">
<title>Firmware&#45;&gt;Verilog Source&#45;Files</title>
<path fill="none" stroke="black" d="M336.62,-366.22C292.18,-354.9 221.73,-336.97 169.99,-323.8"/>
<polygon fill="black" stroke="black" points="170.78,-320.39 160.23,-321.32 169.06,-327.17 170.78,-320.39"/>
</g>
<!-- Pin&#45;Definitions -->
<g id="node7" class="node">
<title>Pin&#45;Definitions</title>
<ellipse fill="none" stroke="black" cx="304.99" cy="-306" rx="79.09" ry="18"/>
<text text-anchor="middle" x="304.99" y="-302.3" font-family="Times,serif" font-size="14.00">Pin&#45;Definitions</text>
</g>
<!-- Firmware&#45;&gt;Pin&#45;Definitions -->
<g id="edge6" class="edge">
<title>Firmware&#45;&gt;Pin&#45;Definitions</title>
<path fill="none" stroke="black" d="M361.83,-360.76C352.35,-351.79 340.39,-340.49 329.9,-330.56"/>
<polygon fill="black" stroke="black" points="332.24,-327.96 322.57,-323.63 327.43,-333.05 332.24,-327.96"/>
</g>
<!-- Makefile -->
<g id="node8" class="node">
<title>Makefile</title>
<ellipse fill="none" stroke="black" cx="452.99" cy="-306" rx="50.89" ry="18"/>
<text text-anchor="middle" x="452.99" y="-302.3" font-family="Times,serif" font-size="14.00">Makefile</text>
</g>
<!-- Firmware&#45;&gt;Makefile -->
<g id="edge7" class="edge">
<title>Firmware&#45;&gt;Makefile</title>
<path fill="none" stroke="black" d="M396.15,-360.76C405.77,-351.66 417.93,-340.16 428.54,-330.13"/>
<polygon fill="black" stroke="black" points="431.06,-332.56 435.92,-323.15 426.25,-327.48 431.06,-332.56"/>
</g>
<!-- Bitstream -->
<g id="node9" class="node">
<title>Bitstream</title>
<ellipse fill="none" stroke="black" cx="452.99" cy="-234" rx="57.39" ry="18"/>
<text text-anchor="middle" x="452.99" y="-230.3" font-family="Times,serif" font-size="14.00">Bitstream</text>
</g>
<!-- Verilog Source&#45;Files&#45;&gt;Bitstream -->
<g id="edge8" class="edge">
<title>Verilog Source&#45;Files&#45;&gt;Bitstream</title>
<path fill="none" stroke="black" d="M169.23,-291.92C234.54,-278.81 334.04,-258.86 396.2,-246.39"/>
<polygon fill="black" stroke="black" points="397.1,-249.78 406.22,-244.38 395.73,-242.92 397.1,-249.78"/>
</g>
<!-- Pin&#45;Definitions&#45;&gt;Bitstream -->
<g id="edge9" class="edge">
<title>Pin&#45;Definitions&#45;&gt;Bitstream</title>
<path fill="none" stroke="black" d="M337.84,-289.46C360.24,-278.87 390.02,-264.78 413.69,-253.59"/>
<polygon fill="black" stroke="black" points="415.21,-256.74 422.76,-249.3 412.22,-250.41 415.21,-256.74"/>
</g>
<!-- Makefile&#45;&gt;Bitstream -->
<g id="edge10" class="edge">
<title>Makefile&#45;&gt;Bitstream</title>
<path fill="none" stroke="black" d="M452.99,-287.7C452.99,-279.98 452.99,-270.71 452.99,-262.11"/>
<polygon fill="black" stroke="black" points="456.49,-262.1 452.99,-252.1 449.49,-262.1 456.49,-262.1"/>
</g>
<!-- FPGA -->
<g id="node11" class="node">
<title>FPGA</title>
<polygon fill="none" stroke="red" points="562.49,-180 505.49,-180 505.49,-144 562.49,-144 562.49,-180"/>
<text text-anchor="middle" x="533.99" y="-158.3" font-family="Times,serif" font-size="14.00">FPGA</text>
</g>
<!-- Bitstream&#45;&gt;FPGA -->
<g id="edge12" class="edge">
<title>Bitstream&#45;&gt;FPGA</title>
<path fill="none" stroke="black" d="M471.78,-216.76C482.11,-207.84 495.11,-196.6 506.55,-186.71"/>
<polygon fill="black" stroke="black" points="508.9,-189.31 514.18,-180.12 504.32,-184.01 508.9,-189.31"/>
</g>
<!-- IceStorm -->
<g id="node10" class="node">
<title>IceStorm</title>
<polygon fill="none" stroke="green" points="603.99,-324 521.99,-324 521.99,-288 603.99,-288 603.99,-324"/>
<text text-anchor="middle" x="562.99" y="-302.3" font-family="Times,serif" font-size="14.00">IceStorm</text>
</g>
<!-- IceStorm&#45;&gt;Bitstream -->
<g id="edge11" class="edge">
<title>IceStorm&#45;&gt;Bitstream</title>
<path fill="none" stroke="black" d="M536.08,-287.88C520.95,-278.25 501.94,-266.15 485.92,-255.95"/>
<polygon fill="black" stroke="black" points="487.69,-252.93 477.37,-250.51 483.93,-258.84 487.69,-252.93"/>
</g>
<!-- SPI -->
<g id="node18" class="node">
<title>SPI</title>
<ellipse fill="none" stroke="black" cx="533.99" cy="-90" rx="27" ry="18"/>
<text text-anchor="middle" x="533.99" y="-86.3" font-family="Times,serif" font-size="14.00">SPI</text>
</g>
<!-- FPGA&#45;&gt;SPI -->
<g id="edge22" class="edge">
<title>FPGA&#45;&gt;SPI</title>
<path fill="none" stroke="blue" stroke-width="2" d="M528.08,-143.7C527.27,-135.87 527.05,-126.44 527.41,-117.73"/>
<polygon fill="blue" stroke="blue" stroke-width="2" points="530.91,-117.85 528.15,-107.62 523.93,-117.34 530.91,-117.85"/>
</g>
<!-- c&#45;header -->
<g id="node13" class="node">
<title>c&#45;header</title>
<ellipse fill="none" stroke="black" cx="672.99" cy="-306" rx="50.89" ry="18"/>
<text text-anchor="middle" x="672.99" y="-302.3" font-family="Times,serif" font-size="14.00">c&#45;header</text>
</g>
<!-- LinuxCNC&#45;&gt;c&#45;header -->
<g id="edge14" class="edge">
<title>LinuxCNC&#45;&gt;c&#45;header</title>
<path fill="none" stroke="black" d="M672.99,-359.7C672.99,-351.98 672.99,-342.71 672.99,-334.11"/>
<polygon fill="black" stroke="black" points="676.49,-334.1 672.99,-324.1 669.49,-334.1 676.49,-334.1"/>
</g>
<!-- c&#45;sources -->
<g id="node14" class="node">
<title>c&#45;sources</title>
<ellipse fill="none" stroke="black" cx="795.99" cy="-306" rx="53.89" ry="18"/>
<text text-anchor="middle" x="795.99" y="-302.3" font-family="Times,serif" font-size="14.00">c&#45;sources</text>
</g>
<!-- LinuxCNC&#45;&gt;c&#45;sources -->
<g id="edge15" class="edge">
<title>LinuxCNC&#45;&gt;c&#45;sources</title>
<path fill="none" stroke="black" d="M699.68,-361.81C717.61,-351.61 741.43,-338.05 760.9,-326.97"/>
<polygon fill="black" stroke="black" points="762.82,-329.91 769.78,-321.92 759.35,-323.82 762.82,-329.91"/>
</g>
<!-- HAL&#45;Component -->
<g id="node15" class="node">
<title>HAL&#45;Component</title>
<ellipse fill="none" stroke="black" cx="733.99" cy="-234" rx="87.18" ry="18"/>
<text text-anchor="middle" x="733.99" y="-230.3" font-family="Times,serif" font-size="14.00">HAL&#45;Component</text>
</g>
<!-- c&#45;header&#45;&gt;HAL&#45;Component -->
<g id="edge16" class="edge">
<title>c&#45;header&#45;&gt;HAL&#45;Component</title>
<path fill="none" stroke="black" d="M687.45,-288.41C694.93,-279.82 704.22,-269.16 712.53,-259.63"/>
<polygon fill="black" stroke="black" points="715.28,-261.79 719.21,-251.96 710.01,-257.2 715.28,-261.79"/>
</g>
<!-- c&#45;sources&#45;&gt;HAL&#45;Component -->
<g id="edge17" class="edge">
<title>c&#45;sources&#45;&gt;HAL&#45;Component</title>
<path fill="none" stroke="black" d="M781.3,-288.41C773.69,-279.82 764.25,-269.16 755.8,-259.63"/>
<polygon fill="black" stroke="black" points="758.26,-257.12 749.01,-251.96 753.02,-261.76 758.26,-257.12"/>
</g>
<!-- RaspberryPI -->
<g id="node17" class="node">
<title>RaspberryPI</title>
<polygon fill="none" stroke="red" points="586.99,-36 480.99,-36 480.99,0 586.99,0 586.99,-36"/>
<text text-anchor="middle" x="533.99" y="-14.3" font-family="Times,serif" font-size="14.00">RaspberryPI</text>
</g>
<!-- HAL&#45;Component&#45;&gt;RaspberryPI -->
<g id="edge19" class="edge">
<title>HAL&#45;Component&#45;&gt;RaspberryPI</title>
<path fill="none" stroke="black" d="M718.3,-216.21C683.11,-178.56 597.81,-87.29 556.78,-43.38"/>
<polygon fill="black" stroke="black" points="559.27,-40.93 549.89,-36.01 554.16,-45.71 559.27,-40.93"/>
</g>
<!-- halcompile -->
<g id="node16" class="node">
<title>halcompile</title>
<polygon fill="none" stroke="green" points="961.99,-324 867.99,-324 867.99,-288 961.99,-288 961.99,-324"/>
<text text-anchor="middle" x="914.99" y="-302.3" font-family="Times,serif" font-size="14.00">halcompile</text>
</g>
<!-- halcompile&#45;&gt;HAL&#45;Component -->
<g id="edge18" class="edge">
<title>halcompile&#45;&gt;HAL&#45;Component</title>
<path fill="none" stroke="black" d="M870.71,-287.88C844.03,-277.56 810.02,-264.4 782.6,-253.8"/>
<polygon fill="black" stroke="black" points="783.79,-250.51 773.2,-250.16 781.26,-257.03 783.79,-250.51"/>
</g>
<!-- RaspberryPI&#45;&gt;SPI -->
<g id="edge20" class="edge">
<title>RaspberryPI&#45;&gt;SPI</title>
<path fill="none" stroke="blue" stroke-width="2" d="M539.92,-36.45C540.72,-44.27 540.93,-53.67 540.57,-62.34"/>
<polygon fill="blue" stroke="blue" stroke-width="2" points="537.07,-62.18 539.83,-72.41 544.05,-62.69 537.07,-62.18"/>
</g>
<!-- SPI&#45;&gt;FPGA -->
<g id="edge21" class="edge">
<title>SPI&#45;&gt;FPGA</title>
<path fill="none" stroke="blue" stroke-width="2" d="M539.83,-107.62C540.68,-115.36 540.93,-124.76 540.6,-133.51"/>
<polygon fill="blue" stroke="blue" stroke-width="2" points="537.09,-133.48 539.91,-143.7 544.08,-133.96 537.09,-133.48"/>
</g>
<!-- SPI&#45;&gt;RaspberryPI -->
<g id="edge23" class="edge">
<title>SPI&#45;&gt;RaspberryPI</title>
<path fill="none" stroke="blue" stroke-width="2" d="M528.15,-72.41C527.31,-64.71 527.05,-55.34 527.38,-46.62"/>
<polygon fill="blue" stroke="blue" stroke-width="2" points="530.88,-46.66 528.06,-36.45 523.9,-46.19 530.88,-46.66"/>
</g>
</g>
</svg>
