<?xml version="1.0" encoding="UTF-8" standalone="no"?>
<!DOCTYPE svg PUBLIC "-//W3C//DTD SVG 1.1//EN"
 "http://www.w3.org/Graphics/SVG/1.1/DTD/svg11.dtd">
<!-- Generated by graphviz version 2.43.0 (0)
 -->
<!-- Title: $paramod&#9586;vout_sine_pwm&#9586;DIVIDER=s32&#39;00000000000000000000000011111111 Pages: 1 -->
<svg width="2961pt" height="463pt"
 viewBox="0.00 0.00 2961.00 463.00" xmlns="http://www.w3.org/2000/svg" xmlns:xlink="http://www.w3.org/1999/xlink">
<g id="graph0" class="graph" transform="scale(1 1) rotate(0) translate(4 459)">
<title>$paramod&#9586;vout_sine_pwm&#9586;DIVIDER=s32&#39;00000000000000000000000011111111</title>
<polygon fill="white" stroke="transparent" points="-4,4 -4,-459 2957,-459 2957,4 -4,4"/>
<!-- n12 -->
<g id="node1" class="node">
<title>n12</title>
<polygon fill="none" stroke="black" points="1014.38,-260.54 1014.38,-275.46 998.56,-286 976.2,-286 960.38,-275.46 960.38,-260.54 976.2,-250 998.56,-250 1014.38,-260.54"/>
<text text-anchor="middle" x="987.38" y="-264.3" font-family="Times,serif" font-size="14.00">clk</text>
</g>
<!-- c28 -->
<g id="node10" class="node">
<title>c28</title>
<polygon fill="none" stroke="black" points="1078.88,-187 1078.88,-279 1230.88,-279 1230.88,-187 1078.88,-187"/>
<text text-anchor="middle" x="1106.88" y="-263.8" font-family="Times,serif" font-size="14.00">CLK</text>
<polyline fill="none" stroke="black" points="1078.88,-256 1134.88,-256 "/>
<text text-anchor="middle" x="1106.88" y="-240.8" font-family="Times,serif" font-size="14.00">D</text>
<polyline fill="none" stroke="black" points="1078.88,-233 1134.88,-233 "/>
<text text-anchor="middle" x="1106.88" y="-217.8" font-family="Times,serif" font-size="14.00">EN</text>
<polyline fill="none" stroke="black" points="1078.88,-210 1134.88,-210 "/>
<text text-anchor="middle" x="1106.88" y="-194.8" font-family="Times,serif" font-size="14.00">SRST</text>
<polyline fill="none" stroke="black" points="1134.88,-187 1134.88,-279 "/>
<text text-anchor="middle" x="1168.88" y="-236.8" font-family="Times,serif" font-size="14.00">$260</text>
<text text-anchor="middle" x="1168.88" y="-221.8" font-family="Times,serif" font-size="14.00">$sdffce</text>
<polyline fill="none" stroke="black" points="1202.88,-187 1202.88,-279 "/>
<text text-anchor="middle" x="1216.88" y="-229.3" font-family="Times,serif" font-size="14.00">Q</text>
</g>
<!-- n12&#45;&gt;c28 -->
<g id="edge7" class="edge">
<title>n12:e&#45;&gt;c28:w</title>
<path fill="none" stroke="#d95f02" d="M1015.38,-268C1039.85,-268 1048.41,-268 1068.66,-268"/>
<polygon fill="#d95f02" stroke="#d95f02" points="1068.88,-271.5 1078.88,-268 1068.88,-264.5 1068.88,-271.5"/>
</g>
<!-- c29 -->
<g id="node11" class="node">
<title>c29</title>
<polygon fill="none" stroke="black" points="2470.14,-136 2470.14,-228 2615.14,-228 2615.14,-136 2470.14,-136"/>
<text text-anchor="middle" x="2498.14" y="-212.8" font-family="Times,serif" font-size="14.00">CLK</text>
<polyline fill="none" stroke="black" points="2470.14,-205 2526.14,-205 "/>
<text text-anchor="middle" x="2498.14" y="-189.8" font-family="Times,serif" font-size="14.00">D</text>
<polyline fill="none" stroke="black" points="2470.14,-182 2526.14,-182 "/>
<text text-anchor="middle" x="2498.14" y="-166.8" font-family="Times,serif" font-size="14.00">EN</text>
<polyline fill="none" stroke="black" points="2470.14,-159 2526.14,-159 "/>
<text text-anchor="middle" x="2498.14" y="-143.8" font-family="Times,serif" font-size="14.00">SRST</text>
<polyline fill="none" stroke="black" points="2526.14,-136 2526.14,-228 "/>
<text text-anchor="middle" x="2556.64" y="-185.8" font-family="Times,serif" font-size="14.00">$261</text>
<text text-anchor="middle" x="2556.64" y="-170.8" font-family="Times,serif" font-size="14.00">$sdffe</text>
<polyline fill="none" stroke="black" points="2587.14,-136 2587.14,-228 "/>
<text text-anchor="middle" x="2601.14" y="-178.3" font-family="Times,serif" font-size="14.00">Q</text>
</g>
<!-- n12&#45;&gt;c29 -->
<g id="edge8" class="edge">
<title>n12:e&#45;&gt;c29:w</title>
<path fill="none" stroke="#d95f02" d="M1015.38,-268C1031.7,-268 1137.56,-317 1153.88,-317 1153.88,-317 1153.88,-317 1682.44,-317 1815.2,-317 1848.38,-315 1981.14,-315 1981.14,-315 1981.14,-315 2352.64,-315 2391.83,-315 2403.85,-305.04 2433.14,-279 2453.94,-260.51 2442.36,-227.46 2459.84,-219.01"/>
<polygon fill="#d95f02" stroke="#d95f02" points="2461,-222.35 2470.14,-217 2459.65,-215.48 2461,-222.35"/>
</g>
<!-- c36 -->
<g id="node21" class="node">
<title>c36</title>
<polygon fill="none" stroke="black" points="1090.88,-116 1090.88,-162 1218.88,-162 1218.88,-116 1090.88,-116"/>
<text text-anchor="middle" x="1114.38" y="-146.8" font-family="Times,serif" font-size="14.00">CLK</text>
<polyline fill="none" stroke="black" points="1090.88,-139 1137.88,-139 "/>
<text text-anchor="middle" x="1114.38" y="-123.8" font-family="Times,serif" font-size="14.00">D</text>
<polyline fill="none" stroke="black" points="1137.88,-116 1137.88,-162 "/>
<text text-anchor="middle" x="1164.38" y="-142.8" font-family="Times,serif" font-size="14.00">$243</text>
<text text-anchor="middle" x="1164.38" y="-127.8" font-family="Times,serif" font-size="14.00">$dff</text>
<polyline fill="none" stroke="black" points="1190.88,-116 1190.88,-162 "/>
<text text-anchor="middle" x="1204.88" y="-135.3" font-family="Times,serif" font-size="14.00">Q</text>
</g>
<!-- n12&#45;&gt;c36 -->
<g id="edge9" class="edge">
<title>n12:e&#45;&gt;c36:w</title>
<path fill="none" stroke="#d95f02" d="M1015.38,-268C1073.29,-268 1033.74,-164.74 1079.85,-152.23"/>
<polygon fill="#d95f02" stroke="#d95f02" points="1080.38,-155.7 1089.88,-151 1079.53,-148.75 1080.38,-155.7"/>
</g>
<!-- n13 -->
<g id="node2" class="node">
<title>n13</title>
<polygon fill="none" stroke="black" points="1383.41,-251 1318.39,-233 1383.41,-215 1448.43,-233 1383.41,-251"/>
<text text-anchor="middle" x="1383.41" y="-229.3" font-family="Times,serif" font-size="14.00">counter</text>
</g>
<!-- c22 -->
<g id="node9" class="node">
<title>c22</title>
<polygon fill="none" stroke="black" points="1535.94,-198 1535.94,-244 1641.94,-244 1641.94,-198 1535.94,-198"/>
<text text-anchor="middle" x="1549.44" y="-228.8" font-family="Times,serif" font-size="14.00">A</text>
<polyline fill="none" stroke="black" points="1535.94,-221 1562.94,-221 "/>
<text text-anchor="middle" x="1549.44" y="-205.8" font-family="Times,serif" font-size="14.00">B</text>
<polyline fill="none" stroke="black" points="1562.94,-198 1562.94,-244 "/>
<text text-anchor="middle" x="1589.44" y="-224.8" font-family="Times,serif" font-size="14.00">$123</text>
<text text-anchor="middle" x="1589.44" y="-209.8" font-family="Times,serif" font-size="14.00">$add</text>
<polyline fill="none" stroke="black" points="1615.94,-198 1615.94,-244 "/>
<text text-anchor="middle" x="1628.94" y="-217.3" font-family="Times,serif" font-size="14.00">Y</text>
</g>
<!-- n13&#45;&gt;c22 -->
<g id="edge11" class="edge">
<title>n13:e&#45;&gt;c22:w</title>
<path fill="none" stroke="#666666" stroke-width="3" d="M1449.41,-233C1484.27,-233 1495.43,-233 1525.84,-233"/>
<polygon fill="#666666" stroke="#666666" stroke-width="3" points="1525.94,-236.5 1535.94,-233 1525.94,-229.5 1525.94,-236.5"/>
<text text-anchor="middle" x="1496.44" y="-236.8" font-family="Times,serif" font-size="14.00" fill="#666666">&lt;32&gt;</text>
</g>
<!-- n14 -->
<g id="node3" class="node">
<title>n14</title>
<polygon fill="none" stroke="black" points="1776.54,-92.54 1776.54,-107.46 1760.73,-118 1738.36,-118 1722.54,-107.46 1722.54,-92.54 1738.36,-82 1760.73,-82 1776.54,-92.54"/>
<text text-anchor="middle" x="1749.54" y="-96.3" font-family="Times,serif" font-size="14.00">dir</text>
</g>
<!-- n15 -->
<g id="node4" class="node">
<title>n15</title>
<polygon fill="none" stroke="black" points="1383.41,-105 1309.85,-87 1383.41,-69 1456.98,-87 1383.41,-105"/>
<text text-anchor="middle" x="1383.41" y="-83.3" font-family="Times,serif" font-size="14.00">direction</text>
</g>
<!-- x9 -->
<g id="node31" class="node">
<title>x9</title>
<path fill="none" stroke="black" d="M1603.94,-108C1603.94,-108 1573.94,-108 1573.94,-108 1567.94,-108 1561.94,-102 1561.94,-96 1561.94,-96 1561.94,-84 1561.94,-84 1561.94,-78 1567.94,-72 1573.94,-72 1573.94,-72 1603.94,-72 1603.94,-72 1609.94,-72 1615.94,-78 1615.94,-84 1615.94,-84 1615.94,-96 1615.94,-96 1615.94,-102 1609.94,-108 1603.94,-108"/>
<text text-anchor="middle" x="1588.94" y="-86.3" font-family="Times,serif" font-size="14.00">BUF</text>
</g>
<!-- n15&#45;&gt;x9 -->
<g id="edge14" class="edge">
<title>n15:e&#45;&gt;x9:w</title>
<path fill="none" stroke="#1b9e77" d="M1456.94,-87C1499.57,-87 1512.69,-89.55 1550.71,-89.95"/>
<polygon fill="#1b9e77" stroke="#1b9e77" points="1550.93,-93.45 1560.94,-90 1550.96,-86.45 1550.93,-93.45"/>
</g>
<!-- n16 -->
<g id="node5" class="node">
<title>n16</title>
<polygon fill="none" stroke="black" points="56.42,-166.54 56.42,-181.46 39.85,-192 16.43,-192 -0.14,-181.46 -0.14,-166.54 16.43,-156 39.85,-156 56.42,-166.54"/>
<text text-anchor="middle" x="28.14" y="-170.3" font-family="Times,serif" font-size="14.00">dty</text>
</g>
<!-- c33 -->
<g id="node18" class="node">
<title>c33</title>
<polygon fill="none" stroke="black" points="135.28,-97 135.28,-143 241.28,-143 241.28,-97 135.28,-97"/>
<text text-anchor="middle" x="148.78" y="-127.8" font-family="Times,serif" font-size="14.00">A</text>
<polyline fill="none" stroke="black" points="135.28,-120 162.28,-120 "/>
<text text-anchor="middle" x="148.78" y="-104.8" font-family="Times,serif" font-size="14.00">B</text>
<polyline fill="none" stroke="black" points="162.28,-97 162.28,-143 "/>
<text text-anchor="middle" x="188.78" y="-123.8" font-family="Times,serif" font-size="14.00">$120</text>
<text text-anchor="middle" x="188.78" y="-108.8" font-family="Times,serif" font-size="14.00">$gt</text>
<polyline fill="none" stroke="black" points="215.28,-97 215.28,-143 "/>
<text text-anchor="middle" x="228.28" y="-116.3" font-family="Times,serif" font-size="14.00">Y</text>
</g>
<!-- n16&#45;&gt;c33 -->
<g id="edge15" class="edge">
<title>n16:e&#45;&gt;c33:w</title>
<path fill="none" stroke="#666666" stroke-width="3" d="M56.28,-174C71.45,-174 61.87,-153.72 74.28,-145 93.95,-131.18 104.53,-131.55 125.07,-131.9"/>
<polygon fill="#666666" stroke="#666666" stroke-width="3" points="125.24,-135.4 135.28,-132 125.32,-128.4 125.24,-135.4"/>
<text text-anchor="middle" x="95.78" y="-148.8" font-family="Times,serif" font-size="14.00" fill="#666666">&lt;32&gt;</text>
</g>
<!-- c35 -->
<g id="node20" class="node">
<title>c35</title>
<polygon fill="none" stroke="black" points="259.28,-198 259.28,-236 364.28,-236 364.28,-198 259.28,-198"/>
<text text-anchor="middle" x="272.28" y="-213.3" font-family="Times,serif" font-size="14.00">A</text>
<polyline fill="none" stroke="black" points="285.28,-198 285.28,-236 "/>
<text text-anchor="middle" x="311.78" y="-220.8" font-family="Times,serif" font-size="14.00">$121</text>
<text text-anchor="middle" x="311.78" y="-205.8" font-family="Times,serif" font-size="14.00">$neg</text>
<polyline fill="none" stroke="black" points="338.28,-198 338.28,-236 "/>
<text text-anchor="middle" x="351.28" y="-213.3" font-family="Times,serif" font-size="14.00">Y</text>
</g>
<!-- n16&#45;&gt;c35 -->
<g id="edge16" class="edge">
<title>n16:e&#45;&gt;c35:w</title>
<path fill="none" stroke="#666666" stroke-width="3" d="M56.28,-174C66.41,-174 64.98,-183.98 74.28,-188 147.38,-219.62 173.78,-217.28 248.86,-217.02"/>
<polygon fill="#666666" stroke="#666666" stroke-width="3" points="249.29,-220.52 259.28,-217 249.27,-213.52 249.29,-220.52"/>
<text text-anchor="middle" x="95.78" y="-206.8" font-family="Times,serif" font-size="14.00" fill="#666666">&lt;32&gt;</text>
</g>
<!-- c41 -->
<g id="node30" class="node">
<title>c41</title>
<polygon fill="none" stroke="black" points="462.28,-151.5 462.28,-220.5 571.28,-220.5 571.28,-151.5 462.28,-151.5"/>
<text text-anchor="middle" x="475.78" y="-205.3" font-family="Times,serif" font-size="14.00">A</text>
<polyline fill="none" stroke="black" points="462.28,-197.5 489.28,-197.5 "/>
<text text-anchor="middle" x="475.78" y="-182.3" font-family="Times,serif" font-size="14.00">B</text>
<polyline fill="none" stroke="black" points="462.28,-174.5 489.28,-174.5 "/>
<text text-anchor="middle" x="475.78" y="-159.3" font-family="Times,serif" font-size="14.00">S</text>
<polyline fill="none" stroke="black" points="489.28,-151.5 489.28,-220.5 "/>
<text text-anchor="middle" x="517.28" y="-189.8" font-family="Times,serif" font-size="14.00">$161</text>
<text text-anchor="middle" x="517.28" y="-174.8" font-family="Times,serif" font-size="14.00">$mux</text>
<polyline fill="none" stroke="black" points="545.28,-151.5 545.28,-220.5 "/>
<text text-anchor="middle" x="558.28" y="-182.3" font-family="Times,serif" font-size="14.00">Y</text>
</g>
<!-- n16&#45;&gt;c41 -->
<g id="edge17" class="edge">
<title>n16:e&#45;&gt;c41:w</title>
<path fill="none" stroke="#666666" stroke-width="3" d="M56.28,-174C193.17,-174 227.64,-165.67 364.28,-174 404.49,-176.45 416.48,-184.51 452.12,-185.82"/>
<polygon fill="#666666" stroke="#666666" stroke-width="3" points="452.22,-189.32 462.28,-186 452.34,-182.32 452.22,-189.32"/>
<text text-anchor="middle" x="311.78" y="-177.8" font-family="Times,serif" font-size="14.00" fill="#666666">&lt;32&gt;</text>
</g>
<!-- n17 -->
<g id="node6" class="node">
<title>n17</title>
<polygon fill="none" stroke="black" points="2702.69,-200 2652.09,-182 2702.69,-164 2753.3,-182 2702.69,-200"/>
<text text-anchor="middle" x="2702.69" y="-178.3" font-family="Times,serif" font-size="14.00">pulse</text>
</g>
<!-- x10 -->
<g id="node32" class="node">
<title>x10</title>
<path fill="none" stroke="black" d="M2832.25,-200C2832.25,-200 2802.25,-200 2802.25,-200 2796.25,-200 2790.25,-194 2790.25,-188 2790.25,-188 2790.25,-176 2790.25,-176 2790.25,-170 2796.25,-164 2802.25,-164 2802.25,-164 2832.25,-164 2832.25,-164 2838.25,-164 2844.25,-170 2844.25,-176 2844.25,-176 2844.25,-188 2844.25,-188 2844.25,-194 2838.25,-200 2832.25,-200"/>
<text text-anchor="middle" x="2817.25" y="-178.3" font-family="Times,serif" font-size="14.00">BUF</text>
</g>
<!-- n17&#45;&gt;x10 -->
<g id="edge19" class="edge">
<title>n17:e&#45;&gt;x10:w</title>
<path fill="none" stroke="#d95f02" d="M2753.25,-182C2765.71,-182 2771.09,-182 2780.12,-182"/>
<polygon fill="#d95f02" stroke="#d95f02" points="2780.25,-185.5 2790.25,-182 2780.25,-178.5 2780.25,-185.5"/>
</g>
<!-- n18 -->
<g id="node7" class="node">
<title>n18</title>
<polygon fill="none" stroke="black" points="2952.88,-174.54 2952.88,-189.46 2931.94,-200 2902.31,-200 2881.37,-189.46 2881.37,-174.54 2902.31,-164 2931.94,-164 2952.88,-174.54"/>
<text text-anchor="middle" x="2917.12" y="-178.3" font-family="Times,serif" font-size="14.00">pwm</text>
</g>
<!-- v0 -->
<g id="node8" class="node">
<title>v0</title>
<ellipse fill="none" stroke="black" cx="1383.41" cy="-179" rx="27" ry="18"/>
<text text-anchor="middle" x="1383.41" y="-175.3" font-family="Times,serif" font-size="14.00">1</text>
</g>
<!-- v0&#45;&gt;c22 -->
<g id="edge41" class="edge">
<title>v0:e&#45;&gt;c22:w</title>
<path fill="none" stroke="#e7298a" stroke-width="3" d="M1411.41,-179C1464.78,-179 1477.5,-205.37 1525.79,-208.66"/>
<polygon fill="#e7298a" stroke="#e7298a" stroke-width="3" points="1525.83,-212.17 1535.94,-209 1526.07,-205.17 1525.83,-212.17"/>
<text text-anchor="middle" x="1496.44" y="-210.8" font-family="Times,serif" font-size="14.00" fill="#e7298a">&lt;32&gt;</text>
</g>
<!-- n5 -->
<g id="node35" class="node">
<title>n5</title>
<ellipse fill="black" stroke="black" cx="1749.54" cy="-257" rx="1.8" ry="1.8"/>
</g>
<!-- c22&#45;&gt;n5 -->
<g id="edge26" class="edge">
<title>c22:e&#45;&gt;n5:w</title>
<path fill="none" stroke="#66a61e" stroke-width="3" d="M1641.94,-221C1687.56,-221 1696.25,-251.98 1736.52,-256.46"/>
<polygon fill="#66a61e" stroke="#66a61e" stroke-width="3" points="1736.37,-259.96 1746.54,-257 1736.74,-252.97 1736.37,-259.96"/>
<text text-anchor="middle" x="1681.44" y="-247.8" font-family="Times,serif" font-size="14.00" fill="#66a61e">&lt;32&gt;</text>
</g>
<!-- c28&#45;&gt;n13 -->
<g id="edge10" class="edge">
<title>c28:e&#45;&gt;n13:w</title>
<path fill="none" stroke="#666666" stroke-width="3" d="M1230.88,-233C1265.73,-233 1276.9,-233 1307.31,-233"/>
<polygon fill="#666666" stroke="#666666" stroke-width="3" points="1307.41,-236.5 1317.41,-233 1307.41,-229.5 1307.41,-236.5"/>
<text text-anchor="middle" x="1270.38" y="-236.8" font-family="Times,serif" font-size="14.00" fill="#666666">&lt;32&gt;</text>
</g>
<!-- c29&#45;&gt;n17 -->
<g id="edge18" class="edge">
<title>c29:e&#45;&gt;n17:w</title>
<path fill="none" stroke="#d95f02" d="M2615.14,-182C2627.6,-182 2632.98,-182 2642.01,-182"/>
<polygon fill="#d95f02" stroke="#d95f02" points="2642.14,-185.5 2652.14,-182 2642.14,-178.5 2642.14,-185.5"/>
</g>
<!-- c30 -->
<g id="node12" class="node">
<title>c30</title>
<polygon fill="none" stroke="black" points="2270.14,-126 2270.14,-164 2433.14,-164 2433.14,-126 2270.14,-126"/>
<text text-anchor="middle" x="2283.14" y="-141.3" font-family="Times,serif" font-size="14.00">A</text>
<polyline fill="none" stroke="black" points="2296.14,-126 2296.14,-164 "/>
<text text-anchor="middle" x="2351.64" y="-148.8" font-family="Times,serif" font-size="14.00">$263</text>
<text text-anchor="middle" x="2351.64" y="-133.8" font-family="Times,serif" font-size="14.00">$reduce_bool</text>
<polyline fill="none" stroke="black" points="2407.14,-126 2407.14,-164 "/>
<text text-anchor="middle" x="2420.14" y="-141.3" font-family="Times,serif" font-size="14.00">Y</text>
</g>
<!-- c30&#45;&gt;c29 -->
<g id="edge30" class="edge">
<title>c30:e&#45;&gt;c29:w</title>
<path fill="none" stroke="#7570b3" d="M2433.14,-145C2448.95,-145 2450.46,-160.88 2460.46,-167.32"/>
<polygon fill="#7570b3" stroke="#7570b3" points="2459.57,-170.71 2470.14,-170 2461.43,-163.96 2459.57,-170.71"/>
</g>
<!-- x1 -->
<g id="node13" class="node">
<title>x1</title>
<path fill="none" stroke="#666666" d="M2120.14,-176C2120.14,-176 2171.14,-176 2171.14,-176 2177.14,-176 2183.14,-182 2183.14,-188 2183.14,-188 2183.14,-210 2183.14,-210 2183.14,-216 2177.14,-222 2171.14,-222 2171.14,-222 2120.14,-222 2120.14,-222 2114.14,-222 2108.14,-216 2108.14,-210 2108.14,-210 2108.14,-188 2108.14,-188 2108.14,-182 2114.14,-176 2120.14,-176"/>
<text text-anchor="middle" x="2145.64" y="-206.8" font-family="Times,serif" font-size="14.00" fill="#666666">0:0 &#45; 1:1</text>
<polyline fill="none" stroke="#666666" points="2108.14,-199 2183.14,-199 "/>
<text text-anchor="middle" x="2145.64" y="-183.8" font-family="Times,serif" font-size="14.00" fill="#666666">0:0 &#45; 0:0</text>
</g>
<!-- x1&#45;&gt;c30 -->
<g id="edge1" class="edge">
<title>x1:e&#45;&gt;c30:w</title>
<path fill="none" stroke="#666666" stroke-width="3" d="M2196.91,-197.44C2225.67,-189.56 2229.26,-154.12 2258.23,-146.46"/>
<polygon fill="none" stroke="#666666" stroke-width="3" points="2196.54,-197.49 2191.1,-202.21 2184.64,-199 2190.09,-194.28 2196.54,-197.49"/>
<polygon fill="none" stroke="#666666" stroke-width="3" points="2258.23,-146.46 2263.7,-141.76 2270.14,-145 2264.67,-149.7 2258.23,-146.46"/>
<text text-anchor="middle" x="2235.14" y="-186.8" font-family="Times,serif" font-size="14.00" fill="#666666">&lt;2&gt;</text>
</g>
<!-- v2 -->
<g id="node14" class="node">
<title>v2</title>
<ellipse fill="none" stroke="black" cx="1749.54" cy="-46" rx="28.7" ry="18"/>
<text text-anchor="middle" x="1749.54" y="-42.3" font-family="Times,serif" font-size="14.00">255</text>
</g>
<!-- c31 -->
<g id="node15" class="node">
<title>c31</title>
<polygon fill="none" stroke="black" points="1857.14,-71 1857.14,-117 1963.14,-117 1963.14,-71 1857.14,-71"/>
<text text-anchor="middle" x="1870.64" y="-101.8" font-family="Times,serif" font-size="14.00">A</text>
<polyline fill="none" stroke="black" points="1857.14,-94 1884.14,-94 "/>
<text text-anchor="middle" x="1870.64" y="-78.8" font-family="Times,serif" font-size="14.00">B</text>
<polyline fill="none" stroke="black" points="1884.14,-71 1884.14,-117 "/>
<text text-anchor="middle" x="1910.64" y="-97.8" font-family="Times,serif" font-size="14.00">$124</text>
<text text-anchor="middle" x="1910.64" y="-82.8" font-family="Times,serif" font-size="14.00">$eq</text>
<polyline fill="none" stroke="black" points="1937.14,-71 1937.14,-117 "/>
<text text-anchor="middle" x="1950.14" y="-90.3" font-family="Times,serif" font-size="14.00">Y</text>
</g>
<!-- v2&#45;&gt;c31 -->
<g id="edge42" class="edge">
<title>v2:e&#45;&gt;c31:w</title>
<path fill="none" stroke="#e6ab02" stroke-width="3" d="M1778.14,-46C1779.09,-46 1826.98,-68.41 1847.73,-77.87"/>
<polygon fill="#e6ab02" stroke="#e6ab02" stroke-width="3" points="1846.58,-81.19 1857.14,-82 1849.39,-74.78 1846.58,-81.19"/>
<text text-anchor="middle" x="1817.64" y="-77.8" font-family="Times,serif" font-size="14.00" fill="#e6ab02">&lt;32&gt;</text>
</g>
<!-- n7 -->
<g id="node36" class="node">
<title>n7</title>
<ellipse fill="black" stroke="black" cx="2027.14" cy="-146" rx="1.8" ry="1.8"/>
</g>
<!-- c31&#45;&gt;n7 -->
<g id="edge31" class="edge">
<title>c31:e&#45;&gt;n7:w</title>
<path fill="none" stroke="#d95f02" d="M1963.14,-94C1994.87,-94 1990.21,-135.25 2013.98,-144.27"/>
<polygon fill="#d95f02" stroke="#d95f02" points="2013.69,-147.77 2024.14,-146 2014.87,-140.87 2013.69,-147.77"/>
</g>
<!-- c32 -->
<g id="node16" class="node">
<title>c32</title>
<polygon fill="none" stroke="black" points="1857.14,-344 1857.14,-390 1963.14,-390 1963.14,-344 1857.14,-344"/>
<text text-anchor="middle" x="1870.64" y="-374.8" font-family="Times,serif" font-size="14.00">A</text>
<polyline fill="none" stroke="black" points="1857.14,-367 1884.14,-367 "/>
<text text-anchor="middle" x="1870.64" y="-351.8" font-family="Times,serif" font-size="14.00">B</text>
<polyline fill="none" stroke="black" points="1884.14,-344 1884.14,-390 "/>
<text text-anchor="middle" x="1910.64" y="-370.8" font-family="Times,serif" font-size="14.00">$125</text>
<text text-anchor="middle" x="1910.64" y="-355.8" font-family="Times,serif" font-size="14.00">$eq</text>
<polyline fill="none" stroke="black" points="1937.14,-344 1937.14,-390 "/>
<text text-anchor="middle" x="1950.14" y="-363.3" font-family="Times,serif" font-size="14.00">Y</text>
</g>
<!-- n8 -->
<g id="node37" class="node">
<title>n8</title>
<ellipse fill="black" stroke="black" cx="2027.14" cy="-345" rx="1.8" ry="1.8"/>
</g>
<!-- c32&#45;&gt;n8 -->
<g id="edge35" class="edge">
<title>c32:e&#45;&gt;n8:w</title>
<path fill="none" stroke="#d95f02" d="M1963.14,-367C1988.24,-367 1994.03,-350.31 2014.15,-346"/>
<polygon fill="#d95f02" stroke="#d95f02" points="2014.54,-349.48 2024.14,-345 2013.84,-342.52 2014.54,-349.48"/>
</g>
<!-- v3 -->
<g id="node17" class="node">
<title>v3</title>
<ellipse fill="none" stroke="black" cx="28.14" cy="-106" rx="27" ry="18"/>
<text text-anchor="middle" x="28.14" y="-102.3" font-family="Times,serif" font-size="14.00">0</text>
</g>
<!-- v3&#45;&gt;c33 -->
<g id="edge43" class="edge">
<title>v3:e&#45;&gt;c33:w</title>
<path fill="none" stroke="#e6ab02" stroke-width="3" d="M56.14,-106C83.32,-106 90.12,-106.02 117.28,-107 120.53,-107.12 122.79,-107.3 124.86,-107.48"/>
<polygon fill="#e6ab02" stroke="#e6ab02" stroke-width="3" points="125.12,-111 135.28,-108 125.46,-104.01 125.12,-111"/>
<text text-anchor="middle" x="95.78" y="-110.8" font-family="Times,serif" font-size="14.00" fill="#e6ab02">&lt;32&gt;</text>
</g>
<!-- n9 -->
<g id="node38" class="node">
<title>n9</title>
<ellipse fill="black" stroke="black" cx="403.78" cy="-120" rx="1.8" ry="1.8"/>
</g>
<!-- c33&#45;&gt;n9 -->
<g id="edge38" class="edge">
<title>c33:e&#45;&gt;n9:w</title>
<path fill="none" stroke="#7570b3" d="M241.28,-120C308.71,-120 328.03,-120 390.76,-120"/>
<polygon fill="#7570b3" stroke="#7570b3" points="390.78,-123.5 400.78,-120 390.78,-116.5 390.78,-123.5"/>
</g>
<!-- c34 -->
<g id="node19" class="node">
<title>c34</title>
<polygon fill="none" stroke="black" points="732.88,-218 732.88,-256 895.88,-256 895.88,-218 732.88,-218"/>
<text text-anchor="middle" x="745.88" y="-233.3" font-family="Times,serif" font-size="14.00">A</text>
<polyline fill="none" stroke="black" points="758.88,-218 758.88,-256 "/>
<text text-anchor="middle" x="814.38" y="-240.8" font-family="Times,serif" font-size="14.00">$122</text>
<text text-anchor="middle" x="814.38" y="-225.8" font-family="Times,serif" font-size="14.00">$reduce_bool</text>
<polyline fill="none" stroke="black" points="869.88,-218 869.88,-256 "/>
<text text-anchor="middle" x="882.88" y="-233.3" font-family="Times,serif" font-size="14.00">Y</text>
</g>
<!-- n10 -->
<g id="node33" class="node">
<title>n10</title>
<ellipse fill="black" stroke="black" cx="987.38" cy="-221" rx="1.8" ry="1.8"/>
</g>
<!-- c34&#45;&gt;n10 -->
<g id="edge3" class="edge">
<title>c34:e&#45;&gt;n10:w</title>
<path fill="none" stroke="#e6ab02" d="M895.88,-237C932.26,-237 942.62,-223.75 974.32,-221.36"/>
<polygon fill="#e6ab02" stroke="#e6ab02" points="974.51,-224.86 984.38,-221 974.26,-217.86 974.51,-224.86"/>
</g>
<!-- c35&#45;&gt;c41 -->
<g id="edge6" class="edge">
<title>c35:e&#45;&gt;c41:w</title>
<path fill="none" stroke="#66a61e" stroke-width="3" d="M364.28,-217C404.4,-217 416.62,-210.26 452.16,-209.15"/>
<polygon fill="#66a61e" stroke="#66a61e" stroke-width="3" points="452.33,-212.65 462.28,-209 452.23,-205.65 452.33,-212.65"/>
<text text-anchor="middle" x="403.78" y="-219.8" font-family="Times,serif" font-size="14.00" fill="#66a61e">&lt;32&gt;</text>
</g>
<!-- c36&#45;&gt;n15 -->
<g id="edge13" class="edge">
<title>c36:e&#45;&gt;n15:w</title>
<path fill="none" stroke="#1b9e77" d="M1219.88,-139C1235.54,-139 1235.48,-127.1 1248.88,-119 1271.91,-105.09 1277.93,-90.91 1299.83,-87.68"/>
<polygon fill="#1b9e77" stroke="#1b9e77" points="1300.14,-91.17 1309.88,-87 1299.67,-84.19 1300.14,-91.17"/>
</g>
<!-- v4 -->
<g id="node22" class="node">
<title>v4</title>
<ellipse fill="none" stroke="black" cx="2027.14" cy="-437" rx="27" ry="18"/>
<text text-anchor="middle" x="2027.14" y="-433.3" font-family="Times,serif" font-size="14.00">1&#39;x</text>
</g>
<!-- c38 -->
<g id="node24" class="node">
<title>c38</title>
<polygon fill="none" stroke="black" points="2091.14,-346.5 2091.14,-415.5 2200.14,-415.5 2200.14,-346.5 2091.14,-346.5"/>
<text text-anchor="middle" x="2104.64" y="-400.3" font-family="Times,serif" font-size="14.00">A</text>
<polyline fill="none" stroke="black" points="2091.14,-392.5 2118.14,-392.5 "/>
<text text-anchor="middle" x="2104.64" y="-377.3" font-family="Times,serif" font-size="14.00">B</text>
<polyline fill="none" stroke="black" points="2091.14,-369.5 2118.14,-369.5 "/>
<text text-anchor="middle" x="2104.64" y="-354.3" font-family="Times,serif" font-size="14.00">S</text>
<polyline fill="none" stroke="black" points="2118.14,-346.5 2118.14,-415.5 "/>
<text text-anchor="middle" x="2146.14" y="-384.8" font-family="Times,serif" font-size="14.00">$132</text>
<text text-anchor="middle" x="2146.14" y="-369.8" font-family="Times,serif" font-size="14.00">$mux</text>
<polyline fill="none" stroke="black" points="2174.14,-346.5 2174.14,-415.5 "/>
<text text-anchor="middle" x="2187.14" y="-377.3" font-family="Times,serif" font-size="14.00">Y</text>
</g>
<!-- v4&#45;&gt;c38 -->
<g id="edge44" class="edge">
<title>v4:e&#45;&gt;c38:w</title>
<path fill="none" stroke="#666666" d="M2054.14,-437C2072.04,-437 2070.73,-415.21 2081.43,-407.05"/>
<polygon fill="#666666" stroke="#666666" points="2082.65,-410.33 2091.14,-404 2080.55,-403.65 2082.65,-410.33"/>
</g>
<!-- v5 -->
<g id="node23" class="node">
<title>v5</title>
<ellipse fill="none" stroke="black" cx="2027.14" cy="-383" rx="27" ry="18"/>
<text text-anchor="middle" x="2027.14" y="-379.3" font-family="Times,serif" font-size="14.00">1&#39;0</text>
</g>
<!-- v5&#45;&gt;c38 -->
<g id="edge45" class="edge">
<title>v5:e&#45;&gt;c38:w</title>
<path fill="none" stroke="#e7298a" d="M2054.14,-383C2066.62,-383 2071.98,-381.85 2081,-381.3"/>
<polygon fill="#e7298a" stroke="#e7298a" points="2081.25,-384.79 2091.14,-381 2081.04,-377.79 2081.25,-384.79"/>
</g>
<!-- c39 -->
<g id="node26" class="node">
<title>c39</title>
<polygon fill="none" stroke="black" points="2297.14,-200.5 2297.14,-269.5 2406.14,-269.5 2406.14,-200.5 2297.14,-200.5"/>
<text text-anchor="middle" x="2310.64" y="-254.3" font-family="Times,serif" font-size="14.00">A</text>
<polyline fill="none" stroke="black" points="2297.14,-246.5 2324.14,-246.5 "/>
<text text-anchor="middle" x="2310.64" y="-231.3" font-family="Times,serif" font-size="14.00">B</text>
<polyline fill="none" stroke="black" points="2297.14,-223.5 2324.14,-223.5 "/>
<text text-anchor="middle" x="2310.64" y="-208.3" font-family="Times,serif" font-size="14.00">S</text>
<polyline fill="none" stroke="black" points="2324.14,-200.5 2324.14,-269.5 "/>
<text text-anchor="middle" x="2352.14" y="-238.8" font-family="Times,serif" font-size="14.00">$147</text>
<text text-anchor="middle" x="2352.14" y="-223.8" font-family="Times,serif" font-size="14.00">$mux</text>
<polyline fill="none" stroke="black" points="2380.14,-200.5 2380.14,-269.5 "/>
<text text-anchor="middle" x="2393.14" y="-231.3" font-family="Times,serif" font-size="14.00">Y</text>
</g>
<!-- c38&#45;&gt;c39 -->
<g id="edge25" class="edge">
<title>c38:e&#45;&gt;c39:w</title>
<path fill="none" stroke="#666666" d="M2200.14,-381C2265.7,-381 2230.64,-270.63 2285.59,-258.99"/>
<polygon fill="#666666" stroke="#666666" points="2286.03,-262.46 2295.64,-258 2285.34,-255.5 2286.03,-262.46"/>
</g>
<!-- v6 -->
<g id="node25" class="node">
<title>v6</title>
<ellipse fill="none" stroke="black" cx="2145.64" cy="-259" rx="27" ry="18"/>
<text text-anchor="middle" x="2145.64" y="-255.3" font-family="Times,serif" font-size="14.00">1&#39;1</text>
</g>
<!-- v6&#45;&gt;c39 -->
<g id="edge46" class="edge">
<title>v6:e&#45;&gt;c39:w</title>
<path fill="none" stroke="#e6ab02" d="M2173.64,-259C2225.34,-259 2238.72,-237.99 2285.48,-235.29"/>
<polygon fill="#e6ab02" stroke="#e6ab02" points="2285.74,-238.78 2295.64,-235 2285.54,-231.78 2285.74,-238.78"/>
</g>
<!-- c39&#45;&gt;c29 -->
<g id="edge24" class="edge">
<title>c39:e&#45;&gt;c29:w</title>
<path fill="none" stroke="#e6ab02" d="M2407.64,-235C2437.1,-235 2437.33,-202.76 2460.17,-195.46"/>
<polygon fill="#e6ab02" stroke="#e6ab02" points="2460.75,-198.91 2470.14,-194 2459.74,-191.99 2460.75,-198.91"/>
</g>
<!-- v7 -->
<g id="node27" class="node">
<title>v7</title>
<ellipse fill="none" stroke="black" cx="814.38" cy="-181" rx="27" ry="18"/>
<text text-anchor="middle" x="814.38" y="-177.3" font-family="Times,serif" font-size="14.00">1&#39;0</text>
</g>
<!-- c40 -->
<g id="node29" class="node">
<title>c40</title>
<polygon fill="none" stroke="black" points="932.88,-92.5 932.88,-161.5 1041.88,-161.5 1041.88,-92.5 932.88,-92.5"/>
<text text-anchor="middle" x="946.38" y="-146.3" font-family="Times,serif" font-size="14.00">A</text>
<polyline fill="none" stroke="black" points="932.88,-138.5 959.88,-138.5 "/>
<text text-anchor="middle" x="946.38" y="-123.3" font-family="Times,serif" font-size="14.00">B</text>
<polyline fill="none" stroke="black" points="932.88,-115.5 959.88,-115.5 "/>
<text text-anchor="middle" x="946.38" y="-100.3" font-family="Times,serif" font-size="14.00">S</text>
<polyline fill="none" stroke="black" points="959.88,-92.5 959.88,-161.5 "/>
<text text-anchor="middle" x="987.88" y="-130.8" font-family="Times,serif" font-size="14.00">$158</text>
<text text-anchor="middle" x="987.88" y="-115.8" font-family="Times,serif" font-size="14.00">$mux</text>
<polyline fill="none" stroke="black" points="1015.88,-92.5 1015.88,-161.5 "/>
<text text-anchor="middle" x="1028.88" y="-123.3" font-family="Times,serif" font-size="14.00">Y</text>
</g>
<!-- v7&#45;&gt;c40 -->
<g id="edge47" class="edge">
<title>v7:e&#45;&gt;c40:w</title>
<path fill="none" stroke="#66a61e" d="M842.38,-181C881.24,-181 889.15,-155.1 922.69,-150.65"/>
<polygon fill="#66a61e" stroke="#66a61e" points="923.12,-154.13 932.88,-150 922.68,-147.14 923.12,-154.13"/>
</g>
<!-- v8 -->
<g id="node28" class="node">
<title>v8</title>
<ellipse fill="none" stroke="black" cx="814.38" cy="-127" rx="27" ry="18"/>
<text text-anchor="middle" x="814.38" y="-123.3" font-family="Times,serif" font-size="14.00">1&#39;1</text>
</g>
<!-- v8&#45;&gt;c40 -->
<g id="edge48" class="edge">
<title>v8:e&#45;&gt;c40:w</title>
<path fill="none" stroke="#d95f02" d="M842.38,-127C878.99,-127 890.61,-127 922.73,-127"/>
<polygon fill="#d95f02" stroke="#d95f02" points="922.88,-130.5 932.88,-127 922.88,-123.5 922.88,-130.5"/>
</g>
<!-- c40&#45;&gt;c36 -->
<g id="edge2" class="edge">
<title>c40:e&#45;&gt;c36:w</title>
<path fill="none" stroke="#e7298a" d="M1041.88,-127C1059.38,-127 1066.11,-127 1079.74,-127"/>
<polygon fill="#e7298a" stroke="#e7298a" points="1079.88,-130.5 1089.88,-127 1079.88,-123.5 1079.88,-130.5"/>
</g>
<!-- n2 -->
<g id="node34" class="node">
<title>n2</title>
<ellipse fill="black" stroke="black" cx="652.08" cy="-237" rx="1.8" ry="1.8"/>
</g>
<!-- c41&#45;&gt;n2 -->
<g id="edge21" class="edge">
<title>c41:e&#45;&gt;n2:w</title>
<path fill="none" stroke="#1b9e77" stroke-width="3" d="M571.28,-186C609.32,-186 608.94,-228.25 640.07,-235.84"/>
<polygon fill="#1b9e77" stroke="#1b9e77" stroke-width="3" points="639.95,-239.35 650.28,-237 640.74,-232.39 639.95,-239.35"/>
<text text-anchor="middle" x="610.78" y="-235.8" font-family="Times,serif" font-size="14.00" fill="#1b9e77">&lt;32&gt;</text>
</g>
<!-- x9&#45;&gt;n14 -->
<g id="edge12" class="edge">
<title>x9:e&#45;&gt;n14:w</title>
<path fill="none" stroke="#7570b3" d="M1616.94,-90C1660,-90 1672.88,-98.5 1711.21,-99.83"/>
<polygon fill="#7570b3" stroke="#7570b3" points="1711.48,-103.33 1721.54,-100 1711.6,-96.33 1711.48,-103.33"/>
</g>
<!-- x10&#45;&gt;n18 -->
<g id="edge20" class="edge">
<title>x10:e&#45;&gt;n18:w</title>
<path fill="none" stroke="#e6ab02" d="M2844.25,-182C2856.71,-182 2862.09,-182 2871.12,-182"/>
<polygon fill="#e6ab02" stroke="#e6ab02" points="2871.25,-185.5 2881.25,-182 2871.25,-178.5 2871.25,-185.5"/>
</g>
<!-- n10&#45;&gt;c28 -->
<g id="edge4" class="edge">
<title>n10:e&#45;&gt;c28:w</title>
<path fill="none" stroke="#e6ab02" d="M990.38,-221C1026.03,-221 1037.44,-221 1068.55,-221"/>
<polygon fill="#e6ab02" stroke="#e6ab02" points="1068.88,-224.5 1078.88,-221 1068.88,-217.5 1068.88,-224.5"/>
</g>
<!-- n10&#45;&gt;c29 -->
<g id="edge5" class="edge">
<title>n10:e&#45;&gt;c29:w</title>
<path fill="none" stroke="#e6ab02" d="M990.38,-221C1112.56,-221 1031.7,0 1153.88,0 1153.88,0 1153.88,0 2352.64,0 2391.03,0 2422.71,-123.87 2460,-144.19"/>
<polygon fill="#e6ab02" stroke="#e6ab02" points="2459.57,-147.71 2470.14,-147 2461.43,-140.96 2459.57,-147.71"/>
</g>
<!-- n2&#45;&gt;c32 -->
<g id="edge22" class="edge">
<title>n2:e&#45;&gt;c32:w</title>
<path fill="none" stroke="#1b9e77" stroke-width="3" d="M653.88,-237C665.51,-237 663.07,-248.4 671.88,-256 730.01,-306.11 736.63,-355 813.38,-355 813.38,-355 813.38,-355 1750.54,-355 1794.22,-355 1807.7,-355 1846.65,-355"/>
<polygon fill="#1b9e77" stroke="#1b9e77" stroke-width="3" points="1847.14,-358.5 1857.14,-355 1847.14,-351.5 1847.14,-358.5"/>
<text text-anchor="middle" x="1270.38" y="-358.8" font-family="Times,serif" font-size="14.00" fill="#1b9e77">&lt;32&gt;</text>
</g>
<!-- n2&#45;&gt;c34 -->
<g id="edge23" class="edge">
<title>n2:e&#45;&gt;c34:w</title>
<path fill="none" stroke="#1b9e77" stroke-width="3" d="M653.88,-237C685.29,-237 695.62,-237 722.59,-237"/>
<polygon fill="#1b9e77" stroke="#1b9e77" stroke-width="3" points="722.88,-240.5 732.88,-237 722.88,-233.5 722.88,-240.5"/>
<text text-anchor="middle" x="693.38" y="-240.8" font-family="Times,serif" font-size="14.00" fill="#1b9e77">&lt;32&gt;</text>
</g>
<!-- n5&#45;&gt;c28 -->
<g id="edge27" class="edge">
<title>n5:e&#45;&gt;c28:w</title>
<path fill="none" stroke="#66a61e" stroke-width="3" d="M1752.54,-257C1753.46,-257 1752.31,-258.3 1751.54,-258.8 1733.35,-270.59 1724.58,-261.69 1702.94,-263 1493.39,-275.71 1440.78,-275.83 1230.88,-279.5 1163.33,-280.68 1127.34,-326.57 1078.88,-279.5 1075.4,-276.12 1072.85,-263.2 1073.39,-254.17"/>
<polygon fill="#66a61e" stroke="#66a61e" stroke-width="3" points="1076.63,-255.52 1077.88,-245 1070.34,-252.44 1076.63,-255.52"/>
<text text-anchor="middle" x="1496.44" y="-277.8" font-family="Times,serif" font-size="14.00" fill="#66a61e">&lt;32&gt;</text>
</g>
<!-- n5&#45;&gt;c31 -->
<g id="edge28" class="edge">
<title>n5:e&#45;&gt;c31:w</title>
<path fill="none" stroke="#66a61e" stroke-width="3" d="M1752.54,-257C1830.51,-257 1780.49,-119.26 1846.96,-106.89"/>
<polygon fill="#66a61e" stroke="#66a61e" stroke-width="3" points="1847.48,-110.35 1857.14,-106 1846.87,-103.38 1847.48,-110.35"/>
<text text-anchor="middle" x="1817.64" y="-223.8" font-family="Times,serif" font-size="14.00" fill="#66a61e">&lt;32&gt;</text>
</g>
<!-- n5&#45;&gt;c32 -->
<g id="edge29" class="edge">
<title>n5:e&#45;&gt;c32:w</title>
<path fill="none" stroke="#66a61e" stroke-width="3" d="M1752.54,-257C1801.75,-257 1810.84,-285.74 1839.14,-326 1850.76,-342.54 1838.96,-367.19 1847.47,-375.85"/>
<polygon fill="#66a61e" stroke="#66a61e" stroke-width="3" points="1846.55,-379.23 1857.14,-379 1848.71,-372.58 1846.55,-379.23"/>
<text text-anchor="middle" x="1817.64" y="-329.8" font-family="Times,serif" font-size="14.00" fill="#66a61e">&lt;32&gt;</text>
</g>
<!-- n7&#45;&gt;c28 -->
<g id="edge32" class="edge">
<title>n7:e&#45;&gt;c28:w</title>
<path fill="none" stroke="#d95f02" d="M2030.14,-146C2031.05,-146 2029.93,-147.33 2029.14,-147.8 1754.09,-310.72 1627.45,-115.34 1309.88,-152 1274.11,-156.13 1266.39,-164.05 1230.88,-170 1197.37,-175.62 1102.65,-162.22 1078.88,-186.5 1078.54,-186.84 1078.22,-187.22 1077.9,-187.63"/>
<polygon fill="#d95f02" stroke="#d95f02" points="1074.4,-187.99 1077.88,-198 1081.4,-188.01 1074.4,-187.99"/>
</g>
<!-- n7&#45;&gt;x1 -->
<g id="edge34" class="edge">
<title>n7:e&#45;&gt;x1:w</title>
<path fill="none" stroke="#d95f02" d="M2030.14,-146C2064.95,-146 2067.82,-179.38 2096.39,-185.9"/>
<polygon fill="#d95f02" stroke="#d95f02" points="2096.32,-189.42 2106.64,-187 2097.07,-182.46 2096.32,-189.42"/>
</g>
<!-- n7&#45;&gt;c39 -->
<g id="edge33" class="edge">
<title>n7:e&#45;&gt;c39:w</title>
<path fill="none" stroke="#d95f02" d="M2030.14,-146C2106.27,-146 2127.01,-145.84 2200.14,-167 2241.69,-179.02 2247.92,-207.12 2285.4,-211.44"/>
<polygon fill="#d95f02" stroke="#d95f02" points="2285.46,-214.95 2295.64,-212 2285.85,-207.96 2285.46,-214.95"/>
</g>
<!-- n8&#45;&gt;x1 -->
<g id="edge37" class="edge">
<title>n8:e&#45;&gt;x1:w</title>
<path fill="none" stroke="#d95f02" d="M2030.14,-345C2094.97,-345 2044.31,-225.26 2096.51,-212.16"/>
<polygon fill="#d95f02" stroke="#d95f02" points="2097.1,-215.61 2106.64,-211 2096.31,-208.66 2097.1,-215.61"/>
</g>
<!-- n8&#45;&gt;c38 -->
<g id="edge36" class="edge">
<title>n8:e&#45;&gt;c38:w</title>
<path fill="none" stroke="#d95f02" d="M2030.14,-345C2054.07,-345 2061.48,-354.69 2080.9,-357.34"/>
<polygon fill="#d95f02" stroke="#d95f02" points="2080.93,-360.85 2091.14,-358 2081.39,-353.86 2080.93,-360.85"/>
</g>
<!-- n9&#45;&gt;c40 -->
<g id="edge39" class="edge">
<title>n9:e&#45;&gt;c40:w</title>
<path fill="none" stroke="#7570b3" d="M406.78,-120C458.23,-120 464.33,-81 515.78,-81 515.78,-81 515.78,-81 815.38,-81 865.06,-81 878.01,-101.05 922.81,-103.71"/>
<polygon fill="#7570b3" stroke="#7570b3" points="922.78,-107.21 932.88,-104 922.98,-100.21 922.78,-107.21"/>
</g>
<!-- n9&#45;&gt;c41 -->
<g id="edge40" class="edge">
<title>n9:e&#45;&gt;c41:w</title>
<path fill="none" stroke="#7570b3" d="M406.78,-120C434.08,-120 432.21,-152.92 452.22,-161.15"/>
<polygon fill="#7570b3" stroke="#7570b3" points="451.81,-164.64 462.28,-163 453.08,-157.75 451.81,-164.64"/>
</g>
</g>
</svg>
