<?xml version="1.0" encoding="UTF-8" standalone="no"?>
<!DOCTYPE svg PUBLIC "-//W3C//DTD SVG 1.1//EN"
 "http://www.w3.org/Graphics/SVG/1.1/DTD/svg11.dtd">
<!-- Generated by graphviz version 2.43.0 (0)
 -->
<!-- Title: joint_stepper_nf Pages: 1 -->
<svg width="2943pt" height="342pt"
 viewBox="0.00 0.00 2943.17 341.50" xmlns="http://www.w3.org/2000/svg" xmlns:xlink="http://www.w3.org/1999/xlink">
<g id="graph0" class="graph" transform="scale(1 1) rotate(0) translate(4 337.5)">
<title>joint_stepper_nf</title>
<polygon fill="white" stroke="transparent" points="-4,4 -4,-337.5 2939.17,-337.5 2939.17,4 -4,4"/>
<!-- n11 -->
<g id="node1" class="node">
<title>n11</title>
<polygon fill="none" stroke="black" points="538.07,-179.04 538.07,-193.96 519.97,-204.5 494.36,-204.5 476.26,-193.96 476.26,-179.04 494.36,-168.5 519.97,-168.5 538.07,-179.04"/>
<text text-anchor="middle" x="507.16" y="-182.8" font-family="Times,serif" font-size="14.00">DIR</text>
</g>
<!-- c38 -->
<g id="node23" class="node">
<title>c38</title>
<polygon fill="none" stroke="black" points="737.12,-213 737.12,-282 846.12,-282 846.12,-213 737.12,-213"/>
<text text-anchor="middle" x="750.62" y="-266.8" font-family="Times,serif" font-size="14.00">A</text>
<polyline fill="none" stroke="black" points="737.12,-259 764.12,-259 "/>
<text text-anchor="middle" x="750.62" y="-243.8" font-family="Times,serif" font-size="14.00">B</text>
<polyline fill="none" stroke="black" points="737.12,-236 764.12,-236 "/>
<text text-anchor="middle" x="750.62" y="-220.8" font-family="Times,serif" font-size="14.00">S</text>
<polyline fill="none" stroke="black" points="764.12,-213 764.12,-282 "/>
<text text-anchor="middle" x="792.12" y="-251.3" font-family="Times,serif" font-size="14.00">$14</text>
<text text-anchor="middle" x="792.12" y="-236.3" font-family="Times,serif" font-size="14.00">$mux</text>
<polyline fill="none" stroke="black" points="820.12,-213 820.12,-282 "/>
<text text-anchor="middle" x="833.12" y="-243.8" font-family="Times,serif" font-size="14.00">Y</text>
</g>
<!-- n11&#45;&gt;c38 -->
<g id="edge5" class="edge">
<title>n11:e&#45;&gt;c38:w</title>
<path fill="none" stroke="#66a61e" d="M538.12,-186.5C543.04,-186.5 687.4,-215.59 727.18,-222.87"/>
<polygon fill="#66a61e" stroke="#66a61e" points="726.68,-226.33 737.12,-224.5 727.82,-219.42 726.68,-226.33"/>
</g>
<!-- n12 -->
<g id="node2" class="node">
<title>n12</title>
<polygon fill="none" stroke="black" points="2935.33,-68.04 2935.33,-82.96 2916.69,-93.5 2890.34,-93.5 2871.7,-82.96 2871.7,-68.04 2890.34,-57.5 2916.69,-57.5 2935.33,-68.04"/>
<text text-anchor="middle" x="2903.52" y="-71.8" font-family="Times,serif" font-size="14.00">STP</text>
</g>
<!-- n13 -->
<g id="node3" class="node">
<title>n13</title>
<polygon fill="none" stroke="black" points="818.62,-169.04 818.62,-183.96 802.8,-194.5 780.43,-194.5 764.62,-183.96 764.62,-169.04 780.43,-158.5 802.8,-158.5 818.62,-169.04"/>
<text text-anchor="middle" x="791.62" y="-172.8" font-family="Times,serif" font-size="14.00">clk</text>
</g>
<!-- c27 -->
<g id="node11" class="node">
<title>c27</title>
<polygon fill="none" stroke="black" points="2205.16,-18 2205.16,-87 2333.16,-87 2333.16,-18 2205.16,-18"/>
<text text-anchor="middle" x="2228.66" y="-71.8" font-family="Times,serif" font-size="14.00">CLK</text>
<polyline fill="none" stroke="black" points="2205.16,-64 2252.16,-64 "/>
<text text-anchor="middle" x="2228.66" y="-48.8" font-family="Times,serif" font-size="14.00">D</text>
<polyline fill="none" stroke="black" points="2205.16,-41 2252.16,-41 "/>
<text text-anchor="middle" x="2228.66" y="-25.8" font-family="Times,serif" font-size="14.00">EN</text>
<polyline fill="none" stroke="black" points="2252.16,-18 2252.16,-87 "/>
<text text-anchor="middle" x="2278.66" y="-56.3" font-family="Times,serif" font-size="14.00">$27</text>
<text text-anchor="middle" x="2278.66" y="-41.3" font-family="Times,serif" font-size="14.00">$dffe</text>
<polyline fill="none" stroke="black" points="2305.16,-18 2305.16,-87 "/>
<text text-anchor="middle" x="2319.16" y="-48.8" font-family="Times,serif" font-size="14.00">Q</text>
</g>
<!-- n13&#45;&gt;c27 -->
<g id="edge7" class="edge">
<title>n13:e&#45;&gt;c27:w</title>
<path fill="none" stroke="#666666" d="M819.62,-176.5C893.57,-176.5 910.17,-151.5 984.12,-151.5 984.12,-151.5 984.12,-151.5 1740.66,-151.5 1806.81,-151.5 1824.22,-148.5 1888.16,-131.5 1924.77,-121.77 1930.39,-108.6 1967.16,-99.5 2067.03,-74.78 2096.93,-75.43 2195.12,-75.5"/>
<polygon fill="#666666" stroke="#666666" points="2195.16,-79 2205.16,-75.5 2195.16,-72 2195.16,-79"/>
</g>
<!-- c35 -->
<g id="node21" class="node">
<title>c35</title>
<polygon fill="none" stroke="black" points="2209.16,-158.5 2209.16,-204.5 2329.16,-204.5 2329.16,-158.5 2209.16,-158.5"/>
<text text-anchor="middle" x="2232.66" y="-189.3" font-family="Times,serif" font-size="14.00">CLK</text>
<polyline fill="none" stroke="black" points="2209.16,-181.5 2256.16,-181.5 "/>
<text text-anchor="middle" x="2232.66" y="-166.3" font-family="Times,serif" font-size="14.00">D</text>
<polyline fill="none" stroke="black" points="2256.16,-158.5 2256.16,-204.5 "/>
<text text-anchor="middle" x="2278.66" y="-185.3" font-family="Times,serif" font-size="14.00">$24</text>
<text text-anchor="middle" x="2278.66" y="-170.3" font-family="Times,serif" font-size="14.00">$dff</text>
<polyline fill="none" stroke="black" points="2301.16,-158.5 2301.16,-204.5 "/>
<text text-anchor="middle" x="2315.16" y="-177.8" font-family="Times,serif" font-size="14.00">Q</text>
</g>
<!-- n13&#45;&gt;c35 -->
<g id="edge8" class="edge">
<title>n13:e&#45;&gt;c35:w</title>
<path fill="none" stroke="#666666" d="M819.62,-176.5C892.96,-176.5 910.78,-189.5 984.12,-189.5 984.12,-189.5 984.12,-189.5 1674.16,-189.5 1908.02,-189.5 1969.04,-193.38 2197.84,-193.5"/>
<polygon fill="#666666" stroke="#666666" points="2198.16,-197 2208.16,-193.5 2198.16,-190 2198.16,-197"/>
</g>
<!-- c36 -->
<g id="node22" class="node">
<title>c36</title>
<polygon fill="none" stroke="black" points="925.12,-227.5 925.12,-273.5 1045.12,-273.5 1045.12,-227.5 925.12,-227.5"/>
<text text-anchor="middle" x="948.62" y="-258.3" font-family="Times,serif" font-size="14.00">CLK</text>
<polyline fill="none" stroke="black" points="925.12,-250.5 972.12,-250.5 "/>
<text text-anchor="middle" x="948.62" y="-235.3" font-family="Times,serif" font-size="14.00">D</text>
<polyline fill="none" stroke="black" points="972.12,-227.5 972.12,-273.5 "/>
<text text-anchor="middle" x="994.62" y="-254.3" font-family="Times,serif" font-size="14.00">$25</text>
<text text-anchor="middle" x="994.62" y="-239.3" font-family="Times,serif" font-size="14.00">$dff</text>
<polyline fill="none" stroke="black" points="1017.12,-227.5 1017.12,-273.5 "/>
<text text-anchor="middle" x="1031.12" y="-246.8" font-family="Times,serif" font-size="14.00">Q</text>
</g>
<!-- n13&#45;&gt;c36 -->
<g id="edge9" class="edge">
<title>n13:e&#45;&gt;c36:w</title>
<path fill="none" stroke="#666666" d="M819.62,-176.5C831.28,-176.5 898.93,-226.19 907.12,-234.5 914.1,-241.58 913.14,-251.78 916.26,-257.72"/>
<polygon fill="#666666" stroke="#666666" points="914.65,-260.83 925.12,-262.5 917.98,-254.67 914.65,-260.83"/>
</g>
<!-- n14 -->
<g id="node4" class="node">
<title>n14</title>
<polygon fill="none" stroke="black" points="2510.51,-199.5 2412.31,-181.5 2510.51,-163.5 2608.71,-181.5 2510.51,-199.5"/>
<text text-anchor="middle" x="2510.51" y="-177.8" font-family="Times,serif" font-size="14.00">jointCounter</text>
</g>
<!-- c22 -->
<g id="node10" class="node">
<title>c22</title>
<polygon fill="none" stroke="black" points="2687.86,-146.5 2687.86,-192.5 2792.86,-192.5 2792.86,-146.5 2687.86,-146.5"/>
<text text-anchor="middle" x="2701.36" y="-177.3" font-family="Times,serif" font-size="14.00">A</text>
<polyline fill="none" stroke="black" points="2687.86,-169.5 2714.86,-169.5 "/>
<text text-anchor="middle" x="2701.36" y="-154.3" font-family="Times,serif" font-size="14.00">B</text>
<polyline fill="none" stroke="black" points="2714.86,-146.5 2714.86,-192.5 "/>
<text text-anchor="middle" x="2740.86" y="-173.3" font-family="Times,serif" font-size="14.00">$4</text>
<text text-anchor="middle" x="2740.86" y="-158.3" font-family="Times,serif" font-size="14.00">$add</text>
<polyline fill="none" stroke="black" points="2766.86,-146.5 2766.86,-192.5 "/>
<text text-anchor="middle" x="2779.86" y="-165.8" font-family="Times,serif" font-size="14.00">Y</text>
</g>
<!-- n14&#45;&gt;c22 -->
<g id="edge11" class="edge">
<title>n14:e&#45;&gt;c22:w</title>
<path fill="none" stroke="#7570b3" stroke-width="3" d="M2608.86,-181.5C2640.27,-181.5 2650.6,-181.5 2677.57,-181.5"/>
<polygon fill="#7570b3" stroke="#7570b3" stroke-width="3" points="2677.86,-185 2687.86,-181.5 2677.86,-178 2677.86,-185"/>
<text text-anchor="middle" x="2648.36" y="-185.3" font-family="Times,serif" font-size="14.00" fill="#7570b3">&lt;32&gt;</text>
</g>
<!-- c29 -->
<g id="node14" class="node">
<title>c29</title>
<polygon fill="none" stroke="black" points="1488.66,-239.5 1488.66,-285.5 1584.66,-285.5 1584.66,-239.5 1488.66,-239.5"/>
<text text-anchor="middle" x="1502.16" y="-270.3" font-family="Times,serif" font-size="14.00">A</text>
<polyline fill="none" stroke="black" points="1488.66,-262.5 1515.66,-262.5 "/>
<text text-anchor="middle" x="1502.16" y="-247.3" font-family="Times,serif" font-size="14.00">B</text>
<polyline fill="none" stroke="black" points="1515.66,-239.5 1515.66,-285.5 "/>
<text text-anchor="middle" x="1537.16" y="-266.3" font-family="Times,serif" font-size="14.00">$8</text>
<text text-anchor="middle" x="1537.16" y="-251.3" font-family="Times,serif" font-size="14.00">$ge</text>
<polyline fill="none" stroke="black" points="1558.66,-239.5 1558.66,-285.5 "/>
<text text-anchor="middle" x="1571.66" y="-258.8" font-family="Times,serif" font-size="14.00">Y</text>
</g>
<!-- n14&#45;&gt;c29 -->
<g id="edge12" class="edge">
<title>n14:e&#45;&gt;c29:w</title>
<path fill="none" stroke="#7570b3" stroke-width="3" d="M2609.51,-181.5C2617.52,-181.5 2614.11,-193.78 2608.51,-199.5 2577.89,-230.76 2445.15,-185.75 2412.16,-214.5 2383.7,-239.3 2421.45,-271.43 2394.16,-297.5 2353.74,-336.11 2326.05,-318.5 2270.16,-318.5 1672.16,-318.5 1672.16,-318.5 1672.16,-318.5 1589.33,-318.5 1544.57,-347.1 1488.66,-286 1488.33,-285.65 1488.02,-285.26 1487.71,-284.84"/>
<polygon fill="#7570b3" stroke="#7570b3" stroke-width="3" points="1491.21,-284.48 1487.66,-274.5 1484.21,-284.52 1491.21,-284.48"/>
<text text-anchor="middle" x="1927.66" y="-322.3" font-family="Times,serif" font-size="14.00" fill="#7570b3">&lt;32&gt;</text>
</g>
<!-- n15 -->
<g id="node5" class="node">
<title>n15</title>
<polygon fill="none" stroke="black" points="1323.52,-60.04 1323.52,-74.96 1283.17,-85.5 1226.11,-85.5 1185.75,-74.96 1185.75,-60.04 1226.11,-49.5 1283.17,-49.5 1323.52,-60.04"/>
<text text-anchor="middle" x="1254.64" y="-63.8" font-family="Times,serif" font-size="14.00">jointEnable</text>
</g>
<!-- c31 -->
<g id="node17" class="node">
<title>c31</title>
<polygon fill="none" stroke="black" points="1464.16,-58.5 1464.16,-104.5 1609.16,-104.5 1609.16,-58.5 1464.16,-58.5"/>
<text text-anchor="middle" x="1477.66" y="-89.3" font-family="Times,serif" font-size="14.00">A</text>
<polyline fill="none" stroke="black" points="1464.16,-81.5 1491.16,-81.5 "/>
<text text-anchor="middle" x="1477.66" y="-66.3" font-family="Times,serif" font-size="14.00">B</text>
<polyline fill="none" stroke="black" points="1491.16,-58.5 1491.16,-104.5 "/>
<text text-anchor="middle" x="1537.16" y="-85.3" font-family="Times,serif" font-size="14.00">$7</text>
<text text-anchor="middle" x="1537.16" y="-70.3" font-family="Times,serif" font-size="14.00">$logic_and</text>
<polyline fill="none" stroke="black" points="1583.16,-58.5 1583.16,-104.5 "/>
<text text-anchor="middle" x="1596.16" y="-77.8" font-family="Times,serif" font-size="14.00">Y</text>
</g>
<!-- n15&#45;&gt;c31 -->
<g id="edge13" class="edge">
<title>n15:e&#45;&gt;c31:w</title>
<path fill="none" stroke="#1b9e77" d="M1324.64,-67.5C1383.14,-67.5 1400.24,-69.28 1454.05,-69.48"/>
<polygon fill="#1b9e77" stroke="#1b9e77" points="1454.15,-72.98 1464.16,-69.5 1454.16,-65.98 1454.15,-72.98"/>
</g>
<!-- n16 -->
<g id="node6" class="node">
<title>n16</title>
<polygon fill="none" stroke="black" points="163.32,-213.04 163.32,-227.96 115.45,-238.5 47.76,-238.5 -0.11,-227.96 -0.11,-213.04 47.76,-202.5 115.45,-202.5 163.32,-213.04"/>
<text text-anchor="middle" x="81.61" y="-216.8" font-family="Times,serif" font-size="14.00">jointFreqCmd</text>
</g>
<!-- c30 -->
<g id="node16" class="node">
<title>c30</title>
<polygon fill="none" stroke="black" points="242.21,-160.5 242.21,-206.5 336.21,-206.5 336.21,-160.5 242.21,-160.5"/>
<text text-anchor="middle" x="255.71" y="-191.3" font-family="Times,serif" font-size="14.00">A</text>
<polyline fill="none" stroke="black" points="242.21,-183.5 269.21,-183.5 "/>
<text text-anchor="middle" x="255.71" y="-168.3" font-family="Times,serif" font-size="14.00">B</text>
<polyline fill="none" stroke="black" points="269.21,-160.5 269.21,-206.5 "/>
<text text-anchor="middle" x="289.71" y="-187.3" font-family="Times,serif" font-size="14.00">$1</text>
<text text-anchor="middle" x="289.71" y="-172.3" font-family="Times,serif" font-size="14.00">$gt</text>
<polyline fill="none" stroke="black" points="310.21,-160.5 310.21,-206.5 "/>
<text text-anchor="middle" x="323.21" y="-179.8" font-family="Times,serif" font-size="14.00">Y</text>
</g>
<!-- n16&#45;&gt;c30 -->
<g id="edge14" class="edge">
<title>n16:e&#45;&gt;c30:w</title>
<path fill="none" stroke="#666666" stroke-width="3" d="M163.21,-220.5C173.35,-220.5 171.96,-210.63 181.21,-206.5 203.03,-196.76 212.16,-195.64 232.17,-195.52"/>
<polygon fill="#666666" stroke="#666666" stroke-width="3" points="232.22,-199.02 242.21,-195.5 232.2,-192.02 232.22,-199.02"/>
<text text-anchor="middle" x="202.71" y="-210.3" font-family="Times,serif" font-size="14.00" fill="#666666">&lt;32&gt;</text>
</g>
<!-- c32 -->
<g id="node18" class="node">
<title>c32</title>
<polygon fill="none" stroke="black" points="556.12,-106.5 556.12,-144.5 719.12,-144.5 719.12,-106.5 556.12,-106.5"/>
<text text-anchor="middle" x="569.12" y="-121.8" font-family="Times,serif" font-size="14.00">A</text>
<polyline fill="none" stroke="black" points="582.12,-106.5 582.12,-144.5 "/>
<text text-anchor="middle" x="637.62" y="-129.3" font-family="Times,serif" font-size="14.00">$5</text>
<text text-anchor="middle" x="637.62" y="-114.3" font-family="Times,serif" font-size="14.00">$reduce_bool</text>
<polyline fill="none" stroke="black" points="693.12,-106.5 693.12,-144.5 "/>
<text text-anchor="middle" x="706.12" y="-121.8" font-family="Times,serif" font-size="14.00">Y</text>
</g>
<!-- n16&#45;&gt;c32 -->
<g id="edge15" class="edge">
<title>n16:e&#45;&gt;c32:w</title>
<path fill="none" stroke="#666666" stroke-width="3" d="M163.21,-220.5C178.38,-220.5 171.48,-203.14 181.21,-191.5 204.62,-163.49 208.37,-150.19 242.21,-136.5 368.46,-85.43 414.28,-123.54 546.06,-125.43"/>
<polygon fill="#666666" stroke="#666666" stroke-width="3" points="546.09,-128.93 556.12,-125.5 546.14,-121.93 546.09,-128.93"/>
<text text-anchor="middle" x="289.21" y="-140.3" font-family="Times,serif" font-size="14.00" fill="#666666">&lt;32&gt;</text>
</g>
<!-- c33 -->
<g id="node19" class="node">
<title>c33</title>
<polygon fill="none" stroke="black" points="354.21,-259.5 354.21,-297.5 458.21,-297.5 458.21,-259.5 354.21,-259.5"/>
<text text-anchor="middle" x="367.21" y="-274.8" font-family="Times,serif" font-size="14.00">A</text>
<polyline fill="none" stroke="black" points="380.21,-259.5 380.21,-297.5 "/>
<text text-anchor="middle" x="406.21" y="-282.3" font-family="Times,serif" font-size="14.00">$3</text>
<text text-anchor="middle" x="406.21" y="-267.3" font-family="Times,serif" font-size="14.00">$neg</text>
<polyline fill="none" stroke="black" points="432.21,-259.5 432.21,-297.5 "/>
<text text-anchor="middle" x="445.21" y="-274.8" font-family="Times,serif" font-size="14.00">Y</text>
</g>
<!-- n16&#45;&gt;c33 -->
<g id="edge16" class="edge">
<title>n16:e&#45;&gt;c33:w</title>
<path fill="none" stroke="#666666" stroke-width="3" d="M163.21,-220.5C178.38,-220.5 168.61,-241.05 181.21,-249.5 243.05,-290.97 273.46,-279.68 343.98,-278.58"/>
<polygon fill="#666666" stroke="#666666" stroke-width="3" points="344.24,-282.08 354.21,-278.5 344.18,-275.08 344.24,-282.08"/>
<text text-anchor="middle" x="202.71" y="-275.3" font-family="Times,serif" font-size="14.00" fill="#666666">&lt;32&gt;</text>
</g>
<!-- n16&#45;&gt;c38 -->
<g id="edge17" class="edge">
<title>n16:e&#45;&gt;c38:w</title>
<path fill="none" stroke="#666666" stroke-width="3" d="M163.21,-220.5C171.22,-220.5 173.21,-221.09 181.21,-221.5 210.28,-222.99 649.89,-244.72 727.1,-247.26"/>
<polygon fill="#666666" stroke="#666666" stroke-width="3" points="727.04,-250.76 737.12,-247.5 727.21,-243.76 727.04,-250.76"/>
<text text-anchor="middle" x="406.21" y="-238.3" font-family="Times,serif" font-size="14.00" fill="#666666">&lt;32&gt;</text>
</g>
<!-- n17 -->
<g id="node7" class="node">
<title>n17</title>
<polygon fill="none" stroke="black" points="1254.64,-268.5 1124.1,-250.5 1254.64,-232.5 1385.18,-250.5 1254.64,-268.5"/>
<text text-anchor="middle" x="1254.64" y="-246.8" font-family="Times,serif" font-size="14.00">jointFreqCmdAbs</text>
</g>
<!-- n17&#45;&gt;c29 -->
<g id="edge19" class="edge">
<title>n17:e&#45;&gt;c29:w</title>
<path fill="none" stroke="#d95f02" stroke-width="3" d="M1385.16,-250.5C1427.15,-250.5 1440.11,-250.5 1477.57,-250.5"/>
<polygon fill="#d95f02" stroke="#d95f02" stroke-width="3" points="1477.66,-254 1487.66,-250.5 1477.66,-247 1477.66,-254"/>
<text text-anchor="middle" x="1424.66" y="-254.3" font-family="Times,serif" font-size="14.00" fill="#d95f02">&lt;32&gt;</text>
</g>
<!-- n18 -->
<g id="node8" class="node">
<title>n18</title>
<polygon fill="none" stroke="black" points="2510.51,-83.5 2467.11,-65.5 2510.51,-47.5 2553.91,-65.5 2510.51,-83.5"/>
<text text-anchor="middle" x="2510.51" y="-61.8" font-family="Times,serif" font-size="14.00">step</text>
</g>
<!-- c34 -->
<g id="node20" class="node">
<title>c34</title>
<polygon fill="none" stroke="black" points="2689.86,-0.5 2689.86,-38.5 2790.86,-38.5 2790.86,-0.5 2689.86,-0.5"/>
<text text-anchor="middle" x="2702.86" y="-15.8" font-family="Times,serif" font-size="14.00">A</text>
<polyline fill="none" stroke="black" points="2715.86,-0.5 2715.86,-38.5 "/>
<text text-anchor="middle" x="2740.36" y="-23.3" font-family="Times,serif" font-size="14.00">$9</text>
<text text-anchor="middle" x="2740.36" y="-8.3" font-family="Times,serif" font-size="14.00">$not</text>
<polyline fill="none" stroke="black" points="2764.86,-0.5 2764.86,-38.5 "/>
<text text-anchor="middle" x="2777.86" y="-15.8" font-family="Times,serif" font-size="14.00">Y</text>
</g>
<!-- n18&#45;&gt;c34 -->
<g id="edge21" class="edge">
<title>n18:e&#45;&gt;c34:w</title>
<path fill="none" stroke="#e6ab02" d="M2555.51,-65.5C2608.4,-65.5 2622.15,-55.35 2669.86,-32.5 2674.67,-30.19 2676.76,-26.67 2679.16,-23.87"/>
<polygon fill="#e6ab02" stroke="#e6ab02" points="2680.83,-26.95 2688.36,-19.5 2677.82,-20.63 2680.83,-26.95"/>
</g>
<!-- x4 -->
<g id="node27" class="node">
<title>x4</title>
<path fill="none" stroke="black" d="M2755.36,-93.5C2755.36,-93.5 2725.36,-93.5 2725.36,-93.5 2719.36,-93.5 2713.36,-87.5 2713.36,-81.5 2713.36,-81.5 2713.36,-69.5 2713.36,-69.5 2713.36,-63.5 2719.36,-57.5 2725.36,-57.5 2725.36,-57.5 2755.36,-57.5 2755.36,-57.5 2761.36,-57.5 2767.36,-63.5 2767.36,-69.5 2767.36,-69.5 2767.36,-81.5 2767.36,-81.5 2767.36,-87.5 2761.36,-93.5 2755.36,-93.5"/>
<text text-anchor="middle" x="2740.36" y="-71.8" font-family="Times,serif" font-size="14.00">BUF</text>
</g>
<!-- n18&#45;&gt;x4 -->
<g id="edge22" class="edge">
<title>n18:e&#45;&gt;x4:w</title>
<path fill="none" stroke="#e6ab02" d="M2555.51,-65.5C2621.81,-65.5 2640.63,-74.51 2702.11,-75.43"/>
<polygon fill="#e6ab02" stroke="#e6ab02" points="2702.33,-78.93 2712.36,-75.5 2702.38,-71.93 2702.33,-78.93"/>
</g>
<!-- v0 -->
<g id="node9" class="node">
<title>v0</title>
<ellipse fill="none" stroke="black" cx="2510.51" cy="-127.5" rx="27" ry="18"/>
<text text-anchor="middle" x="2510.51" y="-123.8" font-family="Times,serif" font-size="14.00">1</text>
</g>
<!-- v0&#45;&gt;c22 -->
<g id="edge37" class="edge">
<title>v0:e&#45;&gt;c22:w</title>
<path fill="none" stroke="#e7298a" stroke-width="3" d="M2538.51,-127.5C2602.64,-127.5 2618.53,-154.42 2677.58,-157.26"/>
<polygon fill="#e7298a" stroke="#e7298a" stroke-width="3" points="2677.78,-160.76 2687.86,-157.5 2677.94,-153.77 2677.78,-160.76"/>
<text text-anchor="middle" x="2648.36" y="-160.3" font-family="Times,serif" font-size="14.00" fill="#e7298a">&lt;32&gt;</text>
</g>
<!-- n3 -->
<g id="node28" class="node">
<title>n3</title>
<ellipse fill="black" stroke="black" cx="2903.52" cy="-235.5" rx="1.8" ry="1.8"/>
</g>
<!-- c22&#45;&gt;n3 -->
<g id="edge24" class="edge">
<title>c22:e&#45;&gt;n3:w</title>
<path fill="none" stroke="#e6ab02" stroke-width="3" d="M2792.86,-169.5C2824.57,-169.5 2826.84,-189.91 2853.86,-206.5 2871.25,-217.18 2875.11,-230.27 2890.17,-234.28"/>
<polygon fill="#e6ab02" stroke="#e6ab02" stroke-width="3" points="2890.17,-237.8 2900.52,-235.5 2891,-230.85 2890.17,-237.8"/>
<text text-anchor="middle" x="2832.36" y="-210.3" font-family="Times,serif" font-size="14.00" fill="#e6ab02">&lt;32&gt;</text>
</g>
<!-- c27&#45;&gt;n18 -->
<g id="edge20" class="edge">
<title>c27:e&#45;&gt;n18:w</title>
<path fill="none" stroke="#e6ab02" d="M2333.16,-52.5C2388.68,-52.5 2404.53,-63.97 2455.25,-65.36"/>
<polygon fill="#e6ab02" stroke="#e6ab02" points="2455.46,-68.87 2465.51,-65.5 2455.56,-61.87 2455.46,-68.87"/>
</g>
<!-- c28 -->
<g id="node12" class="node">
<title>c28</title>
<polygon fill="none" stroke="black" points="1967.16,-4.5 1967.16,-42.5 2126.16,-42.5 2126.16,-4.5 1967.16,-4.5"/>
<text text-anchor="middle" x="1980.16" y="-19.8" font-family="Times,serif" font-size="14.00">A</text>
<polyline fill="none" stroke="black" points="1993.16,-4.5 1993.16,-42.5 "/>
<text text-anchor="middle" x="2046.66" y="-27.3" font-family="Times,serif" font-size="14.00">$29</text>
<text text-anchor="middle" x="2046.66" y="-12.3" font-family="Times,serif" font-size="14.00">$reduce_and</text>
<polyline fill="none" stroke="black" points="2100.16,-4.5 2100.16,-42.5 "/>
<text text-anchor="middle" x="2113.16" y="-19.8" font-family="Times,serif" font-size="14.00">Y</text>
</g>
<!-- c28&#45;&gt;c27 -->
<g id="edge27" class="edge">
<title>c28:e&#45;&gt;c27:w</title>
<path fill="none" stroke="#666666" d="M2126.16,-23.5C2157.66,-23.5 2167.84,-28.3 2194.84,-29.31"/>
<polygon fill="#666666" stroke="#666666" points="2195.1,-32.82 2205.16,-29.5 2195.22,-25.82 2195.1,-32.82"/>
</g>
<!-- x1 -->
<g id="node13" class="node">
<title>x1</title>
<path fill="none" stroke="#666666" d="M1808.16,-76.5C1808.16,-76.5 1859.16,-76.5 1859.16,-76.5 1865.16,-76.5 1871.16,-82.5 1871.16,-88.5 1871.16,-88.5 1871.16,-110.5 1871.16,-110.5 1871.16,-116.5 1865.16,-122.5 1859.16,-122.5 1859.16,-122.5 1808.16,-122.5 1808.16,-122.5 1802.16,-122.5 1796.16,-116.5 1796.16,-110.5 1796.16,-110.5 1796.16,-88.5 1796.16,-88.5 1796.16,-82.5 1802.16,-76.5 1808.16,-76.5"/>
<text text-anchor="middle" x="1833.66" y="-107.3" font-family="Times,serif" font-size="14.00" fill="#666666">0:0 &#45; 1:1</text>
<polyline fill="none" stroke="#666666" points="1796.16,-99.5 1871.16,-99.5 "/>
<text text-anchor="middle" x="1833.66" y="-84.3" font-family="Times,serif" font-size="14.00" fill="#666666">0:0 &#45; 0:0</text>
</g>
<!-- x1&#45;&gt;c28 -->
<g id="edge1" class="edge">
<title>x1:e&#45;&gt;c28:w</title>
<path fill="none" stroke="#666666" stroke-width="3" d="M1884.64,-98.05C1921.22,-88.49 1918.58,-34.58 1955.12,-24.97"/>
<polygon fill="none" stroke="#666666" stroke-width="3" points="1884.57,-98.06 1879.1,-102.75 1872.66,-99.5 1878.13,-94.81 1884.57,-98.06"/>
<polygon fill="none" stroke="#666666" stroke-width="3" points="1955.25,-24.95 1960.72,-20.25 1967.16,-23.5 1961.69,-28.2 1955.25,-24.95"/>
<text text-anchor="middle" x="1927.66" y="-87.3" font-family="Times,serif" font-size="14.00" fill="#666666">&lt;2&gt;</text>
</g>
<!-- n5 -->
<g id="node29" class="node">
<title>n5</title>
<ellipse fill="black" stroke="black" cx="1673.16" cy="-234.5" rx="1.8" ry="1.8"/>
</g>
<!-- c29&#45;&gt;n5 -->
<g id="edge28" class="edge">
<title>c29:e&#45;&gt;n5:w</title>
<path fill="none" stroke="#66a61e" d="M1585.66,-262.5C1621.51,-262.5 1629.29,-239.5 1659.88,-235.19"/>
<polygon fill="#66a61e" stroke="#66a61e" points="1660.42,-238.66 1670.16,-234.5 1659.95,-231.68 1660.42,-238.66"/>
</g>
<!-- v2 -->
<g id="node15" class="node">
<title>v2</title>
<ellipse fill="none" stroke="black" cx="81.61" cy="-96.5" rx="27" ry="18"/>
<text text-anchor="middle" x="81.61" y="-92.8" font-family="Times,serif" font-size="14.00">0</text>
</g>
<!-- v2&#45;&gt;c30 -->
<g id="edge38" class="edge">
<title>v2:e&#45;&gt;c30:w</title>
<path fill="none" stroke="#e6ab02" stroke-width="3" d="M109.61,-96.5C173.74,-96.5 174.6,-163.8 232.07,-170.9"/>
<polygon fill="#e6ab02" stroke="#e6ab02" stroke-width="3" points="232.02,-174.4 242.21,-171.5 232.44,-167.41 232.02,-174.4"/>
<text text-anchor="middle" x="202.71" y="-172.3" font-family="Times,serif" font-size="14.00" fill="#e6ab02">&lt;32&gt;</text>
</g>
<!-- c30&#45;&gt;n11 -->
<g id="edge4" class="edge">
<title>c30:e&#45;&gt;n11:w</title>
<path fill="none" stroke="#66a61e" d="M336.21,-183.5C394.92,-183.5 412.06,-186.17 466.07,-186.47"/>
<polygon fill="#66a61e" stroke="#66a61e" points="466.2,-189.97 476.21,-186.5 466.22,-182.97 466.2,-189.97"/>
</g>
<!-- n6 -->
<g id="node30" class="node">
<title>n6</title>
<ellipse fill="black" stroke="black" cx="1673.16" cy="-81.5" rx="1.8" ry="1.8"/>
</g>
<!-- c31&#45;&gt;n6 -->
<g id="edge31" class="edge">
<title>c31:e&#45;&gt;n6:w</title>
<path fill="none" stroke="#7570b3" d="M1609.16,-81.5C1632.56,-81.5 1640.81,-81.5 1660.07,-81.5"/>
<polygon fill="#7570b3" stroke="#7570b3" points="1660.16,-85 1670.16,-81.5 1660.16,-78 1660.16,-85"/>
</g>
<!-- c32&#45;&gt;c31 -->
<g id="edge34" class="edge">
<title>c32:e&#45;&gt;c31:w</title>
<path fill="none" stroke="#d95f02" d="M719.12,-125.5C792.87,-125.5 810.87,-113.5 884.62,-113.5 884.62,-113.5 884.62,-113.5 1255.64,-113.5 1345.28,-113.5 1369.3,-94.96 1454.08,-93.58"/>
<polygon fill="#d95f02" stroke="#d95f02" points="1454.19,-97.08 1464.16,-93.5 1454.13,-90.08 1454.19,-97.08"/>
</g>
<!-- c33&#45;&gt;c38 -->
<g id="edge35" class="edge">
<title>c33:e&#45;&gt;c38:w</title>
<path fill="none" stroke="#d95f02" stroke-width="3" d="M458.21,-278.5C578.71,-278.5 611.28,-270.95 726.8,-270.52"/>
<polygon fill="#d95f02" stroke="#d95f02" stroke-width="3" points="727.12,-274.02 737.12,-270.5 727.11,-267.02 727.12,-274.02"/>
<text text-anchor="middle" x="507.16" y="-281.3" font-family="Times,serif" font-size="14.00" fill="#d95f02">&lt;32&gt;</text>
</g>
<!-- c34&#45;&gt;c27 -->
<g id="edge36" class="edge">
<title>c34:e&#45;&gt;c27:w</title>
<path fill="none" stroke="#7570b3" d="M2792.36,-19.5C2801.04,-19.5 2797.65,-33.02 2791.36,-39 2775.01,-54.54 2712.21,-42.02 2689.86,-39 2680.72,-37.77 2678.99,-34.73 2669.86,-33.5 2529.31,-14.53 2463.77,36.71 2351.16,-49.5 2336.32,-60.86 2348.95,-77.51 2333.16,-87.5 2285.09,-117.92 2245.96,-127.15 2205.16,-87.5 2201.58,-84.03 2198.99,-70.64 2199.63,-61.47"/>
<polygon fill="#7570b3" stroke="#7570b3" points="2202.77,-63 2204.16,-52.5 2196.52,-59.84 2202.77,-63"/>
</g>
<!-- c35&#45;&gt;n14 -->
<g id="edge10" class="edge">
<title>c35:e&#45;&gt;n14:w</title>
<path fill="none" stroke="#7570b3" stroke-width="3" d="M2330.16,-181.5C2362.9,-181.5 2373.58,-181.5 2401.84,-181.5"/>
<polygon fill="#7570b3" stroke="#7570b3" stroke-width="3" points="2402.16,-185 2412.16,-181.5 2402.16,-178 2402.16,-185"/>
<text text-anchor="middle" x="2372.66" y="-185.3" font-family="Times,serif" font-size="14.00" fill="#7570b3">&lt;32&gt;</text>
</g>
<!-- c36&#45;&gt;n17 -->
<g id="edge18" class="edge">
<title>c36:e&#45;&gt;n17:w</title>
<path fill="none" stroke="#d95f02" stroke-width="3" d="M1045.12,-250.5C1076.53,-250.5 1086.86,-250.5 1113.83,-250.5"/>
<polygon fill="#d95f02" stroke="#d95f02" stroke-width="3" points="1114.12,-254 1124.12,-250.5 1114.12,-247 1114.12,-254"/>
<text text-anchor="middle" x="1084.62" y="-254.3" font-family="Times,serif" font-size="14.00" fill="#d95f02">&lt;32&gt;</text>
</g>
<!-- c38&#45;&gt;c36 -->
<g id="edge23" class="edge">
<title>c38:e&#45;&gt;c36:w</title>
<path fill="none" stroke="#1b9e77" stroke-width="3" d="M846.12,-247.5C877.73,-247.5 887.72,-240.3 914.77,-238.78"/>
<polygon fill="#1b9e77" stroke="#1b9e77" stroke-width="3" points="915.22,-242.27 925.12,-238.5 915.03,-235.27 915.22,-242.27"/>
<text text-anchor="middle" x="885.62" y="-250.3" font-family="Times,serif" font-size="14.00" fill="#1b9e77">&lt;32&gt;</text>
</g>
<!-- v3 -->
<g id="node24" class="node">
<title>v3</title>
<ellipse fill="none" stroke="black" cx="1673.16" cy="-272.5" rx="27" ry="18"/>
<text text-anchor="middle" x="1673.16" y="-268.8" font-family="Times,serif" font-size="14.00">0</text>
</g>
<!-- c39 -->
<g id="node25" class="node">
<title>c39</title>
<polygon fill="none" stroke="black" points="1779.16,-221 1779.16,-290 1888.16,-290 1888.16,-221 1779.16,-221"/>
<text text-anchor="middle" x="1792.66" y="-274.8" font-family="Times,serif" font-size="14.00">A</text>
<polyline fill="none" stroke="black" points="1779.16,-267 1806.16,-267 "/>
<text text-anchor="middle" x="1792.66" y="-251.8" font-family="Times,serif" font-size="14.00">B</text>
<polyline fill="none" stroke="black" points="1779.16,-244 1806.16,-244 "/>
<text text-anchor="middle" x="1792.66" y="-228.8" font-family="Times,serif" font-size="14.00">S</text>
<polyline fill="none" stroke="black" points="1806.16,-221 1806.16,-290 "/>
<text text-anchor="middle" x="1834.16" y="-259.3" font-family="Times,serif" font-size="14.00">$16</text>
<text text-anchor="middle" x="1834.16" y="-244.3" font-family="Times,serif" font-size="14.00">$mux</text>
<polyline fill="none" stroke="black" points="1862.16,-221 1862.16,-290 "/>
<text text-anchor="middle" x="1875.16" y="-251.8" font-family="Times,serif" font-size="14.00">Y</text>
</g>
<!-- v3&#45;&gt;c39 -->
<g id="edge39" class="edge">
<title>v3:e&#45;&gt;c39:w</title>
<path fill="none" stroke="#e6ab02" stroke-width="3" d="M1700.16,-272.5C1732.43,-272.5 1741.49,-258.78 1769.04,-255.99"/>
<polygon fill="#e6ab02" stroke="#e6ab02" stroke-width="3" points="1769.34,-259.48 1779.16,-255.5 1769,-252.49 1769.34,-259.48"/>
<text text-anchor="middle" x="1739.66" y="-274.3" font-family="Times,serif" font-size="14.00" fill="#e6ab02">&lt;32&gt;</text>
</g>
<!-- c40 -->
<g id="node26" class="node">
<title>c40</title>
<polygon fill="none" stroke="black" points="1992.16,-109 1992.16,-178 2101.16,-178 2101.16,-109 1992.16,-109"/>
<text text-anchor="middle" x="2005.66" y="-162.8" font-family="Times,serif" font-size="14.00">A</text>
<polyline fill="none" stroke="black" points="1992.16,-155 2019.16,-155 "/>
<text text-anchor="middle" x="2005.66" y="-139.8" font-family="Times,serif" font-size="14.00">B</text>
<polyline fill="none" stroke="black" points="1992.16,-132 2019.16,-132 "/>
<text text-anchor="middle" x="2005.66" y="-116.8" font-family="Times,serif" font-size="14.00">S</text>
<polyline fill="none" stroke="black" points="2019.16,-109 2019.16,-178 "/>
<text text-anchor="middle" x="2047.16" y="-147.3" font-family="Times,serif" font-size="14.00">$18</text>
<text text-anchor="middle" x="2047.16" y="-132.3" font-family="Times,serif" font-size="14.00">$mux</text>
<polyline fill="none" stroke="black" points="2075.16,-109 2075.16,-178 "/>
<text text-anchor="middle" x="2088.16" y="-139.8" font-family="Times,serif" font-size="14.00">Y</text>
</g>
<!-- c39&#45;&gt;c40 -->
<g id="edge3" class="edge">
<title>c39:e&#45;&gt;c40:w</title>
<path fill="none" stroke="#e6ab02" stroke-width="3" d="M1888.16,-255.5C1918.6,-255.5 1950.09,-164.31 1980.74,-146.5"/>
<polygon fill="#e6ab02" stroke="#e6ab02" stroke-width="3" points="1982.1,-149.74 1990.66,-143.5 1980.07,-143.04 1982.1,-149.74"/>
<text text-anchor="middle" x="1927.66" y="-249.3" font-family="Times,serif" font-size="14.00" fill="#e6ab02">&lt;32&gt;</text>
</g>
<!-- c40&#45;&gt;c35 -->
<g id="edge2" class="edge">
<title>c40:e&#45;&gt;c35:w</title>
<path fill="none" stroke="#e7298a" stroke-width="3" d="M2102.66,-143.5C2147.37,-143.5 2158.33,-165.78 2198.02,-169.09"/>
<polygon fill="#e7298a" stroke="#e7298a" stroke-width="3" points="2198.03,-172.59 2208.16,-169.5 2198.31,-165.6 2198.03,-172.59"/>
<text text-anchor="middle" x="2165.66" y="-170.3" font-family="Times,serif" font-size="14.00" fill="#e7298a">&lt;32&gt;</text>
</g>
<!-- x4&#45;&gt;n12 -->
<g id="edge6" class="edge">
<title>x4:e&#45;&gt;n12:w</title>
<path fill="none" stroke="#d95f02" d="M2768.36,-75.5C2810.76,-75.5 2823.85,-75.5 2861.68,-75.5"/>
<polygon fill="#d95f02" stroke="#d95f02" points="2861.86,-79 2871.86,-75.5 2861.86,-72 2861.86,-79"/>
</g>
<!-- n3&#45;&gt;c39 -->
<g id="edge25" class="edge">
<title>n3:e&#45;&gt;c39:w</title>
<path fill="none" stroke="#e6ab02" stroke-width="3" d="M2906.52,-235.5C2944.44,-235.5 2779.28,-278.5 2741.36,-278.5 2045.66,-278.5 2045.66,-278.5 2045.66,-278.5 1975.46,-278.5 1958.31,-287.83 1888.16,-290.5 1863.84,-291.42 1796.56,-306.98 1778.66,-290.5 1778.04,-289.93 1777.46,-289.25 1776.95,-288.5"/>
<polygon fill="#e6ab02" stroke="#e6ab02" stroke-width="3" points="1780.44,-288.72 1777.66,-278.5 1773.46,-288.23 1780.44,-288.72"/>
<text text-anchor="middle" x="2372.66" y="-282.3" font-family="Times,serif" font-size="14.00" fill="#e6ab02">&lt;32&gt;</text>
</g>
<!-- n3&#45;&gt;c40 -->
<g id="edge26" class="edge">
<title>n3:e&#45;&gt;c40:w</title>
<path fill="none" stroke="#e6ab02" stroke-width="3" d="M2906.52,-235.5C2907.43,-235.5 2906.3,-236.84 2905.52,-237.3 2904.06,-238.16 2903.4,-237.31 2901.72,-237.3 2830.44,-236.9 2812.63,-235.5 2741.36,-235.5 2268.16,-235.5 2268.16,-235.5 2268.16,-235.5 2142.69,-235.5 2074.89,-272.39 1991.66,-178.5 1991.21,-178 1990.78,-177.44 1990.38,-176.83"/>
<polygon fill="#e6ab02" stroke="#e6ab02" stroke-width="3" points="1993.88,-176.59 1990.66,-166.5 1986.89,-176.4 1993.88,-176.59"/>
<text text-anchor="middle" x="2510.51" y="-239.3" font-family="Times,serif" font-size="14.00" fill="#e6ab02">&lt;32&gt;</text>
</g>
<!-- n5&#45;&gt;x1 -->
<g id="edge30" class="edge">
<title>n5:e&#45;&gt;x1:w</title>
<path fill="none" stroke="#66a61e" d="M1676.16,-234.5C1748.51,-234.5 1721.63,-122.76 1784.68,-112.29"/>
<polygon fill="#66a61e" stroke="#66a61e" points="1784.96,-115.77 1794.66,-111.5 1784.41,-108.8 1784.96,-115.77"/>
</g>
<!-- n5&#45;&gt;c39 -->
<g id="edge29" class="edge">
<title>n5:e&#45;&gt;c39:w</title>
<path fill="none" stroke="#66a61e" d="M1676.16,-234.5C1718.37,-234.5 1731.38,-232.8 1769.02,-232.53"/>
<polygon fill="#66a61e" stroke="#66a61e" points="1769.17,-236.03 1779.16,-232.5 1769.15,-229.03 1769.17,-236.03"/>
</g>
<!-- n6&#45;&gt;x1 -->
<g id="edge33" class="edge">
<title>n6:e&#45;&gt;x1:w</title>
<path fill="none" stroke="#7570b3" d="M1676.16,-81.5C1725.39,-81.5 1740.02,-86.73 1784.65,-87.42"/>
<polygon fill="#7570b3" stroke="#7570b3" points="1784.63,-90.92 1794.66,-87.5 1784.69,-83.92 1784.63,-90.92"/>
</g>
<!-- n6&#45;&gt;c40 -->
<g id="edge32" class="edge">
<title>n6:e&#45;&gt;c40:w</title>
<path fill="none" stroke="#7570b3" d="M1676.16,-81.5C1770.62,-81.5 1796.46,-43.82 1888.16,-66.5 1934.63,-77.99 1938.78,-114.79 1980.51,-119.91"/>
<polygon fill="#7570b3" stroke="#7570b3" points="1980.47,-123.41 1990.66,-120.5 1980.88,-116.42 1980.47,-123.41"/>
</g>
</g>
</svg>
