<?xml version="1.0" encoding="UTF-8" standalone="no"?>
<!DOCTYPE svg PUBLIC "-//W3C//DTD SVG 1.1//EN"
 "http://www.w3.org/Graphics/SVG/1.1/DTD/svg11.dtd">
<!-- Generated by graphviz version 2.43.0 (0)
 -->
<!-- Title: din_toggle Pages: 1 -->
<svg width="1393pt" height="229pt"
 viewBox="0.00 0.00 1392.62 229.18" xmlns="http://www.w3.org/2000/svg" xmlns:xlink="http://www.w3.org/1999/xlink">
<g id="graph0" class="graph" transform="scale(1 1) rotate(0) translate(4 225.18)">
<title>din_toggle</title>
<polygon fill="white" stroke="transparent" points="-4,4 -4,-225.18 1388.62,-225.18 1388.62,4 -4,4"/>
<!-- n2 -->
<g id="node1" class="node">
<title>n2</title>
<polygon fill="none" stroke="black" points="54,-160.54 54,-175.46 38.18,-186 15.82,-186 0,-175.46 0,-160.54 15.82,-150 38.18,-150 54,-160.54"/>
<text text-anchor="middle" x="27" y="-164.3" font-family="Times,serif" font-size="14.00">clk</text>
</g>
<!-- c11 -->
<g id="node6" class="node">
<title>c11</title>
<polygon fill="none" stroke="black" points="974.84,-126.5 974.84,-195.5 1102.84,-195.5 1102.84,-126.5 974.84,-126.5"/>
<text text-anchor="middle" x="998.34" y="-180.3" font-family="Times,serif" font-size="14.00">CLK</text>
<polyline fill="none" stroke="black" points="974.84,-172.5 1021.84,-172.5 "/>
<text text-anchor="middle" x="998.34" y="-157.3" font-family="Times,serif" font-size="14.00">D</text>
<polyline fill="none" stroke="black" points="974.84,-149.5 1021.84,-149.5 "/>
<text text-anchor="middle" x="998.34" y="-134.3" font-family="Times,serif" font-size="14.00">EN</text>
<polyline fill="none" stroke="black" points="1021.84,-126.5 1021.84,-195.5 "/>
<text text-anchor="middle" x="1048.34" y="-164.8" font-family="Times,serif" font-size="14.00">$10</text>
<text text-anchor="middle" x="1048.34" y="-149.8" font-family="Times,serif" font-size="14.00">$dffe</text>
<polyline fill="none" stroke="black" points="1074.84,-126.5 1074.84,-195.5 "/>
<text text-anchor="middle" x="1088.84" y="-157.3" font-family="Times,serif" font-size="14.00">Q</text>
</g>
<!-- n2&#45;&gt;c11 -->
<g id="edge4" class="edge">
<title>n2:e&#45;&gt;c11:w</title>
<path fill="none" stroke="#66a61e" d="M54,-168C97.33,-168 106.67,-185 150,-185 150,-185 150,-185 826.7,-185 889.07,-185 907.12,-184.1 964.82,-184.01"/>
<polygon fill="#66a61e" stroke="#66a61e" points="964.84,-187.51 974.84,-184 964.83,-180.51 964.84,-187.51"/>
</g>
<!-- c17 -->
<g id="node11" class="node">
<title>c17</title>
<polygon fill="none" stroke="black" points="91,-108 91,-154 211,-154 211,-108 91,-108"/>
<text text-anchor="middle" x="114.5" y="-138.8" font-family="Times,serif" font-size="14.00">CLK</text>
<polyline fill="none" stroke="black" points="91,-131 138,-131 "/>
<text text-anchor="middle" x="114.5" y="-115.8" font-family="Times,serif" font-size="14.00">D</text>
<polyline fill="none" stroke="black" points="138,-108 138,-154 "/>
<text text-anchor="middle" x="160.5" y="-134.8" font-family="Times,serif" font-size="14.00">$9</text>
<text text-anchor="middle" x="160.5" y="-119.8" font-family="Times,serif" font-size="14.00">$dff</text>
<polyline fill="none" stroke="black" points="183,-108 183,-154 "/>
<text text-anchor="middle" x="197" y="-127.3" font-family="Times,serif" font-size="14.00">Q</text>
</g>
<!-- n2&#45;&gt;c17 -->
<g id="edge5" class="edge">
<title>n2:e&#45;&gt;c17:w</title>
<path fill="none" stroke="#66a61e" d="M54,-168C69.82,-168 71.32,-152.12 81.32,-145.68"/>
<polygon fill="#66a61e" stroke="#66a61e" points="82.29,-149.04 91,-143 80.43,-142.29 82.29,-149.04"/>
</g>
<!-- n3 -->
<g id="node2" class="node">
<title>n3</title>
<polygon fill="none" stroke="black" points="350.65,-16.54 350.65,-31.46 334.62,-42 311.94,-42 295.91,-31.46 295.91,-16.54 311.94,-6 334.62,-6 350.65,-16.54"/>
<text text-anchor="middle" x="323.28" y="-20.3" font-family="Times,serif" font-size="14.00">din</text>
</g>
<!-- x2 -->
<g id="node12" class="node">
<title>x2</title>
<path fill="none" stroke="#666666" d="M447.56,-55C447.56,-55 498.56,-55 498.56,-55 504.56,-55 510.56,-61 510.56,-67 510.56,-67 510.56,-89 510.56,-89 510.56,-95 504.56,-101 498.56,-101 498.56,-101 447.56,-101 447.56,-101 441.56,-101 435.56,-95 435.56,-89 435.56,-89 435.56,-67 435.56,-67 435.56,-61 441.56,-55 447.56,-55"/>
<text text-anchor="middle" x="473.06" y="-85.8" font-family="Times,serif" font-size="14.00" fill="#666666">1:0 &#45; 2:1</text>
<polyline fill="none" stroke="#666666" points="435.56,-78 510.56,-78 "/>
<text text-anchor="middle" x="473.06" y="-62.8" font-family="Times,serif" font-size="14.00" fill="#666666">0:0 &#45; 0:0</text>
</g>
<!-- n3&#45;&gt;x2 -->
<g id="edge6" class="edge">
<title>n3:e&#45;&gt;x2:w</title>
<path fill="none" stroke="#d95f02" d="M351.28,-24C389.37,-24 393.27,-58.79 425.22,-65.04"/>
<polygon fill="#d95f02" stroke="#d95f02" points="425.28,-68.56 435.56,-66 425.93,-61.59 425.28,-68.56"/>
</g>
<!-- n4 -->
<g id="node3" class="node">
<title>n4</title>
<polygon fill="none" stroke="black" points="825.7,-151 713.43,-133 825.7,-115 937.97,-133 825.7,-151"/>
<text text-anchor="middle" x="825.7" y="-129.3" font-family="Times,serif" font-size="14.00">din_risingedge</text>
</g>
<!-- n4&#45;&gt;c11 -->
<g id="edge8" class="edge">
<title>n4:e&#45;&gt;c11:w</title>
<path fill="none" stroke="#666666" d="M937.84,-133C950.41,-133 955.65,-135.87 964.67,-137.26"/>
<polygon fill="#666666" stroke="#666666" points="964.61,-140.77 974.84,-138 965.12,-133.79 964.61,-140.77"/>
</g>
<!-- n5 -->
<g id="node4" class="node">
<title>n5</title>
<polygon fill="none" stroke="black" points="323.28,-149 281.22,-131 323.28,-113 365.34,-131 323.28,-149"/>
<text text-anchor="middle" x="323.28" y="-127.3" font-family="Times,serif" font-size="14.00">dinr</text>
</g>
<!-- x0 -->
<g id="node9" class="node">
<title>x0</title>
<path fill="none" stroke="#666666" d="M447.56,-120C447.56,-120 498.56,-120 498.56,-120 504.56,-120 510.56,-126 510.56,-132 510.56,-132 510.56,-144 510.56,-144 510.56,-150 504.56,-156 498.56,-156 498.56,-156 447.56,-156 447.56,-156 441.56,-156 435.56,-150 435.56,-144 435.56,-144 435.56,-132 435.56,-132 435.56,-126 441.56,-120 447.56,-120"/>
<text text-anchor="middle" x="473.06" y="-134.3" font-family="Times,serif" font-size="14.00" fill="#666666">2:1 &#45; 1:0</text>
</g>
<!-- n5&#45;&gt;x0 -->
<g id="edge10" class="edge">
<title>n5:e&#45;&gt;x0:w</title>
<path fill="none" stroke="#7570b3" stroke-width="3" d="M365.56,-131C393.16,-131 402.22,-136.46 425.47,-137.73"/>
<polygon fill="#7570b3" stroke="#7570b3" stroke-width="3" points="425.47,-141.24 435.56,-138 425.66,-134.24 425.47,-141.24"/>
<text text-anchor="middle" x="400.56" y="-140.8" font-family="Times,serif" font-size="14.00" fill="#7570b3">&lt;2&gt;</text>
</g>
<!-- n5&#45;&gt;x2 -->
<g id="edge11" class="edge">
<title>n5:e&#45;&gt;x2:w</title>
<path fill="none" stroke="#7570b3" stroke-width="3" d="M365.56,-131C376.57,-131 374.45,-120.16 383.56,-114 401.52,-101.86 408.14,-92.99 425.43,-90.63"/>
<polygon fill="#7570b3" stroke="#7570b3" stroke-width="3" points="425.8,-94.11 435.56,-90 425.37,-87.12 425.8,-94.11"/>
<text text-anchor="middle" x="400.56" y="-117.8" font-family="Times,serif" font-size="14.00" fill="#7570b3">&lt;2&gt;</text>
</g>
<!-- n6 -->
<g id="node5" class="node">
<title>n6</title>
<polygon fill="none" stroke="black" points="1239.68,-181.54 1239.68,-196.46 1210.45,-207 1169.12,-207 1139.89,-196.46 1139.89,-181.54 1169.12,-171 1210.45,-171 1239.68,-181.54"/>
<text text-anchor="middle" x="1189.78" y="-185.3" font-family="Times,serif" font-size="14.00">toggled</text>
</g>
<!-- c16 -->
<g id="node10" class="node">
<title>c16</title>
<polygon fill="none" stroke="black" points="1276.73,-136 1276.73,-174 1377.73,-174 1377.73,-136 1276.73,-136"/>
<text text-anchor="middle" x="1289.73" y="-151.3" font-family="Times,serif" font-size="14.00">A</text>
<polyline fill="none" stroke="black" points="1302.73,-136 1302.73,-174 "/>
<text text-anchor="middle" x="1327.23" y="-158.8" font-family="Times,serif" font-size="14.00">$4</text>
<text text-anchor="middle" x="1327.23" y="-143.8" font-family="Times,serif" font-size="14.00">$not</text>
<polyline fill="none" stroke="black" points="1351.73,-136 1351.73,-174 "/>
<text text-anchor="middle" x="1364.73" y="-151.3" font-family="Times,serif" font-size="14.00">Y</text>
</g>
<!-- n6&#45;&gt;c16 -->
<g id="edge13" class="edge">
<title>n6:e&#45;&gt;c16:w</title>
<path fill="none" stroke="#1b9e77" d="M1239.73,-189C1257.88,-189 1256.22,-166.55 1266.94,-158.14"/>
<polygon fill="#1b9e77" stroke="#1b9e77" points="1268.28,-161.38 1276.73,-155 1266.14,-154.72 1268.28,-161.38"/>
</g>
<!-- c11&#45;&gt;n6 -->
<g id="edge12" class="edge">
<title>c11:e&#45;&gt;n6:w</title>
<path fill="none" stroke="#1b9e77" d="M1102.84,-161C1119.43,-161 1119.92,-179.13 1130.23,-186.21"/>
<polygon fill="#1b9e77" stroke="#1b9e77" points="1129.26,-189.58 1139.84,-189 1131.21,-182.85 1129.26,-189.58"/>
</g>
<!-- v1 -->
<g id="node7" class="node">
<title>v1</title>
<ellipse fill="none" stroke="black" cx="473.06" cy="-18" rx="30.59" ry="18"/>
<text text-anchor="middle" x="473.06" y="-14.3" font-family="Times,serif" font-size="14.00">2&#39;01</text>
</g>
<!-- c15 -->
<g id="node8" class="node">
<title>c15</title>
<polygon fill="none" stroke="black" points="580.56,-103 580.56,-149 676.56,-149 676.56,-103 580.56,-103"/>
<text text-anchor="middle" x="594.06" y="-133.8" font-family="Times,serif" font-size="14.00">A</text>
<polyline fill="none" stroke="black" points="580.56,-126 607.56,-126 "/>
<text text-anchor="middle" x="594.06" y="-110.8" font-family="Times,serif" font-size="14.00">B</text>
<polyline fill="none" stroke="black" points="607.56,-103 607.56,-149 "/>
<text text-anchor="middle" x="629.06" y="-129.8" font-family="Times,serif" font-size="14.00">$2</text>
<text text-anchor="middle" x="629.06" y="-114.8" font-family="Times,serif" font-size="14.00">$eq</text>
<polyline fill="none" stroke="black" points="650.56,-103 650.56,-149 "/>
<text text-anchor="middle" x="663.56" y="-122.3" font-family="Times,serif" font-size="14.00">Y</text>
</g>
<!-- v1&#45;&gt;c15 -->
<g id="edge14" class="edge">
<title>v1:e&#45;&gt;c15:w</title>
<path fill="none" stroke="#666666" stroke-width="3" d="M505.06,-18C555.63,-18 530.39,-101.32 570.6,-112.72"/>
<polygon fill="#666666" stroke="#666666" stroke-width="3" points="570.2,-116.19 580.56,-114 571.09,-109.25 570.2,-116.19"/>
<text text-anchor="middle" x="545.56" y="-112.8" font-family="Times,serif" font-size="14.00" fill="#666666">&lt;2&gt;</text>
</g>
<!-- c15&#45;&gt;n4 -->
<g id="edge7" class="edge">
<title>c15:e&#45;&gt;n4:w</title>
<path fill="none" stroke="#666666" d="M676.56,-126C689.25,-126 694.34,-130.02 703.35,-131.97"/>
<polygon fill="#666666" stroke="#666666" points="703.26,-135.48 713.56,-133 703.97,-128.51 703.26,-135.48"/>
</g>
<!-- x0&#45;&gt;c15 -->
<g id="edge1" class="edge">
<title>x0:e&#45;&gt;c15:w</title>
<path fill="none" stroke="#666666" stroke-width="3" d="M522.73,-138C540.77,-138 550.4,-138 568.46,-138"/>
<polygon fill="none" stroke="#666666" stroke-width="3" points="522.56,-138 516.56,-142 510.56,-138 516.56,-134 522.56,-138"/>
<polygon fill="none" stroke="#666666" stroke-width="3" points="568.56,-138 574.56,-134 580.56,-138 574.56,-142 568.56,-138"/>
<text text-anchor="middle" x="545.56" y="-141.8" font-family="Times,serif" font-size="14.00" fill="#666666">&lt;2&gt;</text>
</g>
<!-- c16&#45;&gt;c11 -->
<g id="edge3" class="edge">
<title>c16:e&#45;&gt;c11:w</title>
<path fill="none" stroke="#e6ab02" d="M1379.23,-155C1387.91,-155 1384.52,-168.52 1378.23,-174.5 1345.53,-205.57 1320.75,-184.37 1276.73,-174.5 1268.1,-172.56 1267.12,-168.82 1258.73,-166 1250.55,-163.25 1248.32,-162.89 1239.73,-162 1195.57,-157.4 1183.36,-153.21 1139.84,-162 1130.86,-163.81 1127.95,-164.23 1120.84,-170 1109.93,-178.86 1115.29,-189.48 1102.84,-196 1052.45,-222.4 1015.63,-235.65 974.84,-196 971.26,-192.53 968.66,-179.14 969.3,-169.97"/>
<polygon fill="#e6ab02" stroke="#e6ab02" points="972.45,-171.5 973.84,-161 966.2,-168.34 972.45,-171.5"/>
</g>
<!-- c17&#45;&gt;n5 -->
<g id="edge9" class="edge">
<title>c17:e&#45;&gt;n5:w</title>
<path fill="none" stroke="#7570b3" stroke-width="3" d="M211,-131C238.47,-131 247.75,-131 270.95,-131"/>
<polygon fill="#7570b3" stroke="#7570b3" stroke-width="3" points="271,-134.5 281,-131 271,-127.5 271,-134.5"/>
<text text-anchor="middle" x="246" y="-134.8" font-family="Times,serif" font-size="14.00" fill="#7570b3">&lt;3&gt;</text>
</g>
<!-- x2&#45;&gt;c17 -->
<g id="edge2" class="edge">
<title>x2:e&#45;&gt;c17:w</title>
<path fill="none" stroke="#e7298a" stroke-width="3" d="M518.08,-88.46C517.15,-93.09 514.48,-98.22 511.06,-101.5 498.95,-113.11 451.85,-105.53 435.56,-101.5 426.78,-99.33 426.28,-94.43 417.56,-92 359.08,-75.71 341.64,-86.05 281,-89 200.06,-92.93 154.86,-51.22 98.09,-110.02"/>
<polygon fill="none" stroke="#e7298a" stroke-width="3" points="518.05,-88.4 511.59,-85.2 512.06,-78 518.52,-81.2 518.05,-88.4"/>
<polygon fill="none" stroke="#e7298a" stroke-width="3" points="98.03,-110.09 96.99,-117.22 90,-119 91.05,-111.87 98.03,-110.09"/>
<text text-anchor="middle" x="323.28" y="-92.8" font-family="Times,serif" font-size="14.00" fill="#e7298a">&lt;3&gt;</text>
</g>
</g>
</svg>
